G04 #@! TF.GenerationSoftware,KiCad,Pcbnew,5.0.2-bee76a0~70~ubuntu18.04.1*
G04 #@! TF.CreationDate,2019-10-25T22:44:05+08:00*
G04 #@! TF.ProjectId,TuneShroom,54756e65-5368-4726-9f6f-6d2e6b696361,rev?*
G04 #@! TF.SameCoordinates,Original*
G04 #@! TF.FileFunction,Profile,NP*
%FSLAX46Y46*%
G04 Gerber Fmt 4.6, Leading zero omitted, Abs format (unit mm)*
G04 Created by KiCad (PCBNEW 5.0.2-bee76a0~70~ubuntu18.04.1) date Fri 25 Oct 2019 22:44:05 HKT*
%MOMM*%
%LPD*%
G01*
G04 APERTURE LIST*
G04 #@! TA.AperFunction,NonConductor*
%ADD10C,0.100000*%
G04 #@! TD*
G04 APERTURE END LIST*
D10*
G04 #@! TO.C,*
X104061363Y-43850585D02*
X104061337Y-43850450D01*
X104061363Y-43850585D02*
X104061363Y-43850585D01*
X104654368Y-43846430D02*
X104061363Y-43850585D01*
X105249985Y-43848070D02*
X104654368Y-43846430D01*
X105847795Y-43855951D02*
X105249985Y-43848070D01*
X106447370Y-43870517D02*
X105847795Y-43855951D01*
X107048284Y-43892211D02*
X106447370Y-43870517D01*
X107650111Y-43921479D02*
X107048284Y-43892211D01*
X108252429Y-43958764D02*
X107650111Y-43921479D01*
X108854811Y-44004510D02*
X108252429Y-43958764D01*
X109456834Y-44059163D02*
X108854811Y-44004510D01*
X110058070Y-44123167D02*
X109456834Y-44059163D01*
X110658095Y-44196964D02*
X110058070Y-44123167D01*
X111256484Y-44281001D02*
X110658095Y-44196964D01*
X111852813Y-44375722D02*
X111256484Y-44281001D01*
X112446657Y-44481570D02*
X111852813Y-44375722D01*
X113037588Y-44598989D02*
X112446657Y-44481570D01*
X113625183Y-44728425D02*
X113037588Y-44598989D01*
X114209017Y-44870322D02*
X113625183Y-44728425D01*
X114788664Y-45025123D02*
X114209017Y-44870322D01*
X115363701Y-45193274D02*
X114788664Y-45025123D01*
X115933699Y-45375217D02*
X115363701Y-45193274D01*
X116498237Y-45571399D02*
X115933699Y-45375217D01*
X116778325Y-45674968D02*
X116498237Y-45571399D01*
X117056889Y-45782263D02*
X116778325Y-45674968D01*
X117333874Y-45893339D02*
X117056889Y-45782263D01*
X117609228Y-46008253D02*
X117333874Y-45893339D01*
X117882897Y-46127059D02*
X117609228Y-46008253D01*
X118154831Y-46249813D02*
X117882897Y-46127059D01*
X118424973Y-46376571D02*
X118154831Y-46249813D01*
X118693271Y-46507389D02*
X118424973Y-46376571D01*
X118959672Y-46642321D02*
X118693271Y-46507389D01*
X119224123Y-46781424D02*
X118959672Y-46642321D01*
X119486571Y-46924752D02*
X119224123Y-46781424D01*
X119746964Y-47072362D02*
X119486571Y-46924752D01*
X120005247Y-47224309D02*
X119746964Y-47072362D01*
X120261366Y-47380649D02*
X120005247Y-47224309D01*
X120515274Y-47541436D02*
X120261366Y-47380649D01*
X120766908Y-47706727D02*
X120515274Y-47541436D01*
X121016223Y-47876577D02*
X120766908Y-47706727D01*
X121263164Y-48051042D02*
X121016223Y-47876577D01*
X121507673Y-48230177D02*
X121263164Y-48051042D01*
X121749703Y-48414038D02*
X121507673Y-48230177D01*
X121989199Y-48602680D02*
X121749703Y-48414038D01*
X122226107Y-48796158D02*
X121989199Y-48602680D01*
X122445232Y-48984281D02*
X122226107Y-48796158D01*
X122661158Y-49175102D02*
X122445232Y-48984281D01*
X123083769Y-49564552D02*
X122661158Y-49175102D01*
X123494620Y-49963936D02*
X123083769Y-49564552D01*
X123894389Y-50372680D02*
X123494620Y-49963936D01*
X124283761Y-50790213D02*
X123894389Y-50372680D01*
X124663417Y-51215960D02*
X124283761Y-50790213D01*
X125034037Y-51649349D02*
X124663417Y-51215960D01*
X125396304Y-52089807D02*
X125034037Y-51649349D01*
X125750902Y-52536761D02*
X125396304Y-52089807D01*
X126098509Y-52989638D02*
X125750902Y-52536761D01*
X126439808Y-53447864D02*
X126098509Y-52989638D01*
X126775479Y-53910868D02*
X126439808Y-53447864D01*
X127106206Y-54378076D02*
X126775479Y-53910868D01*
X127432667Y-54848915D02*
X127106206Y-54378076D01*
X127755549Y-55322812D02*
X127432667Y-54848915D01*
X128075528Y-55799194D02*
X127755549Y-55322812D01*
X128709512Y-56757121D02*
X128075528Y-55799194D01*
X129340075Y-57718114D02*
X128709512Y-56757121D01*
X129972665Y-58677588D02*
X129340075Y-57718114D01*
X130612737Y-59630959D02*
X129972665Y-58677588D01*
X130937283Y-60103923D02*
X130612737Y-59630959D01*
X131265744Y-60573644D02*
X130937283Y-60103923D01*
X131598802Y-61039546D02*
X131265744Y-60573644D01*
X131937140Y-61501058D02*
X131598802Y-61039546D01*
X132281435Y-61957607D02*
X131937140Y-61501058D01*
X132632373Y-62408619D02*
X132281435Y-61957607D01*
X132990635Y-62853522D02*
X132632373Y-62408619D01*
X133356900Y-63291743D02*
X132990635Y-62853522D01*
X133664608Y-63582399D02*
X133356900Y-63291743D01*
X133977332Y-63866757D02*
X133664608Y-63582399D01*
X134294779Y-64145187D02*
X133977332Y-63866757D01*
X134616655Y-64418064D02*
X134294779Y-64145187D01*
X134942664Y-64685761D02*
X134616655Y-64418064D01*
X135272510Y-64948650D02*
X134942664Y-64685761D01*
X135605898Y-65207105D02*
X135272510Y-64948650D01*
X135942533Y-65461499D02*
X135605898Y-65207105D01*
X136282117Y-65712205D02*
X135942533Y-65461499D01*
X136624361Y-65959595D02*
X136282117Y-65712205D01*
X137315630Y-66445925D02*
X136624361Y-65959595D01*
X138013979Y-66923472D02*
X137315630Y-66445925D01*
X138717046Y-67395221D02*
X138013979Y-66923472D01*
X140127878Y-68333265D02*
X138717046Y-67395221D01*
X140830921Y-68805530D02*
X140127878Y-68333265D01*
X141529228Y-69283937D02*
X140830921Y-68805530D01*
X142220441Y-69771469D02*
X141529228Y-69283937D01*
X142562648Y-70019590D02*
X142220441Y-69771469D01*
X142902196Y-70271114D02*
X142562648Y-70019590D01*
X143238788Y-70526410D02*
X142902196Y-70271114D01*
X143572129Y-70785853D02*
X143238788Y-70526410D01*
X143901924Y-71049817D02*
X143572129Y-70785853D01*
X144227877Y-71318673D02*
X143901924Y-71049817D01*
X144565049Y-71592935D02*
X144227877Y-71318673D01*
X144892101Y-71878333D02*
X144565049Y-71592935D01*
X145208841Y-72174463D02*
X144892101Y-71878333D01*
X145515073Y-72480919D02*
X145208841Y-72174463D01*
X145810599Y-72797297D02*
X145515073Y-72480919D01*
X146095227Y-73123195D02*
X145810599Y-72797297D01*
X146368759Y-73458208D02*
X146095227Y-73123195D01*
X146631003Y-73801931D02*
X146368759Y-73458208D01*
X146881762Y-74153956D02*
X146631003Y-73801931D01*
X147120840Y-74513882D02*
X146881762Y-74153956D01*
X147348043Y-74881304D02*
X147120840Y-74513882D01*
X147563175Y-75255819D02*
X147348043Y-74881304D01*
X147766039Y-75637017D02*
X147563175Y-75255819D01*
X147956447Y-76024499D02*
X147766039Y-75637017D01*
X148134194Y-76417861D02*
X147956447Y-76024499D01*
X148299093Y-76816694D02*
X148134194Y-76417861D01*
X148450942Y-77220596D02*
X148299093Y-76816694D01*
X148589552Y-77629163D02*
X148450942Y-77220596D01*
X148714721Y-78041990D02*
X148589552Y-77629163D01*
X148826262Y-78458669D02*
X148714721Y-78041990D01*
X148923972Y-78878801D02*
X148826262Y-78458669D01*
X149007660Y-79301980D02*
X148923972Y-78878801D01*
X149077129Y-79727798D02*
X149007660Y-79301980D01*
X149132186Y-80155857D02*
X149077129Y-79727798D01*
X149172633Y-80585744D02*
X149132186Y-80155857D01*
X149198271Y-81017062D02*
X149172633Y-80585744D01*
X149208907Y-81449402D02*
X149198271Y-81017062D01*
X149204357Y-81882364D02*
X149208907Y-81449402D01*
X149184407Y-82315537D02*
X149204357Y-81882364D01*
X149148881Y-82748522D02*
X149184407Y-82315537D01*
X149125228Y-82964816D02*
X149148881Y-82748522D01*
X149097592Y-83180912D02*
X149125228Y-82964816D01*
X149065961Y-83396757D02*
X149097592Y-83180912D01*
X149030311Y-83612302D02*
X149065961Y-83396757D01*
X148974860Y-84116720D02*
X149030311Y-83612302D01*
X148905174Y-84618184D02*
X148974860Y-84116720D01*
X148821486Y-85116493D02*
X148905174Y-84618184D01*
X148724021Y-85611443D02*
X148821486Y-85116493D01*
X148613010Y-86102836D02*
X148724021Y-85611443D01*
X148488685Y-86590465D02*
X148613010Y-86102836D01*
X148351274Y-87074132D02*
X148488685Y-86590465D01*
X148201006Y-87553631D02*
X148351274Y-87074132D01*
X148038113Y-88028764D02*
X148201006Y-87553631D01*
X147862821Y-88499326D02*
X148038113Y-88028764D01*
X147675364Y-88965114D02*
X147862821Y-88499326D01*
X147475969Y-89425925D02*
X147675364Y-88965114D01*
X147264865Y-89881564D02*
X147475969Y-89425925D01*
X147042282Y-90331822D02*
X147264865Y-89881564D01*
X146808454Y-90776499D02*
X147042282Y-90331822D01*
X146563606Y-91215390D02*
X146808454Y-90776499D01*
X146307968Y-91648298D02*
X146563606Y-91215390D01*
X146041771Y-92075018D02*
X146307968Y-91648298D01*
X145765244Y-92495349D02*
X146041771Y-92075018D01*
X145478616Y-92909086D02*
X145765244Y-92495349D01*
X145182118Y-93316031D02*
X145478616Y-92909086D01*
X144875980Y-93715977D02*
X145182118Y-93316031D01*
X144560432Y-94108725D02*
X144875980Y-93715977D01*
X144235701Y-94494075D02*
X144560432Y-94108725D01*
X143902019Y-94871820D02*
X144235701Y-94494075D01*
X143559614Y-95241758D02*
X143902019Y-94871820D01*
X143208718Y-95603692D02*
X143559614Y-95241758D01*
X142849560Y-95957416D02*
X143208718Y-95603692D01*
X142482366Y-96302729D02*
X142849560Y-95957416D01*
X142107372Y-96639427D02*
X142482366Y-96302729D01*
X141724803Y-96967310D02*
X142107372Y-96639427D01*
X141334889Y-97286175D02*
X141724803Y-96967310D01*
X140989608Y-97559122D02*
X141334889Y-97286175D01*
X140641011Y-97826266D02*
X140989608Y-97559122D01*
X140289168Y-98087661D02*
X140641011Y-97826266D01*
X139934140Y-98343368D02*
X140289168Y-98087661D01*
X139575989Y-98593447D02*
X139934140Y-98343368D01*
X139214780Y-98837956D02*
X139575989Y-98593447D01*
X138850573Y-99076952D02*
X139214780Y-98837956D01*
X138483437Y-99310494D02*
X138850573Y-99076952D01*
X138113431Y-99538644D02*
X138483437Y-99310494D01*
X137740620Y-99761458D02*
X138113431Y-99538644D01*
X137365065Y-99978996D02*
X137740620Y-99761458D01*
X136986832Y-100191313D02*
X137365065Y-99978996D01*
X136605986Y-100398474D02*
X136986832Y-100191313D01*
X136222586Y-100600534D02*
X136605986Y-100398474D01*
X135836697Y-100797553D02*
X136222586Y-100600534D01*
X135448381Y-100989588D02*
X135836697Y-100797553D01*
X135057705Y-101176698D02*
X135448381Y-100989588D01*
X134664730Y-101358943D02*
X135057705Y-101176698D01*
X134269519Y-101536383D02*
X134664730Y-101358943D01*
X133872134Y-101709074D02*
X134269519Y-101536383D01*
X133472642Y-101877077D02*
X133872134Y-101709074D01*
X133071105Y-102040449D02*
X133472642Y-101877077D01*
X132667586Y-102199252D02*
X133071105Y-102040449D01*
X132262147Y-102353538D02*
X132667586Y-102199252D01*
X131854852Y-102503372D02*
X132262147Y-102353538D01*
X131445767Y-102648811D02*
X131854852Y-102503372D01*
X131034951Y-102789913D02*
X131445767Y-102648811D01*
X130622471Y-102926740D02*
X131034951Y-102789913D01*
X130208387Y-103059344D02*
X130622471Y-102926740D01*
X129792764Y-103187791D02*
X130208387Y-103059344D01*
X129375667Y-103312134D02*
X129792764Y-103187791D01*
X128957157Y-103432435D02*
X129375667Y-103312134D01*
X128537298Y-103548754D02*
X128957157Y-103432435D01*
X128116155Y-103661146D02*
X128537298Y-103548754D01*
X127693787Y-103769673D02*
X128116155Y-103661146D01*
X127270264Y-103874393D02*
X127693787Y-103769673D01*
X126419988Y-104072642D02*
X127270264Y-103874393D01*
X125565839Y-104256366D02*
X126419988Y-104072642D01*
X124708319Y-104426036D02*
X125565839Y-104256366D01*
X123847939Y-104582121D02*
X124708319Y-104426036D01*
X122985202Y-104725091D02*
X123847939Y-104582121D01*
X122120615Y-104855415D02*
X122985202Y-104725091D01*
X121254686Y-104973567D02*
X122120615Y-104855415D01*
X120387922Y-105080011D02*
X121254686Y-104973567D01*
X119520827Y-105175222D02*
X120387922Y-105080011D01*
X118653912Y-105259669D02*
X119520827Y-105175222D01*
X117787679Y-105333824D02*
X118653912Y-105259669D01*
X116922637Y-105398152D02*
X117787679Y-105333824D01*
X116059291Y-105453127D02*
X116922637Y-105398152D01*
X115198152Y-105499217D02*
X116059291Y-105453127D01*
X115647597Y-106788900D02*
X115198152Y-105499217D01*
X116103262Y-108077180D02*
X115647597Y-106788900D01*
X116556411Y-109366560D02*
X116103262Y-108077180D01*
X116779312Y-110012443D02*
X116556411Y-109366560D01*
X116998313Y-110659537D02*
X116779312Y-110012443D01*
X117212319Y-111308155D02*
X116998313Y-110659537D01*
X117420239Y-111958609D02*
X117212319Y-111308155D01*
X117620984Y-112611212D02*
X117420239Y-111958609D01*
X117813457Y-113266275D02*
X117620984Y-112611212D01*
X117996573Y-113924111D02*
X117813457Y-113266275D01*
X118169235Y-114585033D02*
X117996573Y-113924111D01*
X118330355Y-115249354D02*
X118169235Y-114585033D01*
X118478842Y-115917384D02*
X118330355Y-115249354D01*
X118597246Y-116486294D02*
X118478842Y-115917384D01*
X118712154Y-117058183D02*
X118597246Y-116486294D01*
X118823089Y-117632824D02*
X118712154Y-117058183D01*
X118929573Y-118209980D02*
X118823089Y-117632824D01*
X119031125Y-118789428D02*
X118929573Y-118209980D01*
X119127270Y-119370938D02*
X119031125Y-118789428D01*
X119217530Y-119954275D02*
X119127270Y-119370938D01*
X119301426Y-120539216D02*
X119217530Y-119954275D01*
X119378481Y-121125527D02*
X119301426Y-120539216D01*
X119448217Y-121712979D02*
X119378481Y-121125527D01*
X119510156Y-122301343D02*
X119448217Y-121712979D01*
X119563816Y-122890388D02*
X119510156Y-122301343D01*
X119608727Y-123479888D02*
X119563816Y-122890388D01*
X119644406Y-124069609D02*
X119608727Y-123479888D01*
X119670388Y-124659323D02*
X119644406Y-124069609D01*
X119686157Y-125248802D02*
X119670388Y-124659323D01*
X119691263Y-125837815D02*
X119686157Y-125248802D01*
X119685231Y-126426129D02*
X119691263Y-125837815D01*
X119667583Y-127013520D02*
X119685231Y-126426129D01*
X119637836Y-127599754D02*
X119667583Y-127013520D01*
X119595513Y-128184605D02*
X119637836Y-127599754D01*
X119540133Y-128767839D02*
X119595513Y-128184605D01*
X119471223Y-129349230D02*
X119540133Y-128767839D01*
X119388302Y-129928545D02*
X119471223Y-129349230D01*
X119290891Y-130505559D02*
X119388302Y-129928545D01*
X119178514Y-131080038D02*
X119290891Y-130505559D01*
X119116562Y-131366257D02*
X119178514Y-131080038D01*
X119050691Y-131651755D02*
X119116562Y-131366257D01*
X118980839Y-131936505D02*
X119050691Y-131651755D01*
X118906946Y-132220477D02*
X118980839Y-131936505D01*
X118828955Y-132503645D02*
X118906946Y-132220477D01*
X118746802Y-132785979D02*
X118828955Y-132503645D01*
X118660431Y-133067448D02*
X118746802Y-132785979D01*
X118569779Y-133348028D02*
X118660431Y-133067448D01*
X118474789Y-133627685D02*
X118569779Y-133348028D01*
X118375398Y-133906394D02*
X118474789Y-133627685D01*
X118271549Y-134184125D02*
X118375398Y-133906394D01*
X118163184Y-134460850D02*
X118271549Y-134184125D01*
X118100943Y-134614462D02*
X118163184Y-134460850D01*
X118035435Y-134765399D02*
X118100943Y-134614462D01*
X117966717Y-134913687D02*
X118035435Y-134765399D01*
X117894848Y-135059348D02*
X117966717Y-134913687D01*
X117741901Y-135342878D02*
X117894848Y-135059348D01*
X117577063Y-135616166D02*
X117741901Y-135342878D01*
X117400811Y-135879392D02*
X117577063Y-135616166D01*
X117213613Y-136132736D02*
X117400811Y-135879392D01*
X117015948Y-136376372D02*
X117213613Y-136132736D01*
X116808287Y-136610484D02*
X117015948Y-136376372D01*
X116591104Y-136835250D02*
X116808287Y-136610484D01*
X116364872Y-137050848D02*
X116591104Y-136835250D01*
X116130062Y-137257456D02*
X116364872Y-137050848D01*
X115887153Y-137455256D02*
X116130062Y-137257456D01*
X115636614Y-137644422D02*
X115887153Y-137455256D01*
X115378920Y-137825138D02*
X115636614Y-137644422D01*
X115114543Y-137997580D02*
X115378920Y-137825138D01*
X114843959Y-138161929D02*
X115114543Y-137997580D01*
X114567639Y-138318361D02*
X114843959Y-138161929D01*
X114286059Y-138467057D02*
X114567639Y-138318361D01*
X113999687Y-138608196D02*
X114286059Y-138467057D01*
X113709003Y-138741956D02*
X113999687Y-138608196D01*
X113414479Y-138868517D02*
X113709003Y-138741956D01*
X113116585Y-138988058D02*
X113414479Y-138868517D01*
X112815796Y-139100755D02*
X113116585Y-138988058D01*
X112512586Y-139206792D02*
X112815796Y-139100755D01*
X112207426Y-139306342D02*
X112512586Y-139206792D01*
X111900795Y-139399589D02*
X112207426Y-139306342D01*
X111593161Y-139486711D02*
X111900795Y-139399589D01*
X111285001Y-139567885D02*
X111593161Y-139486711D01*
X110976786Y-139643289D02*
X111285001Y-139567885D01*
X110668990Y-139713104D02*
X110976786Y-139643289D01*
X110362087Y-139777512D02*
X110668990Y-139713104D01*
X110056549Y-139836686D02*
X110362087Y-139777512D01*
X109395606Y-139914891D02*
X110056549Y-139836686D01*
X108733100Y-139983048D02*
X109395606Y-139914891D01*
X108069226Y-140041304D02*
X108733100Y-139983048D01*
X107404194Y-140089810D02*
X108069226Y-140041304D01*
X106738206Y-140128712D02*
X107404194Y-140089810D01*
X106071461Y-140158157D02*
X106738206Y-140128712D01*
X105404166Y-140178292D02*
X106071461Y-140158157D01*
X104736527Y-140189272D02*
X105404166Y-140178292D01*
X104068742Y-140191124D02*
X104736527Y-140189272D01*
X103401016Y-140184245D02*
X104068742Y-140191124D01*
X102733554Y-140168635D02*
X103401016Y-140184245D01*
X102066558Y-140144478D02*
X102733554Y-140168635D01*
X101400232Y-140111905D02*
X102066558Y-140144478D01*
X100734778Y-140071067D02*
X101400232Y-140111905D01*
X100070401Y-140022111D02*
X100734778Y-140071067D01*
X99407305Y-139965189D02*
X100070401Y-140022111D01*
X98206740Y-139742904D02*
X99407305Y-139965189D01*
X97596687Y-139625805D02*
X98206740Y-139742904D01*
X96983915Y-139500593D02*
X97596687Y-139625805D01*
X96371262Y-139364164D02*
X96983915Y-139500593D01*
X96065869Y-139290768D02*
X96371262Y-139364164D01*
X95761572Y-139213404D02*
X96065869Y-139290768D01*
X95458727Y-139131682D02*
X95761572Y-139213404D01*
X95157690Y-139045211D02*
X95458727Y-139131682D01*
X94858814Y-138953607D02*
X95157690Y-139045211D01*
X94562454Y-138856476D02*
X94858814Y-138953607D01*
X94268967Y-138753437D02*
X94562454Y-138856476D01*
X93978709Y-138644095D02*
X94268967Y-138753437D01*
X93692033Y-138528065D02*
X93978709Y-138644095D01*
X93409296Y-138404957D02*
X93692033Y-138528065D01*
X93130854Y-138274382D02*
X93409296Y-138404957D01*
X92857061Y-138135955D02*
X93130854Y-138274382D01*
X92588271Y-137989286D02*
X92857061Y-138135955D01*
X92324841Y-137833983D02*
X92588271Y-137989286D01*
X92067129Y-137669664D02*
X92324841Y-137833983D01*
X91815483Y-137495938D02*
X92067129Y-137669664D01*
X91570268Y-137312413D02*
X91815483Y-137495938D01*
X91331830Y-137118706D02*
X91570268Y-137312413D01*
X91100529Y-136914426D02*
X91331830Y-137118706D01*
X90876721Y-136699185D02*
X91100529Y-136914426D01*
X90660760Y-136472593D02*
X90876721Y-136699185D01*
X90453001Y-136234265D02*
X90660760Y-136472593D01*
X90325099Y-136003379D02*
X90453001Y-136234265D01*
X90202938Y-135769913D02*
X90325099Y-136003379D01*
X90086368Y-135533976D02*
X90202938Y-135769913D01*
X89975246Y-135295676D02*
X90086368Y-135533976D01*
X89869425Y-135055120D02*
X89975246Y-135295676D01*
X89768765Y-134812418D02*
X89869425Y-135055120D01*
X89673115Y-134567675D02*
X89768765Y-134812418D01*
X89582334Y-134321002D02*
X89673115Y-134567675D01*
X89496273Y-134072505D02*
X89582334Y-134321002D01*
X89414787Y-133822294D02*
X89496273Y-134072505D01*
X89337735Y-133570477D02*
X89414787Y-133822294D01*
X89264966Y-133317159D02*
X89337735Y-133570477D01*
X89196339Y-133062456D02*
X89264966Y-133317159D01*
X89131706Y-132806466D02*
X89196339Y-133062456D01*
X89013845Y-132291079D02*
X89131706Y-132806466D01*
X88910224Y-131771858D02*
X89013845Y-132291079D01*
X88819678Y-131249673D02*
X88910224Y-131771858D01*
X88741046Y-130725388D02*
X88819678Y-131249673D01*
X88673165Y-130199870D02*
X88741046Y-130725388D01*
X88614872Y-129673982D02*
X88673165Y-130199870D01*
X88565006Y-129148591D02*
X88614872Y-129673982D01*
X88522405Y-128624560D02*
X88565006Y-129148591D01*
X88485909Y-128102756D02*
X88522405Y-128624560D01*
X88452640Y-127667580D02*
X88485909Y-128102756D01*
X88430071Y-127233055D02*
X88452640Y-127667580D01*
X88417980Y-126799242D02*
X88430071Y-127233055D01*
X88416127Y-126366206D02*
X88417980Y-126799242D01*
X88424303Y-125934006D02*
X88416127Y-126366206D01*
X88442242Y-125502709D02*
X88424303Y-125934006D01*
X88469743Y-125072375D02*
X88442242Y-125502709D01*
X88506567Y-124643067D02*
X88469743Y-125072375D01*
X88552488Y-124214845D02*
X88506567Y-124643067D01*
X88607273Y-123787775D02*
X88552488Y-124214845D01*
X88670694Y-123361920D02*
X88607273Y-123787775D01*
X88742520Y-122937338D02*
X88670694Y-123361920D01*
X88822522Y-122514095D02*
X88742520Y-122937338D01*
X88910470Y-122092254D02*
X88822522Y-122514095D01*
X89006135Y-121671873D02*
X88910470Y-122092254D01*
X89109286Y-121253019D02*
X89006135Y-121671873D01*
X89219693Y-120835753D02*
X89109286Y-121253019D01*
X89337131Y-120420138D02*
X89219693Y-120835753D01*
X89461367Y-120006234D02*
X89337131Y-120420138D01*
X89592169Y-119594106D02*
X89461367Y-120006234D01*
X89729310Y-119183816D02*
X89592169Y-119594106D01*
X89872561Y-118775427D02*
X89729310Y-119183816D01*
X90021691Y-118369000D02*
X89872561Y-118775427D01*
X90176469Y-117964598D02*
X90021691Y-118369000D01*
X90336669Y-117562286D02*
X90176469Y-117964598D01*
X90502057Y-117162122D02*
X90336669Y-117562286D01*
X90672407Y-116764170D02*
X90502057Y-117162122D01*
X90847490Y-116368494D02*
X90672407Y-116764170D01*
X91027070Y-115975156D02*
X90847490Y-116368494D01*
X91210924Y-115584218D02*
X91027070Y-115975156D01*
X91398820Y-115195741D02*
X91210924Y-115584218D01*
X91590527Y-114809791D02*
X91398820Y-115195741D01*
X91725438Y-114501739D02*
X91590527Y-114809791D01*
X91864635Y-114194476D02*
X91725438Y-114501739D01*
X92153756Y-113581817D02*
X91864635Y-114194476D01*
X92453651Y-112970810D02*
X92153756Y-113581817D01*
X92760075Y-112360456D02*
X92453651Y-112970810D01*
X93375546Y-111137681D02*
X92760075Y-112360456D01*
X93676108Y-110523255D02*
X93375546Y-111137681D01*
X93966231Y-109905469D02*
X93676108Y-110523255D01*
X94106053Y-109594999D02*
X93966231Y-109905469D01*
X94241676Y-109283314D02*
X94106053Y-109594999D01*
X94372568Y-108970286D02*
X94241676Y-109283314D01*
X94498197Y-108655789D02*
X94372568Y-108970286D01*
X94618037Y-108339699D02*
X94498197Y-108655789D01*
X94731557Y-108021892D02*
X94618037Y-108339699D01*
X94838224Y-107702239D02*
X94731557Y-108021892D01*
X94937511Y-107380616D02*
X94838224Y-107702239D01*
X95028885Y-107056901D02*
X94937511Y-107380616D01*
X95111816Y-106730964D02*
X95028885Y-107056901D01*
X95185775Y-106402682D02*
X95111816Y-106730964D01*
X95250233Y-106071926D02*
X95185775Y-106402682D01*
X95304658Y-105738575D02*
X95250233Y-106071926D01*
X95348518Y-105402504D02*
X95304658Y-105738575D01*
X95381286Y-105063583D02*
X95348518Y-105402504D01*
X95402426Y-104721692D02*
X95381286Y-105063583D01*
X94384596Y-104632220D02*
X95402426Y-104721692D01*
X93366812Y-104554075D02*
X94384596Y-104632220D01*
X92349000Y-104484871D02*
X93366812Y-104554075D01*
X91331092Y-104422212D02*
X92349000Y-104484871D01*
X89294695Y-104306984D02*
X91331092Y-104422212D01*
X87257046Y-104189273D02*
X89294695Y-104306984D01*
X85987065Y-104089729D02*
X87257046Y-104189273D01*
X84710032Y-103984954D02*
X85987065Y-104089729D01*
X83428401Y-103870413D02*
X84710032Y-103984954D01*
X82786628Y-103808059D02*
X83428401Y-103870413D01*
X82144627Y-103741564D02*
X82786628Y-103808059D01*
X81502703Y-103670356D02*
X82144627Y-103741564D01*
X80861165Y-103593871D02*
X81502703Y-103670356D01*
X80220320Y-103511538D02*
X80861165Y-103593871D01*
X79580473Y-103422794D02*
X80220320Y-103511538D01*
X78941933Y-103327067D02*
X79580473Y-103422794D01*
X78305006Y-103223793D02*
X78941933Y-103327067D01*
X77669999Y-103112406D02*
X78305006Y-103223793D01*
X77037218Y-102992335D02*
X77669999Y-103112406D01*
X76406971Y-102863015D02*
X77037218Y-102992335D01*
X75779565Y-102723878D02*
X76406971Y-102863015D01*
X75155306Y-102574357D02*
X75779565Y-102723878D01*
X74534502Y-102413885D02*
X75155306Y-102574357D01*
X73917460Y-102241892D02*
X74534502Y-102413885D01*
X73304485Y-102057816D02*
X73917460Y-102241892D01*
X72695887Y-101861083D02*
X73304485Y-102057816D01*
X72091970Y-101651133D02*
X72695887Y-101861083D01*
X71493043Y-101427394D02*
X72091970Y-101651133D01*
X70899411Y-101189298D02*
X71493043Y-101427394D01*
X70604677Y-101064690D02*
X70899411Y-101189298D01*
X70311383Y-100936279D02*
X70604677Y-101064690D01*
X70019566Y-100803998D02*
X70311383Y-100936279D01*
X69729265Y-100667772D02*
X70019566Y-100803998D01*
X69440518Y-100527532D02*
X69729265Y-100667772D01*
X69153363Y-100383208D02*
X69440518Y-100527532D01*
X68867840Y-100234726D02*
X69153363Y-100383208D01*
X68583986Y-100082019D02*
X68867840Y-100234726D01*
X68301839Y-99925013D02*
X68583986Y-100082019D01*
X68021439Y-99763638D02*
X68301839Y-99925013D01*
X67742823Y-99597824D02*
X68021439Y-99763638D01*
X67466030Y-99427498D02*
X67742823Y-99597824D01*
X67253405Y-99292738D02*
X67466030Y-99427498D01*
X67043508Y-99154570D02*
X67253405Y-99292738D01*
X66836351Y-99013050D02*
X67043508Y-99154570D01*
X66631947Y-98868225D02*
X66836351Y-99013050D01*
X66430309Y-98720150D02*
X66631947Y-98868225D01*
X66231449Y-98568875D02*
X66430309Y-98720150D01*
X66035380Y-98414454D02*
X66231449Y-98568875D01*
X65842116Y-98256934D02*
X66035380Y-98414454D01*
X65651667Y-98096371D02*
X65842116Y-98256934D01*
X65464048Y-97932814D02*
X65651667Y-98096371D01*
X65279270Y-97766317D02*
X65464048Y-97932814D01*
X65097347Y-97596928D02*
X65279270Y-97766317D01*
X64918292Y-97424703D02*
X65097347Y-97596928D01*
X64742116Y-97249689D02*
X64918292Y-97424703D01*
X64398454Y-96891512D02*
X64742116Y-97249689D01*
X64066465Y-96522807D02*
X64398454Y-96891512D01*
X63746249Y-96143990D02*
X64066465Y-96522807D01*
X63437907Y-95755473D02*
X63746249Y-96143990D01*
X63141541Y-95357667D02*
X63437907Y-95755473D01*
X62857254Y-94950989D02*
X63141541Y-95357667D01*
X62585145Y-94535847D02*
X62857254Y-94950989D01*
X62325317Y-94112659D02*
X62585145Y-94535847D01*
X62077871Y-93681836D02*
X62325317Y-94112659D01*
X61842909Y-93243791D02*
X62077871Y-93681836D01*
X61620532Y-92798934D02*
X61842909Y-93243791D01*
X61410841Y-92347685D02*
X61620532Y-92798934D01*
X61213939Y-91890450D02*
X61410841Y-92347685D01*
X61029926Y-91427649D02*
X61213939Y-91890450D01*
X60858904Y-90959689D02*
X61029926Y-91427649D01*
X60700974Y-90486984D02*
X60858904Y-90959689D01*
X60556239Y-90009951D02*
X60700974Y-90486984D01*
X60424799Y-89528997D02*
X60556239Y-90009951D01*
X60306756Y-89044542D02*
X60424799Y-89528997D01*
X60202211Y-88556991D02*
X60306756Y-89044542D01*
X60111267Y-88066766D02*
X60202211Y-88556991D01*
X60034023Y-87574273D02*
X60111267Y-88066766D01*
X59970583Y-87079929D02*
X60034023Y-87574273D01*
X59921047Y-86584144D02*
X59970583Y-87079929D01*
X59885517Y-86087334D02*
X59921047Y-86584144D01*
X59849253Y-85449235D02*
X59885517Y-86087334D01*
X59817866Y-84806295D02*
X59849253Y-85449235D01*
X59794181Y-84159889D02*
X59817866Y-84806295D01*
X59781020Y-83511379D02*
X59794181Y-84159889D01*
X59781206Y-82862140D02*
X59781020Y-83511379D01*
X59787185Y-82537673D02*
X59781206Y-82862140D01*
X59797559Y-82213537D02*
X59787185Y-82537673D01*
X59812683Y-81889902D02*
X59797559Y-82213537D01*
X59832908Y-81566941D02*
X59812683Y-81889902D01*
X59858586Y-81244824D02*
X59832908Y-81566941D01*
X59890071Y-80923720D02*
X59858586Y-81244824D01*
X59927716Y-80603804D02*
X59890071Y-80923720D01*
X59971874Y-80285246D02*
X59927716Y-80603804D01*
X60022897Y-79968214D02*
X59971874Y-80285246D01*
X60081139Y-79652884D02*
X60022897Y-79968214D01*
X60146951Y-79339424D02*
X60081139Y-79652884D01*
X60220688Y-79028007D02*
X60146951Y-79339424D01*
X60302702Y-78718802D02*
X60220688Y-79028007D01*
X60393347Y-78411980D02*
X60302702Y-78718802D01*
X60492973Y-78107715D02*
X60393347Y-78411980D01*
X60601936Y-77806177D02*
X60492973Y-78107715D01*
X60720586Y-77507537D02*
X60601936Y-77806177D01*
X60849279Y-77211965D02*
X60720586Y-77507537D01*
X60988365Y-76919632D02*
X60849279Y-77211965D01*
X61138199Y-76630710D02*
X60988365Y-76919632D01*
X61299133Y-76345373D02*
X61138199Y-76630710D01*
X61471519Y-76063787D02*
X61299133Y-76345373D01*
X61606058Y-75849522D02*
X61471519Y-76063787D01*
X61743987Y-75638679D02*
X61606058Y-75849522D01*
X61885228Y-75431179D02*
X61743987Y-75638679D01*
X62029701Y-75226945D02*
X61885228Y-75431179D01*
X62177327Y-75025896D02*
X62029701Y-75226945D01*
X62328026Y-74827958D02*
X62177327Y-75025896D01*
X62481719Y-74633048D02*
X62328026Y-74827958D01*
X62638328Y-74441092D02*
X62481719Y-74633048D01*
X62959974Y-74065723D02*
X62638328Y-74441092D01*
X63292329Y-73701222D02*
X62959974Y-74065723D01*
X63634758Y-73346964D02*
X63292329Y-73701222D01*
X63986629Y-73002323D02*
X63634758Y-73346964D01*
X64347306Y-72666672D02*
X63986629Y-73002323D01*
X64716156Y-72339385D02*
X64347306Y-72666672D01*
X65092544Y-72019838D02*
X64716156Y-72339385D01*
X65475836Y-71707402D02*
X65092544Y-72019838D01*
X65865399Y-71401451D02*
X65475836Y-71707402D01*
X66260598Y-71101360D02*
X65865399Y-71401451D01*
X66660798Y-70806503D02*
X66260598Y-71101360D01*
X67065367Y-70516255D02*
X66660798Y-70806503D01*
X67473669Y-70229987D02*
X67065367Y-70516255D01*
X67885070Y-69947071D02*
X67473669Y-70229987D01*
X68714635Y-69388802D02*
X67885070Y-69947071D01*
X70383056Y-68284972D02*
X68714635Y-69388802D01*
X71211767Y-67729391D02*
X70383056Y-68284972D01*
X71622528Y-67448492D02*
X71211767Y-67729391D01*
X72030047Y-67164686D02*
X71622528Y-67448492D01*
X72433690Y-66877346D02*
X72030047Y-67164686D01*
X72832823Y-66585848D02*
X72433690Y-66877346D01*
X73226811Y-66289563D02*
X72832823Y-66585848D01*
X73615021Y-65987867D02*
X73226811Y-66289563D01*
X73887028Y-65793831D02*
X73615021Y-65987867D01*
X74155319Y-65596229D02*
X73887028Y-65793831D01*
X74419992Y-65395155D02*
X74155319Y-65596229D01*
X74681149Y-65190704D02*
X74419992Y-65395155D01*
X74938887Y-64982970D02*
X74681149Y-65190704D01*
X75193308Y-64772048D02*
X74938887Y-64982970D01*
X75444509Y-64558032D02*
X75193308Y-64772048D01*
X75692592Y-64341017D02*
X75444509Y-64558032D01*
X75937654Y-64121097D02*
X75692592Y-64341017D01*
X76179797Y-63898367D02*
X75937654Y-64121097D01*
X76655720Y-63444853D02*
X76179797Y-63898367D01*
X77121157Y-62981232D02*
X76655720Y-63444853D01*
X77576904Y-62508258D02*
X77121157Y-62981232D01*
X78023758Y-62026689D02*
X77576904Y-62508258D01*
X78462513Y-61537279D02*
X78023758Y-62026689D01*
X78893968Y-61040785D02*
X78462513Y-61537279D01*
X79318917Y-60537962D02*
X78893968Y-61040785D01*
X79738157Y-60029567D02*
X79318917Y-60537962D01*
X80152484Y-59516354D02*
X79738157Y-60029567D01*
X80562696Y-58999080D02*
X80152484Y-59516354D01*
X80969586Y-58478501D02*
X80562696Y-58999080D01*
X81776591Y-57430449D02*
X80969586Y-58478501D01*
X82579872Y-56378246D02*
X81776591Y-57430449D01*
X83385795Y-55327937D02*
X82579872Y-56378246D01*
X83791737Y-54805382D02*
X83385795Y-55327937D01*
X84200730Y-54285569D02*
X83791737Y-54805382D01*
X84613568Y-53769252D02*
X84200730Y-54285569D01*
X85031048Y-53257188D02*
X84613568Y-53769252D01*
X85453966Y-52750133D02*
X85031048Y-53257188D01*
X85883120Y-52248842D02*
X85453966Y-52750133D01*
X86319302Y-51754070D02*
X85883120Y-52248842D01*
X86763312Y-51266575D02*
X86319302Y-51754070D01*
X87215946Y-50787112D02*
X86763312Y-51266575D01*
X87677998Y-50316436D02*
X87215946Y-50787112D01*
X87873941Y-50107349D02*
X87677998Y-50316436D01*
X88072849Y-49901774D02*
X87873941Y-50107349D01*
X88274673Y-49699706D02*
X88072849Y-49901774D01*
X88479363Y-49501140D02*
X88274673Y-49699706D01*
X88686862Y-49306075D02*
X88479363Y-49501140D01*
X88897124Y-49114505D02*
X88686862Y-49306075D01*
X89110095Y-48926426D02*
X88897124Y-49114505D01*
X89325725Y-48741835D02*
X89110095Y-48926426D01*
X89543964Y-48560728D02*
X89325725Y-48741835D01*
X89764756Y-48383101D02*
X89543964Y-48560728D01*
X89988054Y-48208949D02*
X89764756Y-48383101D01*
X90213807Y-48038270D02*
X89988054Y-48208949D01*
X90441960Y-47871059D02*
X90213807Y-48038270D01*
X90672465Y-47707312D02*
X90441960Y-47871059D01*
X90905269Y-47547025D02*
X90672465Y-47707312D01*
X91140320Y-47390195D02*
X90905269Y-47547025D01*
X91377569Y-47236817D02*
X91140320Y-47390195D01*
X91616964Y-47086887D02*
X91377569Y-47236817D01*
X91858452Y-46940403D02*
X91616964Y-47086887D01*
X92101985Y-46797359D02*
X91858452Y-46940403D01*
X92594972Y-46521578D02*
X92101985Y-46797359D01*
X93095516Y-46259513D02*
X92594972Y-46521578D01*
X93603210Y-46011133D02*
X93095516Y-46259513D01*
X94117636Y-45776406D02*
X93603210Y-46011133D01*
X94638387Y-45555302D02*
X94117636Y-45776406D01*
X95165056Y-45347789D02*
X94638387Y-45555302D01*
X95697228Y-45153835D02*
X95165056Y-45347789D01*
X96234493Y-44973411D02*
X95697228Y-45153835D01*
X96776445Y-44806483D02*
X96234493Y-44973411D01*
X97322669Y-44653021D02*
X96776445Y-44806483D01*
X97872756Y-44512995D02*
X97322669Y-44653021D01*
X98426296Y-44386371D02*
X97872756Y-44512995D01*
X98982879Y-44273120D02*
X98426296Y-44386371D01*
X99542095Y-44173210D02*
X98982879Y-44273120D01*
X100103532Y-44086609D02*
X99542095Y-44173210D01*
X100666780Y-44013287D02*
X100103532Y-44086609D01*
X101231433Y-43953212D02*
X100666780Y-44013287D01*
X101797072Y-43906353D02*
X101231433Y-43953212D01*
X102363294Y-43872679D02*
X101797072Y-43906353D01*
X102929685Y-43852157D02*
X102363294Y-43872679D01*
X103495837Y-43844758D02*
X102929685Y-43852157D01*
X104061337Y-43850450D02*
X103495837Y-43844758D01*
G04 #@! TD*
M02*
