G04 #@! TF.GenerationSoftware,KiCad,Pcbnew,5.0.2-bee76a0~70~ubuntu18.04.1*
G04 #@! TF.CreationDate,2019-10-25T22:44:05+08:00*
G04 #@! TF.ProjectId,TuneShroom,54756e65-5368-4726-9f6f-6d2e6b696361,rev?*
G04 #@! TF.SameCoordinates,Original*
G04 #@! TF.FileFunction,Soldermask,Bot*
G04 #@! TF.FilePolarity,Negative*
%FSLAX46Y46*%
G04 Gerber Fmt 4.6, Leading zero omitted, Abs format (unit mm)*
G04 Created by KiCad (PCBNEW 5.0.2-bee76a0~70~ubuntu18.04.1) date Fri 25 Oct 2019 22:44:05 HKT*
%MOMM*%
%LPD*%
G01*
G04 APERTURE LIST*
%ADD10C,0.100000*%
G04 APERTURE END LIST*
D10*
G36*
X107198500Y-137714000D02*
X107200902Y-137738386D01*
X107208015Y-137761835D01*
X107219566Y-137783446D01*
X107235112Y-137802388D01*
X107254054Y-137817934D01*
X107275665Y-137829485D01*
X107299114Y-137836598D01*
X107323500Y-137839000D01*
X108096000Y-137839000D01*
X108096000Y-139841000D01*
X104149000Y-139841000D01*
X104149000Y-137839000D01*
X105496500Y-137839000D01*
X105520886Y-137836598D01*
X105544335Y-137829485D01*
X105565946Y-137817934D01*
X105584888Y-137802388D01*
X105600434Y-137783446D01*
X105611985Y-137761835D01*
X105619098Y-137738386D01*
X105621500Y-137714000D01*
X105621500Y-137046000D01*
X105619098Y-137021614D01*
X105611985Y-136998165D01*
X105600434Y-136976554D01*
X105584888Y-136957612D01*
X105565946Y-136942066D01*
X105544335Y-136930515D01*
X105520886Y-136923402D01*
X105496500Y-136921000D01*
X102398500Y-136921000D01*
X102374114Y-136923402D01*
X102350665Y-136930515D01*
X102329054Y-136942066D01*
X102310112Y-136957612D01*
X102294566Y-136976554D01*
X102283015Y-136998165D01*
X102275902Y-137021614D01*
X102273500Y-137046000D01*
X102273500Y-137714000D01*
X102275902Y-137738386D01*
X102283015Y-137761835D01*
X102294566Y-137783446D01*
X102310112Y-137802388D01*
X102329054Y-137817934D01*
X102350665Y-137829485D01*
X102374114Y-137836598D01*
X102398500Y-137839000D01*
X103746000Y-137839000D01*
X103746000Y-139841000D01*
X99799000Y-139841000D01*
X99799000Y-137839000D01*
X100571500Y-137839000D01*
X100595886Y-137836598D01*
X100619335Y-137829485D01*
X100640946Y-137817934D01*
X100659888Y-137802388D01*
X100675434Y-137783446D01*
X100686985Y-137761835D01*
X100694098Y-137738386D01*
X100696500Y-137714000D01*
X100696500Y-135439000D01*
X107198500Y-135439000D01*
X107198500Y-137714000D01*
X107198500Y-137714000D01*
G37*
G36*
X109487562Y-131320681D02*
X109522477Y-131331273D01*
X109554665Y-131348478D01*
X109582873Y-131371627D01*
X109606022Y-131399835D01*
X109623227Y-131432023D01*
X109633819Y-131466938D01*
X109638000Y-131509395D01*
X109638000Y-132650605D01*
X109633819Y-132693062D01*
X109623227Y-132727977D01*
X109606022Y-132760165D01*
X109582873Y-132788373D01*
X109554665Y-132811522D01*
X109522477Y-132828727D01*
X109487562Y-132839319D01*
X109445105Y-132843500D01*
X107978895Y-132843500D01*
X107936438Y-132839319D01*
X107901523Y-132828727D01*
X107869335Y-132811522D01*
X107841127Y-132788373D01*
X107817978Y-132760165D01*
X107800773Y-132727977D01*
X107790181Y-132693062D01*
X107786000Y-132650605D01*
X107786000Y-131509395D01*
X107790181Y-131466938D01*
X107800773Y-131432023D01*
X107817978Y-131399835D01*
X107841127Y-131371627D01*
X107869335Y-131348478D01*
X107901523Y-131331273D01*
X107936438Y-131320681D01*
X107978895Y-131316500D01*
X109445105Y-131316500D01*
X109487562Y-131320681D01*
X109487562Y-131320681D01*
G37*
G36*
X103712677Y-131467465D02*
X103750364Y-131478898D01*
X103785103Y-131497466D01*
X103815548Y-131522452D01*
X103840534Y-131552897D01*
X103859102Y-131587636D01*
X103870535Y-131625323D01*
X103875000Y-131670661D01*
X103875000Y-132507339D01*
X103870535Y-132552677D01*
X103859102Y-132590364D01*
X103840534Y-132625103D01*
X103815548Y-132655548D01*
X103785103Y-132680534D01*
X103750364Y-132699102D01*
X103712677Y-132710535D01*
X103667339Y-132715000D01*
X102580661Y-132715000D01*
X102535323Y-132710535D01*
X102497636Y-132699102D01*
X102462897Y-132680534D01*
X102432452Y-132655548D01*
X102407466Y-132625103D01*
X102388898Y-132590364D01*
X102377465Y-132552677D01*
X102373000Y-132507339D01*
X102373000Y-131670661D01*
X102377465Y-131625323D01*
X102388898Y-131587636D01*
X102407466Y-131552897D01*
X102432452Y-131522452D01*
X102462897Y-131497466D01*
X102497636Y-131478898D01*
X102535323Y-131467465D01*
X102580661Y-131463000D01*
X103667339Y-131463000D01*
X103712677Y-131467465D01*
X103712677Y-131467465D01*
G37*
G36*
X106252677Y-131458465D02*
X106290364Y-131469898D01*
X106325103Y-131488466D01*
X106355548Y-131513452D01*
X106380534Y-131543897D01*
X106399102Y-131578636D01*
X106410535Y-131616323D01*
X106415000Y-131661661D01*
X106415000Y-132498339D01*
X106410535Y-132543677D01*
X106399102Y-132581364D01*
X106380534Y-132616103D01*
X106355548Y-132646548D01*
X106325103Y-132671534D01*
X106290364Y-132690102D01*
X106252677Y-132701535D01*
X106207339Y-132706000D01*
X105120661Y-132706000D01*
X105075323Y-132701535D01*
X105037636Y-132690102D01*
X105002897Y-132671534D01*
X104972452Y-132646548D01*
X104947466Y-132616103D01*
X104928898Y-132581364D01*
X104917465Y-132543677D01*
X104913000Y-132498339D01*
X104913000Y-131661661D01*
X104917465Y-131616323D01*
X104928898Y-131578636D01*
X104947466Y-131543897D01*
X104972452Y-131513452D01*
X105002897Y-131488466D01*
X105037636Y-131469898D01*
X105075323Y-131458465D01*
X105120661Y-131454000D01*
X106207339Y-131454000D01*
X106252677Y-131458465D01*
X106252677Y-131458465D01*
G37*
G36*
X101172677Y-131458465D02*
X101210364Y-131469898D01*
X101245103Y-131488466D01*
X101275548Y-131513452D01*
X101300534Y-131543897D01*
X101319102Y-131578636D01*
X101330535Y-131616323D01*
X101335000Y-131661661D01*
X101335000Y-132498339D01*
X101330535Y-132543677D01*
X101319102Y-132581364D01*
X101300534Y-132616103D01*
X101275548Y-132646548D01*
X101245103Y-132671534D01*
X101210364Y-132690102D01*
X101172677Y-132701535D01*
X101127339Y-132706000D01*
X100040661Y-132706000D01*
X99995323Y-132701535D01*
X99957636Y-132690102D01*
X99922897Y-132671534D01*
X99892452Y-132646548D01*
X99867466Y-132616103D01*
X99848898Y-132581364D01*
X99837465Y-132543677D01*
X99833000Y-132498339D01*
X99833000Y-131661661D01*
X99837465Y-131616323D01*
X99848898Y-131578636D01*
X99867466Y-131543897D01*
X99892452Y-131513452D01*
X99922897Y-131488466D01*
X99957636Y-131469898D01*
X99995323Y-131458465D01*
X100040661Y-131454000D01*
X101127339Y-131454000D01*
X101172677Y-131458465D01*
X101172677Y-131458465D01*
G37*
G36*
X103712677Y-129417465D02*
X103750364Y-129428898D01*
X103785103Y-129447466D01*
X103815548Y-129472452D01*
X103840534Y-129502897D01*
X103859102Y-129537636D01*
X103870535Y-129575323D01*
X103875000Y-129620661D01*
X103875000Y-130457339D01*
X103870535Y-130502677D01*
X103859102Y-130540364D01*
X103840534Y-130575103D01*
X103815548Y-130605548D01*
X103785103Y-130630534D01*
X103750364Y-130649102D01*
X103712677Y-130660535D01*
X103667339Y-130665000D01*
X102580661Y-130665000D01*
X102535323Y-130660535D01*
X102497636Y-130649102D01*
X102462897Y-130630534D01*
X102432452Y-130605548D01*
X102407466Y-130575103D01*
X102388898Y-130540364D01*
X102377465Y-130502677D01*
X102373000Y-130457339D01*
X102373000Y-129620661D01*
X102377465Y-129575323D01*
X102388898Y-129537636D01*
X102407466Y-129502897D01*
X102432452Y-129472452D01*
X102462897Y-129447466D01*
X102497636Y-129428898D01*
X102535323Y-129417465D01*
X102580661Y-129413000D01*
X103667339Y-129413000D01*
X103712677Y-129417465D01*
X103712677Y-129417465D01*
G37*
G36*
X106252677Y-129408465D02*
X106290364Y-129419898D01*
X106325103Y-129438466D01*
X106355548Y-129463452D01*
X106380534Y-129493897D01*
X106399102Y-129528636D01*
X106410535Y-129566323D01*
X106415000Y-129611661D01*
X106415000Y-130448339D01*
X106410535Y-130493677D01*
X106399102Y-130531364D01*
X106380534Y-130566103D01*
X106355548Y-130596548D01*
X106325103Y-130621534D01*
X106290364Y-130640102D01*
X106252677Y-130651535D01*
X106207339Y-130656000D01*
X105120661Y-130656000D01*
X105075323Y-130651535D01*
X105037636Y-130640102D01*
X105002897Y-130621534D01*
X104972452Y-130596548D01*
X104947466Y-130566103D01*
X104928898Y-130531364D01*
X104917465Y-130493677D01*
X104913000Y-130448339D01*
X104913000Y-129611661D01*
X104917465Y-129566323D01*
X104928898Y-129528636D01*
X104947466Y-129493897D01*
X104972452Y-129463452D01*
X105002897Y-129438466D01*
X105037636Y-129419898D01*
X105075323Y-129408465D01*
X105120661Y-129404000D01*
X106207339Y-129404000D01*
X106252677Y-129408465D01*
X106252677Y-129408465D01*
G37*
G36*
X101172677Y-129408465D02*
X101210364Y-129419898D01*
X101245103Y-129438466D01*
X101275548Y-129463452D01*
X101300534Y-129493897D01*
X101319102Y-129528636D01*
X101330535Y-129566323D01*
X101335000Y-129611661D01*
X101335000Y-130448339D01*
X101330535Y-130493677D01*
X101319102Y-130531364D01*
X101300534Y-130566103D01*
X101275548Y-130596548D01*
X101245103Y-130621534D01*
X101210364Y-130640102D01*
X101172677Y-130651535D01*
X101127339Y-130656000D01*
X100040661Y-130656000D01*
X99995323Y-130651535D01*
X99957636Y-130640102D01*
X99922897Y-130621534D01*
X99892452Y-130596548D01*
X99867466Y-130566103D01*
X99848898Y-130531364D01*
X99837465Y-130493677D01*
X99833000Y-130448339D01*
X99833000Y-129611661D01*
X99837465Y-129566323D01*
X99848898Y-129528636D01*
X99867466Y-129493897D01*
X99892452Y-129463452D01*
X99922897Y-129438466D01*
X99957636Y-129419898D01*
X99995323Y-129408465D01*
X100040661Y-129404000D01*
X101127339Y-129404000D01*
X101172677Y-129408465D01*
X101172677Y-129408465D01*
G37*
G36*
X109487562Y-128345681D02*
X109522477Y-128356273D01*
X109554665Y-128373478D01*
X109582873Y-128396627D01*
X109606022Y-128424835D01*
X109623227Y-128457023D01*
X109633819Y-128491938D01*
X109638000Y-128534395D01*
X109638000Y-129675605D01*
X109633819Y-129718062D01*
X109623227Y-129752977D01*
X109606022Y-129785165D01*
X109582873Y-129813373D01*
X109554665Y-129836522D01*
X109522477Y-129853727D01*
X109487562Y-129864319D01*
X109445105Y-129868500D01*
X107978895Y-129868500D01*
X107936438Y-129864319D01*
X107901523Y-129853727D01*
X107869335Y-129836522D01*
X107841127Y-129813373D01*
X107817978Y-129785165D01*
X107800773Y-129752977D01*
X107790181Y-129718062D01*
X107786000Y-129675605D01*
X107786000Y-128534395D01*
X107790181Y-128491938D01*
X107800773Y-128457023D01*
X107817978Y-128424835D01*
X107841127Y-128396627D01*
X107869335Y-128373478D01*
X107901523Y-128356273D01*
X107936438Y-128345681D01*
X107978895Y-128341500D01*
X109445105Y-128341500D01*
X109487562Y-128345681D01*
X109487562Y-128345681D01*
G37*
G36*
X101172677Y-126886465D02*
X101210364Y-126897898D01*
X101245103Y-126916466D01*
X101275548Y-126941452D01*
X101300534Y-126971897D01*
X101319102Y-127006636D01*
X101330535Y-127044323D01*
X101335000Y-127089661D01*
X101335000Y-127926339D01*
X101330535Y-127971677D01*
X101319102Y-128009364D01*
X101300534Y-128044103D01*
X101275548Y-128074548D01*
X101245103Y-128099534D01*
X101210364Y-128118102D01*
X101172677Y-128129535D01*
X101127339Y-128134000D01*
X100040661Y-128134000D01*
X99995323Y-128129535D01*
X99957636Y-128118102D01*
X99922897Y-128099534D01*
X99892452Y-128074548D01*
X99867466Y-128044103D01*
X99848898Y-128009364D01*
X99837465Y-127971677D01*
X99833000Y-127926339D01*
X99833000Y-127089661D01*
X99837465Y-127044323D01*
X99848898Y-127006636D01*
X99867466Y-126971897D01*
X99892452Y-126941452D01*
X99922897Y-126916466D01*
X99957636Y-126897898D01*
X99995323Y-126886465D01*
X100040661Y-126882000D01*
X101127339Y-126882000D01*
X101172677Y-126886465D01*
X101172677Y-126886465D01*
G37*
G36*
X101172677Y-124836465D02*
X101210364Y-124847898D01*
X101245103Y-124866466D01*
X101275548Y-124891452D01*
X101300534Y-124921897D01*
X101319102Y-124956636D01*
X101330535Y-124994323D01*
X101335000Y-125039661D01*
X101335000Y-125876339D01*
X101330535Y-125921677D01*
X101319102Y-125959364D01*
X101300534Y-125994103D01*
X101275548Y-126024548D01*
X101245103Y-126049534D01*
X101210364Y-126068102D01*
X101172677Y-126079535D01*
X101127339Y-126084000D01*
X100040661Y-126084000D01*
X99995323Y-126079535D01*
X99957636Y-126068102D01*
X99922897Y-126049534D01*
X99892452Y-126024548D01*
X99867466Y-125994103D01*
X99848898Y-125959364D01*
X99837465Y-125921677D01*
X99833000Y-125876339D01*
X99833000Y-125039661D01*
X99837465Y-124994323D01*
X99848898Y-124956636D01*
X99867466Y-124921897D01*
X99892452Y-124891452D01*
X99922897Y-124866466D01*
X99957636Y-124847898D01*
X99995323Y-124836465D01*
X100040661Y-124832000D01*
X101127339Y-124832000D01*
X101172677Y-124836465D01*
X101172677Y-124836465D01*
G37*
G36*
X105335771Y-123402643D02*
X105424012Y-123429411D01*
X105505334Y-123472878D01*
X105576620Y-123531380D01*
X105635122Y-123602666D01*
X105678589Y-123683988D01*
X105705357Y-123772229D01*
X105715000Y-123870140D01*
X105715000Y-125049860D01*
X105705357Y-125147771D01*
X105678589Y-125236012D01*
X105635122Y-125317334D01*
X105576620Y-125388620D01*
X105505334Y-125447122D01*
X105424012Y-125490589D01*
X105335771Y-125517357D01*
X105237860Y-125527000D01*
X104058140Y-125527000D01*
X103960229Y-125517357D01*
X103871988Y-125490589D01*
X103790666Y-125447122D01*
X103719380Y-125388620D01*
X103660878Y-125317334D01*
X103617411Y-125236012D01*
X103590643Y-125147771D01*
X103581000Y-125049860D01*
X103581000Y-123870140D01*
X103590643Y-123772229D01*
X103617411Y-123683988D01*
X103660878Y-123602666D01*
X103719380Y-123531380D01*
X103790666Y-123472878D01*
X103871988Y-123429411D01*
X103960229Y-123402643D01*
X104058140Y-123393000D01*
X105237860Y-123393000D01*
X105335771Y-123402643D01*
X105335771Y-123402643D01*
G37*
G36*
X110415771Y-123402643D02*
X110504012Y-123429411D01*
X110585334Y-123472878D01*
X110656620Y-123531380D01*
X110715122Y-123602666D01*
X110758589Y-123683988D01*
X110785357Y-123772229D01*
X110795000Y-123870140D01*
X110795000Y-125049860D01*
X110785357Y-125147771D01*
X110758589Y-125236012D01*
X110715122Y-125317334D01*
X110656620Y-125388620D01*
X110585334Y-125447122D01*
X110504012Y-125490589D01*
X110415771Y-125517357D01*
X110317860Y-125527000D01*
X109138140Y-125527000D01*
X109040229Y-125517357D01*
X108951988Y-125490589D01*
X108870666Y-125447122D01*
X108799380Y-125388620D01*
X108740878Y-125317334D01*
X108697411Y-125236012D01*
X108670643Y-125147771D01*
X108661000Y-125049860D01*
X108661000Y-123870140D01*
X108670643Y-123772229D01*
X108697411Y-123683988D01*
X108740878Y-123602666D01*
X108799380Y-123531380D01*
X108870666Y-123472878D01*
X108951988Y-123429411D01*
X109040229Y-123402643D01*
X109138140Y-123393000D01*
X110317860Y-123393000D01*
X110415771Y-123402643D01*
X110415771Y-123402643D01*
G37*
G36*
X107875771Y-123402643D02*
X107964012Y-123429411D01*
X108045334Y-123472878D01*
X108116620Y-123531380D01*
X108175122Y-123602666D01*
X108218589Y-123683988D01*
X108245357Y-123772229D01*
X108255000Y-123870140D01*
X108255000Y-125049860D01*
X108245357Y-125147771D01*
X108218589Y-125236012D01*
X108175122Y-125317334D01*
X108116620Y-125388620D01*
X108045334Y-125447122D01*
X107964012Y-125490589D01*
X107875771Y-125517357D01*
X107777860Y-125527000D01*
X106598140Y-125527000D01*
X106500229Y-125517357D01*
X106411988Y-125490589D01*
X106330666Y-125447122D01*
X106259380Y-125388620D01*
X106200878Y-125317334D01*
X106157411Y-125236012D01*
X106130643Y-125147771D01*
X106121000Y-125049860D01*
X106121000Y-123870140D01*
X106130643Y-123772229D01*
X106157411Y-123683988D01*
X106200878Y-123602666D01*
X106259380Y-123531380D01*
X106330666Y-123472878D01*
X106411988Y-123429411D01*
X106500229Y-123402643D01*
X106598140Y-123393000D01*
X107777860Y-123393000D01*
X107875771Y-123402643D01*
X107875771Y-123402643D01*
G37*
G36*
X110415771Y-120862643D02*
X110504012Y-120889411D01*
X110585334Y-120932878D01*
X110656620Y-120991380D01*
X110715122Y-121062666D01*
X110758589Y-121143988D01*
X110785357Y-121232229D01*
X110795000Y-121330140D01*
X110795000Y-122509860D01*
X110785357Y-122607771D01*
X110758589Y-122696012D01*
X110715122Y-122777334D01*
X110656620Y-122848620D01*
X110585334Y-122907122D01*
X110504012Y-122950589D01*
X110415771Y-122977357D01*
X110317860Y-122987000D01*
X109138140Y-122987000D01*
X109040229Y-122977357D01*
X108951988Y-122950589D01*
X108870666Y-122907122D01*
X108799380Y-122848620D01*
X108740878Y-122777334D01*
X108697411Y-122696012D01*
X108670643Y-122607771D01*
X108661000Y-122509860D01*
X108661000Y-121330140D01*
X108670643Y-121232229D01*
X108697411Y-121143988D01*
X108740878Y-121062666D01*
X108799380Y-120991380D01*
X108870666Y-120932878D01*
X108951988Y-120889411D01*
X109040229Y-120862643D01*
X109138140Y-120853000D01*
X110317860Y-120853000D01*
X110415771Y-120862643D01*
X110415771Y-120862643D01*
G37*
G36*
X107875771Y-120862643D02*
X107964012Y-120889411D01*
X108045334Y-120932878D01*
X108116620Y-120991380D01*
X108175122Y-121062666D01*
X108218589Y-121143988D01*
X108245357Y-121232229D01*
X108255000Y-121330140D01*
X108255000Y-122509860D01*
X108245357Y-122607771D01*
X108218589Y-122696012D01*
X108175122Y-122777334D01*
X108116620Y-122848620D01*
X108045334Y-122907122D01*
X107964012Y-122950589D01*
X107875771Y-122977357D01*
X107777860Y-122987000D01*
X106598140Y-122987000D01*
X106500229Y-122977357D01*
X106411988Y-122950589D01*
X106330666Y-122907122D01*
X106259380Y-122848620D01*
X106200878Y-122777334D01*
X106157411Y-122696012D01*
X106130643Y-122607771D01*
X106121000Y-122509860D01*
X106121000Y-121330140D01*
X106130643Y-121232229D01*
X106157411Y-121143988D01*
X106200878Y-121062666D01*
X106259380Y-120991380D01*
X106330666Y-120932878D01*
X106411988Y-120889411D01*
X106500229Y-120862643D01*
X106598140Y-120853000D01*
X107777860Y-120853000D01*
X107875771Y-120862643D01*
X107875771Y-120862643D01*
G37*
G36*
X105335771Y-120862643D02*
X105424012Y-120889411D01*
X105505334Y-120932878D01*
X105576620Y-120991380D01*
X105635122Y-121062666D01*
X105678589Y-121143988D01*
X105705357Y-121232229D01*
X105715000Y-121330140D01*
X105715000Y-122509860D01*
X105705357Y-122607771D01*
X105678589Y-122696012D01*
X105635122Y-122777334D01*
X105576620Y-122848620D01*
X105505334Y-122907122D01*
X105424012Y-122950589D01*
X105335771Y-122977357D01*
X105237860Y-122987000D01*
X104058140Y-122987000D01*
X103960229Y-122977357D01*
X103871988Y-122950589D01*
X103790666Y-122907122D01*
X103719380Y-122848620D01*
X103660878Y-122777334D01*
X103617411Y-122696012D01*
X103590643Y-122607771D01*
X103581000Y-122509860D01*
X103581000Y-121330140D01*
X103590643Y-121232229D01*
X103617411Y-121143988D01*
X103660878Y-121062666D01*
X103719380Y-120991380D01*
X103790666Y-120932878D01*
X103871988Y-120889411D01*
X103960229Y-120862643D01*
X104058140Y-120853000D01*
X105237860Y-120853000D01*
X105335771Y-120862643D01*
X105335771Y-120862643D01*
G37*
G36*
X100111000Y-122098500D02*
X98009000Y-122098500D01*
X98009000Y-114121500D01*
X100111000Y-114121500D01*
X100111000Y-122098500D01*
X100111000Y-122098500D01*
G37*
G36*
X110316677Y-117760465D02*
X110354364Y-117771898D01*
X110389103Y-117790466D01*
X110419548Y-117815452D01*
X110444534Y-117845897D01*
X110463102Y-117880636D01*
X110474535Y-117918323D01*
X110479000Y-117963661D01*
X110479000Y-118800339D01*
X110474535Y-118845677D01*
X110463102Y-118883364D01*
X110444534Y-118918103D01*
X110419548Y-118948548D01*
X110389103Y-118973534D01*
X110354364Y-118992102D01*
X110316677Y-119003535D01*
X110271339Y-119008000D01*
X109184661Y-119008000D01*
X109139323Y-119003535D01*
X109101636Y-118992102D01*
X109066897Y-118973534D01*
X109036452Y-118948548D01*
X109011466Y-118918103D01*
X108992898Y-118883364D01*
X108981465Y-118845677D01*
X108977000Y-118800339D01*
X108977000Y-117963661D01*
X108981465Y-117918323D01*
X108992898Y-117880636D01*
X109011466Y-117845897D01*
X109036452Y-117815452D01*
X109066897Y-117790466D01*
X109101636Y-117771898D01*
X109139323Y-117760465D01*
X109184661Y-117756000D01*
X110271339Y-117756000D01*
X110316677Y-117760465D01*
X110316677Y-117760465D01*
G37*
G36*
X107776677Y-117751465D02*
X107814364Y-117762898D01*
X107849103Y-117781466D01*
X107879548Y-117806452D01*
X107904534Y-117836897D01*
X107923102Y-117871636D01*
X107934535Y-117909323D01*
X107939000Y-117954661D01*
X107939000Y-118791339D01*
X107934535Y-118836677D01*
X107923102Y-118874364D01*
X107904534Y-118909103D01*
X107879548Y-118939548D01*
X107849103Y-118964534D01*
X107814364Y-118983102D01*
X107776677Y-118994535D01*
X107731339Y-118999000D01*
X106644661Y-118999000D01*
X106599323Y-118994535D01*
X106561636Y-118983102D01*
X106526897Y-118964534D01*
X106496452Y-118939548D01*
X106471466Y-118909103D01*
X106452898Y-118874364D01*
X106441465Y-118836677D01*
X106437000Y-118791339D01*
X106437000Y-117954661D01*
X106441465Y-117909323D01*
X106452898Y-117871636D01*
X106471466Y-117836897D01*
X106496452Y-117806452D01*
X106526897Y-117781466D01*
X106561636Y-117762898D01*
X106599323Y-117751465D01*
X106644661Y-117747000D01*
X107731339Y-117747000D01*
X107776677Y-117751465D01*
X107776677Y-117751465D01*
G37*
G36*
X110316677Y-115710465D02*
X110354364Y-115721898D01*
X110389103Y-115740466D01*
X110419548Y-115765452D01*
X110444534Y-115795897D01*
X110463102Y-115830636D01*
X110474535Y-115868323D01*
X110479000Y-115913661D01*
X110479000Y-116750339D01*
X110474535Y-116795677D01*
X110463102Y-116833364D01*
X110444534Y-116868103D01*
X110419548Y-116898548D01*
X110389103Y-116923534D01*
X110354364Y-116942102D01*
X110316677Y-116953535D01*
X110271339Y-116958000D01*
X109184661Y-116958000D01*
X109139323Y-116953535D01*
X109101636Y-116942102D01*
X109066897Y-116923534D01*
X109036452Y-116898548D01*
X109011466Y-116868103D01*
X108992898Y-116833364D01*
X108981465Y-116795677D01*
X108977000Y-116750339D01*
X108977000Y-115913661D01*
X108981465Y-115868323D01*
X108992898Y-115830636D01*
X109011466Y-115795897D01*
X109036452Y-115765452D01*
X109066897Y-115740466D01*
X109101636Y-115721898D01*
X109139323Y-115710465D01*
X109184661Y-115706000D01*
X110271339Y-115706000D01*
X110316677Y-115710465D01*
X110316677Y-115710465D01*
G37*
G36*
X107776677Y-115701465D02*
X107814364Y-115712898D01*
X107849103Y-115731466D01*
X107879548Y-115756452D01*
X107904534Y-115786897D01*
X107923102Y-115821636D01*
X107934535Y-115859323D01*
X107939000Y-115904661D01*
X107939000Y-116741339D01*
X107934535Y-116786677D01*
X107923102Y-116824364D01*
X107904534Y-116859103D01*
X107879548Y-116889548D01*
X107849103Y-116914534D01*
X107814364Y-116933102D01*
X107776677Y-116944535D01*
X107731339Y-116949000D01*
X106644661Y-116949000D01*
X106599323Y-116944535D01*
X106561636Y-116933102D01*
X106526897Y-116914534D01*
X106496452Y-116889548D01*
X106471466Y-116859103D01*
X106452898Y-116824364D01*
X106441465Y-116786677D01*
X106437000Y-116741339D01*
X106437000Y-115904661D01*
X106441465Y-115859323D01*
X106452898Y-115821636D01*
X106471466Y-115786897D01*
X106496452Y-115756452D01*
X106526897Y-115731466D01*
X106561636Y-115712898D01*
X106599323Y-115701465D01*
X106644661Y-115697000D01*
X107731339Y-115697000D01*
X107776677Y-115701465D01*
X107776677Y-115701465D01*
G37*
G36*
X107268677Y-109886465D02*
X107306364Y-109897898D01*
X107341103Y-109916466D01*
X107371548Y-109941452D01*
X107396534Y-109971897D01*
X107415102Y-110006636D01*
X107426535Y-110044323D01*
X107431000Y-110089661D01*
X107431000Y-110926339D01*
X107426535Y-110971677D01*
X107415102Y-111009364D01*
X107396534Y-111044103D01*
X107371548Y-111074548D01*
X107341103Y-111099534D01*
X107306364Y-111118102D01*
X107268677Y-111129535D01*
X107223339Y-111134000D01*
X106136661Y-111134000D01*
X106091323Y-111129535D01*
X106053636Y-111118102D01*
X106018897Y-111099534D01*
X105988452Y-111074548D01*
X105963466Y-111044103D01*
X105944898Y-111009364D01*
X105933465Y-110971677D01*
X105929000Y-110926339D01*
X105929000Y-110089661D01*
X105933465Y-110044323D01*
X105944898Y-110006636D01*
X105963466Y-109971897D01*
X105988452Y-109941452D01*
X106018897Y-109916466D01*
X106053636Y-109897898D01*
X106091323Y-109886465D01*
X106136661Y-109882000D01*
X107223339Y-109882000D01*
X107268677Y-109886465D01*
X107268677Y-109886465D01*
G37*
G36*
X109808677Y-109868465D02*
X109846364Y-109879898D01*
X109881103Y-109898466D01*
X109911548Y-109923452D01*
X109936534Y-109953897D01*
X109955102Y-109988636D01*
X109966535Y-110026323D01*
X109971000Y-110071661D01*
X109971000Y-110908339D01*
X109966535Y-110953677D01*
X109955102Y-110991364D01*
X109936534Y-111026103D01*
X109911548Y-111056548D01*
X109881103Y-111081534D01*
X109846364Y-111100102D01*
X109808677Y-111111535D01*
X109763339Y-111116000D01*
X108676661Y-111116000D01*
X108631323Y-111111535D01*
X108593636Y-111100102D01*
X108558897Y-111081534D01*
X108528452Y-111056548D01*
X108503466Y-111026103D01*
X108484898Y-110991364D01*
X108473465Y-110953677D01*
X108469000Y-110908339D01*
X108469000Y-110071661D01*
X108473465Y-110026323D01*
X108484898Y-109988636D01*
X108503466Y-109953897D01*
X108528452Y-109923452D01*
X108558897Y-109898466D01*
X108593636Y-109879898D01*
X108631323Y-109868465D01*
X108676661Y-109864000D01*
X109763339Y-109864000D01*
X109808677Y-109868465D01*
X109808677Y-109868465D01*
G37*
G36*
X112348677Y-109868465D02*
X112386364Y-109879898D01*
X112421103Y-109898466D01*
X112451548Y-109923452D01*
X112476534Y-109953897D01*
X112495102Y-109988636D01*
X112506535Y-110026323D01*
X112511000Y-110071661D01*
X112511000Y-110908339D01*
X112506535Y-110953677D01*
X112495102Y-110991364D01*
X112476534Y-111026103D01*
X112451548Y-111056548D01*
X112421103Y-111081534D01*
X112386364Y-111100102D01*
X112348677Y-111111535D01*
X112303339Y-111116000D01*
X111216661Y-111116000D01*
X111171323Y-111111535D01*
X111133636Y-111100102D01*
X111098897Y-111081534D01*
X111068452Y-111056548D01*
X111043466Y-111026103D01*
X111024898Y-110991364D01*
X111013465Y-110953677D01*
X111009000Y-110908339D01*
X111009000Y-110071661D01*
X111013465Y-110026323D01*
X111024898Y-109988636D01*
X111043466Y-109953897D01*
X111068452Y-109923452D01*
X111098897Y-109898466D01*
X111133636Y-109879898D01*
X111171323Y-109868465D01*
X111216661Y-109864000D01*
X112303339Y-109864000D01*
X112348677Y-109868465D01*
X112348677Y-109868465D01*
G37*
G36*
X104728677Y-109868465D02*
X104766364Y-109879898D01*
X104801103Y-109898466D01*
X104831548Y-109923452D01*
X104856534Y-109953897D01*
X104875102Y-109988636D01*
X104886535Y-110026323D01*
X104891000Y-110071661D01*
X104891000Y-110908339D01*
X104886535Y-110953677D01*
X104875102Y-110991364D01*
X104856534Y-111026103D01*
X104831548Y-111056548D01*
X104801103Y-111081534D01*
X104766364Y-111100102D01*
X104728677Y-111111535D01*
X104683339Y-111116000D01*
X103596661Y-111116000D01*
X103551323Y-111111535D01*
X103513636Y-111100102D01*
X103478897Y-111081534D01*
X103448452Y-111056548D01*
X103423466Y-111026103D01*
X103404898Y-110991364D01*
X103393465Y-110953677D01*
X103389000Y-110908339D01*
X103389000Y-110071661D01*
X103393465Y-110026323D01*
X103404898Y-109988636D01*
X103423466Y-109953897D01*
X103448452Y-109923452D01*
X103478897Y-109898466D01*
X103513636Y-109879898D01*
X103551323Y-109868465D01*
X103596661Y-109864000D01*
X104683339Y-109864000D01*
X104728677Y-109868465D01*
X104728677Y-109868465D01*
G37*
G36*
X100111000Y-110223500D02*
X98009000Y-110223500D01*
X98009000Y-102246500D01*
X100111000Y-102246500D01*
X100111000Y-110223500D01*
X100111000Y-110223500D01*
G37*
G36*
X107268677Y-107836465D02*
X107306364Y-107847898D01*
X107341103Y-107866466D01*
X107371548Y-107891452D01*
X107396534Y-107921897D01*
X107415102Y-107956636D01*
X107426535Y-107994323D01*
X107431000Y-108039661D01*
X107431000Y-108876339D01*
X107426535Y-108921677D01*
X107415102Y-108959364D01*
X107396534Y-108994103D01*
X107371548Y-109024548D01*
X107341103Y-109049534D01*
X107306364Y-109068102D01*
X107268677Y-109079535D01*
X107223339Y-109084000D01*
X106136661Y-109084000D01*
X106091323Y-109079535D01*
X106053636Y-109068102D01*
X106018897Y-109049534D01*
X105988452Y-109024548D01*
X105963466Y-108994103D01*
X105944898Y-108959364D01*
X105933465Y-108921677D01*
X105929000Y-108876339D01*
X105929000Y-108039661D01*
X105933465Y-107994323D01*
X105944898Y-107956636D01*
X105963466Y-107921897D01*
X105988452Y-107891452D01*
X106018897Y-107866466D01*
X106053636Y-107847898D01*
X106091323Y-107836465D01*
X106136661Y-107832000D01*
X107223339Y-107832000D01*
X107268677Y-107836465D01*
X107268677Y-107836465D01*
G37*
G36*
X104728677Y-107818465D02*
X104766364Y-107829898D01*
X104801103Y-107848466D01*
X104831548Y-107873452D01*
X104856534Y-107903897D01*
X104875102Y-107938636D01*
X104886535Y-107976323D01*
X104891000Y-108021661D01*
X104891000Y-108858339D01*
X104886535Y-108903677D01*
X104875102Y-108941364D01*
X104856534Y-108976103D01*
X104831548Y-109006548D01*
X104801103Y-109031534D01*
X104766364Y-109050102D01*
X104728677Y-109061535D01*
X104683339Y-109066000D01*
X103596661Y-109066000D01*
X103551323Y-109061535D01*
X103513636Y-109050102D01*
X103478897Y-109031534D01*
X103448452Y-109006548D01*
X103423466Y-108976103D01*
X103404898Y-108941364D01*
X103393465Y-108903677D01*
X103389000Y-108858339D01*
X103389000Y-108021661D01*
X103393465Y-107976323D01*
X103404898Y-107938636D01*
X103423466Y-107903897D01*
X103448452Y-107873452D01*
X103478897Y-107848466D01*
X103513636Y-107829898D01*
X103551323Y-107818465D01*
X103596661Y-107814000D01*
X104683339Y-107814000D01*
X104728677Y-107818465D01*
X104728677Y-107818465D01*
G37*
G36*
X109808677Y-107818465D02*
X109846364Y-107829898D01*
X109881103Y-107848466D01*
X109911548Y-107873452D01*
X109936534Y-107903897D01*
X109955102Y-107938636D01*
X109966535Y-107976323D01*
X109971000Y-108021661D01*
X109971000Y-108858339D01*
X109966535Y-108903677D01*
X109955102Y-108941364D01*
X109936534Y-108976103D01*
X109911548Y-109006548D01*
X109881103Y-109031534D01*
X109846364Y-109050102D01*
X109808677Y-109061535D01*
X109763339Y-109066000D01*
X108676661Y-109066000D01*
X108631323Y-109061535D01*
X108593636Y-109050102D01*
X108558897Y-109031534D01*
X108528452Y-109006548D01*
X108503466Y-108976103D01*
X108484898Y-108941364D01*
X108473465Y-108903677D01*
X108469000Y-108858339D01*
X108469000Y-108021661D01*
X108473465Y-107976323D01*
X108484898Y-107938636D01*
X108503466Y-107903897D01*
X108528452Y-107873452D01*
X108558897Y-107848466D01*
X108593636Y-107829898D01*
X108631323Y-107818465D01*
X108676661Y-107814000D01*
X109763339Y-107814000D01*
X109808677Y-107818465D01*
X109808677Y-107818465D01*
G37*
G36*
X112348677Y-107818465D02*
X112386364Y-107829898D01*
X112421103Y-107848466D01*
X112451548Y-107873452D01*
X112476534Y-107903897D01*
X112495102Y-107938636D01*
X112506535Y-107976323D01*
X112511000Y-108021661D01*
X112511000Y-108858339D01*
X112506535Y-108903677D01*
X112495102Y-108941364D01*
X112476534Y-108976103D01*
X112451548Y-109006548D01*
X112421103Y-109031534D01*
X112386364Y-109050102D01*
X112348677Y-109061535D01*
X112303339Y-109066000D01*
X111216661Y-109066000D01*
X111171323Y-109061535D01*
X111133636Y-109050102D01*
X111098897Y-109031534D01*
X111068452Y-109006548D01*
X111043466Y-108976103D01*
X111024898Y-108941364D01*
X111013465Y-108903677D01*
X111009000Y-108858339D01*
X111009000Y-108021661D01*
X111013465Y-107976323D01*
X111024898Y-107938636D01*
X111043466Y-107903897D01*
X111068452Y-107873452D01*
X111098897Y-107848466D01*
X111133636Y-107829898D01*
X111171323Y-107818465D01*
X111216661Y-107814000D01*
X112303339Y-107814000D01*
X112348677Y-107818465D01*
X112348677Y-107818465D01*
G37*
G36*
X109808677Y-104788465D02*
X109846364Y-104799898D01*
X109881103Y-104818466D01*
X109911548Y-104843452D01*
X109936534Y-104873897D01*
X109955102Y-104908636D01*
X109966535Y-104946323D01*
X109971000Y-104991661D01*
X109971000Y-105828339D01*
X109966535Y-105873677D01*
X109955102Y-105911364D01*
X109936534Y-105946103D01*
X109911548Y-105976548D01*
X109881103Y-106001534D01*
X109846364Y-106020102D01*
X109808677Y-106031535D01*
X109763339Y-106036000D01*
X108676661Y-106036000D01*
X108631323Y-106031535D01*
X108593636Y-106020102D01*
X108558897Y-106001534D01*
X108528452Y-105976548D01*
X108503466Y-105946103D01*
X108484898Y-105911364D01*
X108473465Y-105873677D01*
X108469000Y-105828339D01*
X108469000Y-104991661D01*
X108473465Y-104946323D01*
X108484898Y-104908636D01*
X108503466Y-104873897D01*
X108528452Y-104843452D01*
X108558897Y-104818466D01*
X108593636Y-104799898D01*
X108631323Y-104788465D01*
X108676661Y-104784000D01*
X109763339Y-104784000D01*
X109808677Y-104788465D01*
X109808677Y-104788465D01*
G37*
G36*
X107268677Y-104788465D02*
X107306364Y-104799898D01*
X107341103Y-104818466D01*
X107371548Y-104843452D01*
X107396534Y-104873897D01*
X107415102Y-104908636D01*
X107426535Y-104946323D01*
X107431000Y-104991661D01*
X107431000Y-105828339D01*
X107426535Y-105873677D01*
X107415102Y-105911364D01*
X107396534Y-105946103D01*
X107371548Y-105976548D01*
X107341103Y-106001534D01*
X107306364Y-106020102D01*
X107268677Y-106031535D01*
X107223339Y-106036000D01*
X106136661Y-106036000D01*
X106091323Y-106031535D01*
X106053636Y-106020102D01*
X106018897Y-106001534D01*
X105988452Y-105976548D01*
X105963466Y-105946103D01*
X105944898Y-105911364D01*
X105933465Y-105873677D01*
X105929000Y-105828339D01*
X105929000Y-104991661D01*
X105933465Y-104946323D01*
X105944898Y-104908636D01*
X105963466Y-104873897D01*
X105988452Y-104843452D01*
X106018897Y-104818466D01*
X106053636Y-104799898D01*
X106091323Y-104788465D01*
X106136661Y-104784000D01*
X107223339Y-104784000D01*
X107268677Y-104788465D01*
X107268677Y-104788465D01*
G37*
G36*
X112348677Y-104788465D02*
X112386364Y-104799898D01*
X112421103Y-104818466D01*
X112451548Y-104843452D01*
X112476534Y-104873897D01*
X112495102Y-104908636D01*
X112506535Y-104946323D01*
X112511000Y-104991661D01*
X112511000Y-105828339D01*
X112506535Y-105873677D01*
X112495102Y-105911364D01*
X112476534Y-105946103D01*
X112451548Y-105976548D01*
X112421103Y-106001534D01*
X112386364Y-106020102D01*
X112348677Y-106031535D01*
X112303339Y-106036000D01*
X111216661Y-106036000D01*
X111171323Y-106031535D01*
X111133636Y-106020102D01*
X111098897Y-106001534D01*
X111068452Y-105976548D01*
X111043466Y-105946103D01*
X111024898Y-105911364D01*
X111013465Y-105873677D01*
X111009000Y-105828339D01*
X111009000Y-104991661D01*
X111013465Y-104946323D01*
X111024898Y-104908636D01*
X111043466Y-104873897D01*
X111068452Y-104843452D01*
X111098897Y-104818466D01*
X111133636Y-104799898D01*
X111171323Y-104788465D01*
X111216661Y-104784000D01*
X112303339Y-104784000D01*
X112348677Y-104788465D01*
X112348677Y-104788465D01*
G37*
G36*
X112348677Y-102738465D02*
X112386364Y-102749898D01*
X112421103Y-102768466D01*
X112451548Y-102793452D01*
X112476534Y-102823897D01*
X112495102Y-102858636D01*
X112506535Y-102896323D01*
X112511000Y-102941661D01*
X112511000Y-103778339D01*
X112506535Y-103823677D01*
X112495102Y-103861364D01*
X112476534Y-103896103D01*
X112451548Y-103926548D01*
X112421103Y-103951534D01*
X112386364Y-103970102D01*
X112348677Y-103981535D01*
X112303339Y-103986000D01*
X111216661Y-103986000D01*
X111171323Y-103981535D01*
X111133636Y-103970102D01*
X111098897Y-103951534D01*
X111068452Y-103926548D01*
X111043466Y-103896103D01*
X111024898Y-103861364D01*
X111013465Y-103823677D01*
X111009000Y-103778339D01*
X111009000Y-102941661D01*
X111013465Y-102896323D01*
X111024898Y-102858636D01*
X111043466Y-102823897D01*
X111068452Y-102793452D01*
X111098897Y-102768466D01*
X111133636Y-102749898D01*
X111171323Y-102738465D01*
X111216661Y-102734000D01*
X112303339Y-102734000D01*
X112348677Y-102738465D01*
X112348677Y-102738465D01*
G37*
G36*
X107268677Y-102738465D02*
X107306364Y-102749898D01*
X107341103Y-102768466D01*
X107371548Y-102793452D01*
X107396534Y-102823897D01*
X107415102Y-102858636D01*
X107426535Y-102896323D01*
X107431000Y-102941661D01*
X107431000Y-103778339D01*
X107426535Y-103823677D01*
X107415102Y-103861364D01*
X107396534Y-103896103D01*
X107371548Y-103926548D01*
X107341103Y-103951534D01*
X107306364Y-103970102D01*
X107268677Y-103981535D01*
X107223339Y-103986000D01*
X106136661Y-103986000D01*
X106091323Y-103981535D01*
X106053636Y-103970102D01*
X106018897Y-103951534D01*
X105988452Y-103926548D01*
X105963466Y-103896103D01*
X105944898Y-103861364D01*
X105933465Y-103823677D01*
X105929000Y-103778339D01*
X105929000Y-102941661D01*
X105933465Y-102896323D01*
X105944898Y-102858636D01*
X105963466Y-102823897D01*
X105988452Y-102793452D01*
X106018897Y-102768466D01*
X106053636Y-102749898D01*
X106091323Y-102738465D01*
X106136661Y-102734000D01*
X107223339Y-102734000D01*
X107268677Y-102738465D01*
X107268677Y-102738465D01*
G37*
G36*
X109808677Y-102738465D02*
X109846364Y-102749898D01*
X109881103Y-102768466D01*
X109911548Y-102793452D01*
X109936534Y-102823897D01*
X109955102Y-102858636D01*
X109966535Y-102896323D01*
X109971000Y-102941661D01*
X109971000Y-103778339D01*
X109966535Y-103823677D01*
X109955102Y-103861364D01*
X109936534Y-103896103D01*
X109911548Y-103926548D01*
X109881103Y-103951534D01*
X109846364Y-103970102D01*
X109808677Y-103981535D01*
X109763339Y-103986000D01*
X108676661Y-103986000D01*
X108631323Y-103981535D01*
X108593636Y-103970102D01*
X108558897Y-103951534D01*
X108528452Y-103926548D01*
X108503466Y-103896103D01*
X108484898Y-103861364D01*
X108473465Y-103823677D01*
X108469000Y-103778339D01*
X108469000Y-102941661D01*
X108473465Y-102896323D01*
X108484898Y-102858636D01*
X108503466Y-102823897D01*
X108528452Y-102793452D01*
X108558897Y-102768466D01*
X108593636Y-102749898D01*
X108631323Y-102738465D01*
X108676661Y-102734000D01*
X109763339Y-102734000D01*
X109808677Y-102738465D01*
X109808677Y-102738465D01*
G37*
G36*
X108847000Y-95884000D02*
X100195000Y-95884000D01*
X100195000Y-94282000D01*
X108847000Y-94282000D01*
X108847000Y-95884000D01*
X108847000Y-95884000D01*
G37*
G36*
X99622000Y-93709000D02*
X98020000Y-93709000D01*
X98020000Y-85057000D01*
X99622000Y-85057000D01*
X99622000Y-93709000D01*
X99622000Y-93709000D01*
G37*
G36*
X111022000Y-93709000D02*
X109420000Y-93709000D01*
X109420000Y-85057000D01*
X111022000Y-85057000D01*
X111022000Y-93709000D01*
X111022000Y-93709000D01*
G37*
G36*
X108847000Y-84484000D02*
X100195000Y-84484000D01*
X100195000Y-82882000D01*
X108847000Y-82882000D01*
X108847000Y-84484000D01*
X108847000Y-84484000D01*
G37*
M02*
