G04 #@! TF.GenerationSoftware,KiCad,Pcbnew,5.0.2-bee76a0~70~ubuntu18.04.1*
G04 #@! TF.CreationDate,2019-10-25T22:44:05+08:00*
G04 #@! TF.ProjectId,TuneShroom,54756e65-5368-4726-9f6f-6d2e6b696361,rev?*
G04 #@! TF.SameCoordinates,Original*
G04 #@! TF.FileFunction,Paste,Bot*
G04 #@! TF.FilePolarity,Positive*
%FSLAX46Y46*%
G04 Gerber Fmt 4.6, Leading zero omitted, Abs format (unit mm)*
G04 Created by KiCad (PCBNEW 5.0.2-bee76a0~70~ubuntu18.04.1) date Fri 25 Oct 2019 22:44:05 HKT*
%MOMM*%
%LPD*%
G01*
G04 APERTURE LIST*
%ADD10R,0.450000X1.380000*%
%ADD11R,1.475000X2.100000*%
%ADD12R,2.375000X1.900000*%
%ADD13R,1.175000X1.900000*%
%ADD14C,0.100000*%
%ADD15C,1.150000*%
%ADD16C,1.425000*%
%ADD17C,2.032000*%
%ADD18R,1.500000X0.550000*%
%ADD19R,0.550000X1.500000*%
%ADD20R,2.000000X7.875000*%
G04 APERTURE END LIST*
D10*
G04 #@! TO.C,J23*
X105247500Y-136180000D03*
X104597500Y-136180000D03*
X103947500Y-136180000D03*
X103297500Y-136180000D03*
X102647500Y-136180000D03*
D11*
X106410000Y-136540000D03*
X101485000Y-136540000D03*
D12*
X106857500Y-138840000D03*
X101037500Y-138840000D03*
D13*
X104787500Y-138840000D03*
X103107500Y-138840000D03*
G04 #@! TD*
D14*
G04 #@! TO.C,R1*
G36*
X107154505Y-102786204D02*
X107178773Y-102789804D01*
X107202572Y-102795765D01*
X107225671Y-102804030D01*
X107247850Y-102814520D01*
X107268893Y-102827132D01*
X107288599Y-102841747D01*
X107306777Y-102858223D01*
X107323253Y-102876401D01*
X107337868Y-102896107D01*
X107350480Y-102917150D01*
X107360970Y-102939329D01*
X107369235Y-102962428D01*
X107375196Y-102986227D01*
X107378796Y-103010495D01*
X107380000Y-103034999D01*
X107380000Y-103685001D01*
X107378796Y-103709505D01*
X107375196Y-103733773D01*
X107369235Y-103757572D01*
X107360970Y-103780671D01*
X107350480Y-103802850D01*
X107337868Y-103823893D01*
X107323253Y-103843599D01*
X107306777Y-103861777D01*
X107288599Y-103878253D01*
X107268893Y-103892868D01*
X107247850Y-103905480D01*
X107225671Y-103915970D01*
X107202572Y-103924235D01*
X107178773Y-103930196D01*
X107154505Y-103933796D01*
X107130001Y-103935000D01*
X106229999Y-103935000D01*
X106205495Y-103933796D01*
X106181227Y-103930196D01*
X106157428Y-103924235D01*
X106134329Y-103915970D01*
X106112150Y-103905480D01*
X106091107Y-103892868D01*
X106071401Y-103878253D01*
X106053223Y-103861777D01*
X106036747Y-103843599D01*
X106022132Y-103823893D01*
X106009520Y-103802850D01*
X105999030Y-103780671D01*
X105990765Y-103757572D01*
X105984804Y-103733773D01*
X105981204Y-103709505D01*
X105980000Y-103685001D01*
X105980000Y-103034999D01*
X105981204Y-103010495D01*
X105984804Y-102986227D01*
X105990765Y-102962428D01*
X105999030Y-102939329D01*
X106009520Y-102917150D01*
X106022132Y-102896107D01*
X106036747Y-102876401D01*
X106053223Y-102858223D01*
X106071401Y-102841747D01*
X106091107Y-102827132D01*
X106112150Y-102814520D01*
X106134329Y-102804030D01*
X106157428Y-102795765D01*
X106181227Y-102789804D01*
X106205495Y-102786204D01*
X106229999Y-102785000D01*
X107130001Y-102785000D01*
X107154505Y-102786204D01*
X107154505Y-102786204D01*
G37*
D15*
X106680000Y-103360000D03*
D14*
G36*
X107154505Y-104836204D02*
X107178773Y-104839804D01*
X107202572Y-104845765D01*
X107225671Y-104854030D01*
X107247850Y-104864520D01*
X107268893Y-104877132D01*
X107288599Y-104891747D01*
X107306777Y-104908223D01*
X107323253Y-104926401D01*
X107337868Y-104946107D01*
X107350480Y-104967150D01*
X107360970Y-104989329D01*
X107369235Y-105012428D01*
X107375196Y-105036227D01*
X107378796Y-105060495D01*
X107380000Y-105084999D01*
X107380000Y-105735001D01*
X107378796Y-105759505D01*
X107375196Y-105783773D01*
X107369235Y-105807572D01*
X107360970Y-105830671D01*
X107350480Y-105852850D01*
X107337868Y-105873893D01*
X107323253Y-105893599D01*
X107306777Y-105911777D01*
X107288599Y-105928253D01*
X107268893Y-105942868D01*
X107247850Y-105955480D01*
X107225671Y-105965970D01*
X107202572Y-105974235D01*
X107178773Y-105980196D01*
X107154505Y-105983796D01*
X107130001Y-105985000D01*
X106229999Y-105985000D01*
X106205495Y-105983796D01*
X106181227Y-105980196D01*
X106157428Y-105974235D01*
X106134329Y-105965970D01*
X106112150Y-105955480D01*
X106091107Y-105942868D01*
X106071401Y-105928253D01*
X106053223Y-105911777D01*
X106036747Y-105893599D01*
X106022132Y-105873893D01*
X106009520Y-105852850D01*
X105999030Y-105830671D01*
X105990765Y-105807572D01*
X105984804Y-105783773D01*
X105981204Y-105759505D01*
X105980000Y-105735001D01*
X105980000Y-105084999D01*
X105981204Y-105060495D01*
X105984804Y-105036227D01*
X105990765Y-105012428D01*
X105999030Y-104989329D01*
X106009520Y-104967150D01*
X106022132Y-104946107D01*
X106036747Y-104926401D01*
X106053223Y-104908223D01*
X106071401Y-104891747D01*
X106091107Y-104877132D01*
X106112150Y-104864520D01*
X106134329Y-104854030D01*
X106157428Y-104845765D01*
X106181227Y-104839804D01*
X106205495Y-104836204D01*
X106229999Y-104835000D01*
X107130001Y-104835000D01*
X107154505Y-104836204D01*
X107154505Y-104836204D01*
G37*
D15*
X106680000Y-105410000D03*
G04 #@! TD*
D14*
G04 #@! TO.C,R2*
G36*
X103598505Y-129465204D02*
X103622773Y-129468804D01*
X103646572Y-129474765D01*
X103669671Y-129483030D01*
X103691850Y-129493520D01*
X103712893Y-129506132D01*
X103732599Y-129520747D01*
X103750777Y-129537223D01*
X103767253Y-129555401D01*
X103781868Y-129575107D01*
X103794480Y-129596150D01*
X103804970Y-129618329D01*
X103813235Y-129641428D01*
X103819196Y-129665227D01*
X103822796Y-129689495D01*
X103824000Y-129713999D01*
X103824000Y-130364001D01*
X103822796Y-130388505D01*
X103819196Y-130412773D01*
X103813235Y-130436572D01*
X103804970Y-130459671D01*
X103794480Y-130481850D01*
X103781868Y-130502893D01*
X103767253Y-130522599D01*
X103750777Y-130540777D01*
X103732599Y-130557253D01*
X103712893Y-130571868D01*
X103691850Y-130584480D01*
X103669671Y-130594970D01*
X103646572Y-130603235D01*
X103622773Y-130609196D01*
X103598505Y-130612796D01*
X103574001Y-130614000D01*
X102673999Y-130614000D01*
X102649495Y-130612796D01*
X102625227Y-130609196D01*
X102601428Y-130603235D01*
X102578329Y-130594970D01*
X102556150Y-130584480D01*
X102535107Y-130571868D01*
X102515401Y-130557253D01*
X102497223Y-130540777D01*
X102480747Y-130522599D01*
X102466132Y-130502893D01*
X102453520Y-130481850D01*
X102443030Y-130459671D01*
X102434765Y-130436572D01*
X102428804Y-130412773D01*
X102425204Y-130388505D01*
X102424000Y-130364001D01*
X102424000Y-129713999D01*
X102425204Y-129689495D01*
X102428804Y-129665227D01*
X102434765Y-129641428D01*
X102443030Y-129618329D01*
X102453520Y-129596150D01*
X102466132Y-129575107D01*
X102480747Y-129555401D01*
X102497223Y-129537223D01*
X102515401Y-129520747D01*
X102535107Y-129506132D01*
X102556150Y-129493520D01*
X102578329Y-129483030D01*
X102601428Y-129474765D01*
X102625227Y-129468804D01*
X102649495Y-129465204D01*
X102673999Y-129464000D01*
X103574001Y-129464000D01*
X103598505Y-129465204D01*
X103598505Y-129465204D01*
G37*
D15*
X103124000Y-130039000D03*
D14*
G36*
X103598505Y-131515204D02*
X103622773Y-131518804D01*
X103646572Y-131524765D01*
X103669671Y-131533030D01*
X103691850Y-131543520D01*
X103712893Y-131556132D01*
X103732599Y-131570747D01*
X103750777Y-131587223D01*
X103767253Y-131605401D01*
X103781868Y-131625107D01*
X103794480Y-131646150D01*
X103804970Y-131668329D01*
X103813235Y-131691428D01*
X103819196Y-131715227D01*
X103822796Y-131739495D01*
X103824000Y-131763999D01*
X103824000Y-132414001D01*
X103822796Y-132438505D01*
X103819196Y-132462773D01*
X103813235Y-132486572D01*
X103804970Y-132509671D01*
X103794480Y-132531850D01*
X103781868Y-132552893D01*
X103767253Y-132572599D01*
X103750777Y-132590777D01*
X103732599Y-132607253D01*
X103712893Y-132621868D01*
X103691850Y-132634480D01*
X103669671Y-132644970D01*
X103646572Y-132653235D01*
X103622773Y-132659196D01*
X103598505Y-132662796D01*
X103574001Y-132664000D01*
X102673999Y-132664000D01*
X102649495Y-132662796D01*
X102625227Y-132659196D01*
X102601428Y-132653235D01*
X102578329Y-132644970D01*
X102556150Y-132634480D01*
X102535107Y-132621868D01*
X102515401Y-132607253D01*
X102497223Y-132590777D01*
X102480747Y-132572599D01*
X102466132Y-132552893D01*
X102453520Y-132531850D01*
X102443030Y-132509671D01*
X102434765Y-132486572D01*
X102428804Y-132462773D01*
X102425204Y-132438505D01*
X102424000Y-132414001D01*
X102424000Y-131763999D01*
X102425204Y-131739495D01*
X102428804Y-131715227D01*
X102434765Y-131691428D01*
X102443030Y-131668329D01*
X102453520Y-131646150D01*
X102466132Y-131625107D01*
X102480747Y-131605401D01*
X102497223Y-131587223D01*
X102515401Y-131570747D01*
X102535107Y-131556132D01*
X102556150Y-131543520D01*
X102578329Y-131533030D01*
X102601428Y-131524765D01*
X102625227Y-131518804D01*
X102649495Y-131515204D01*
X102673999Y-131514000D01*
X103574001Y-131514000D01*
X103598505Y-131515204D01*
X103598505Y-131515204D01*
G37*
D15*
X103124000Y-132089000D03*
G04 #@! TD*
D14*
G04 #@! TO.C,R3*
G36*
X106138505Y-131506204D02*
X106162773Y-131509804D01*
X106186572Y-131515765D01*
X106209671Y-131524030D01*
X106231850Y-131534520D01*
X106252893Y-131547132D01*
X106272599Y-131561747D01*
X106290777Y-131578223D01*
X106307253Y-131596401D01*
X106321868Y-131616107D01*
X106334480Y-131637150D01*
X106344970Y-131659329D01*
X106353235Y-131682428D01*
X106359196Y-131706227D01*
X106362796Y-131730495D01*
X106364000Y-131754999D01*
X106364000Y-132405001D01*
X106362796Y-132429505D01*
X106359196Y-132453773D01*
X106353235Y-132477572D01*
X106344970Y-132500671D01*
X106334480Y-132522850D01*
X106321868Y-132543893D01*
X106307253Y-132563599D01*
X106290777Y-132581777D01*
X106272599Y-132598253D01*
X106252893Y-132612868D01*
X106231850Y-132625480D01*
X106209671Y-132635970D01*
X106186572Y-132644235D01*
X106162773Y-132650196D01*
X106138505Y-132653796D01*
X106114001Y-132655000D01*
X105213999Y-132655000D01*
X105189495Y-132653796D01*
X105165227Y-132650196D01*
X105141428Y-132644235D01*
X105118329Y-132635970D01*
X105096150Y-132625480D01*
X105075107Y-132612868D01*
X105055401Y-132598253D01*
X105037223Y-132581777D01*
X105020747Y-132563599D01*
X105006132Y-132543893D01*
X104993520Y-132522850D01*
X104983030Y-132500671D01*
X104974765Y-132477572D01*
X104968804Y-132453773D01*
X104965204Y-132429505D01*
X104964000Y-132405001D01*
X104964000Y-131754999D01*
X104965204Y-131730495D01*
X104968804Y-131706227D01*
X104974765Y-131682428D01*
X104983030Y-131659329D01*
X104993520Y-131637150D01*
X105006132Y-131616107D01*
X105020747Y-131596401D01*
X105037223Y-131578223D01*
X105055401Y-131561747D01*
X105075107Y-131547132D01*
X105096150Y-131534520D01*
X105118329Y-131524030D01*
X105141428Y-131515765D01*
X105165227Y-131509804D01*
X105189495Y-131506204D01*
X105213999Y-131505000D01*
X106114001Y-131505000D01*
X106138505Y-131506204D01*
X106138505Y-131506204D01*
G37*
D15*
X105664000Y-132080000D03*
D14*
G36*
X106138505Y-129456204D02*
X106162773Y-129459804D01*
X106186572Y-129465765D01*
X106209671Y-129474030D01*
X106231850Y-129484520D01*
X106252893Y-129497132D01*
X106272599Y-129511747D01*
X106290777Y-129528223D01*
X106307253Y-129546401D01*
X106321868Y-129566107D01*
X106334480Y-129587150D01*
X106344970Y-129609329D01*
X106353235Y-129632428D01*
X106359196Y-129656227D01*
X106362796Y-129680495D01*
X106364000Y-129704999D01*
X106364000Y-130355001D01*
X106362796Y-130379505D01*
X106359196Y-130403773D01*
X106353235Y-130427572D01*
X106344970Y-130450671D01*
X106334480Y-130472850D01*
X106321868Y-130493893D01*
X106307253Y-130513599D01*
X106290777Y-130531777D01*
X106272599Y-130548253D01*
X106252893Y-130562868D01*
X106231850Y-130575480D01*
X106209671Y-130585970D01*
X106186572Y-130594235D01*
X106162773Y-130600196D01*
X106138505Y-130603796D01*
X106114001Y-130605000D01*
X105213999Y-130605000D01*
X105189495Y-130603796D01*
X105165227Y-130600196D01*
X105141428Y-130594235D01*
X105118329Y-130585970D01*
X105096150Y-130575480D01*
X105075107Y-130562868D01*
X105055401Y-130548253D01*
X105037223Y-130531777D01*
X105020747Y-130513599D01*
X105006132Y-130493893D01*
X104993520Y-130472850D01*
X104983030Y-130450671D01*
X104974765Y-130427572D01*
X104968804Y-130403773D01*
X104965204Y-130379505D01*
X104964000Y-130355001D01*
X104964000Y-129704999D01*
X104965204Y-129680495D01*
X104968804Y-129656227D01*
X104974765Y-129632428D01*
X104983030Y-129609329D01*
X104993520Y-129587150D01*
X105006132Y-129566107D01*
X105020747Y-129546401D01*
X105037223Y-129528223D01*
X105055401Y-129511747D01*
X105075107Y-129497132D01*
X105096150Y-129484520D01*
X105118329Y-129474030D01*
X105141428Y-129465765D01*
X105165227Y-129459804D01*
X105189495Y-129456204D01*
X105213999Y-129455000D01*
X106114001Y-129455000D01*
X106138505Y-129456204D01*
X106138505Y-129456204D01*
G37*
D15*
X105664000Y-130030000D03*
G04 #@! TD*
D14*
G04 #@! TO.C,R4*
G36*
X101058505Y-126934204D02*
X101082773Y-126937804D01*
X101106572Y-126943765D01*
X101129671Y-126952030D01*
X101151850Y-126962520D01*
X101172893Y-126975132D01*
X101192599Y-126989747D01*
X101210777Y-127006223D01*
X101227253Y-127024401D01*
X101241868Y-127044107D01*
X101254480Y-127065150D01*
X101264970Y-127087329D01*
X101273235Y-127110428D01*
X101279196Y-127134227D01*
X101282796Y-127158495D01*
X101284000Y-127182999D01*
X101284000Y-127833001D01*
X101282796Y-127857505D01*
X101279196Y-127881773D01*
X101273235Y-127905572D01*
X101264970Y-127928671D01*
X101254480Y-127950850D01*
X101241868Y-127971893D01*
X101227253Y-127991599D01*
X101210777Y-128009777D01*
X101192599Y-128026253D01*
X101172893Y-128040868D01*
X101151850Y-128053480D01*
X101129671Y-128063970D01*
X101106572Y-128072235D01*
X101082773Y-128078196D01*
X101058505Y-128081796D01*
X101034001Y-128083000D01*
X100133999Y-128083000D01*
X100109495Y-128081796D01*
X100085227Y-128078196D01*
X100061428Y-128072235D01*
X100038329Y-128063970D01*
X100016150Y-128053480D01*
X99995107Y-128040868D01*
X99975401Y-128026253D01*
X99957223Y-128009777D01*
X99940747Y-127991599D01*
X99926132Y-127971893D01*
X99913520Y-127950850D01*
X99903030Y-127928671D01*
X99894765Y-127905572D01*
X99888804Y-127881773D01*
X99885204Y-127857505D01*
X99884000Y-127833001D01*
X99884000Y-127182999D01*
X99885204Y-127158495D01*
X99888804Y-127134227D01*
X99894765Y-127110428D01*
X99903030Y-127087329D01*
X99913520Y-127065150D01*
X99926132Y-127044107D01*
X99940747Y-127024401D01*
X99957223Y-127006223D01*
X99975401Y-126989747D01*
X99995107Y-126975132D01*
X100016150Y-126962520D01*
X100038329Y-126952030D01*
X100061428Y-126943765D01*
X100085227Y-126937804D01*
X100109495Y-126934204D01*
X100133999Y-126933000D01*
X101034001Y-126933000D01*
X101058505Y-126934204D01*
X101058505Y-126934204D01*
G37*
D15*
X100584000Y-127508000D03*
D14*
G36*
X101058505Y-124884204D02*
X101082773Y-124887804D01*
X101106572Y-124893765D01*
X101129671Y-124902030D01*
X101151850Y-124912520D01*
X101172893Y-124925132D01*
X101192599Y-124939747D01*
X101210777Y-124956223D01*
X101227253Y-124974401D01*
X101241868Y-124994107D01*
X101254480Y-125015150D01*
X101264970Y-125037329D01*
X101273235Y-125060428D01*
X101279196Y-125084227D01*
X101282796Y-125108495D01*
X101284000Y-125132999D01*
X101284000Y-125783001D01*
X101282796Y-125807505D01*
X101279196Y-125831773D01*
X101273235Y-125855572D01*
X101264970Y-125878671D01*
X101254480Y-125900850D01*
X101241868Y-125921893D01*
X101227253Y-125941599D01*
X101210777Y-125959777D01*
X101192599Y-125976253D01*
X101172893Y-125990868D01*
X101151850Y-126003480D01*
X101129671Y-126013970D01*
X101106572Y-126022235D01*
X101082773Y-126028196D01*
X101058505Y-126031796D01*
X101034001Y-126033000D01*
X100133999Y-126033000D01*
X100109495Y-126031796D01*
X100085227Y-126028196D01*
X100061428Y-126022235D01*
X100038329Y-126013970D01*
X100016150Y-126003480D01*
X99995107Y-125990868D01*
X99975401Y-125976253D01*
X99957223Y-125959777D01*
X99940747Y-125941599D01*
X99926132Y-125921893D01*
X99913520Y-125900850D01*
X99903030Y-125878671D01*
X99894765Y-125855572D01*
X99888804Y-125831773D01*
X99885204Y-125807505D01*
X99884000Y-125783001D01*
X99884000Y-125132999D01*
X99885204Y-125108495D01*
X99888804Y-125084227D01*
X99894765Y-125060428D01*
X99903030Y-125037329D01*
X99913520Y-125015150D01*
X99926132Y-124994107D01*
X99940747Y-124974401D01*
X99957223Y-124956223D01*
X99975401Y-124939747D01*
X99995107Y-124925132D01*
X100016150Y-124912520D01*
X100038329Y-124902030D01*
X100061428Y-124893765D01*
X100085227Y-124887804D01*
X100109495Y-124884204D01*
X100133999Y-124883000D01*
X101034001Y-124883000D01*
X101058505Y-124884204D01*
X101058505Y-124884204D01*
G37*
D15*
X100584000Y-125458000D03*
G04 #@! TD*
D14*
G04 #@! TO.C,R5*
G36*
X109694505Y-102786204D02*
X109718773Y-102789804D01*
X109742572Y-102795765D01*
X109765671Y-102804030D01*
X109787850Y-102814520D01*
X109808893Y-102827132D01*
X109828599Y-102841747D01*
X109846777Y-102858223D01*
X109863253Y-102876401D01*
X109877868Y-102896107D01*
X109890480Y-102917150D01*
X109900970Y-102939329D01*
X109909235Y-102962428D01*
X109915196Y-102986227D01*
X109918796Y-103010495D01*
X109920000Y-103034999D01*
X109920000Y-103685001D01*
X109918796Y-103709505D01*
X109915196Y-103733773D01*
X109909235Y-103757572D01*
X109900970Y-103780671D01*
X109890480Y-103802850D01*
X109877868Y-103823893D01*
X109863253Y-103843599D01*
X109846777Y-103861777D01*
X109828599Y-103878253D01*
X109808893Y-103892868D01*
X109787850Y-103905480D01*
X109765671Y-103915970D01*
X109742572Y-103924235D01*
X109718773Y-103930196D01*
X109694505Y-103933796D01*
X109670001Y-103935000D01*
X108769999Y-103935000D01*
X108745495Y-103933796D01*
X108721227Y-103930196D01*
X108697428Y-103924235D01*
X108674329Y-103915970D01*
X108652150Y-103905480D01*
X108631107Y-103892868D01*
X108611401Y-103878253D01*
X108593223Y-103861777D01*
X108576747Y-103843599D01*
X108562132Y-103823893D01*
X108549520Y-103802850D01*
X108539030Y-103780671D01*
X108530765Y-103757572D01*
X108524804Y-103733773D01*
X108521204Y-103709505D01*
X108520000Y-103685001D01*
X108520000Y-103034999D01*
X108521204Y-103010495D01*
X108524804Y-102986227D01*
X108530765Y-102962428D01*
X108539030Y-102939329D01*
X108549520Y-102917150D01*
X108562132Y-102896107D01*
X108576747Y-102876401D01*
X108593223Y-102858223D01*
X108611401Y-102841747D01*
X108631107Y-102827132D01*
X108652150Y-102814520D01*
X108674329Y-102804030D01*
X108697428Y-102795765D01*
X108721227Y-102789804D01*
X108745495Y-102786204D01*
X108769999Y-102785000D01*
X109670001Y-102785000D01*
X109694505Y-102786204D01*
X109694505Y-102786204D01*
G37*
D15*
X109220000Y-103360000D03*
D14*
G36*
X109694505Y-104836204D02*
X109718773Y-104839804D01*
X109742572Y-104845765D01*
X109765671Y-104854030D01*
X109787850Y-104864520D01*
X109808893Y-104877132D01*
X109828599Y-104891747D01*
X109846777Y-104908223D01*
X109863253Y-104926401D01*
X109877868Y-104946107D01*
X109890480Y-104967150D01*
X109900970Y-104989329D01*
X109909235Y-105012428D01*
X109915196Y-105036227D01*
X109918796Y-105060495D01*
X109920000Y-105084999D01*
X109920000Y-105735001D01*
X109918796Y-105759505D01*
X109915196Y-105783773D01*
X109909235Y-105807572D01*
X109900970Y-105830671D01*
X109890480Y-105852850D01*
X109877868Y-105873893D01*
X109863253Y-105893599D01*
X109846777Y-105911777D01*
X109828599Y-105928253D01*
X109808893Y-105942868D01*
X109787850Y-105955480D01*
X109765671Y-105965970D01*
X109742572Y-105974235D01*
X109718773Y-105980196D01*
X109694505Y-105983796D01*
X109670001Y-105985000D01*
X108769999Y-105985000D01*
X108745495Y-105983796D01*
X108721227Y-105980196D01*
X108697428Y-105974235D01*
X108674329Y-105965970D01*
X108652150Y-105955480D01*
X108631107Y-105942868D01*
X108611401Y-105928253D01*
X108593223Y-105911777D01*
X108576747Y-105893599D01*
X108562132Y-105873893D01*
X108549520Y-105852850D01*
X108539030Y-105830671D01*
X108530765Y-105807572D01*
X108524804Y-105783773D01*
X108521204Y-105759505D01*
X108520000Y-105735001D01*
X108520000Y-105084999D01*
X108521204Y-105060495D01*
X108524804Y-105036227D01*
X108530765Y-105012428D01*
X108539030Y-104989329D01*
X108549520Y-104967150D01*
X108562132Y-104946107D01*
X108576747Y-104926401D01*
X108593223Y-104908223D01*
X108611401Y-104891747D01*
X108631107Y-104877132D01*
X108652150Y-104864520D01*
X108674329Y-104854030D01*
X108697428Y-104845765D01*
X108721227Y-104839804D01*
X108745495Y-104836204D01*
X108769999Y-104835000D01*
X109670001Y-104835000D01*
X109694505Y-104836204D01*
X109694505Y-104836204D01*
G37*
D15*
X109220000Y-105410000D03*
G04 #@! TD*
D14*
G04 #@! TO.C,R6*
G36*
X107662505Y-115749204D02*
X107686773Y-115752804D01*
X107710572Y-115758765D01*
X107733671Y-115767030D01*
X107755850Y-115777520D01*
X107776893Y-115790132D01*
X107796599Y-115804747D01*
X107814777Y-115821223D01*
X107831253Y-115839401D01*
X107845868Y-115859107D01*
X107858480Y-115880150D01*
X107868970Y-115902329D01*
X107877235Y-115925428D01*
X107883196Y-115949227D01*
X107886796Y-115973495D01*
X107888000Y-115997999D01*
X107888000Y-116648001D01*
X107886796Y-116672505D01*
X107883196Y-116696773D01*
X107877235Y-116720572D01*
X107868970Y-116743671D01*
X107858480Y-116765850D01*
X107845868Y-116786893D01*
X107831253Y-116806599D01*
X107814777Y-116824777D01*
X107796599Y-116841253D01*
X107776893Y-116855868D01*
X107755850Y-116868480D01*
X107733671Y-116878970D01*
X107710572Y-116887235D01*
X107686773Y-116893196D01*
X107662505Y-116896796D01*
X107638001Y-116898000D01*
X106737999Y-116898000D01*
X106713495Y-116896796D01*
X106689227Y-116893196D01*
X106665428Y-116887235D01*
X106642329Y-116878970D01*
X106620150Y-116868480D01*
X106599107Y-116855868D01*
X106579401Y-116841253D01*
X106561223Y-116824777D01*
X106544747Y-116806599D01*
X106530132Y-116786893D01*
X106517520Y-116765850D01*
X106507030Y-116743671D01*
X106498765Y-116720572D01*
X106492804Y-116696773D01*
X106489204Y-116672505D01*
X106488000Y-116648001D01*
X106488000Y-115997999D01*
X106489204Y-115973495D01*
X106492804Y-115949227D01*
X106498765Y-115925428D01*
X106507030Y-115902329D01*
X106517520Y-115880150D01*
X106530132Y-115859107D01*
X106544747Y-115839401D01*
X106561223Y-115821223D01*
X106579401Y-115804747D01*
X106599107Y-115790132D01*
X106620150Y-115777520D01*
X106642329Y-115767030D01*
X106665428Y-115758765D01*
X106689227Y-115752804D01*
X106713495Y-115749204D01*
X106737999Y-115748000D01*
X107638001Y-115748000D01*
X107662505Y-115749204D01*
X107662505Y-115749204D01*
G37*
D15*
X107188000Y-116323000D03*
D14*
G36*
X107662505Y-117799204D02*
X107686773Y-117802804D01*
X107710572Y-117808765D01*
X107733671Y-117817030D01*
X107755850Y-117827520D01*
X107776893Y-117840132D01*
X107796599Y-117854747D01*
X107814777Y-117871223D01*
X107831253Y-117889401D01*
X107845868Y-117909107D01*
X107858480Y-117930150D01*
X107868970Y-117952329D01*
X107877235Y-117975428D01*
X107883196Y-117999227D01*
X107886796Y-118023495D01*
X107888000Y-118047999D01*
X107888000Y-118698001D01*
X107886796Y-118722505D01*
X107883196Y-118746773D01*
X107877235Y-118770572D01*
X107868970Y-118793671D01*
X107858480Y-118815850D01*
X107845868Y-118836893D01*
X107831253Y-118856599D01*
X107814777Y-118874777D01*
X107796599Y-118891253D01*
X107776893Y-118905868D01*
X107755850Y-118918480D01*
X107733671Y-118928970D01*
X107710572Y-118937235D01*
X107686773Y-118943196D01*
X107662505Y-118946796D01*
X107638001Y-118948000D01*
X106737999Y-118948000D01*
X106713495Y-118946796D01*
X106689227Y-118943196D01*
X106665428Y-118937235D01*
X106642329Y-118928970D01*
X106620150Y-118918480D01*
X106599107Y-118905868D01*
X106579401Y-118891253D01*
X106561223Y-118874777D01*
X106544747Y-118856599D01*
X106530132Y-118836893D01*
X106517520Y-118815850D01*
X106507030Y-118793671D01*
X106498765Y-118770572D01*
X106492804Y-118746773D01*
X106489204Y-118722505D01*
X106488000Y-118698001D01*
X106488000Y-118047999D01*
X106489204Y-118023495D01*
X106492804Y-117999227D01*
X106498765Y-117975428D01*
X106507030Y-117952329D01*
X106517520Y-117930150D01*
X106530132Y-117909107D01*
X106544747Y-117889401D01*
X106561223Y-117871223D01*
X106579401Y-117854747D01*
X106599107Y-117840132D01*
X106620150Y-117827520D01*
X106642329Y-117817030D01*
X106665428Y-117808765D01*
X106689227Y-117802804D01*
X106713495Y-117799204D01*
X106737999Y-117798000D01*
X107638001Y-117798000D01*
X107662505Y-117799204D01*
X107662505Y-117799204D01*
G37*
D15*
X107188000Y-118373000D03*
G04 #@! TD*
D14*
G04 #@! TO.C,TH1*
G36*
X109361504Y-128393704D02*
X109385773Y-128397304D01*
X109409571Y-128403265D01*
X109432671Y-128411530D01*
X109454849Y-128422020D01*
X109475893Y-128434633D01*
X109495598Y-128449247D01*
X109513777Y-128465723D01*
X109530253Y-128483902D01*
X109544867Y-128503607D01*
X109557480Y-128524651D01*
X109567970Y-128546829D01*
X109576235Y-128569929D01*
X109582196Y-128593727D01*
X109585796Y-128617996D01*
X109587000Y-128642500D01*
X109587000Y-129567500D01*
X109585796Y-129592004D01*
X109582196Y-129616273D01*
X109576235Y-129640071D01*
X109567970Y-129663171D01*
X109557480Y-129685349D01*
X109544867Y-129706393D01*
X109530253Y-129726098D01*
X109513777Y-129744277D01*
X109495598Y-129760753D01*
X109475893Y-129775367D01*
X109454849Y-129787980D01*
X109432671Y-129798470D01*
X109409571Y-129806735D01*
X109385773Y-129812696D01*
X109361504Y-129816296D01*
X109337000Y-129817500D01*
X108087000Y-129817500D01*
X108062496Y-129816296D01*
X108038227Y-129812696D01*
X108014429Y-129806735D01*
X107991329Y-129798470D01*
X107969151Y-129787980D01*
X107948107Y-129775367D01*
X107928402Y-129760753D01*
X107910223Y-129744277D01*
X107893747Y-129726098D01*
X107879133Y-129706393D01*
X107866520Y-129685349D01*
X107856030Y-129663171D01*
X107847765Y-129640071D01*
X107841804Y-129616273D01*
X107838204Y-129592004D01*
X107837000Y-129567500D01*
X107837000Y-128642500D01*
X107838204Y-128617996D01*
X107841804Y-128593727D01*
X107847765Y-128569929D01*
X107856030Y-128546829D01*
X107866520Y-128524651D01*
X107879133Y-128503607D01*
X107893747Y-128483902D01*
X107910223Y-128465723D01*
X107928402Y-128449247D01*
X107948107Y-128434633D01*
X107969151Y-128422020D01*
X107991329Y-128411530D01*
X108014429Y-128403265D01*
X108038227Y-128397304D01*
X108062496Y-128393704D01*
X108087000Y-128392500D01*
X109337000Y-128392500D01*
X109361504Y-128393704D01*
X109361504Y-128393704D01*
G37*
D16*
X108712000Y-129105000D03*
D14*
G36*
X109361504Y-131368704D02*
X109385773Y-131372304D01*
X109409571Y-131378265D01*
X109432671Y-131386530D01*
X109454849Y-131397020D01*
X109475893Y-131409633D01*
X109495598Y-131424247D01*
X109513777Y-131440723D01*
X109530253Y-131458902D01*
X109544867Y-131478607D01*
X109557480Y-131499651D01*
X109567970Y-131521829D01*
X109576235Y-131544929D01*
X109582196Y-131568727D01*
X109585796Y-131592996D01*
X109587000Y-131617500D01*
X109587000Y-132542500D01*
X109585796Y-132567004D01*
X109582196Y-132591273D01*
X109576235Y-132615071D01*
X109567970Y-132638171D01*
X109557480Y-132660349D01*
X109544867Y-132681393D01*
X109530253Y-132701098D01*
X109513777Y-132719277D01*
X109495598Y-132735753D01*
X109475893Y-132750367D01*
X109454849Y-132762980D01*
X109432671Y-132773470D01*
X109409571Y-132781735D01*
X109385773Y-132787696D01*
X109361504Y-132791296D01*
X109337000Y-132792500D01*
X108087000Y-132792500D01*
X108062496Y-132791296D01*
X108038227Y-132787696D01*
X108014429Y-132781735D01*
X107991329Y-132773470D01*
X107969151Y-132762980D01*
X107948107Y-132750367D01*
X107928402Y-132735753D01*
X107910223Y-132719277D01*
X107893747Y-132701098D01*
X107879133Y-132681393D01*
X107866520Y-132660349D01*
X107856030Y-132638171D01*
X107847765Y-132615071D01*
X107841804Y-132591273D01*
X107838204Y-132567004D01*
X107837000Y-132542500D01*
X107837000Y-131617500D01*
X107838204Y-131592996D01*
X107841804Y-131568727D01*
X107847765Y-131544929D01*
X107856030Y-131521829D01*
X107866520Y-131499651D01*
X107879133Y-131478607D01*
X107893747Y-131458902D01*
X107910223Y-131440723D01*
X107928402Y-131424247D01*
X107948107Y-131409633D01*
X107969151Y-131397020D01*
X107991329Y-131386530D01*
X108014429Y-131378265D01*
X108038227Y-131372304D01*
X108062496Y-131368704D01*
X108087000Y-131367500D01*
X109337000Y-131367500D01*
X109361504Y-131368704D01*
X109361504Y-131368704D01*
G37*
D16*
X108712000Y-132080000D03*
G04 #@! TD*
D14*
G04 #@! TO.C,TP1*
G36*
X105205793Y-120906446D02*
X105255106Y-120913761D01*
X105303465Y-120925874D01*
X105350403Y-120942669D01*
X105395470Y-120963984D01*
X105438230Y-120989613D01*
X105478272Y-121019311D01*
X105515210Y-121052790D01*
X105548689Y-121089728D01*
X105578387Y-121129770D01*
X105604016Y-121172530D01*
X105625331Y-121217597D01*
X105642126Y-121264535D01*
X105654239Y-121312894D01*
X105661554Y-121362207D01*
X105664000Y-121412000D01*
X105664000Y-122428000D01*
X105661554Y-122477793D01*
X105654239Y-122527106D01*
X105642126Y-122575465D01*
X105625331Y-122622403D01*
X105604016Y-122667470D01*
X105578387Y-122710230D01*
X105548689Y-122750272D01*
X105515210Y-122787210D01*
X105478272Y-122820689D01*
X105438230Y-122850387D01*
X105395470Y-122876016D01*
X105350403Y-122897331D01*
X105303465Y-122914126D01*
X105255106Y-122926239D01*
X105205793Y-122933554D01*
X105156000Y-122936000D01*
X104140000Y-122936000D01*
X104090207Y-122933554D01*
X104040894Y-122926239D01*
X103992535Y-122914126D01*
X103945597Y-122897331D01*
X103900530Y-122876016D01*
X103857770Y-122850387D01*
X103817728Y-122820689D01*
X103780790Y-122787210D01*
X103747311Y-122750272D01*
X103717613Y-122710230D01*
X103691984Y-122667470D01*
X103670669Y-122622403D01*
X103653874Y-122575465D01*
X103641761Y-122527106D01*
X103634446Y-122477793D01*
X103632000Y-122428000D01*
X103632000Y-121412000D01*
X103634446Y-121362207D01*
X103641761Y-121312894D01*
X103653874Y-121264535D01*
X103670669Y-121217597D01*
X103691984Y-121172530D01*
X103717613Y-121129770D01*
X103747311Y-121089728D01*
X103780790Y-121052790D01*
X103817728Y-121019311D01*
X103857770Y-120989613D01*
X103900530Y-120963984D01*
X103945597Y-120942669D01*
X103992535Y-120925874D01*
X104040894Y-120913761D01*
X104090207Y-120906446D01*
X104140000Y-120904000D01*
X105156000Y-120904000D01*
X105205793Y-120906446D01*
X105205793Y-120906446D01*
G37*
D17*
X104648000Y-121920000D03*
D14*
G36*
X105205793Y-123446446D02*
X105255106Y-123453761D01*
X105303465Y-123465874D01*
X105350403Y-123482669D01*
X105395470Y-123503984D01*
X105438230Y-123529613D01*
X105478272Y-123559311D01*
X105515210Y-123592790D01*
X105548689Y-123629728D01*
X105578387Y-123669770D01*
X105604016Y-123712530D01*
X105625331Y-123757597D01*
X105642126Y-123804535D01*
X105654239Y-123852894D01*
X105661554Y-123902207D01*
X105664000Y-123952000D01*
X105664000Y-124968000D01*
X105661554Y-125017793D01*
X105654239Y-125067106D01*
X105642126Y-125115465D01*
X105625331Y-125162403D01*
X105604016Y-125207470D01*
X105578387Y-125250230D01*
X105548689Y-125290272D01*
X105515210Y-125327210D01*
X105478272Y-125360689D01*
X105438230Y-125390387D01*
X105395470Y-125416016D01*
X105350403Y-125437331D01*
X105303465Y-125454126D01*
X105255106Y-125466239D01*
X105205793Y-125473554D01*
X105156000Y-125476000D01*
X104140000Y-125476000D01*
X104090207Y-125473554D01*
X104040894Y-125466239D01*
X103992535Y-125454126D01*
X103945597Y-125437331D01*
X103900530Y-125416016D01*
X103857770Y-125390387D01*
X103817728Y-125360689D01*
X103780790Y-125327210D01*
X103747311Y-125290272D01*
X103717613Y-125250230D01*
X103691984Y-125207470D01*
X103670669Y-125162403D01*
X103653874Y-125115465D01*
X103641761Y-125067106D01*
X103634446Y-125017793D01*
X103632000Y-124968000D01*
X103632000Y-123952000D01*
X103634446Y-123902207D01*
X103641761Y-123852894D01*
X103653874Y-123804535D01*
X103670669Y-123757597D01*
X103691984Y-123712530D01*
X103717613Y-123669770D01*
X103747311Y-123629728D01*
X103780790Y-123592790D01*
X103817728Y-123559311D01*
X103857770Y-123529613D01*
X103900530Y-123503984D01*
X103945597Y-123482669D01*
X103992535Y-123465874D01*
X104040894Y-123453761D01*
X104090207Y-123446446D01*
X104140000Y-123444000D01*
X105156000Y-123444000D01*
X105205793Y-123446446D01*
X105205793Y-123446446D01*
G37*
D17*
X104648000Y-124460000D03*
D14*
G36*
X107745793Y-120906446D02*
X107795106Y-120913761D01*
X107843465Y-120925874D01*
X107890403Y-120942669D01*
X107935470Y-120963984D01*
X107978230Y-120989613D01*
X108018272Y-121019311D01*
X108055210Y-121052790D01*
X108088689Y-121089728D01*
X108118387Y-121129770D01*
X108144016Y-121172530D01*
X108165331Y-121217597D01*
X108182126Y-121264535D01*
X108194239Y-121312894D01*
X108201554Y-121362207D01*
X108204000Y-121412000D01*
X108204000Y-122428000D01*
X108201554Y-122477793D01*
X108194239Y-122527106D01*
X108182126Y-122575465D01*
X108165331Y-122622403D01*
X108144016Y-122667470D01*
X108118387Y-122710230D01*
X108088689Y-122750272D01*
X108055210Y-122787210D01*
X108018272Y-122820689D01*
X107978230Y-122850387D01*
X107935470Y-122876016D01*
X107890403Y-122897331D01*
X107843465Y-122914126D01*
X107795106Y-122926239D01*
X107745793Y-122933554D01*
X107696000Y-122936000D01*
X106680000Y-122936000D01*
X106630207Y-122933554D01*
X106580894Y-122926239D01*
X106532535Y-122914126D01*
X106485597Y-122897331D01*
X106440530Y-122876016D01*
X106397770Y-122850387D01*
X106357728Y-122820689D01*
X106320790Y-122787210D01*
X106287311Y-122750272D01*
X106257613Y-122710230D01*
X106231984Y-122667470D01*
X106210669Y-122622403D01*
X106193874Y-122575465D01*
X106181761Y-122527106D01*
X106174446Y-122477793D01*
X106172000Y-122428000D01*
X106172000Y-121412000D01*
X106174446Y-121362207D01*
X106181761Y-121312894D01*
X106193874Y-121264535D01*
X106210669Y-121217597D01*
X106231984Y-121172530D01*
X106257613Y-121129770D01*
X106287311Y-121089728D01*
X106320790Y-121052790D01*
X106357728Y-121019311D01*
X106397770Y-120989613D01*
X106440530Y-120963984D01*
X106485597Y-120942669D01*
X106532535Y-120925874D01*
X106580894Y-120913761D01*
X106630207Y-120906446D01*
X106680000Y-120904000D01*
X107696000Y-120904000D01*
X107745793Y-120906446D01*
X107745793Y-120906446D01*
G37*
D17*
X107188000Y-121920000D03*
D14*
G36*
X107745793Y-123446446D02*
X107795106Y-123453761D01*
X107843465Y-123465874D01*
X107890403Y-123482669D01*
X107935470Y-123503984D01*
X107978230Y-123529613D01*
X108018272Y-123559311D01*
X108055210Y-123592790D01*
X108088689Y-123629728D01*
X108118387Y-123669770D01*
X108144016Y-123712530D01*
X108165331Y-123757597D01*
X108182126Y-123804535D01*
X108194239Y-123852894D01*
X108201554Y-123902207D01*
X108204000Y-123952000D01*
X108204000Y-124968000D01*
X108201554Y-125017793D01*
X108194239Y-125067106D01*
X108182126Y-125115465D01*
X108165331Y-125162403D01*
X108144016Y-125207470D01*
X108118387Y-125250230D01*
X108088689Y-125290272D01*
X108055210Y-125327210D01*
X108018272Y-125360689D01*
X107978230Y-125390387D01*
X107935470Y-125416016D01*
X107890403Y-125437331D01*
X107843465Y-125454126D01*
X107795106Y-125466239D01*
X107745793Y-125473554D01*
X107696000Y-125476000D01*
X106680000Y-125476000D01*
X106630207Y-125473554D01*
X106580894Y-125466239D01*
X106532535Y-125454126D01*
X106485597Y-125437331D01*
X106440530Y-125416016D01*
X106397770Y-125390387D01*
X106357728Y-125360689D01*
X106320790Y-125327210D01*
X106287311Y-125290272D01*
X106257613Y-125250230D01*
X106231984Y-125207470D01*
X106210669Y-125162403D01*
X106193874Y-125115465D01*
X106181761Y-125067106D01*
X106174446Y-125017793D01*
X106172000Y-124968000D01*
X106172000Y-123952000D01*
X106174446Y-123902207D01*
X106181761Y-123852894D01*
X106193874Y-123804535D01*
X106210669Y-123757597D01*
X106231984Y-123712530D01*
X106257613Y-123669770D01*
X106287311Y-123629728D01*
X106320790Y-123592790D01*
X106357728Y-123559311D01*
X106397770Y-123529613D01*
X106440530Y-123503984D01*
X106485597Y-123482669D01*
X106532535Y-123465874D01*
X106580894Y-123453761D01*
X106630207Y-123446446D01*
X106680000Y-123444000D01*
X107696000Y-123444000D01*
X107745793Y-123446446D01*
X107745793Y-123446446D01*
G37*
D17*
X107188000Y-124460000D03*
D14*
G36*
X110285793Y-120906446D02*
X110335106Y-120913761D01*
X110383465Y-120925874D01*
X110430403Y-120942669D01*
X110475470Y-120963984D01*
X110518230Y-120989613D01*
X110558272Y-121019311D01*
X110595210Y-121052790D01*
X110628689Y-121089728D01*
X110658387Y-121129770D01*
X110684016Y-121172530D01*
X110705331Y-121217597D01*
X110722126Y-121264535D01*
X110734239Y-121312894D01*
X110741554Y-121362207D01*
X110744000Y-121412000D01*
X110744000Y-122428000D01*
X110741554Y-122477793D01*
X110734239Y-122527106D01*
X110722126Y-122575465D01*
X110705331Y-122622403D01*
X110684016Y-122667470D01*
X110658387Y-122710230D01*
X110628689Y-122750272D01*
X110595210Y-122787210D01*
X110558272Y-122820689D01*
X110518230Y-122850387D01*
X110475470Y-122876016D01*
X110430403Y-122897331D01*
X110383465Y-122914126D01*
X110335106Y-122926239D01*
X110285793Y-122933554D01*
X110236000Y-122936000D01*
X109220000Y-122936000D01*
X109170207Y-122933554D01*
X109120894Y-122926239D01*
X109072535Y-122914126D01*
X109025597Y-122897331D01*
X108980530Y-122876016D01*
X108937770Y-122850387D01*
X108897728Y-122820689D01*
X108860790Y-122787210D01*
X108827311Y-122750272D01*
X108797613Y-122710230D01*
X108771984Y-122667470D01*
X108750669Y-122622403D01*
X108733874Y-122575465D01*
X108721761Y-122527106D01*
X108714446Y-122477793D01*
X108712000Y-122428000D01*
X108712000Y-121412000D01*
X108714446Y-121362207D01*
X108721761Y-121312894D01*
X108733874Y-121264535D01*
X108750669Y-121217597D01*
X108771984Y-121172530D01*
X108797613Y-121129770D01*
X108827311Y-121089728D01*
X108860790Y-121052790D01*
X108897728Y-121019311D01*
X108937770Y-120989613D01*
X108980530Y-120963984D01*
X109025597Y-120942669D01*
X109072535Y-120925874D01*
X109120894Y-120913761D01*
X109170207Y-120906446D01*
X109220000Y-120904000D01*
X110236000Y-120904000D01*
X110285793Y-120906446D01*
X110285793Y-120906446D01*
G37*
D17*
X109728000Y-121920000D03*
D14*
G36*
X110285793Y-123446446D02*
X110335106Y-123453761D01*
X110383465Y-123465874D01*
X110430403Y-123482669D01*
X110475470Y-123503984D01*
X110518230Y-123529613D01*
X110558272Y-123559311D01*
X110595210Y-123592790D01*
X110628689Y-123629728D01*
X110658387Y-123669770D01*
X110684016Y-123712530D01*
X110705331Y-123757597D01*
X110722126Y-123804535D01*
X110734239Y-123852894D01*
X110741554Y-123902207D01*
X110744000Y-123952000D01*
X110744000Y-124968000D01*
X110741554Y-125017793D01*
X110734239Y-125067106D01*
X110722126Y-125115465D01*
X110705331Y-125162403D01*
X110684016Y-125207470D01*
X110658387Y-125250230D01*
X110628689Y-125290272D01*
X110595210Y-125327210D01*
X110558272Y-125360689D01*
X110518230Y-125390387D01*
X110475470Y-125416016D01*
X110430403Y-125437331D01*
X110383465Y-125454126D01*
X110335106Y-125466239D01*
X110285793Y-125473554D01*
X110236000Y-125476000D01*
X109220000Y-125476000D01*
X109170207Y-125473554D01*
X109120894Y-125466239D01*
X109072535Y-125454126D01*
X109025597Y-125437331D01*
X108980530Y-125416016D01*
X108937770Y-125390387D01*
X108897728Y-125360689D01*
X108860790Y-125327210D01*
X108827311Y-125290272D01*
X108797613Y-125250230D01*
X108771984Y-125207470D01*
X108750669Y-125162403D01*
X108733874Y-125115465D01*
X108721761Y-125067106D01*
X108714446Y-125017793D01*
X108712000Y-124968000D01*
X108712000Y-123952000D01*
X108714446Y-123902207D01*
X108721761Y-123852894D01*
X108733874Y-123804535D01*
X108750669Y-123757597D01*
X108771984Y-123712530D01*
X108797613Y-123669770D01*
X108827311Y-123629728D01*
X108860790Y-123592790D01*
X108897728Y-123559311D01*
X108937770Y-123529613D01*
X108980530Y-123503984D01*
X109025597Y-123482669D01*
X109072535Y-123465874D01*
X109120894Y-123453761D01*
X109170207Y-123446446D01*
X109220000Y-123444000D01*
X110236000Y-123444000D01*
X110285793Y-123446446D01*
X110285793Y-123446446D01*
G37*
D17*
X109728000Y-124460000D03*
G04 #@! TD*
D18*
G04 #@! TO.C,U1*
X110221000Y-85383000D03*
X110221000Y-86183000D03*
X110221000Y-86983000D03*
X110221000Y-87783000D03*
X110221000Y-88583000D03*
X110221000Y-89383000D03*
X110221000Y-90183000D03*
X110221000Y-90983000D03*
X110221000Y-91783000D03*
X110221000Y-92583000D03*
X110221000Y-93383000D03*
D19*
X108521000Y-95083000D03*
X107721000Y-95083000D03*
X106921000Y-95083000D03*
X106121000Y-95083000D03*
X105321000Y-95083000D03*
X104521000Y-95083000D03*
X103721000Y-95083000D03*
X102921000Y-95083000D03*
X102121000Y-95083000D03*
X101321000Y-95083000D03*
X100521000Y-95083000D03*
D18*
X98821000Y-93383000D03*
X98821000Y-92583000D03*
X98821000Y-91783000D03*
X98821000Y-90983000D03*
X98821000Y-90183000D03*
X98821000Y-89383000D03*
X98821000Y-88583000D03*
X98821000Y-87783000D03*
X98821000Y-86983000D03*
X98821000Y-86183000D03*
X98821000Y-85383000D03*
D19*
X100521000Y-83683000D03*
X101321000Y-83683000D03*
X102121000Y-83683000D03*
X102921000Y-83683000D03*
X103721000Y-83683000D03*
X104521000Y-83683000D03*
X105321000Y-83683000D03*
X106121000Y-83683000D03*
X106921000Y-83683000D03*
X107721000Y-83683000D03*
X108521000Y-83683000D03*
G04 #@! TD*
D20*
G04 #@! TO.C,Y1*
X99060000Y-106235000D03*
X99060000Y-118110000D03*
G04 #@! TD*
D14*
G04 #@! TO.C,C1*
G36*
X107154505Y-107884204D02*
X107178773Y-107887804D01*
X107202572Y-107893765D01*
X107225671Y-107902030D01*
X107247850Y-107912520D01*
X107268893Y-107925132D01*
X107288599Y-107939747D01*
X107306777Y-107956223D01*
X107323253Y-107974401D01*
X107337868Y-107994107D01*
X107350480Y-108015150D01*
X107360970Y-108037329D01*
X107369235Y-108060428D01*
X107375196Y-108084227D01*
X107378796Y-108108495D01*
X107380000Y-108132999D01*
X107380000Y-108783001D01*
X107378796Y-108807505D01*
X107375196Y-108831773D01*
X107369235Y-108855572D01*
X107360970Y-108878671D01*
X107350480Y-108900850D01*
X107337868Y-108921893D01*
X107323253Y-108941599D01*
X107306777Y-108959777D01*
X107288599Y-108976253D01*
X107268893Y-108990868D01*
X107247850Y-109003480D01*
X107225671Y-109013970D01*
X107202572Y-109022235D01*
X107178773Y-109028196D01*
X107154505Y-109031796D01*
X107130001Y-109033000D01*
X106229999Y-109033000D01*
X106205495Y-109031796D01*
X106181227Y-109028196D01*
X106157428Y-109022235D01*
X106134329Y-109013970D01*
X106112150Y-109003480D01*
X106091107Y-108990868D01*
X106071401Y-108976253D01*
X106053223Y-108959777D01*
X106036747Y-108941599D01*
X106022132Y-108921893D01*
X106009520Y-108900850D01*
X105999030Y-108878671D01*
X105990765Y-108855572D01*
X105984804Y-108831773D01*
X105981204Y-108807505D01*
X105980000Y-108783001D01*
X105980000Y-108132999D01*
X105981204Y-108108495D01*
X105984804Y-108084227D01*
X105990765Y-108060428D01*
X105999030Y-108037329D01*
X106009520Y-108015150D01*
X106022132Y-107994107D01*
X106036747Y-107974401D01*
X106053223Y-107956223D01*
X106071401Y-107939747D01*
X106091107Y-107925132D01*
X106112150Y-107912520D01*
X106134329Y-107902030D01*
X106157428Y-107893765D01*
X106181227Y-107887804D01*
X106205495Y-107884204D01*
X106229999Y-107883000D01*
X107130001Y-107883000D01*
X107154505Y-107884204D01*
X107154505Y-107884204D01*
G37*
D15*
X106680000Y-108458000D03*
D14*
G36*
X107154505Y-109934204D02*
X107178773Y-109937804D01*
X107202572Y-109943765D01*
X107225671Y-109952030D01*
X107247850Y-109962520D01*
X107268893Y-109975132D01*
X107288599Y-109989747D01*
X107306777Y-110006223D01*
X107323253Y-110024401D01*
X107337868Y-110044107D01*
X107350480Y-110065150D01*
X107360970Y-110087329D01*
X107369235Y-110110428D01*
X107375196Y-110134227D01*
X107378796Y-110158495D01*
X107380000Y-110182999D01*
X107380000Y-110833001D01*
X107378796Y-110857505D01*
X107375196Y-110881773D01*
X107369235Y-110905572D01*
X107360970Y-110928671D01*
X107350480Y-110950850D01*
X107337868Y-110971893D01*
X107323253Y-110991599D01*
X107306777Y-111009777D01*
X107288599Y-111026253D01*
X107268893Y-111040868D01*
X107247850Y-111053480D01*
X107225671Y-111063970D01*
X107202572Y-111072235D01*
X107178773Y-111078196D01*
X107154505Y-111081796D01*
X107130001Y-111083000D01*
X106229999Y-111083000D01*
X106205495Y-111081796D01*
X106181227Y-111078196D01*
X106157428Y-111072235D01*
X106134329Y-111063970D01*
X106112150Y-111053480D01*
X106091107Y-111040868D01*
X106071401Y-111026253D01*
X106053223Y-111009777D01*
X106036747Y-110991599D01*
X106022132Y-110971893D01*
X106009520Y-110950850D01*
X105999030Y-110928671D01*
X105990765Y-110905572D01*
X105984804Y-110881773D01*
X105981204Y-110857505D01*
X105980000Y-110833001D01*
X105980000Y-110182999D01*
X105981204Y-110158495D01*
X105984804Y-110134227D01*
X105990765Y-110110428D01*
X105999030Y-110087329D01*
X106009520Y-110065150D01*
X106022132Y-110044107D01*
X106036747Y-110024401D01*
X106053223Y-110006223D01*
X106071401Y-109989747D01*
X106091107Y-109975132D01*
X106112150Y-109962520D01*
X106134329Y-109952030D01*
X106157428Y-109943765D01*
X106181227Y-109937804D01*
X106205495Y-109934204D01*
X106229999Y-109933000D01*
X107130001Y-109933000D01*
X107154505Y-109934204D01*
X107154505Y-109934204D01*
G37*
D15*
X106680000Y-110508000D03*
G04 #@! TD*
D14*
G04 #@! TO.C,C2*
G36*
X104614505Y-107866204D02*
X104638773Y-107869804D01*
X104662572Y-107875765D01*
X104685671Y-107884030D01*
X104707850Y-107894520D01*
X104728893Y-107907132D01*
X104748599Y-107921747D01*
X104766777Y-107938223D01*
X104783253Y-107956401D01*
X104797868Y-107976107D01*
X104810480Y-107997150D01*
X104820970Y-108019329D01*
X104829235Y-108042428D01*
X104835196Y-108066227D01*
X104838796Y-108090495D01*
X104840000Y-108114999D01*
X104840000Y-108765001D01*
X104838796Y-108789505D01*
X104835196Y-108813773D01*
X104829235Y-108837572D01*
X104820970Y-108860671D01*
X104810480Y-108882850D01*
X104797868Y-108903893D01*
X104783253Y-108923599D01*
X104766777Y-108941777D01*
X104748599Y-108958253D01*
X104728893Y-108972868D01*
X104707850Y-108985480D01*
X104685671Y-108995970D01*
X104662572Y-109004235D01*
X104638773Y-109010196D01*
X104614505Y-109013796D01*
X104590001Y-109015000D01*
X103689999Y-109015000D01*
X103665495Y-109013796D01*
X103641227Y-109010196D01*
X103617428Y-109004235D01*
X103594329Y-108995970D01*
X103572150Y-108985480D01*
X103551107Y-108972868D01*
X103531401Y-108958253D01*
X103513223Y-108941777D01*
X103496747Y-108923599D01*
X103482132Y-108903893D01*
X103469520Y-108882850D01*
X103459030Y-108860671D01*
X103450765Y-108837572D01*
X103444804Y-108813773D01*
X103441204Y-108789505D01*
X103440000Y-108765001D01*
X103440000Y-108114999D01*
X103441204Y-108090495D01*
X103444804Y-108066227D01*
X103450765Y-108042428D01*
X103459030Y-108019329D01*
X103469520Y-107997150D01*
X103482132Y-107976107D01*
X103496747Y-107956401D01*
X103513223Y-107938223D01*
X103531401Y-107921747D01*
X103551107Y-107907132D01*
X103572150Y-107894520D01*
X103594329Y-107884030D01*
X103617428Y-107875765D01*
X103641227Y-107869804D01*
X103665495Y-107866204D01*
X103689999Y-107865000D01*
X104590001Y-107865000D01*
X104614505Y-107866204D01*
X104614505Y-107866204D01*
G37*
D15*
X104140000Y-108440000D03*
D14*
G36*
X104614505Y-109916204D02*
X104638773Y-109919804D01*
X104662572Y-109925765D01*
X104685671Y-109934030D01*
X104707850Y-109944520D01*
X104728893Y-109957132D01*
X104748599Y-109971747D01*
X104766777Y-109988223D01*
X104783253Y-110006401D01*
X104797868Y-110026107D01*
X104810480Y-110047150D01*
X104820970Y-110069329D01*
X104829235Y-110092428D01*
X104835196Y-110116227D01*
X104838796Y-110140495D01*
X104840000Y-110164999D01*
X104840000Y-110815001D01*
X104838796Y-110839505D01*
X104835196Y-110863773D01*
X104829235Y-110887572D01*
X104820970Y-110910671D01*
X104810480Y-110932850D01*
X104797868Y-110953893D01*
X104783253Y-110973599D01*
X104766777Y-110991777D01*
X104748599Y-111008253D01*
X104728893Y-111022868D01*
X104707850Y-111035480D01*
X104685671Y-111045970D01*
X104662572Y-111054235D01*
X104638773Y-111060196D01*
X104614505Y-111063796D01*
X104590001Y-111065000D01*
X103689999Y-111065000D01*
X103665495Y-111063796D01*
X103641227Y-111060196D01*
X103617428Y-111054235D01*
X103594329Y-111045970D01*
X103572150Y-111035480D01*
X103551107Y-111022868D01*
X103531401Y-111008253D01*
X103513223Y-110991777D01*
X103496747Y-110973599D01*
X103482132Y-110953893D01*
X103469520Y-110932850D01*
X103459030Y-110910671D01*
X103450765Y-110887572D01*
X103444804Y-110863773D01*
X103441204Y-110839505D01*
X103440000Y-110815001D01*
X103440000Y-110164999D01*
X103441204Y-110140495D01*
X103444804Y-110116227D01*
X103450765Y-110092428D01*
X103459030Y-110069329D01*
X103469520Y-110047150D01*
X103482132Y-110026107D01*
X103496747Y-110006401D01*
X103513223Y-109988223D01*
X103531401Y-109971747D01*
X103551107Y-109957132D01*
X103572150Y-109944520D01*
X103594329Y-109934030D01*
X103617428Y-109925765D01*
X103641227Y-109919804D01*
X103665495Y-109916204D01*
X103689999Y-109915000D01*
X104590001Y-109915000D01*
X104614505Y-109916204D01*
X104614505Y-109916204D01*
G37*
D15*
X104140000Y-110490000D03*
G04 #@! TD*
D14*
G04 #@! TO.C,C3*
G36*
X112234505Y-102786204D02*
X112258773Y-102789804D01*
X112282572Y-102795765D01*
X112305671Y-102804030D01*
X112327850Y-102814520D01*
X112348893Y-102827132D01*
X112368599Y-102841747D01*
X112386777Y-102858223D01*
X112403253Y-102876401D01*
X112417868Y-102896107D01*
X112430480Y-102917150D01*
X112440970Y-102939329D01*
X112449235Y-102962428D01*
X112455196Y-102986227D01*
X112458796Y-103010495D01*
X112460000Y-103034999D01*
X112460000Y-103685001D01*
X112458796Y-103709505D01*
X112455196Y-103733773D01*
X112449235Y-103757572D01*
X112440970Y-103780671D01*
X112430480Y-103802850D01*
X112417868Y-103823893D01*
X112403253Y-103843599D01*
X112386777Y-103861777D01*
X112368599Y-103878253D01*
X112348893Y-103892868D01*
X112327850Y-103905480D01*
X112305671Y-103915970D01*
X112282572Y-103924235D01*
X112258773Y-103930196D01*
X112234505Y-103933796D01*
X112210001Y-103935000D01*
X111309999Y-103935000D01*
X111285495Y-103933796D01*
X111261227Y-103930196D01*
X111237428Y-103924235D01*
X111214329Y-103915970D01*
X111192150Y-103905480D01*
X111171107Y-103892868D01*
X111151401Y-103878253D01*
X111133223Y-103861777D01*
X111116747Y-103843599D01*
X111102132Y-103823893D01*
X111089520Y-103802850D01*
X111079030Y-103780671D01*
X111070765Y-103757572D01*
X111064804Y-103733773D01*
X111061204Y-103709505D01*
X111060000Y-103685001D01*
X111060000Y-103034999D01*
X111061204Y-103010495D01*
X111064804Y-102986227D01*
X111070765Y-102962428D01*
X111079030Y-102939329D01*
X111089520Y-102917150D01*
X111102132Y-102896107D01*
X111116747Y-102876401D01*
X111133223Y-102858223D01*
X111151401Y-102841747D01*
X111171107Y-102827132D01*
X111192150Y-102814520D01*
X111214329Y-102804030D01*
X111237428Y-102795765D01*
X111261227Y-102789804D01*
X111285495Y-102786204D01*
X111309999Y-102785000D01*
X112210001Y-102785000D01*
X112234505Y-102786204D01*
X112234505Y-102786204D01*
G37*
D15*
X111760000Y-103360000D03*
D14*
G36*
X112234505Y-104836204D02*
X112258773Y-104839804D01*
X112282572Y-104845765D01*
X112305671Y-104854030D01*
X112327850Y-104864520D01*
X112348893Y-104877132D01*
X112368599Y-104891747D01*
X112386777Y-104908223D01*
X112403253Y-104926401D01*
X112417868Y-104946107D01*
X112430480Y-104967150D01*
X112440970Y-104989329D01*
X112449235Y-105012428D01*
X112455196Y-105036227D01*
X112458796Y-105060495D01*
X112460000Y-105084999D01*
X112460000Y-105735001D01*
X112458796Y-105759505D01*
X112455196Y-105783773D01*
X112449235Y-105807572D01*
X112440970Y-105830671D01*
X112430480Y-105852850D01*
X112417868Y-105873893D01*
X112403253Y-105893599D01*
X112386777Y-105911777D01*
X112368599Y-105928253D01*
X112348893Y-105942868D01*
X112327850Y-105955480D01*
X112305671Y-105965970D01*
X112282572Y-105974235D01*
X112258773Y-105980196D01*
X112234505Y-105983796D01*
X112210001Y-105985000D01*
X111309999Y-105985000D01*
X111285495Y-105983796D01*
X111261227Y-105980196D01*
X111237428Y-105974235D01*
X111214329Y-105965970D01*
X111192150Y-105955480D01*
X111171107Y-105942868D01*
X111151401Y-105928253D01*
X111133223Y-105911777D01*
X111116747Y-105893599D01*
X111102132Y-105873893D01*
X111089520Y-105852850D01*
X111079030Y-105830671D01*
X111070765Y-105807572D01*
X111064804Y-105783773D01*
X111061204Y-105759505D01*
X111060000Y-105735001D01*
X111060000Y-105084999D01*
X111061204Y-105060495D01*
X111064804Y-105036227D01*
X111070765Y-105012428D01*
X111079030Y-104989329D01*
X111089520Y-104967150D01*
X111102132Y-104946107D01*
X111116747Y-104926401D01*
X111133223Y-104908223D01*
X111151401Y-104891747D01*
X111171107Y-104877132D01*
X111192150Y-104864520D01*
X111214329Y-104854030D01*
X111237428Y-104845765D01*
X111261227Y-104839804D01*
X111285495Y-104836204D01*
X111309999Y-104835000D01*
X112210001Y-104835000D01*
X112234505Y-104836204D01*
X112234505Y-104836204D01*
G37*
D15*
X111760000Y-105410000D03*
G04 #@! TD*
D14*
G04 #@! TO.C,C4*
G36*
X112234505Y-109916204D02*
X112258773Y-109919804D01*
X112282572Y-109925765D01*
X112305671Y-109934030D01*
X112327850Y-109944520D01*
X112348893Y-109957132D01*
X112368599Y-109971747D01*
X112386777Y-109988223D01*
X112403253Y-110006401D01*
X112417868Y-110026107D01*
X112430480Y-110047150D01*
X112440970Y-110069329D01*
X112449235Y-110092428D01*
X112455196Y-110116227D01*
X112458796Y-110140495D01*
X112460000Y-110164999D01*
X112460000Y-110815001D01*
X112458796Y-110839505D01*
X112455196Y-110863773D01*
X112449235Y-110887572D01*
X112440970Y-110910671D01*
X112430480Y-110932850D01*
X112417868Y-110953893D01*
X112403253Y-110973599D01*
X112386777Y-110991777D01*
X112368599Y-111008253D01*
X112348893Y-111022868D01*
X112327850Y-111035480D01*
X112305671Y-111045970D01*
X112282572Y-111054235D01*
X112258773Y-111060196D01*
X112234505Y-111063796D01*
X112210001Y-111065000D01*
X111309999Y-111065000D01*
X111285495Y-111063796D01*
X111261227Y-111060196D01*
X111237428Y-111054235D01*
X111214329Y-111045970D01*
X111192150Y-111035480D01*
X111171107Y-111022868D01*
X111151401Y-111008253D01*
X111133223Y-110991777D01*
X111116747Y-110973599D01*
X111102132Y-110953893D01*
X111089520Y-110932850D01*
X111079030Y-110910671D01*
X111070765Y-110887572D01*
X111064804Y-110863773D01*
X111061204Y-110839505D01*
X111060000Y-110815001D01*
X111060000Y-110164999D01*
X111061204Y-110140495D01*
X111064804Y-110116227D01*
X111070765Y-110092428D01*
X111079030Y-110069329D01*
X111089520Y-110047150D01*
X111102132Y-110026107D01*
X111116747Y-110006401D01*
X111133223Y-109988223D01*
X111151401Y-109971747D01*
X111171107Y-109957132D01*
X111192150Y-109944520D01*
X111214329Y-109934030D01*
X111237428Y-109925765D01*
X111261227Y-109919804D01*
X111285495Y-109916204D01*
X111309999Y-109915000D01*
X112210001Y-109915000D01*
X112234505Y-109916204D01*
X112234505Y-109916204D01*
G37*
D15*
X111760000Y-110490000D03*
D14*
G36*
X112234505Y-107866204D02*
X112258773Y-107869804D01*
X112282572Y-107875765D01*
X112305671Y-107884030D01*
X112327850Y-107894520D01*
X112348893Y-107907132D01*
X112368599Y-107921747D01*
X112386777Y-107938223D01*
X112403253Y-107956401D01*
X112417868Y-107976107D01*
X112430480Y-107997150D01*
X112440970Y-108019329D01*
X112449235Y-108042428D01*
X112455196Y-108066227D01*
X112458796Y-108090495D01*
X112460000Y-108114999D01*
X112460000Y-108765001D01*
X112458796Y-108789505D01*
X112455196Y-108813773D01*
X112449235Y-108837572D01*
X112440970Y-108860671D01*
X112430480Y-108882850D01*
X112417868Y-108903893D01*
X112403253Y-108923599D01*
X112386777Y-108941777D01*
X112368599Y-108958253D01*
X112348893Y-108972868D01*
X112327850Y-108985480D01*
X112305671Y-108995970D01*
X112282572Y-109004235D01*
X112258773Y-109010196D01*
X112234505Y-109013796D01*
X112210001Y-109015000D01*
X111309999Y-109015000D01*
X111285495Y-109013796D01*
X111261227Y-109010196D01*
X111237428Y-109004235D01*
X111214329Y-108995970D01*
X111192150Y-108985480D01*
X111171107Y-108972868D01*
X111151401Y-108958253D01*
X111133223Y-108941777D01*
X111116747Y-108923599D01*
X111102132Y-108903893D01*
X111089520Y-108882850D01*
X111079030Y-108860671D01*
X111070765Y-108837572D01*
X111064804Y-108813773D01*
X111061204Y-108789505D01*
X111060000Y-108765001D01*
X111060000Y-108114999D01*
X111061204Y-108090495D01*
X111064804Y-108066227D01*
X111070765Y-108042428D01*
X111079030Y-108019329D01*
X111089520Y-107997150D01*
X111102132Y-107976107D01*
X111116747Y-107956401D01*
X111133223Y-107938223D01*
X111151401Y-107921747D01*
X111171107Y-107907132D01*
X111192150Y-107894520D01*
X111214329Y-107884030D01*
X111237428Y-107875765D01*
X111261227Y-107869804D01*
X111285495Y-107866204D01*
X111309999Y-107865000D01*
X112210001Y-107865000D01*
X112234505Y-107866204D01*
X112234505Y-107866204D01*
G37*
D15*
X111760000Y-108440000D03*
G04 #@! TD*
D14*
G04 #@! TO.C,C5*
G36*
X109694505Y-109916204D02*
X109718773Y-109919804D01*
X109742572Y-109925765D01*
X109765671Y-109934030D01*
X109787850Y-109944520D01*
X109808893Y-109957132D01*
X109828599Y-109971747D01*
X109846777Y-109988223D01*
X109863253Y-110006401D01*
X109877868Y-110026107D01*
X109890480Y-110047150D01*
X109900970Y-110069329D01*
X109909235Y-110092428D01*
X109915196Y-110116227D01*
X109918796Y-110140495D01*
X109920000Y-110164999D01*
X109920000Y-110815001D01*
X109918796Y-110839505D01*
X109915196Y-110863773D01*
X109909235Y-110887572D01*
X109900970Y-110910671D01*
X109890480Y-110932850D01*
X109877868Y-110953893D01*
X109863253Y-110973599D01*
X109846777Y-110991777D01*
X109828599Y-111008253D01*
X109808893Y-111022868D01*
X109787850Y-111035480D01*
X109765671Y-111045970D01*
X109742572Y-111054235D01*
X109718773Y-111060196D01*
X109694505Y-111063796D01*
X109670001Y-111065000D01*
X108769999Y-111065000D01*
X108745495Y-111063796D01*
X108721227Y-111060196D01*
X108697428Y-111054235D01*
X108674329Y-111045970D01*
X108652150Y-111035480D01*
X108631107Y-111022868D01*
X108611401Y-111008253D01*
X108593223Y-110991777D01*
X108576747Y-110973599D01*
X108562132Y-110953893D01*
X108549520Y-110932850D01*
X108539030Y-110910671D01*
X108530765Y-110887572D01*
X108524804Y-110863773D01*
X108521204Y-110839505D01*
X108520000Y-110815001D01*
X108520000Y-110164999D01*
X108521204Y-110140495D01*
X108524804Y-110116227D01*
X108530765Y-110092428D01*
X108539030Y-110069329D01*
X108549520Y-110047150D01*
X108562132Y-110026107D01*
X108576747Y-110006401D01*
X108593223Y-109988223D01*
X108611401Y-109971747D01*
X108631107Y-109957132D01*
X108652150Y-109944520D01*
X108674329Y-109934030D01*
X108697428Y-109925765D01*
X108721227Y-109919804D01*
X108745495Y-109916204D01*
X108769999Y-109915000D01*
X109670001Y-109915000D01*
X109694505Y-109916204D01*
X109694505Y-109916204D01*
G37*
D15*
X109220000Y-110490000D03*
D14*
G36*
X109694505Y-107866204D02*
X109718773Y-107869804D01*
X109742572Y-107875765D01*
X109765671Y-107884030D01*
X109787850Y-107894520D01*
X109808893Y-107907132D01*
X109828599Y-107921747D01*
X109846777Y-107938223D01*
X109863253Y-107956401D01*
X109877868Y-107976107D01*
X109890480Y-107997150D01*
X109900970Y-108019329D01*
X109909235Y-108042428D01*
X109915196Y-108066227D01*
X109918796Y-108090495D01*
X109920000Y-108114999D01*
X109920000Y-108765001D01*
X109918796Y-108789505D01*
X109915196Y-108813773D01*
X109909235Y-108837572D01*
X109900970Y-108860671D01*
X109890480Y-108882850D01*
X109877868Y-108903893D01*
X109863253Y-108923599D01*
X109846777Y-108941777D01*
X109828599Y-108958253D01*
X109808893Y-108972868D01*
X109787850Y-108985480D01*
X109765671Y-108995970D01*
X109742572Y-109004235D01*
X109718773Y-109010196D01*
X109694505Y-109013796D01*
X109670001Y-109015000D01*
X108769999Y-109015000D01*
X108745495Y-109013796D01*
X108721227Y-109010196D01*
X108697428Y-109004235D01*
X108674329Y-108995970D01*
X108652150Y-108985480D01*
X108631107Y-108972868D01*
X108611401Y-108958253D01*
X108593223Y-108941777D01*
X108576747Y-108923599D01*
X108562132Y-108903893D01*
X108549520Y-108882850D01*
X108539030Y-108860671D01*
X108530765Y-108837572D01*
X108524804Y-108813773D01*
X108521204Y-108789505D01*
X108520000Y-108765001D01*
X108520000Y-108114999D01*
X108521204Y-108090495D01*
X108524804Y-108066227D01*
X108530765Y-108042428D01*
X108539030Y-108019329D01*
X108549520Y-107997150D01*
X108562132Y-107976107D01*
X108576747Y-107956401D01*
X108593223Y-107938223D01*
X108611401Y-107921747D01*
X108631107Y-107907132D01*
X108652150Y-107894520D01*
X108674329Y-107884030D01*
X108697428Y-107875765D01*
X108721227Y-107869804D01*
X108745495Y-107866204D01*
X108769999Y-107865000D01*
X109670001Y-107865000D01*
X109694505Y-107866204D01*
X109694505Y-107866204D01*
G37*
D15*
X109220000Y-108440000D03*
G04 #@! TD*
D14*
G04 #@! TO.C,D1*
G36*
X101058505Y-129456204D02*
X101082773Y-129459804D01*
X101106572Y-129465765D01*
X101129671Y-129474030D01*
X101151850Y-129484520D01*
X101172893Y-129497132D01*
X101192599Y-129511747D01*
X101210777Y-129528223D01*
X101227253Y-129546401D01*
X101241868Y-129566107D01*
X101254480Y-129587150D01*
X101264970Y-129609329D01*
X101273235Y-129632428D01*
X101279196Y-129656227D01*
X101282796Y-129680495D01*
X101284000Y-129704999D01*
X101284000Y-130355001D01*
X101282796Y-130379505D01*
X101279196Y-130403773D01*
X101273235Y-130427572D01*
X101264970Y-130450671D01*
X101254480Y-130472850D01*
X101241868Y-130493893D01*
X101227253Y-130513599D01*
X101210777Y-130531777D01*
X101192599Y-130548253D01*
X101172893Y-130562868D01*
X101151850Y-130575480D01*
X101129671Y-130585970D01*
X101106572Y-130594235D01*
X101082773Y-130600196D01*
X101058505Y-130603796D01*
X101034001Y-130605000D01*
X100133999Y-130605000D01*
X100109495Y-130603796D01*
X100085227Y-130600196D01*
X100061428Y-130594235D01*
X100038329Y-130585970D01*
X100016150Y-130575480D01*
X99995107Y-130562868D01*
X99975401Y-130548253D01*
X99957223Y-130531777D01*
X99940747Y-130513599D01*
X99926132Y-130493893D01*
X99913520Y-130472850D01*
X99903030Y-130450671D01*
X99894765Y-130427572D01*
X99888804Y-130403773D01*
X99885204Y-130379505D01*
X99884000Y-130355001D01*
X99884000Y-129704999D01*
X99885204Y-129680495D01*
X99888804Y-129656227D01*
X99894765Y-129632428D01*
X99903030Y-129609329D01*
X99913520Y-129587150D01*
X99926132Y-129566107D01*
X99940747Y-129546401D01*
X99957223Y-129528223D01*
X99975401Y-129511747D01*
X99995107Y-129497132D01*
X100016150Y-129484520D01*
X100038329Y-129474030D01*
X100061428Y-129465765D01*
X100085227Y-129459804D01*
X100109495Y-129456204D01*
X100133999Y-129455000D01*
X101034001Y-129455000D01*
X101058505Y-129456204D01*
X101058505Y-129456204D01*
G37*
D15*
X100584000Y-130030000D03*
D14*
G36*
X101058505Y-131506204D02*
X101082773Y-131509804D01*
X101106572Y-131515765D01*
X101129671Y-131524030D01*
X101151850Y-131534520D01*
X101172893Y-131547132D01*
X101192599Y-131561747D01*
X101210777Y-131578223D01*
X101227253Y-131596401D01*
X101241868Y-131616107D01*
X101254480Y-131637150D01*
X101264970Y-131659329D01*
X101273235Y-131682428D01*
X101279196Y-131706227D01*
X101282796Y-131730495D01*
X101284000Y-131754999D01*
X101284000Y-132405001D01*
X101282796Y-132429505D01*
X101279196Y-132453773D01*
X101273235Y-132477572D01*
X101264970Y-132500671D01*
X101254480Y-132522850D01*
X101241868Y-132543893D01*
X101227253Y-132563599D01*
X101210777Y-132581777D01*
X101192599Y-132598253D01*
X101172893Y-132612868D01*
X101151850Y-132625480D01*
X101129671Y-132635970D01*
X101106572Y-132644235D01*
X101082773Y-132650196D01*
X101058505Y-132653796D01*
X101034001Y-132655000D01*
X100133999Y-132655000D01*
X100109495Y-132653796D01*
X100085227Y-132650196D01*
X100061428Y-132644235D01*
X100038329Y-132635970D01*
X100016150Y-132625480D01*
X99995107Y-132612868D01*
X99975401Y-132598253D01*
X99957223Y-132581777D01*
X99940747Y-132563599D01*
X99926132Y-132543893D01*
X99913520Y-132522850D01*
X99903030Y-132500671D01*
X99894765Y-132477572D01*
X99888804Y-132453773D01*
X99885204Y-132429505D01*
X99884000Y-132405001D01*
X99884000Y-131754999D01*
X99885204Y-131730495D01*
X99888804Y-131706227D01*
X99894765Y-131682428D01*
X99903030Y-131659329D01*
X99913520Y-131637150D01*
X99926132Y-131616107D01*
X99940747Y-131596401D01*
X99957223Y-131578223D01*
X99975401Y-131561747D01*
X99995107Y-131547132D01*
X100016150Y-131534520D01*
X100038329Y-131524030D01*
X100061428Y-131515765D01*
X100085227Y-131509804D01*
X100109495Y-131506204D01*
X100133999Y-131505000D01*
X101034001Y-131505000D01*
X101058505Y-131506204D01*
X101058505Y-131506204D01*
G37*
D15*
X100584000Y-132080000D03*
G04 #@! TD*
D14*
G04 #@! TO.C,D2*
G36*
X110202505Y-117808204D02*
X110226773Y-117811804D01*
X110250572Y-117817765D01*
X110273671Y-117826030D01*
X110295850Y-117836520D01*
X110316893Y-117849132D01*
X110336599Y-117863747D01*
X110354777Y-117880223D01*
X110371253Y-117898401D01*
X110385868Y-117918107D01*
X110398480Y-117939150D01*
X110408970Y-117961329D01*
X110417235Y-117984428D01*
X110423196Y-118008227D01*
X110426796Y-118032495D01*
X110428000Y-118056999D01*
X110428000Y-118707001D01*
X110426796Y-118731505D01*
X110423196Y-118755773D01*
X110417235Y-118779572D01*
X110408970Y-118802671D01*
X110398480Y-118824850D01*
X110385868Y-118845893D01*
X110371253Y-118865599D01*
X110354777Y-118883777D01*
X110336599Y-118900253D01*
X110316893Y-118914868D01*
X110295850Y-118927480D01*
X110273671Y-118937970D01*
X110250572Y-118946235D01*
X110226773Y-118952196D01*
X110202505Y-118955796D01*
X110178001Y-118957000D01*
X109277999Y-118957000D01*
X109253495Y-118955796D01*
X109229227Y-118952196D01*
X109205428Y-118946235D01*
X109182329Y-118937970D01*
X109160150Y-118927480D01*
X109139107Y-118914868D01*
X109119401Y-118900253D01*
X109101223Y-118883777D01*
X109084747Y-118865599D01*
X109070132Y-118845893D01*
X109057520Y-118824850D01*
X109047030Y-118802671D01*
X109038765Y-118779572D01*
X109032804Y-118755773D01*
X109029204Y-118731505D01*
X109028000Y-118707001D01*
X109028000Y-118056999D01*
X109029204Y-118032495D01*
X109032804Y-118008227D01*
X109038765Y-117984428D01*
X109047030Y-117961329D01*
X109057520Y-117939150D01*
X109070132Y-117918107D01*
X109084747Y-117898401D01*
X109101223Y-117880223D01*
X109119401Y-117863747D01*
X109139107Y-117849132D01*
X109160150Y-117836520D01*
X109182329Y-117826030D01*
X109205428Y-117817765D01*
X109229227Y-117811804D01*
X109253495Y-117808204D01*
X109277999Y-117807000D01*
X110178001Y-117807000D01*
X110202505Y-117808204D01*
X110202505Y-117808204D01*
G37*
D15*
X109728000Y-118382000D03*
D14*
G36*
X110202505Y-115758204D02*
X110226773Y-115761804D01*
X110250572Y-115767765D01*
X110273671Y-115776030D01*
X110295850Y-115786520D01*
X110316893Y-115799132D01*
X110336599Y-115813747D01*
X110354777Y-115830223D01*
X110371253Y-115848401D01*
X110385868Y-115868107D01*
X110398480Y-115889150D01*
X110408970Y-115911329D01*
X110417235Y-115934428D01*
X110423196Y-115958227D01*
X110426796Y-115982495D01*
X110428000Y-116006999D01*
X110428000Y-116657001D01*
X110426796Y-116681505D01*
X110423196Y-116705773D01*
X110417235Y-116729572D01*
X110408970Y-116752671D01*
X110398480Y-116774850D01*
X110385868Y-116795893D01*
X110371253Y-116815599D01*
X110354777Y-116833777D01*
X110336599Y-116850253D01*
X110316893Y-116864868D01*
X110295850Y-116877480D01*
X110273671Y-116887970D01*
X110250572Y-116896235D01*
X110226773Y-116902196D01*
X110202505Y-116905796D01*
X110178001Y-116907000D01*
X109277999Y-116907000D01*
X109253495Y-116905796D01*
X109229227Y-116902196D01*
X109205428Y-116896235D01*
X109182329Y-116887970D01*
X109160150Y-116877480D01*
X109139107Y-116864868D01*
X109119401Y-116850253D01*
X109101223Y-116833777D01*
X109084747Y-116815599D01*
X109070132Y-116795893D01*
X109057520Y-116774850D01*
X109047030Y-116752671D01*
X109038765Y-116729572D01*
X109032804Y-116705773D01*
X109029204Y-116681505D01*
X109028000Y-116657001D01*
X109028000Y-116006999D01*
X109029204Y-115982495D01*
X109032804Y-115958227D01*
X109038765Y-115934428D01*
X109047030Y-115911329D01*
X109057520Y-115889150D01*
X109070132Y-115868107D01*
X109084747Y-115848401D01*
X109101223Y-115830223D01*
X109119401Y-115813747D01*
X109139107Y-115799132D01*
X109160150Y-115786520D01*
X109182329Y-115776030D01*
X109205428Y-115767765D01*
X109229227Y-115761804D01*
X109253495Y-115758204D01*
X109277999Y-115757000D01*
X110178001Y-115757000D01*
X110202505Y-115758204D01*
X110202505Y-115758204D01*
G37*
D15*
X109728000Y-116332000D03*
G04 #@! TD*
M02*
