G04 #@! TF.GenerationSoftware,KiCad,Pcbnew,5.0.2-bee76a0~70~ubuntu18.04.1*
G04 #@! TF.CreationDate,2019-10-25T22:44:05+08:00*
G04 #@! TF.ProjectId,TuneShroom,54756e65-5368-4726-9f6f-6d2e6b696361,rev?*
G04 #@! TF.SameCoordinates,Original*
G04 #@! TF.FileFunction,Legend,Top*
G04 #@! TF.FilePolarity,Positive*
%FSLAX46Y46*%
G04 Gerber Fmt 4.6, Leading zero omitted, Abs format (unit mm)*
G04 Created by KiCad (PCBNEW 5.0.2-bee76a0~70~ubuntu18.04.1) date Fri 25 Oct 2019 22:44:05 HKT*
%MOMM*%
%LPD*%
G01*
G04 APERTURE LIST*
%ADD10C,0.010000*%
%ADD11C,0.150000*%
G04 APERTURE END LIST*
D10*
G04 #@! TO.C,*
G36*
X104853398Y-43753251D02*
X105370763Y-43757107D01*
X105855831Y-43763682D01*
X106313591Y-43773175D01*
X106749028Y-43785788D01*
X107167129Y-43801721D01*
X107572882Y-43821173D01*
X107971273Y-43844344D01*
X108367289Y-43871435D01*
X108765916Y-43902646D01*
X109172143Y-43938177D01*
X109347000Y-43954511D01*
X110421480Y-44072189D01*
X111464492Y-44217992D01*
X112476283Y-44392008D01*
X113457103Y-44594325D01*
X114407200Y-44825030D01*
X115326824Y-45084211D01*
X116216223Y-45371955D01*
X117075647Y-45688351D01*
X117905343Y-46033485D01*
X118705561Y-46407447D01*
X119476550Y-46810323D01*
X120218559Y-47242201D01*
X120931836Y-47703169D01*
X121616630Y-48193314D01*
X121824750Y-48352423D01*
X122370383Y-48795441D01*
X122917659Y-49278458D01*
X123466840Y-49801754D01*
X124018185Y-50365612D01*
X124571953Y-50970312D01*
X125128406Y-51616137D01*
X125687802Y-52303367D01*
X126250402Y-53032285D01*
X126665538Y-53594000D01*
X126836783Y-53832043D01*
X127022528Y-54094517D01*
X127223538Y-54382552D01*
X127440576Y-54697280D01*
X127674409Y-55039832D01*
X127925801Y-55411338D01*
X128195516Y-55812931D01*
X128484320Y-56245740D01*
X128792977Y-56710898D01*
X129122252Y-57209536D01*
X129472910Y-57742783D01*
X129549215Y-57859084D01*
X129888754Y-58374766D01*
X130208993Y-58856822D01*
X130512005Y-59308166D01*
X130799861Y-59731712D01*
X131074635Y-60130375D01*
X131338399Y-60507071D01*
X131593227Y-60864714D01*
X131841190Y-61206218D01*
X132084361Y-61534498D01*
X132324814Y-61852470D01*
X132564620Y-62163048D01*
X132805853Y-62469147D01*
X132996000Y-62706250D01*
X133134958Y-62875144D01*
X133270722Y-63033092D01*
X133407676Y-63184380D01*
X133550206Y-63333292D01*
X133702699Y-63484115D01*
X133869540Y-63641135D01*
X134055114Y-63808636D01*
X134263808Y-63990905D01*
X134500007Y-64192227D01*
X134620000Y-64293166D01*
X134835209Y-64472187D01*
X135048777Y-64646844D01*
X135263190Y-64818928D01*
X135480933Y-64990230D01*
X135704491Y-65162540D01*
X135936349Y-65337650D01*
X136178993Y-65517349D01*
X136434908Y-65703429D01*
X136706580Y-65897679D01*
X136996492Y-66101892D01*
X137307132Y-66317857D01*
X137640983Y-66547365D01*
X138000531Y-66792207D01*
X138388262Y-67054173D01*
X138806660Y-67335053D01*
X139258211Y-67636640D01*
X139287250Y-67655991D01*
X139731057Y-67952114D01*
X140141771Y-68227107D01*
X140521892Y-68482757D01*
X140873919Y-68720852D01*
X141200354Y-68943178D01*
X141503696Y-69151522D01*
X141786447Y-69347672D01*
X142051105Y-69533414D01*
X142300173Y-69710536D01*
X142536149Y-69880824D01*
X142761535Y-70046067D01*
X142978830Y-70208050D01*
X143190535Y-70368560D01*
X143399150Y-70529386D01*
X143607176Y-70692313D01*
X143817113Y-70859129D01*
X144031461Y-71031622D01*
X144187334Y-71158220D01*
X144606926Y-71509949D01*
X145003062Y-71861781D01*
X145372211Y-72210326D01*
X145710840Y-72552189D01*
X146015420Y-72883980D01*
X146163644Y-73056750D01*
X146636585Y-73654729D01*
X147072772Y-74272570D01*
X147471726Y-74909168D01*
X147832969Y-75563418D01*
X148156024Y-76234214D01*
X148440412Y-76920450D01*
X148685657Y-77621022D01*
X148891279Y-78334822D01*
X149056801Y-79060747D01*
X149181746Y-79797689D01*
X149225473Y-80140169D01*
X149280382Y-80757154D01*
X149303178Y-81374622D01*
X149293737Y-81998927D01*
X149251937Y-82636422D01*
X149177652Y-83293458D01*
X149161828Y-83407250D01*
X149145453Y-83525251D01*
X149125757Y-83672315D01*
X149104434Y-83835474D01*
X149083183Y-84001756D01*
X149064939Y-84148084D01*
X148940058Y-84992430D01*
X148773507Y-85833890D01*
X148565928Y-86670988D01*
X148317961Y-87502248D01*
X148030247Y-88326192D01*
X147703426Y-89141346D01*
X147338138Y-89946233D01*
X146935025Y-90739377D01*
X146494728Y-91519301D01*
X146017885Y-92284530D01*
X145505140Y-93033586D01*
X144957131Y-93764995D01*
X144812025Y-93948250D01*
X144611617Y-94195563D01*
X144419336Y-94426178D01*
X144229117Y-94646809D01*
X144034893Y-94864169D01*
X143830602Y-95084973D01*
X143610177Y-95315933D01*
X143367554Y-95563763D01*
X143204493Y-95727660D01*
X142947127Y-95982885D01*
X142710675Y-96212463D01*
X142488216Y-96422643D01*
X142272827Y-96619672D01*
X142057587Y-96809798D01*
X141835573Y-96999269D01*
X141599865Y-97194332D01*
X141403917Y-97352887D01*
X140543098Y-98018330D01*
X139655650Y-98654203D01*
X138740605Y-99261066D01*
X137796994Y-99839478D01*
X136823851Y-100389999D01*
X135820206Y-100913186D01*
X134785091Y-101409600D01*
X133717537Y-101879799D01*
X133182509Y-102100712D01*
X132102788Y-102517512D01*
X130989449Y-102908821D01*
X129842707Y-103274591D01*
X128662778Y-103614773D01*
X127449878Y-103929320D01*
X126204222Y-104218183D01*
X124926027Y-104481314D01*
X123615509Y-104718666D01*
X122272883Y-104930189D01*
X120898366Y-105115835D01*
X119492172Y-105275557D01*
X118554500Y-105366060D01*
X118231555Y-105394222D01*
X117889531Y-105422438D01*
X117536942Y-105450089D01*
X117182305Y-105476560D01*
X116834134Y-105501235D01*
X116500946Y-105523495D01*
X116191256Y-105542725D01*
X115913579Y-105558307D01*
X115866334Y-105560744D01*
X115725348Y-105568384D01*
X115598652Y-105576170D01*
X115492312Y-105583652D01*
X115412390Y-105590385D01*
X115364951Y-105595919D01*
X115354523Y-105598541D01*
X115358157Y-105620702D01*
X115374839Y-105678731D01*
X115403205Y-105768695D01*
X115441893Y-105886657D01*
X115489540Y-106028681D01*
X115544784Y-106190832D01*
X115606261Y-106369173D01*
X115672609Y-106559770D01*
X115742466Y-106758686D01*
X115814468Y-106961986D01*
X115887252Y-107165734D01*
X115959457Y-107365994D01*
X116029719Y-107558830D01*
X116088085Y-107717167D01*
X116348378Y-108424817D01*
X116591542Y-109098425D01*
X116818869Y-109742064D01*
X117031653Y-110359807D01*
X117231186Y-110955727D01*
X117418761Y-111533897D01*
X117595672Y-112098389D01*
X117763212Y-112653275D01*
X117922673Y-113202630D01*
X118075349Y-113750526D01*
X118222533Y-114301034D01*
X118365518Y-114858229D01*
X118403341Y-115009419D01*
X118685857Y-116201906D01*
X118934503Y-117373519D01*
X119149891Y-118527941D01*
X119332634Y-119668856D01*
X119483345Y-120799948D01*
X119602635Y-121924900D01*
X119654415Y-122533834D01*
X119717485Y-123448523D01*
X119761695Y-124328027D01*
X119786969Y-125175098D01*
X119793233Y-125992487D01*
X119780412Y-126782947D01*
X119748431Y-127549229D01*
X119697216Y-128294085D01*
X119626693Y-129020266D01*
X119536786Y-129730524D01*
X119442778Y-130337419D01*
X119293046Y-131130599D01*
X119113340Y-131910800D01*
X118904941Y-132673770D01*
X118669130Y-133415259D01*
X118407190Y-134131016D01*
X118120401Y-134816791D01*
X118037534Y-134999155D01*
X117867683Y-135349056D01*
X117696290Y-135665015D01*
X117517705Y-135955224D01*
X117326278Y-136227873D01*
X117116356Y-136491155D01*
X116882290Y-136753260D01*
X116692365Y-136949125D01*
X116304972Y-137309605D01*
X115882658Y-137650401D01*
X115424854Y-137971853D01*
X114930995Y-138274299D01*
X114400514Y-138558077D01*
X113832845Y-138823525D01*
X113227420Y-139070982D01*
X112989904Y-139159438D01*
X112559572Y-139306899D01*
X112097249Y-139449183D01*
X111613198Y-139583671D01*
X111117682Y-139707745D01*
X110620965Y-139818790D01*
X110133312Y-139914186D01*
X109823250Y-139967011D01*
X109356207Y-140039908D01*
X108922649Y-140104001D01*
X108514850Y-140160169D01*
X108125084Y-140209289D01*
X107745623Y-140252240D01*
X107368742Y-140289898D01*
X106986714Y-140323141D01*
X106591813Y-140352849D01*
X106203750Y-140378224D01*
X106084993Y-140384027D01*
X105929525Y-140389342D01*
X105742963Y-140394134D01*
X105530928Y-140398366D01*
X105299040Y-140402001D01*
X105052915Y-140405004D01*
X104798176Y-140407338D01*
X104540439Y-140408966D01*
X104285325Y-140409853D01*
X104038452Y-140409962D01*
X103805440Y-140409257D01*
X103591908Y-140407702D01*
X103403475Y-140405260D01*
X103245761Y-140401895D01*
X103134584Y-140398042D01*
X102308499Y-140352605D01*
X101490315Y-140290826D01*
X100682835Y-140213215D01*
X99888858Y-140120282D01*
X99111186Y-140012540D01*
X98352621Y-139890499D01*
X97615963Y-139754670D01*
X96904013Y-139605564D01*
X96219574Y-139443692D01*
X95565446Y-139269566D01*
X94944430Y-139083696D01*
X94359327Y-138886593D01*
X93898559Y-138713082D01*
X93348197Y-138479168D01*
X92822912Y-138223134D01*
X92314304Y-137940281D01*
X91813971Y-137625912D01*
X91313510Y-137275329D01*
X91270667Y-137243688D01*
X91115115Y-137126706D01*
X90988042Y-137026859D01*
X90882562Y-136938013D01*
X90791787Y-136854033D01*
X90708831Y-136768787D01*
X90626809Y-136676139D01*
X90606396Y-136652000D01*
X90495251Y-136514840D01*
X90393365Y-136378003D01*
X90298466Y-136237007D01*
X90208284Y-136087371D01*
X90120548Y-135924612D01*
X90032988Y-135744248D01*
X89943332Y-135541797D01*
X89849311Y-135312779D01*
X89748652Y-135052710D01*
X89639085Y-134757109D01*
X89620613Y-134706316D01*
X89513020Y-134405341D01*
X89415351Y-134121820D01*
X89325720Y-133849107D01*
X89242239Y-133580558D01*
X89163021Y-133309525D01*
X89086180Y-133029363D01*
X89009828Y-132733426D01*
X88932078Y-132415068D01*
X88851043Y-132067642D01*
X88772755Y-131720167D01*
X88600635Y-130857064D01*
X88462895Y-129973138D01*
X88359738Y-129072549D01*
X88291370Y-128159457D01*
X88257995Y-127238022D01*
X88258900Y-126778007D01*
X88819621Y-126778007D01*
X88820873Y-127022315D01*
X88823397Y-127266891D01*
X88827134Y-127505105D01*
X88832026Y-127730327D01*
X88838015Y-127935928D01*
X88845042Y-128115277D01*
X88853048Y-128261746D01*
X88856727Y-128312334D01*
X88949426Y-129255147D01*
X89075262Y-130179780D01*
X89235365Y-131091383D01*
X89430867Y-131995104D01*
X89662897Y-132896092D01*
X89932588Y-133799495D01*
X90241070Y-134710463D01*
X90294970Y-134859645D01*
X90369241Y-135062550D01*
X90431814Y-135230788D01*
X90485025Y-135369630D01*
X90531212Y-135484347D01*
X90572714Y-135580210D01*
X90611869Y-135662489D01*
X90651014Y-135736457D01*
X90692488Y-135807384D01*
X90738629Y-135880541D01*
X90767039Y-135923936D01*
X90957241Y-136179838D01*
X91187871Y-136433756D01*
X91457027Y-136684279D01*
X91762809Y-136929993D01*
X92103316Y-137169488D01*
X92476645Y-137401351D01*
X92880895Y-137624170D01*
X93314166Y-137836533D01*
X93387334Y-137870026D01*
X93952231Y-138110624D01*
X94554987Y-138337780D01*
X95193154Y-138550996D01*
X95864285Y-138749775D01*
X96565934Y-138933621D01*
X97295653Y-139102037D01*
X98050996Y-139254525D01*
X98829516Y-139390589D01*
X99628765Y-139509733D01*
X100446297Y-139611459D01*
X101279664Y-139695270D01*
X102126421Y-139760670D01*
X102912334Y-139804024D01*
X103051773Y-139808988D01*
X103227158Y-139813207D01*
X103432425Y-139816679D01*
X103661512Y-139819401D01*
X103908355Y-139821371D01*
X104166891Y-139822586D01*
X104431055Y-139823044D01*
X104694785Y-139822741D01*
X104952018Y-139821676D01*
X105196689Y-139819846D01*
X105422736Y-139817248D01*
X105624095Y-139813880D01*
X105794702Y-139809738D01*
X105918000Y-139805301D01*
X106787836Y-139755608D01*
X107631813Y-139685501D01*
X108448945Y-139595236D01*
X109238241Y-139485070D01*
X109998713Y-139355263D01*
X110729371Y-139206071D01*
X111429227Y-139037751D01*
X112097292Y-138850563D01*
X112732577Y-138644762D01*
X113334092Y-138420608D01*
X113900850Y-138178356D01*
X114431860Y-137918266D01*
X114926134Y-137640595D01*
X115382683Y-137345600D01*
X115396133Y-137336243D01*
X115764376Y-137060752D01*
X116106520Y-136766744D01*
X116418697Y-136458092D01*
X116697043Y-136138669D01*
X116937689Y-135812349D01*
X116977196Y-135752417D01*
X117137118Y-135489598D01*
X117300933Y-135190668D01*
X117466144Y-134861365D01*
X117630254Y-134507425D01*
X117790767Y-134134587D01*
X117945185Y-133748588D01*
X118091011Y-133355166D01*
X118225750Y-132960056D01*
X118312830Y-132683250D01*
X118474171Y-132118115D01*
X118618825Y-131541014D01*
X118747419Y-130948103D01*
X118860577Y-130335536D01*
X118958927Y-129699469D01*
X119043093Y-129036057D01*
X119113702Y-128341456D01*
X119171379Y-127611820D01*
X119193033Y-127275167D01*
X119199647Y-127136558D01*
X119205268Y-126961427D01*
X119209893Y-126755570D01*
X119213523Y-126524787D01*
X119216157Y-126274875D01*
X119217795Y-126011634D01*
X119218436Y-125740861D01*
X119218079Y-125468355D01*
X119216724Y-125199915D01*
X119214370Y-124941338D01*
X119211016Y-124698423D01*
X119206663Y-124476968D01*
X119201310Y-124282772D01*
X119194955Y-124121633D01*
X119193338Y-124089584D01*
X119104681Y-122776303D01*
X118977946Y-121461505D01*
X118812876Y-120143843D01*
X118609214Y-118821971D01*
X118366703Y-117494542D01*
X118085087Y-116160211D01*
X117764110Y-114817630D01*
X117403514Y-113465453D01*
X117003042Y-112102334D01*
X116762218Y-111336667D01*
X116620890Y-110903778D01*
X116478426Y-110480349D01*
X116332378Y-110059645D01*
X116180295Y-109634933D01*
X116019727Y-109199479D01*
X115848224Y-108746550D01*
X115663337Y-108269411D01*
X115462615Y-107761329D01*
X115449232Y-107727750D01*
X115363185Y-107510373D01*
X115276820Y-107289240D01*
X115192454Y-107070477D01*
X115112401Y-106860208D01*
X115038976Y-106664558D01*
X114974497Y-106489651D01*
X114921276Y-106341611D01*
X114881631Y-106226564D01*
X114881084Y-106224917D01*
X114657718Y-105500396D01*
X114462757Y-104757536D01*
X114296064Y-103994929D01*
X114157502Y-103211168D01*
X114046935Y-102404846D01*
X113964225Y-101574554D01*
X113909235Y-100718885D01*
X113881828Y-99836433D01*
X113881867Y-98925788D01*
X113909216Y-97985545D01*
X113963737Y-97014294D01*
X113972472Y-96890417D01*
X113996251Y-96574467D01*
X114022060Y-96259786D01*
X114050285Y-95943216D01*
X114081312Y-95621601D01*
X114115527Y-95291783D01*
X114153317Y-94950607D01*
X114195068Y-94594916D01*
X114241165Y-94221551D01*
X114291995Y-93827358D01*
X114347944Y-93409179D01*
X114409399Y-92963856D01*
X114476745Y-92488234D01*
X114550369Y-91979156D01*
X114630656Y-91433464D01*
X114683233Y-91080167D01*
X114740566Y-90696246D01*
X114791986Y-90351306D01*
X114837845Y-90042460D01*
X114878498Y-89766822D01*
X114914297Y-89521504D01*
X114945595Y-89303622D01*
X114972747Y-89110288D01*
X114996105Y-88938615D01*
X115016023Y-88785719D01*
X115032854Y-88648711D01*
X115046952Y-88524706D01*
X115058669Y-88410817D01*
X115068359Y-88304157D01*
X115076375Y-88201841D01*
X115083071Y-88100982D01*
X115088799Y-87998694D01*
X115093914Y-87892089D01*
X115098769Y-87778282D01*
X115103717Y-87654386D01*
X115104259Y-87640584D01*
X115111178Y-87478050D01*
X115120305Y-87283995D01*
X115131083Y-87069139D01*
X115142956Y-86844203D01*
X115155366Y-86619907D01*
X115167756Y-86406973D01*
X115171880Y-86338834D01*
X115187573Y-86052535D01*
X115200316Y-85757888D01*
X115210089Y-85460059D01*
X115216873Y-85164213D01*
X115220647Y-84875517D01*
X115221393Y-84599134D01*
X115219089Y-84340232D01*
X115213717Y-84103976D01*
X115205256Y-83895532D01*
X115193687Y-83720064D01*
X115182358Y-83608334D01*
X115113495Y-83155147D01*
X115023397Y-82736840D01*
X114911085Y-82351116D01*
X114775578Y-81995680D01*
X114615896Y-81668236D01*
X114431056Y-81366490D01*
X114220080Y-81088145D01*
X114005840Y-80854543D01*
X113852004Y-80714700D01*
X113662360Y-80565700D01*
X113441691Y-80410413D01*
X113194776Y-80251710D01*
X112926398Y-80092463D01*
X112641337Y-79935542D01*
X112344373Y-79783819D01*
X112040290Y-79640165D01*
X111829033Y-79547340D01*
X111245902Y-79319706D01*
X110632124Y-79119773D01*
X109989280Y-78947787D01*
X109318948Y-78803995D01*
X108622708Y-78688645D01*
X107902138Y-78601983D01*
X107158818Y-78544258D01*
X106394327Y-78515715D01*
X105610243Y-78516602D01*
X105297562Y-78525045D01*
X104780181Y-78545680D01*
X104302009Y-78570978D01*
X103860154Y-78601176D01*
X103451724Y-78636513D01*
X103073825Y-78677229D01*
X102723566Y-78723560D01*
X102531334Y-78753199D01*
X101870479Y-78867321D01*
X101248886Y-78988334D01*
X100663933Y-79116992D01*
X100112995Y-79254052D01*
X99593447Y-79400270D01*
X99102667Y-79556403D01*
X98638029Y-79723205D01*
X98196912Y-79901434D01*
X97776689Y-80091845D01*
X97620667Y-80168187D01*
X97208275Y-80384883D01*
X96831460Y-80606086D01*
X96483467Y-80836623D01*
X96157542Y-81081322D01*
X95846928Y-81345010D01*
X95544872Y-81632517D01*
X95480787Y-81697506D01*
X95237449Y-81958778D01*
X95020871Y-82218147D01*
X94823999Y-82485482D01*
X94639776Y-82770655D01*
X94461149Y-83083535D01*
X94379723Y-83237917D01*
X94158572Y-83704845D01*
X93968354Y-84188933D01*
X93808677Y-84692136D01*
X93679150Y-85216414D01*
X93579382Y-85763724D01*
X93508983Y-86336023D01*
X93467562Y-86935269D01*
X93454726Y-87563419D01*
X93458092Y-87852250D01*
X93463875Y-88085202D01*
X93471464Y-88310192D01*
X93481229Y-88530394D01*
X93493540Y-88748979D01*
X93508767Y-88969122D01*
X93527280Y-89193994D01*
X93549448Y-89426768D01*
X93575643Y-89670618D01*
X93606232Y-89928716D01*
X93641588Y-90204235D01*
X93682079Y-90500347D01*
X93728075Y-90820226D01*
X93779947Y-91167044D01*
X93838064Y-91543975D01*
X93902796Y-91954190D01*
X93974513Y-92400864D01*
X94023899Y-92705184D01*
X94055803Y-92900645D01*
X94085379Y-93080434D01*
X94113279Y-93247912D01*
X94140156Y-93406439D01*
X94166664Y-93559378D01*
X94193456Y-93710088D01*
X94221186Y-93861931D01*
X94250506Y-94018267D01*
X94282071Y-94182458D01*
X94316534Y-94357864D01*
X94354547Y-94547846D01*
X94396765Y-94755766D01*
X94443841Y-94984984D01*
X94496428Y-95238861D01*
X94555179Y-95520757D01*
X94620748Y-95834035D01*
X94693788Y-96182054D01*
X94773724Y-96562334D01*
X94873417Y-97037627D01*
X94964534Y-97474806D01*
X95047693Y-97877076D01*
X95123513Y-98247645D01*
X95192611Y-98589720D01*
X95255605Y-98906508D01*
X95313115Y-99201217D01*
X95365758Y-99477054D01*
X95414152Y-99737225D01*
X95458916Y-99984939D01*
X95500668Y-100223403D01*
X95540025Y-100455823D01*
X95577607Y-100685407D01*
X95614032Y-100915362D01*
X95619139Y-100948184D01*
X95694188Y-101450571D01*
X95757684Y-101918567D01*
X95810126Y-102358365D01*
X95852014Y-102776154D01*
X95883846Y-103178128D01*
X95906122Y-103570475D01*
X95919340Y-103959389D01*
X95924000Y-104351060D01*
X95921477Y-104699117D01*
X95914145Y-105021894D01*
X95902069Y-105311009D01*
X95884204Y-105574972D01*
X95859506Y-105822293D01*
X95826932Y-106061483D01*
X95785437Y-106301049D01*
X95733978Y-106549504D01*
X95671511Y-106815355D01*
X95652510Y-106891667D01*
X95579047Y-107170847D01*
X95498461Y-107451517D01*
X95409691Y-107736177D01*
X95311675Y-108027326D01*
X95203352Y-108327463D01*
X95083660Y-108639087D01*
X94951538Y-108964697D01*
X94805924Y-109306792D01*
X94645756Y-109667872D01*
X94469974Y-110050435D01*
X94277516Y-110456981D01*
X94067320Y-110890009D01*
X93838324Y-111352019D01*
X93589468Y-111845508D01*
X93346464Y-112320917D01*
X93186516Y-112632930D01*
X93023383Y-112952736D01*
X92858848Y-113276755D01*
X92694696Y-113601408D01*
X92532711Y-113923116D01*
X92374677Y-114238298D01*
X92222378Y-114543376D01*
X92077598Y-114834770D01*
X91942122Y-115108901D01*
X91817732Y-115362190D01*
X91706214Y-115591057D01*
X91609352Y-115791922D01*
X91528928Y-115961206D01*
X91484367Y-116056834D01*
X91109092Y-116892431D01*
X90765252Y-117703467D01*
X90452058Y-118492835D01*
X90168724Y-119263428D01*
X89914461Y-120018142D01*
X89688481Y-120759870D01*
X89489998Y-121491505D01*
X89318223Y-122215943D01*
X89172368Y-122936077D01*
X89051647Y-123654801D01*
X88955270Y-124375009D01*
X88882451Y-125099595D01*
X88834491Y-125792534D01*
X88828505Y-125936054D01*
X88824083Y-126112991D01*
X88821168Y-126316715D01*
X88819700Y-126540597D01*
X88819621Y-126778007D01*
X88258900Y-126778007D01*
X88259816Y-126312404D01*
X88297039Y-125386763D01*
X88369867Y-124465258D01*
X88401649Y-124163667D01*
X88481463Y-123542033D01*
X88582357Y-122916920D01*
X88705050Y-122286080D01*
X88850259Y-121647263D01*
X89018704Y-120998221D01*
X89211104Y-120336703D01*
X89428175Y-119660462D01*
X89670639Y-118967248D01*
X89939211Y-118254811D01*
X90234613Y-117520904D01*
X90557561Y-116763277D01*
X90908774Y-115979680D01*
X91248618Y-115252500D01*
X91318656Y-115105212D01*
X91402171Y-114929412D01*
X91494536Y-114734855D01*
X91591121Y-114531295D01*
X91687297Y-114328486D01*
X91778435Y-114136182D01*
X91806114Y-114077750D01*
X91886340Y-113909740D01*
X91981757Y-113712207D01*
X92088343Y-113493350D01*
X92202072Y-113261366D01*
X92318921Y-113024454D01*
X92434864Y-112790811D01*
X92545878Y-112568636D01*
X92590593Y-112479667D01*
X92740371Y-112181234D01*
X92891787Y-111877626D01*
X93042682Y-111573269D01*
X93190899Y-111272588D01*
X93334281Y-110980009D01*
X93470670Y-110699956D01*
X93597910Y-110436856D01*
X93713842Y-110195133D01*
X93816309Y-109979213D01*
X93903154Y-109793521D01*
X93952689Y-109685667D01*
X94250991Y-108998472D01*
X94512208Y-108330583D01*
X94736308Y-107682111D01*
X94923258Y-107053171D01*
X95073028Y-106443873D01*
X95185583Y-105854332D01*
X95260894Y-105284659D01*
X95283342Y-105024819D01*
X95289710Y-104930521D01*
X95291650Y-104870200D01*
X95287799Y-104835612D01*
X95276790Y-104818512D01*
X95257260Y-104810655D01*
X95247527Y-104808423D01*
X95211908Y-104803570D01*
X95138499Y-104795981D01*
X95031728Y-104786017D01*
X94896024Y-104774041D01*
X94735816Y-104760415D01*
X94555534Y-104745500D01*
X94359606Y-104729659D01*
X94152460Y-104713253D01*
X93938528Y-104696644D01*
X93722236Y-104680194D01*
X93508015Y-104664266D01*
X93300293Y-104649221D01*
X93292084Y-104648635D01*
X93056875Y-104632080D01*
X92819480Y-104615802D01*
X92576156Y-104599575D01*
X92323160Y-104583168D01*
X92056749Y-104566355D01*
X91773178Y-104548906D01*
X91468705Y-104530593D01*
X91139587Y-104511188D01*
X90782080Y-104490462D01*
X90392440Y-104468188D01*
X89966925Y-104444135D01*
X89640834Y-104425846D01*
X89257960Y-104404405D01*
X88912984Y-104384995D01*
X88601530Y-104367317D01*
X88319227Y-104351071D01*
X88061702Y-104335956D01*
X87824582Y-104321674D01*
X87603493Y-104307925D01*
X87394064Y-104294408D01*
X87191921Y-104280825D01*
X86992692Y-104266875D01*
X86792003Y-104252259D01*
X86585481Y-104236677D01*
X86368755Y-104219830D01*
X86137450Y-104201418D01*
X85887195Y-104181141D01*
X85613616Y-104158699D01*
X85312340Y-104133793D01*
X84994750Y-104107432D01*
X84129326Y-104033025D01*
X83303551Y-103956805D01*
X82514762Y-103878393D01*
X81760300Y-103797410D01*
X81037504Y-103713479D01*
X80343712Y-103626220D01*
X79676264Y-103535256D01*
X79032499Y-103440207D01*
X78409756Y-103340695D01*
X77805374Y-103236342D01*
X77216693Y-103126770D01*
X76641051Y-103011598D01*
X76075787Y-102890450D01*
X75518242Y-102762946D01*
X75480334Y-102753986D01*
X74472314Y-102498759D01*
X73491346Y-102217095D01*
X72538430Y-101909407D01*
X71614568Y-101576108D01*
X70720758Y-101217610D01*
X69858002Y-100834327D01*
X69027299Y-100426669D01*
X68229651Y-99995052D01*
X67466057Y-99539886D01*
X67066584Y-99283366D01*
X66429292Y-98838068D01*
X65814599Y-98357779D01*
X65223515Y-97843922D01*
X64657051Y-97297920D01*
X64116219Y-96721199D01*
X63602031Y-96115182D01*
X63115497Y-95481293D01*
X62657630Y-94820958D01*
X62229440Y-94135598D01*
X61831940Y-93426640D01*
X61466140Y-92695507D01*
X61133053Y-91943622D01*
X60833689Y-91172411D01*
X60569060Y-90383297D01*
X60442943Y-89957257D01*
X60226503Y-89115826D01*
X60051290Y-88268690D01*
X59916847Y-87413184D01*
X59822714Y-86546640D01*
X59795871Y-86190667D01*
X59761060Y-85612869D01*
X59733239Y-85043068D01*
X59712431Y-84485006D01*
X59698659Y-83942423D01*
X59693124Y-83510951D01*
X60158383Y-83510951D01*
X60159172Y-83755841D01*
X60161739Y-83984388D01*
X60166159Y-84190076D01*
X60172510Y-84366386D01*
X60175082Y-84417732D01*
X60222205Y-85118874D01*
X60286900Y-85823940D01*
X60368139Y-86525722D01*
X60464897Y-87217017D01*
X60576144Y-87890618D01*
X60700855Y-88539320D01*
X60838002Y-89155918D01*
X60868373Y-89281000D01*
X61094348Y-90121137D01*
X61350888Y-90932093D01*
X61638247Y-91714240D01*
X61956679Y-92467952D01*
X62306441Y-93193602D01*
X62687787Y-93891564D01*
X63100972Y-94562210D01*
X63546252Y-95205913D01*
X64023880Y-95823047D01*
X64534113Y-96413985D01*
X65077205Y-96979101D01*
X65653411Y-97518766D01*
X66262987Y-98033356D01*
X66906187Y-98523241D01*
X67436351Y-98891758D01*
X68077672Y-99300085D01*
X68750484Y-99689522D01*
X69455352Y-100060257D01*
X70192846Y-100412479D01*
X70963532Y-100746375D01*
X71767978Y-101062136D01*
X72606752Y-101359950D01*
X73480420Y-101640004D01*
X74389549Y-101902488D01*
X75334708Y-102147590D01*
X76316464Y-102375499D01*
X77335384Y-102586404D01*
X78392036Y-102780492D01*
X79486986Y-102957953D01*
X79819500Y-103007462D01*
X80373143Y-103086046D01*
X80935647Y-103161376D01*
X81508866Y-103233598D01*
X82094657Y-103302855D01*
X82694874Y-103369293D01*
X83311373Y-103433054D01*
X83946006Y-103494283D01*
X84600631Y-103553125D01*
X85277102Y-103609723D01*
X85977274Y-103664222D01*
X86703001Y-103716765D01*
X87456139Y-103767498D01*
X88238542Y-103816563D01*
X89052067Y-103864106D01*
X89898566Y-103910270D01*
X90779897Y-103955200D01*
X91697913Y-103999039D01*
X92654469Y-104041933D01*
X93651420Y-104084025D01*
X93694250Y-104085779D01*
X93929635Y-104095452D01*
X94156703Y-104104867D01*
X94371176Y-104113841D01*
X94568780Y-104122190D01*
X94745238Y-104129733D01*
X94896274Y-104136287D01*
X95017612Y-104141668D01*
X95104976Y-104145694D01*
X95152514Y-104148093D01*
X95319611Y-104157583D01*
X95305410Y-103836583D01*
X95275778Y-103315636D01*
X95231884Y-102773586D01*
X95173374Y-102207653D01*
X95099890Y-101615058D01*
X95011076Y-100993019D01*
X94906576Y-100338756D01*
X94786034Y-99649490D01*
X94729948Y-99345750D01*
X94697757Y-99174027D01*
X94672280Y-99039513D01*
X94652336Y-98937829D01*
X94636745Y-98864592D01*
X94624327Y-98815423D01*
X94613901Y-98785939D01*
X94604286Y-98771761D01*
X94594304Y-98768506D01*
X94582772Y-98771795D01*
X94576046Y-98774528D01*
X94434596Y-98821358D01*
X94281808Y-98852577D01*
X94107633Y-98869707D01*
X93916500Y-98874324D01*
X93824175Y-98873568D01*
X93739874Y-98871229D01*
X93657994Y-98866543D01*
X93572931Y-98858747D01*
X93479079Y-98847076D01*
X93370835Y-98830766D01*
X93242595Y-98809055D01*
X93088753Y-98781177D01*
X92903705Y-98746369D01*
X92720584Y-98711319D01*
X92558858Y-98682313D01*
X92397974Y-98657224D01*
X92249789Y-98637703D01*
X92126162Y-98625402D01*
X92085584Y-98622841D01*
X91979405Y-98614271D01*
X91836177Y-98597336D01*
X91660187Y-98572802D01*
X91455722Y-98541436D01*
X91227072Y-98504003D01*
X90978523Y-98461269D01*
X90714362Y-98413998D01*
X90438878Y-98362959D01*
X90156358Y-98308915D01*
X89871090Y-98252633D01*
X89587362Y-98194878D01*
X89309460Y-98136417D01*
X89069334Y-98084153D01*
X88207647Y-97880963D01*
X87384351Y-97661432D01*
X86598629Y-97425187D01*
X85849665Y-97171853D01*
X85136641Y-96901056D01*
X84458742Y-96612420D01*
X83815150Y-96305571D01*
X83205049Y-95980134D01*
X82627622Y-95635735D01*
X82082052Y-95271999D01*
X81567523Y-94888551D01*
X81083218Y-94485017D01*
X80935901Y-94352870D01*
X80846218Y-94268641D01*
X80735973Y-94161357D01*
X80609900Y-94035942D01*
X80472736Y-93897319D01*
X80329217Y-93750410D01*
X80184078Y-93600139D01*
X80042056Y-93451428D01*
X79907885Y-93309200D01*
X79786303Y-93178378D01*
X79682044Y-93063885D01*
X79599845Y-92970643D01*
X79557275Y-92919798D01*
X79264896Y-92523850D01*
X79005476Y-92101704D01*
X78779322Y-91654114D01*
X78586744Y-91181829D01*
X78428053Y-90685603D01*
X78303556Y-90166185D01*
X78220049Y-89672584D01*
X78206011Y-89543254D01*
X78194125Y-89380304D01*
X78184555Y-89192400D01*
X78177464Y-88988207D01*
X78173016Y-88776393D01*
X78171671Y-88603667D01*
X78815041Y-88603667D01*
X78816312Y-88846877D01*
X78820520Y-89056028D01*
X78828547Y-89239345D01*
X78841275Y-89405052D01*
X78859586Y-89561374D01*
X78884361Y-89716536D01*
X78916483Y-89878761D01*
X78956833Y-90056275D01*
X78981869Y-90159417D01*
X79127922Y-90663549D01*
X79313848Y-91154371D01*
X79539248Y-91631621D01*
X79803724Y-92095039D01*
X80106878Y-92544365D01*
X80448311Y-92979338D01*
X80827624Y-93399697D01*
X81244419Y-93805182D01*
X81698297Y-94195533D01*
X82188860Y-94570489D01*
X82715710Y-94929790D01*
X83278447Y-95273175D01*
X83876673Y-95600383D01*
X84509990Y-95911155D01*
X85177999Y-96205230D01*
X85880302Y-96482346D01*
X86616500Y-96742245D01*
X87386195Y-96984664D01*
X88188988Y-97209345D01*
X89024480Y-97416025D01*
X89892273Y-97604446D01*
X90572167Y-97735093D01*
X91390285Y-97873642D01*
X92239730Y-97997745D01*
X93111609Y-98106168D01*
X93704834Y-98169521D01*
X93840832Y-98183096D01*
X93966869Y-98195682D01*
X94075236Y-98206509D01*
X94158225Y-98214806D01*
X94208130Y-98219803D01*
X94212834Y-98220276D01*
X94284647Y-98225986D01*
X94361662Y-98229802D01*
X94432371Y-98231471D01*
X94485270Y-98230742D01*
X94508853Y-98227364D01*
X94509167Y-98226755D01*
X94505037Y-98205165D01*
X94493160Y-98145894D01*
X94474309Y-98052732D01*
X94449255Y-97929467D01*
X94418770Y-97779887D01*
X94383625Y-97607780D01*
X94344592Y-97416933D01*
X94302443Y-97211136D01*
X94276630Y-97085234D01*
X94228476Y-96849901D01*
X94179408Y-96609095D01*
X94130758Y-96369409D01*
X94083854Y-96137435D01*
X94040026Y-95919765D01*
X94000606Y-95722991D01*
X93966921Y-95553706D01*
X93940303Y-95418501D01*
X93937658Y-95404937D01*
X93908239Y-95254384D01*
X93872311Y-95071349D01*
X93831659Y-94864864D01*
X93788062Y-94643959D01*
X93743304Y-94417668D01*
X93699167Y-94195021D01*
X93662747Y-94011750D01*
X93569248Y-93537068D01*
X93485094Y-93099178D01*
X93409593Y-92693746D01*
X93342050Y-92316440D01*
X93281773Y-91962925D01*
X93228067Y-91628868D01*
X93180240Y-91309935D01*
X93137599Y-91001792D01*
X93099449Y-90700107D01*
X93065098Y-90400545D01*
X93033852Y-90098773D01*
X93029442Y-90053584D01*
X93002098Y-89755507D01*
X92979289Y-89469831D01*
X92960841Y-89190512D01*
X92946586Y-88911506D01*
X92936350Y-88626770D01*
X92929963Y-88330259D01*
X92927253Y-88015929D01*
X92928051Y-87677737D01*
X92932183Y-87309639D01*
X92939480Y-86905590D01*
X92939824Y-86889167D01*
X92945415Y-86635514D01*
X92950828Y-86419658D01*
X92956284Y-86237062D01*
X92962002Y-86083191D01*
X92968205Y-85953511D01*
X92975113Y-85843485D01*
X92982946Y-85748578D01*
X92991926Y-85664255D01*
X93002274Y-85585980D01*
X93003783Y-85575657D01*
X93109540Y-84993873D01*
X93251833Y-84430553D01*
X93430062Y-83886870D01*
X93643626Y-83363995D01*
X93891926Y-82863101D01*
X94174361Y-82385359D01*
X94490331Y-81931941D01*
X94839234Y-81504020D01*
X95220472Y-81102768D01*
X95365234Y-80965334D01*
X95687846Y-80687315D01*
X96042063Y-80420534D01*
X96429626Y-80163969D01*
X96852277Y-79916600D01*
X97311758Y-79677406D01*
X97809811Y-79445366D01*
X98336905Y-79223964D01*
X98946695Y-78995356D01*
X99576133Y-78789763D01*
X100227439Y-78606748D01*
X100902833Y-78445874D01*
X101604534Y-78306705D01*
X102334764Y-78188803D01*
X103095742Y-78091732D01*
X103889687Y-78015054D01*
X104718821Y-77958332D01*
X104785584Y-77954705D01*
X104939549Y-77948468D01*
X105128459Y-77944008D01*
X105344965Y-77941261D01*
X105581718Y-77940159D01*
X105831371Y-77940636D01*
X106086574Y-77942627D01*
X106339979Y-77946063D01*
X106584238Y-77950880D01*
X106812001Y-77957011D01*
X107015921Y-77964389D01*
X107188650Y-77972948D01*
X107251500Y-77976975D01*
X107907883Y-78030515D01*
X108527054Y-78097195D01*
X109112292Y-78177791D01*
X109666872Y-78273079D01*
X110194072Y-78383837D01*
X110697168Y-78510839D01*
X111179438Y-78654863D01*
X111644158Y-78816686D01*
X112094604Y-78997082D01*
X112534055Y-79196830D01*
X112659584Y-79258326D01*
X113064584Y-79471708D01*
X113441125Y-79694051D01*
X113786846Y-79923593D01*
X114099383Y-80158576D01*
X114376376Y-80397239D01*
X114615462Y-80637821D01*
X114789851Y-80846084D01*
X115015164Y-81170064D01*
X115213719Y-81517568D01*
X115385885Y-81889974D01*
X115532032Y-82288661D01*
X115652526Y-82715008D01*
X115747738Y-83170395D01*
X115818035Y-83656201D01*
X115863786Y-84173804D01*
X115885360Y-84724584D01*
X115887302Y-84952417D01*
X115884334Y-85282739D01*
X115875054Y-85626768D01*
X115859232Y-85986877D01*
X115836639Y-86365441D01*
X115807044Y-86764834D01*
X115770218Y-87187430D01*
X115725930Y-87635603D01*
X115673950Y-88111727D01*
X115614048Y-88618176D01*
X115545995Y-89157326D01*
X115469561Y-89731548D01*
X115384514Y-90343219D01*
X115324412Y-90762667D01*
X115255218Y-91240955D01*
X115191873Y-91679945D01*
X115134033Y-92082216D01*
X115081354Y-92450348D01*
X115033489Y-92786921D01*
X114990095Y-93094513D01*
X114950827Y-93375705D01*
X114915339Y-93633076D01*
X114883288Y-93869205D01*
X114854327Y-94086673D01*
X114828113Y-94288057D01*
X114804300Y-94475939D01*
X114782543Y-94652898D01*
X114762499Y-94821512D01*
X114743821Y-94984362D01*
X114726165Y-95144027D01*
X114709187Y-95303087D01*
X114692541Y-95464121D01*
X114682094Y-95567500D01*
X114663567Y-95757832D01*
X114644513Y-95963511D01*
X114625983Y-96172487D01*
X114609026Y-96372711D01*
X114594694Y-96552134D01*
X114586132Y-96668167D01*
X114576579Y-96811155D01*
X114566981Y-96966697D01*
X114557604Y-97129259D01*
X114548709Y-97293310D01*
X114540562Y-97453316D01*
X114533424Y-97603746D01*
X114527560Y-97739067D01*
X114523233Y-97853747D01*
X114520707Y-97942253D01*
X114520244Y-97999053D01*
X114521830Y-98018515D01*
X114544315Y-98017505D01*
X114603254Y-98009682D01*
X114693477Y-97995939D01*
X114809811Y-97977167D01*
X114947084Y-97954256D01*
X115100125Y-97928099D01*
X115263762Y-97899585D01*
X115432823Y-97869608D01*
X115602137Y-97839057D01*
X115766532Y-97808824D01*
X115920835Y-97779800D01*
X116035667Y-97757634D01*
X116708627Y-97619894D01*
X117388413Y-97469209D01*
X118062959Y-97308463D01*
X118720198Y-97140538D01*
X119348064Y-96968316D01*
X119392250Y-96955703D01*
X120316629Y-96678547D01*
X121206368Y-96386296D01*
X122061047Y-96079189D01*
X122880247Y-95757467D01*
X123663548Y-95421371D01*
X124410532Y-95071141D01*
X125120780Y-94707018D01*
X125793871Y-94329242D01*
X126429386Y-93938053D01*
X127026907Y-93533692D01*
X127586014Y-93116400D01*
X128106288Y-92686416D01*
X128587309Y-92243982D01*
X129028659Y-91789338D01*
X129429917Y-91322724D01*
X129605603Y-91097944D01*
X129945046Y-90617703D01*
X130243643Y-90127332D01*
X130501975Y-89625405D01*
X130720627Y-89110493D01*
X130900181Y-88581172D01*
X131041219Y-88036012D01*
X131144324Y-87473589D01*
X131173128Y-87259584D01*
X131183050Y-87149575D01*
X131190839Y-87005374D01*
X131196492Y-86835069D01*
X131200008Y-86646746D01*
X131201384Y-86448494D01*
X131200619Y-86248400D01*
X131197711Y-86054551D01*
X131192658Y-85875035D01*
X131185457Y-85717940D01*
X131176108Y-85591352D01*
X131173527Y-85566250D01*
X131086733Y-84952797D01*
X130961427Y-84337080D01*
X130797140Y-83717574D01*
X130593404Y-83092752D01*
X130349750Y-82461087D01*
X130065710Y-81821053D01*
X129952800Y-81586917D01*
X129824211Y-81331597D01*
X129704290Y-81106829D01*
X129587558Y-80903263D01*
X129468535Y-80711552D01*
X129341743Y-80522347D01*
X129265753Y-80414628D01*
X128913354Y-79957593D01*
X128521234Y-79514101D01*
X128089912Y-79084550D01*
X127619905Y-78669337D01*
X127111732Y-78268859D01*
X126565913Y-77883513D01*
X125982966Y-77513696D01*
X125363409Y-77159806D01*
X124707762Y-76822240D01*
X124354167Y-76653952D01*
X123611454Y-76327626D01*
X122831594Y-76019462D01*
X122015799Y-75729715D01*
X121165281Y-75458642D01*
X120281255Y-75206499D01*
X119364931Y-74973543D01*
X118417525Y-74760029D01*
X117440247Y-74566215D01*
X116434311Y-74392357D01*
X115400930Y-74238711D01*
X114341317Y-74105534D01*
X113256685Y-73993082D01*
X112148245Y-73901611D01*
X111017212Y-73831377D01*
X110998000Y-73830379D01*
X110170316Y-73794308D01*
X109311693Y-73769891D01*
X108431889Y-73757110D01*
X107540658Y-73755951D01*
X106647756Y-73766399D01*
X105762939Y-73788438D01*
X104895963Y-73822053D01*
X104521000Y-73840595D01*
X103402139Y-73909336D01*
X102293941Y-73996470D01*
X101197936Y-74101618D01*
X100115657Y-74224402D01*
X99048636Y-74364444D01*
X97998406Y-74521366D01*
X96966498Y-74694789D01*
X95954444Y-74884336D01*
X94963777Y-75089627D01*
X93996029Y-75310286D01*
X93052732Y-75545933D01*
X92135418Y-75796190D01*
X91245619Y-76060679D01*
X90384868Y-76339023D01*
X89554695Y-76630842D01*
X88756634Y-76935759D01*
X87992217Y-77253395D01*
X87262975Y-77583371D01*
X86570442Y-77925311D01*
X85916148Y-78278836D01*
X85460417Y-78545902D01*
X85035838Y-78811720D01*
X84644581Y-79074248D01*
X84278692Y-79339613D01*
X83930220Y-79613939D01*
X83591212Y-79903352D01*
X83253717Y-80213978D01*
X83092548Y-80369834D01*
X82539539Y-80931936D01*
X82022323Y-81497641D01*
X81541459Y-82066041D01*
X81097504Y-82636232D01*
X80691014Y-83207307D01*
X80322547Y-83778361D01*
X79992661Y-84348490D01*
X79701912Y-84916786D01*
X79450858Y-85482345D01*
X79240056Y-86044260D01*
X79070063Y-86601627D01*
X78952667Y-87097418D01*
X78915209Y-87285921D01*
X78885097Y-87451058D01*
X78861559Y-87601285D01*
X78843821Y-87745060D01*
X78831111Y-87890840D01*
X78822657Y-88047083D01*
X78817685Y-88222247D01*
X78815423Y-88424789D01*
X78815041Y-88603667D01*
X78171671Y-88603667D01*
X78171374Y-88565623D01*
X78172702Y-88364563D01*
X78177163Y-88181879D01*
X78184921Y-88026238D01*
X78188171Y-87983017D01*
X78244680Y-87467255D01*
X78327837Y-86968324D01*
X78439753Y-86477540D01*
X78582541Y-85986223D01*
X78758312Y-85485690D01*
X78855602Y-85238167D01*
X79151849Y-84564330D01*
X79488166Y-83903275D01*
X79864076Y-83255613D01*
X80279103Y-82621957D01*
X80732771Y-82002919D01*
X81224603Y-81399112D01*
X81754122Y-80811147D01*
X82320852Y-80239637D01*
X82924317Y-79685194D01*
X83564039Y-79148431D01*
X83645953Y-79083067D01*
X84021143Y-78793197D01*
X84405198Y-78511497D01*
X84792548Y-78241589D01*
X85177622Y-77987098D01*
X85554851Y-77751648D01*
X85918663Y-77538863D01*
X86263489Y-77352366D01*
X86449685Y-77259080D01*
X87441269Y-76798331D01*
X88457451Y-76365983D01*
X89498870Y-75961888D01*
X90566165Y-75585894D01*
X91659972Y-75237851D01*
X92780930Y-74917610D01*
X93929677Y-74625021D01*
X95106851Y-74359933D01*
X96313089Y-74122197D01*
X97549029Y-73911662D01*
X98815310Y-73728178D01*
X100112570Y-73571595D01*
X101441446Y-73441764D01*
X102802576Y-73338534D01*
X103229834Y-73311990D01*
X103601732Y-73290639D01*
X103954407Y-73271681D01*
X104292789Y-73254991D01*
X104621810Y-73240444D01*
X104946399Y-73227913D01*
X105271488Y-73217274D01*
X105602006Y-73208400D01*
X105942885Y-73201167D01*
X106299056Y-73195449D01*
X106675448Y-73191119D01*
X107076993Y-73188054D01*
X107508621Y-73186127D01*
X107975262Y-73185212D01*
X108214584Y-73185096D01*
X108615293Y-73185257D01*
X108978109Y-73185866D01*
X109307467Y-73187018D01*
X109607807Y-73188810D01*
X109883565Y-73191338D01*
X110139180Y-73194698D01*
X110379089Y-73198986D01*
X110607729Y-73204300D01*
X110829538Y-73210734D01*
X111048954Y-73218385D01*
X111270414Y-73227349D01*
X111498357Y-73237723D01*
X111737219Y-73249603D01*
X111991438Y-73263085D01*
X112109250Y-73269546D01*
X113280878Y-73347432D01*
X114418662Y-73449708D01*
X115523481Y-73576548D01*
X116596214Y-73728127D01*
X117637741Y-73904618D01*
X118648940Y-74106195D01*
X119630691Y-74333033D01*
X120583872Y-74585305D01*
X121509363Y-74863186D01*
X122408042Y-75166848D01*
X123200584Y-75464670D01*
X123661916Y-75652743D01*
X124124612Y-75853116D01*
X124584580Y-76063591D01*
X125037725Y-76281966D01*
X125479955Y-76506042D01*
X125907177Y-76733619D01*
X126315297Y-76962497D01*
X126700224Y-77190476D01*
X127057862Y-77415357D01*
X127384120Y-77634938D01*
X127674905Y-77847020D01*
X127768608Y-77919916D01*
X128259713Y-78335966D01*
X128724366Y-78783872D01*
X129161360Y-79261507D01*
X129569488Y-79766744D01*
X129947546Y-80297457D01*
X130294325Y-80851520D01*
X130608619Y-81426807D01*
X130889223Y-82021190D01*
X131134929Y-82632544D01*
X131344532Y-83258741D01*
X131516824Y-83897656D01*
X131650600Y-84547163D01*
X131698532Y-84846584D01*
X131726507Y-85046738D01*
X131748627Y-85226640D01*
X131765504Y-85395740D01*
X131777749Y-85563489D01*
X131785971Y-85739336D01*
X131790782Y-85932733D01*
X131792792Y-86153129D01*
X131792900Y-86307084D01*
X131787705Y-86681462D01*
X131772597Y-87024566D01*
X131746377Y-87346550D01*
X131707847Y-87657564D01*
X131655806Y-87967764D01*
X131589057Y-88287300D01*
X131529820Y-88534412D01*
X131369806Y-89094411D01*
X131176323Y-89631150D01*
X130948004Y-90147210D01*
X130683485Y-90645173D01*
X130381402Y-91127618D01*
X130040390Y-91597127D01*
X129679885Y-92032667D01*
X129217625Y-92532244D01*
X128725361Y-93011973D01*
X128202227Y-93472377D01*
X127647360Y-93913978D01*
X127059893Y-94337298D01*
X126438963Y-94742862D01*
X125783706Y-95131191D01*
X125093255Y-95502809D01*
X124366747Y-95858237D01*
X123603317Y-96198000D01*
X122802100Y-96522619D01*
X121962232Y-96832618D01*
X121450349Y-97008163D01*
X121204790Y-97088592D01*
X120937269Y-97173440D01*
X120651683Y-97261636D01*
X120351932Y-97352109D01*
X120041916Y-97443786D01*
X119725534Y-97535596D01*
X119406685Y-97626467D01*
X119089269Y-97715327D01*
X118777184Y-97801103D01*
X118474331Y-97882725D01*
X118184608Y-97959121D01*
X117911915Y-98029218D01*
X117660152Y-98091944D01*
X117433216Y-98146229D01*
X117235009Y-98190999D01*
X117069429Y-98225183D01*
X116941715Y-98247510D01*
X116861241Y-98261641D01*
X116748692Y-98284301D01*
X116613006Y-98313536D01*
X116463124Y-98347396D01*
X116307986Y-98383928D01*
X116229810Y-98402937D01*
X115960402Y-98467106D01*
X115726039Y-98517767D01*
X115521720Y-98555138D01*
X115342444Y-98579436D01*
X115183210Y-98590881D01*
X115039017Y-98589690D01*
X114904865Y-98576082D01*
X114775751Y-98550275D01*
X114646675Y-98512488D01*
X114546806Y-98476386D01*
X114539080Y-98474659D01*
X114532485Y-98477882D01*
X114526962Y-98489024D01*
X114522448Y-98511058D01*
X114518884Y-98546953D01*
X114516207Y-98599681D01*
X114514357Y-98672213D01*
X114513272Y-98767520D01*
X114512892Y-98888573D01*
X114513156Y-99038342D01*
X114514002Y-99219799D01*
X114515370Y-99435915D01*
X114517198Y-99689661D01*
X114518451Y-99856047D01*
X114521596Y-100207144D01*
X114525607Y-100521011D01*
X114530811Y-100802749D01*
X114537532Y-101057457D01*
X114546096Y-101290236D01*
X114556829Y-101506187D01*
X114570054Y-101710409D01*
X114586099Y-101908002D01*
X114605287Y-102104067D01*
X114627945Y-102303705D01*
X114654397Y-102512014D01*
X114684969Y-102734097D01*
X114715408Y-102944084D01*
X114739654Y-103098670D01*
X114769742Y-103274862D01*
X114804498Y-103466977D01*
X114842748Y-103669334D01*
X114883320Y-103876254D01*
X114925040Y-104082054D01*
X114966734Y-104281054D01*
X115007230Y-104467573D01*
X115045353Y-104635930D01*
X115079930Y-104780444D01*
X115109787Y-104895434D01*
X115133752Y-104975219D01*
X115136670Y-104983535D01*
X115148912Y-104995199D01*
X115179537Y-105002192D01*
X115234669Y-105004843D01*
X115320433Y-105003480D01*
X115427290Y-104999169D01*
X115534328Y-104994281D01*
X115672505Y-104988077D01*
X115830666Y-104981051D01*
X115997655Y-104973698D01*
X116162316Y-104966513D01*
X116205000Y-104964663D01*
X116384157Y-104956451D01*
X116589538Y-104946281D01*
X116805124Y-104934995D01*
X117014897Y-104923434D01*
X117202840Y-104912439D01*
X117221000Y-104911330D01*
X118579175Y-104813487D01*
X119917295Y-104687952D01*
X121234604Y-104534983D01*
X122530348Y-104354836D01*
X123803774Y-104147769D01*
X125054127Y-103914039D01*
X126280652Y-103653904D01*
X127482596Y-103367619D01*
X128659203Y-103055444D01*
X129809720Y-102717635D01*
X130933393Y-102354448D01*
X132029466Y-101966142D01*
X133097186Y-101552973D01*
X134135799Y-101115199D01*
X135144550Y-100653077D01*
X136122685Y-100166865D01*
X137069449Y-99656818D01*
X137984088Y-99123195D01*
X138865848Y-98566253D01*
X139713975Y-97986249D01*
X140527715Y-97383440D01*
X141306312Y-96758083D01*
X141425084Y-96658063D01*
X141721346Y-96401488D01*
X142029651Y-96124318D01*
X142342864Y-95833440D01*
X142653849Y-95535739D01*
X142955472Y-95238101D01*
X143240597Y-94947410D01*
X143502090Y-94670552D01*
X143629961Y-94530334D01*
X144241139Y-93820549D01*
X144813722Y-93093593D01*
X145347629Y-92349643D01*
X145842779Y-91588878D01*
X146299091Y-90811476D01*
X146716483Y-90017615D01*
X147094875Y-89207473D01*
X147434185Y-88381228D01*
X147734332Y-87539060D01*
X147995235Y-86681145D01*
X148216814Y-85807662D01*
X148398986Y-84918790D01*
X148541670Y-84014706D01*
X148588691Y-83640084D01*
X148617592Y-83384696D01*
X148641435Y-83156319D01*
X148660678Y-82946596D01*
X148675783Y-82747173D01*
X148687212Y-82549697D01*
X148695425Y-82345813D01*
X148700883Y-82127166D01*
X148704048Y-81885402D01*
X148705379Y-81612167D01*
X148705490Y-81523417D01*
X148705017Y-81247478D01*
X148702944Y-81006736D01*
X148698816Y-80794068D01*
X148692178Y-80602353D01*
X148682574Y-80424468D01*
X148669550Y-80253292D01*
X148652651Y-80081704D01*
X148631422Y-79902581D01*
X148605408Y-79708803D01*
X148577023Y-79512584D01*
X148454023Y-78820894D01*
X148292257Y-78145230D01*
X148091464Y-77484986D01*
X147851381Y-76839557D01*
X147571748Y-76208337D01*
X147252303Y-75590722D01*
X146892784Y-74986104D01*
X146492930Y-74393881D01*
X146190219Y-73988084D01*
X145884236Y-73610270D01*
X145544575Y-73221381D01*
X145176556Y-72826824D01*
X144785494Y-72432001D01*
X144376708Y-72042319D01*
X143955514Y-71663182D01*
X143626417Y-71382110D01*
X143405187Y-71199378D01*
X143183919Y-71020365D01*
X142960219Y-70843404D01*
X142731699Y-70666828D01*
X142495967Y-70488970D01*
X142250632Y-70308163D01*
X141993304Y-70122740D01*
X141721592Y-69931035D01*
X141433106Y-69731380D01*
X141125454Y-69522108D01*
X140796245Y-69301553D01*
X140443090Y-69068048D01*
X140063597Y-68819925D01*
X139655375Y-68555518D01*
X139216035Y-68273160D01*
X138743184Y-67971184D01*
X138641667Y-67906560D01*
X138230966Y-67644827D01*
X137853692Y-67403445D01*
X137507196Y-67180615D01*
X137188828Y-66974539D01*
X136895939Y-66783417D01*
X136625881Y-66605452D01*
X136376003Y-66438845D01*
X136143656Y-66281796D01*
X135926192Y-66132506D01*
X135720960Y-65989178D01*
X135525313Y-65850012D01*
X135336600Y-65713210D01*
X135152172Y-65576972D01*
X134969380Y-65439500D01*
X134785575Y-65298996D01*
X134672917Y-65211879D01*
X134368845Y-64971783D01*
X134092087Y-64744192D01*
X133833116Y-64520754D01*
X133582405Y-64293119D01*
X133330430Y-64052936D01*
X133168112Y-63892782D01*
X132996013Y-63719485D01*
X132841695Y-63560330D01*
X132700909Y-63410153D01*
X132569409Y-63263791D01*
X132442948Y-63116079D01*
X132317277Y-62961854D01*
X132188150Y-62795953D01*
X132051320Y-62613211D01*
X131902539Y-62408465D01*
X131737559Y-62176552D01*
X131626309Y-62018334D01*
X131478412Y-61806212D01*
X131326477Y-61586075D01*
X131169107Y-61355801D01*
X131004907Y-61113271D01*
X130832479Y-60856366D01*
X130650427Y-60582964D01*
X130457356Y-60290947D01*
X130251868Y-59978194D01*
X130032568Y-59642586D01*
X129798058Y-59282002D01*
X129546943Y-58894323D01*
X129277825Y-58477429D01*
X128989310Y-58029199D01*
X128680000Y-57547515D01*
X128628680Y-57467500D01*
X128265799Y-56903993D01*
X127922052Y-56375213D01*
X127595874Y-55878960D01*
X127285697Y-55413035D01*
X126989957Y-54975239D01*
X126707087Y-54563370D01*
X126435521Y-54175230D01*
X126173693Y-53808619D01*
X125920038Y-53461337D01*
X125672988Y-53131184D01*
X125430978Y-52815960D01*
X125192443Y-52513467D01*
X124955815Y-52221503D01*
X124719529Y-51937869D01*
X124552887Y-51742400D01*
X124041709Y-51167727D01*
X123516269Y-50614569D01*
X122982000Y-50088320D01*
X122444339Y-49594374D01*
X122029480Y-49237805D01*
X121390782Y-48729490D01*
X120729260Y-48250112D01*
X120044113Y-47799372D01*
X119334539Y-47376973D01*
X118599735Y-46982615D01*
X117838900Y-46616002D01*
X117051232Y-46276834D01*
X116235929Y-45964815D01*
X115392189Y-45679646D01*
X114519210Y-45421029D01*
X113616190Y-45188666D01*
X112682327Y-44982259D01*
X111716820Y-44801510D01*
X110718865Y-44646121D01*
X109687662Y-44515794D01*
X109177667Y-44461756D01*
X108399678Y-44391430D01*
X107611526Y-44334008D01*
X106819324Y-44289619D01*
X106029189Y-44258392D01*
X105247237Y-44240459D01*
X104479582Y-44235950D01*
X103732340Y-44244993D01*
X103011627Y-44267721D01*
X102323559Y-44304263D01*
X102192667Y-44313082D01*
X101188143Y-44400281D01*
X100210343Y-44519799D01*
X99258385Y-44671861D01*
X98331386Y-44856694D01*
X97428464Y-45074522D01*
X96548734Y-45325573D01*
X95691315Y-45610071D01*
X94855323Y-45928243D01*
X94039877Y-46280314D01*
X93503750Y-46535690D01*
X92734438Y-46939279D01*
X91975487Y-47383655D01*
X91227408Y-47868431D01*
X90490711Y-48393225D01*
X89765907Y-48957649D01*
X89053505Y-49561321D01*
X88354017Y-50203854D01*
X87667952Y-50884864D01*
X87485193Y-51075167D01*
X87256768Y-51317304D01*
X87033315Y-51558193D01*
X86813056Y-51800030D01*
X86594214Y-52045012D01*
X86375012Y-52295334D01*
X86153673Y-52553193D01*
X85928419Y-52820785D01*
X85697473Y-53100306D01*
X85459058Y-53393953D01*
X85211396Y-53703921D01*
X84952711Y-54032407D01*
X84681224Y-54381607D01*
X84395159Y-54753716D01*
X84092739Y-55150933D01*
X83772186Y-55575451D01*
X83431723Y-56029469D01*
X83069572Y-56515181D01*
X82920282Y-56716084D01*
X82597888Y-57149899D01*
X82298588Y-57551714D01*
X82020625Y-57923797D01*
X81762238Y-58268416D01*
X81521669Y-58587842D01*
X81297158Y-58884341D01*
X81086946Y-59160184D01*
X80889275Y-59417638D01*
X80702385Y-59658972D01*
X80524517Y-59886456D01*
X80353911Y-60102357D01*
X80188809Y-60308945D01*
X80027452Y-60508488D01*
X79868080Y-60703255D01*
X79708934Y-60895515D01*
X79548255Y-61087535D01*
X79384284Y-61281586D01*
X79337811Y-61336278D01*
X78792982Y-61960603D01*
X78229719Y-62574984D01*
X77653712Y-63173700D01*
X77070650Y-63751026D01*
X76486223Y-64301240D01*
X75906120Y-64818619D01*
X75702584Y-64993068D01*
X75367962Y-65273581D01*
X75031195Y-65549355D01*
X74689248Y-65822607D01*
X74339090Y-66095549D01*
X73977689Y-66370397D01*
X73602012Y-66649362D01*
X73209027Y-66934661D01*
X72795703Y-67228507D01*
X72359006Y-67533114D01*
X71895905Y-67850696D01*
X71403368Y-68183468D01*
X70878361Y-68533642D01*
X70616295Y-68707000D01*
X70195379Y-68984842D01*
X69807900Y-69240812D01*
X69451892Y-69476242D01*
X69125386Y-69692467D01*
X68826415Y-69890823D01*
X68553012Y-70072642D01*
X68303210Y-70239259D01*
X68075040Y-70392008D01*
X67866535Y-70532224D01*
X67675728Y-70661241D01*
X67500652Y-70780394D01*
X67339338Y-70891015D01*
X67189819Y-70994440D01*
X67050128Y-71092004D01*
X66918298Y-71185039D01*
X66792360Y-71274881D01*
X66670348Y-71362863D01*
X66550293Y-71450320D01*
X66430229Y-71538587D01*
X66315167Y-71623810D01*
X65856212Y-71971251D01*
X65430477Y-72307335D01*
X65032127Y-72637034D01*
X64655323Y-72965323D01*
X64294231Y-73297174D01*
X63943013Y-73637562D01*
X63890663Y-73689822D01*
X63467764Y-74128286D01*
X63081610Y-74560247D01*
X62728296Y-74991022D01*
X62403916Y-75425928D01*
X62104565Y-75870282D01*
X61826339Y-76329400D01*
X61565333Y-76808600D01*
X61487337Y-76962000D01*
X61228958Y-77514173D01*
X60999661Y-78080807D01*
X60798618Y-78664991D01*
X60625003Y-79269814D01*
X60477988Y-79898366D01*
X60356747Y-80553735D01*
X60260452Y-81239010D01*
X60206749Y-81745667D01*
X60196107Y-81886648D01*
X60186625Y-82063430D01*
X60178378Y-82269496D01*
X60171444Y-82498328D01*
X60165900Y-82743407D01*
X60161824Y-82998216D01*
X60159292Y-83256236D01*
X60158383Y-83510951D01*
X59693124Y-83510951D01*
X59691945Y-83419059D01*
X59692313Y-82918657D01*
X59699785Y-82444955D01*
X59714383Y-82001696D01*
X59736132Y-81592619D01*
X59765054Y-81221466D01*
X59765515Y-81216500D01*
X59845492Y-80512515D01*
X59951588Y-79840565D01*
X60084295Y-79198989D01*
X60244103Y-78586126D01*
X60431505Y-78000316D01*
X60646993Y-77439897D01*
X60891058Y-76903210D01*
X61164192Y-76388593D01*
X61227372Y-76279634D01*
X61320293Y-76126574D01*
X61432907Y-75948722D01*
X61559436Y-75754629D01*
X61694100Y-75552848D01*
X61831120Y-75351929D01*
X61964718Y-75160425D01*
X62089115Y-74986887D01*
X62198530Y-74839867D01*
X62213616Y-74820211D01*
X62624748Y-74310580D01*
X63067992Y-73806465D01*
X63544868Y-73306419D01*
X64056899Y-72808996D01*
X64605605Y-72312750D01*
X65192509Y-71816234D01*
X65819132Y-71318001D01*
X66209779Y-71021388D01*
X66359868Y-70909742D01*
X66507718Y-70800787D01*
X66655950Y-70692716D01*
X66807186Y-70583725D01*
X66964048Y-70472005D01*
X67129155Y-70355753D01*
X67305129Y-70233162D01*
X67494592Y-70102425D01*
X67700165Y-69961738D01*
X67924469Y-69809295D01*
X68170124Y-69643289D01*
X68439753Y-69461914D01*
X68735976Y-69263365D01*
X69061415Y-69045836D01*
X69418690Y-68807521D01*
X69553667Y-68717583D01*
X69934807Y-68463481D01*
X70283365Y-68230610D01*
X70602165Y-68016997D01*
X70894031Y-67820668D01*
X71161787Y-67639649D01*
X71408258Y-67471966D01*
X71636267Y-67315645D01*
X71848639Y-67168713D01*
X72048198Y-67029195D01*
X72237768Y-66895118D01*
X72420173Y-66764507D01*
X72598238Y-66635389D01*
X72774786Y-66505790D01*
X72952641Y-66373736D01*
X73134629Y-66237252D01*
X73323573Y-66094366D01*
X73511834Y-65951088D01*
X73584577Y-65895999D01*
X73683006Y-65822053D01*
X73798738Y-65735515D01*
X73923386Y-65642653D01*
X74048567Y-65549734D01*
X74072750Y-65531827D01*
X74468828Y-65232133D01*
X74853517Y-64927272D01*
X75232492Y-64612291D01*
X75611428Y-64282233D01*
X75996000Y-63932146D01*
X76391883Y-63557075D01*
X76804752Y-63152065D01*
X76847322Y-63109596D01*
X77083680Y-62872308D01*
X77296270Y-62656135D01*
X77492264Y-62453423D01*
X77678834Y-62256515D01*
X77863154Y-62057757D01*
X78052396Y-61849492D01*
X78253732Y-61624067D01*
X78474335Y-61373825D01*
X78484559Y-61362167D01*
X78668297Y-61151620D01*
X78848772Y-60942657D01*
X79027836Y-60732962D01*
X79207340Y-60520222D01*
X79389136Y-60302120D01*
X79575073Y-60076344D01*
X79767005Y-59840578D01*
X79966781Y-59592507D01*
X80176253Y-59329817D01*
X80397272Y-59050194D01*
X80631689Y-58751322D01*
X80881355Y-58430888D01*
X81148122Y-58086576D01*
X81433841Y-57716072D01*
X81740363Y-57317062D01*
X82069538Y-56887230D01*
X82200375Y-56716084D01*
X82570910Y-56231935D01*
X82918182Y-55779831D01*
X83243920Y-55357650D01*
X83549851Y-54963267D01*
X83837703Y-54594558D01*
X84109205Y-54249399D01*
X84366084Y-53925666D01*
X84610069Y-53621235D01*
X84842888Y-53333983D01*
X85066268Y-53061785D01*
X85281938Y-52802517D01*
X85491625Y-52554056D01*
X85697059Y-52314277D01*
X85899966Y-52081058D01*
X86102075Y-51852273D01*
X86305113Y-51625798D01*
X86510810Y-51399511D01*
X86643469Y-51255084D01*
X86757214Y-51133041D01*
X86891395Y-50991305D01*
X87042268Y-50833670D01*
X87206091Y-50663929D01*
X87379121Y-50485875D01*
X87557616Y-50303303D01*
X87737831Y-50120005D01*
X87916026Y-49939774D01*
X88088455Y-49766405D01*
X88251378Y-49603691D01*
X88401050Y-49455426D01*
X88533729Y-49325402D01*
X88645673Y-49217413D01*
X88733138Y-49135253D01*
X88751834Y-49118205D01*
X89426842Y-48536471D01*
X90130258Y-47985568D01*
X90860980Y-47465971D01*
X91617907Y-46978157D01*
X92399939Y-46522601D01*
X93205974Y-46099780D01*
X94034911Y-45710170D01*
X94885650Y-45354247D01*
X95757090Y-45032487D01*
X96648129Y-44745366D01*
X97557667Y-44493361D01*
X98484603Y-44276947D01*
X99427836Y-44096600D01*
X100386264Y-43952797D01*
X100816834Y-43900737D01*
X101080437Y-43872369D01*
X101334737Y-43847591D01*
X101584551Y-43826199D01*
X101834698Y-43807985D01*
X102089997Y-43792744D01*
X102355266Y-43780271D01*
X102635326Y-43770358D01*
X102934993Y-43762801D01*
X103259088Y-43757392D01*
X103612428Y-43753927D01*
X103999833Y-43752199D01*
X104298750Y-43751914D01*
X104853398Y-43753251D01*
X104853398Y-43753251D01*
G37*
X104853398Y-43753251D02*
X105370763Y-43757107D01*
X105855831Y-43763682D01*
X106313591Y-43773175D01*
X106749028Y-43785788D01*
X107167129Y-43801721D01*
X107572882Y-43821173D01*
X107971273Y-43844344D01*
X108367289Y-43871435D01*
X108765916Y-43902646D01*
X109172143Y-43938177D01*
X109347000Y-43954511D01*
X110421480Y-44072189D01*
X111464492Y-44217992D01*
X112476283Y-44392008D01*
X113457103Y-44594325D01*
X114407200Y-44825030D01*
X115326824Y-45084211D01*
X116216223Y-45371955D01*
X117075647Y-45688351D01*
X117905343Y-46033485D01*
X118705561Y-46407447D01*
X119476550Y-46810323D01*
X120218559Y-47242201D01*
X120931836Y-47703169D01*
X121616630Y-48193314D01*
X121824750Y-48352423D01*
X122370383Y-48795441D01*
X122917659Y-49278458D01*
X123466840Y-49801754D01*
X124018185Y-50365612D01*
X124571953Y-50970312D01*
X125128406Y-51616137D01*
X125687802Y-52303367D01*
X126250402Y-53032285D01*
X126665538Y-53594000D01*
X126836783Y-53832043D01*
X127022528Y-54094517D01*
X127223538Y-54382552D01*
X127440576Y-54697280D01*
X127674409Y-55039832D01*
X127925801Y-55411338D01*
X128195516Y-55812931D01*
X128484320Y-56245740D01*
X128792977Y-56710898D01*
X129122252Y-57209536D01*
X129472910Y-57742783D01*
X129549215Y-57859084D01*
X129888754Y-58374766D01*
X130208993Y-58856822D01*
X130512005Y-59308166D01*
X130799861Y-59731712D01*
X131074635Y-60130375D01*
X131338399Y-60507071D01*
X131593227Y-60864714D01*
X131841190Y-61206218D01*
X132084361Y-61534498D01*
X132324814Y-61852470D01*
X132564620Y-62163048D01*
X132805853Y-62469147D01*
X132996000Y-62706250D01*
X133134958Y-62875144D01*
X133270722Y-63033092D01*
X133407676Y-63184380D01*
X133550206Y-63333292D01*
X133702699Y-63484115D01*
X133869540Y-63641135D01*
X134055114Y-63808636D01*
X134263808Y-63990905D01*
X134500007Y-64192227D01*
X134620000Y-64293166D01*
X134835209Y-64472187D01*
X135048777Y-64646844D01*
X135263190Y-64818928D01*
X135480933Y-64990230D01*
X135704491Y-65162540D01*
X135936349Y-65337650D01*
X136178993Y-65517349D01*
X136434908Y-65703429D01*
X136706580Y-65897679D01*
X136996492Y-66101892D01*
X137307132Y-66317857D01*
X137640983Y-66547365D01*
X138000531Y-66792207D01*
X138388262Y-67054173D01*
X138806660Y-67335053D01*
X139258211Y-67636640D01*
X139287250Y-67655991D01*
X139731057Y-67952114D01*
X140141771Y-68227107D01*
X140521892Y-68482757D01*
X140873919Y-68720852D01*
X141200354Y-68943178D01*
X141503696Y-69151522D01*
X141786447Y-69347672D01*
X142051105Y-69533414D01*
X142300173Y-69710536D01*
X142536149Y-69880824D01*
X142761535Y-70046067D01*
X142978830Y-70208050D01*
X143190535Y-70368560D01*
X143399150Y-70529386D01*
X143607176Y-70692313D01*
X143817113Y-70859129D01*
X144031461Y-71031622D01*
X144187334Y-71158220D01*
X144606926Y-71509949D01*
X145003062Y-71861781D01*
X145372211Y-72210326D01*
X145710840Y-72552189D01*
X146015420Y-72883980D01*
X146163644Y-73056750D01*
X146636585Y-73654729D01*
X147072772Y-74272570D01*
X147471726Y-74909168D01*
X147832969Y-75563418D01*
X148156024Y-76234214D01*
X148440412Y-76920450D01*
X148685657Y-77621022D01*
X148891279Y-78334822D01*
X149056801Y-79060747D01*
X149181746Y-79797689D01*
X149225473Y-80140169D01*
X149280382Y-80757154D01*
X149303178Y-81374622D01*
X149293737Y-81998927D01*
X149251937Y-82636422D01*
X149177652Y-83293458D01*
X149161828Y-83407250D01*
X149145453Y-83525251D01*
X149125757Y-83672315D01*
X149104434Y-83835474D01*
X149083183Y-84001756D01*
X149064939Y-84148084D01*
X148940058Y-84992430D01*
X148773507Y-85833890D01*
X148565928Y-86670988D01*
X148317961Y-87502248D01*
X148030247Y-88326192D01*
X147703426Y-89141346D01*
X147338138Y-89946233D01*
X146935025Y-90739377D01*
X146494728Y-91519301D01*
X146017885Y-92284530D01*
X145505140Y-93033586D01*
X144957131Y-93764995D01*
X144812025Y-93948250D01*
X144611617Y-94195563D01*
X144419336Y-94426178D01*
X144229117Y-94646809D01*
X144034893Y-94864169D01*
X143830602Y-95084973D01*
X143610177Y-95315933D01*
X143367554Y-95563763D01*
X143204493Y-95727660D01*
X142947127Y-95982885D01*
X142710675Y-96212463D01*
X142488216Y-96422643D01*
X142272827Y-96619672D01*
X142057587Y-96809798D01*
X141835573Y-96999269D01*
X141599865Y-97194332D01*
X141403917Y-97352887D01*
X140543098Y-98018330D01*
X139655650Y-98654203D01*
X138740605Y-99261066D01*
X137796994Y-99839478D01*
X136823851Y-100389999D01*
X135820206Y-100913186D01*
X134785091Y-101409600D01*
X133717537Y-101879799D01*
X133182509Y-102100712D01*
X132102788Y-102517512D01*
X130989449Y-102908821D01*
X129842707Y-103274591D01*
X128662778Y-103614773D01*
X127449878Y-103929320D01*
X126204222Y-104218183D01*
X124926027Y-104481314D01*
X123615509Y-104718666D01*
X122272883Y-104930189D01*
X120898366Y-105115835D01*
X119492172Y-105275557D01*
X118554500Y-105366060D01*
X118231555Y-105394222D01*
X117889531Y-105422438D01*
X117536942Y-105450089D01*
X117182305Y-105476560D01*
X116834134Y-105501235D01*
X116500946Y-105523495D01*
X116191256Y-105542725D01*
X115913579Y-105558307D01*
X115866334Y-105560744D01*
X115725348Y-105568384D01*
X115598652Y-105576170D01*
X115492312Y-105583652D01*
X115412390Y-105590385D01*
X115364951Y-105595919D01*
X115354523Y-105598541D01*
X115358157Y-105620702D01*
X115374839Y-105678731D01*
X115403205Y-105768695D01*
X115441893Y-105886657D01*
X115489540Y-106028681D01*
X115544784Y-106190832D01*
X115606261Y-106369173D01*
X115672609Y-106559770D01*
X115742466Y-106758686D01*
X115814468Y-106961986D01*
X115887252Y-107165734D01*
X115959457Y-107365994D01*
X116029719Y-107558830D01*
X116088085Y-107717167D01*
X116348378Y-108424817D01*
X116591542Y-109098425D01*
X116818869Y-109742064D01*
X117031653Y-110359807D01*
X117231186Y-110955727D01*
X117418761Y-111533897D01*
X117595672Y-112098389D01*
X117763212Y-112653275D01*
X117922673Y-113202630D01*
X118075349Y-113750526D01*
X118222533Y-114301034D01*
X118365518Y-114858229D01*
X118403341Y-115009419D01*
X118685857Y-116201906D01*
X118934503Y-117373519D01*
X119149891Y-118527941D01*
X119332634Y-119668856D01*
X119483345Y-120799948D01*
X119602635Y-121924900D01*
X119654415Y-122533834D01*
X119717485Y-123448523D01*
X119761695Y-124328027D01*
X119786969Y-125175098D01*
X119793233Y-125992487D01*
X119780412Y-126782947D01*
X119748431Y-127549229D01*
X119697216Y-128294085D01*
X119626693Y-129020266D01*
X119536786Y-129730524D01*
X119442778Y-130337419D01*
X119293046Y-131130599D01*
X119113340Y-131910800D01*
X118904941Y-132673770D01*
X118669130Y-133415259D01*
X118407190Y-134131016D01*
X118120401Y-134816791D01*
X118037534Y-134999155D01*
X117867683Y-135349056D01*
X117696290Y-135665015D01*
X117517705Y-135955224D01*
X117326278Y-136227873D01*
X117116356Y-136491155D01*
X116882290Y-136753260D01*
X116692365Y-136949125D01*
X116304972Y-137309605D01*
X115882658Y-137650401D01*
X115424854Y-137971853D01*
X114930995Y-138274299D01*
X114400514Y-138558077D01*
X113832845Y-138823525D01*
X113227420Y-139070982D01*
X112989904Y-139159438D01*
X112559572Y-139306899D01*
X112097249Y-139449183D01*
X111613198Y-139583671D01*
X111117682Y-139707745D01*
X110620965Y-139818790D01*
X110133312Y-139914186D01*
X109823250Y-139967011D01*
X109356207Y-140039908D01*
X108922649Y-140104001D01*
X108514850Y-140160169D01*
X108125084Y-140209289D01*
X107745623Y-140252240D01*
X107368742Y-140289898D01*
X106986714Y-140323141D01*
X106591813Y-140352849D01*
X106203750Y-140378224D01*
X106084993Y-140384027D01*
X105929525Y-140389342D01*
X105742963Y-140394134D01*
X105530928Y-140398366D01*
X105299040Y-140402001D01*
X105052915Y-140405004D01*
X104798176Y-140407338D01*
X104540439Y-140408966D01*
X104285325Y-140409853D01*
X104038452Y-140409962D01*
X103805440Y-140409257D01*
X103591908Y-140407702D01*
X103403475Y-140405260D01*
X103245761Y-140401895D01*
X103134584Y-140398042D01*
X102308499Y-140352605D01*
X101490315Y-140290826D01*
X100682835Y-140213215D01*
X99888858Y-140120282D01*
X99111186Y-140012540D01*
X98352621Y-139890499D01*
X97615963Y-139754670D01*
X96904013Y-139605564D01*
X96219574Y-139443692D01*
X95565446Y-139269566D01*
X94944430Y-139083696D01*
X94359327Y-138886593D01*
X93898559Y-138713082D01*
X93348197Y-138479168D01*
X92822912Y-138223134D01*
X92314304Y-137940281D01*
X91813971Y-137625912D01*
X91313510Y-137275329D01*
X91270667Y-137243688D01*
X91115115Y-137126706D01*
X90988042Y-137026859D01*
X90882562Y-136938013D01*
X90791787Y-136854033D01*
X90708831Y-136768787D01*
X90626809Y-136676139D01*
X90606396Y-136652000D01*
X90495251Y-136514840D01*
X90393365Y-136378003D01*
X90298466Y-136237007D01*
X90208284Y-136087371D01*
X90120548Y-135924612D01*
X90032988Y-135744248D01*
X89943332Y-135541797D01*
X89849311Y-135312779D01*
X89748652Y-135052710D01*
X89639085Y-134757109D01*
X89620613Y-134706316D01*
X89513020Y-134405341D01*
X89415351Y-134121820D01*
X89325720Y-133849107D01*
X89242239Y-133580558D01*
X89163021Y-133309525D01*
X89086180Y-133029363D01*
X89009828Y-132733426D01*
X88932078Y-132415068D01*
X88851043Y-132067642D01*
X88772755Y-131720167D01*
X88600635Y-130857064D01*
X88462895Y-129973138D01*
X88359738Y-129072549D01*
X88291370Y-128159457D01*
X88257995Y-127238022D01*
X88258900Y-126778007D01*
X88819621Y-126778007D01*
X88820873Y-127022315D01*
X88823397Y-127266891D01*
X88827134Y-127505105D01*
X88832026Y-127730327D01*
X88838015Y-127935928D01*
X88845042Y-128115277D01*
X88853048Y-128261746D01*
X88856727Y-128312334D01*
X88949426Y-129255147D01*
X89075262Y-130179780D01*
X89235365Y-131091383D01*
X89430867Y-131995104D01*
X89662897Y-132896092D01*
X89932588Y-133799495D01*
X90241070Y-134710463D01*
X90294970Y-134859645D01*
X90369241Y-135062550D01*
X90431814Y-135230788D01*
X90485025Y-135369630D01*
X90531212Y-135484347D01*
X90572714Y-135580210D01*
X90611869Y-135662489D01*
X90651014Y-135736457D01*
X90692488Y-135807384D01*
X90738629Y-135880541D01*
X90767039Y-135923936D01*
X90957241Y-136179838D01*
X91187871Y-136433756D01*
X91457027Y-136684279D01*
X91762809Y-136929993D01*
X92103316Y-137169488D01*
X92476645Y-137401351D01*
X92880895Y-137624170D01*
X93314166Y-137836533D01*
X93387334Y-137870026D01*
X93952231Y-138110624D01*
X94554987Y-138337780D01*
X95193154Y-138550996D01*
X95864285Y-138749775D01*
X96565934Y-138933621D01*
X97295653Y-139102037D01*
X98050996Y-139254525D01*
X98829516Y-139390589D01*
X99628765Y-139509733D01*
X100446297Y-139611459D01*
X101279664Y-139695270D01*
X102126421Y-139760670D01*
X102912334Y-139804024D01*
X103051773Y-139808988D01*
X103227158Y-139813207D01*
X103432425Y-139816679D01*
X103661512Y-139819401D01*
X103908355Y-139821371D01*
X104166891Y-139822586D01*
X104431055Y-139823044D01*
X104694785Y-139822741D01*
X104952018Y-139821676D01*
X105196689Y-139819846D01*
X105422736Y-139817248D01*
X105624095Y-139813880D01*
X105794702Y-139809738D01*
X105918000Y-139805301D01*
X106787836Y-139755608D01*
X107631813Y-139685501D01*
X108448945Y-139595236D01*
X109238241Y-139485070D01*
X109998713Y-139355263D01*
X110729371Y-139206071D01*
X111429227Y-139037751D01*
X112097292Y-138850563D01*
X112732577Y-138644762D01*
X113334092Y-138420608D01*
X113900850Y-138178356D01*
X114431860Y-137918266D01*
X114926134Y-137640595D01*
X115382683Y-137345600D01*
X115396133Y-137336243D01*
X115764376Y-137060752D01*
X116106520Y-136766744D01*
X116418697Y-136458092D01*
X116697043Y-136138669D01*
X116937689Y-135812349D01*
X116977196Y-135752417D01*
X117137118Y-135489598D01*
X117300933Y-135190668D01*
X117466144Y-134861365D01*
X117630254Y-134507425D01*
X117790767Y-134134587D01*
X117945185Y-133748588D01*
X118091011Y-133355166D01*
X118225750Y-132960056D01*
X118312830Y-132683250D01*
X118474171Y-132118115D01*
X118618825Y-131541014D01*
X118747419Y-130948103D01*
X118860577Y-130335536D01*
X118958927Y-129699469D01*
X119043093Y-129036057D01*
X119113702Y-128341456D01*
X119171379Y-127611820D01*
X119193033Y-127275167D01*
X119199647Y-127136558D01*
X119205268Y-126961427D01*
X119209893Y-126755570D01*
X119213523Y-126524787D01*
X119216157Y-126274875D01*
X119217795Y-126011634D01*
X119218436Y-125740861D01*
X119218079Y-125468355D01*
X119216724Y-125199915D01*
X119214370Y-124941338D01*
X119211016Y-124698423D01*
X119206663Y-124476968D01*
X119201310Y-124282772D01*
X119194955Y-124121633D01*
X119193338Y-124089584D01*
X119104681Y-122776303D01*
X118977946Y-121461505D01*
X118812876Y-120143843D01*
X118609214Y-118821971D01*
X118366703Y-117494542D01*
X118085087Y-116160211D01*
X117764110Y-114817630D01*
X117403514Y-113465453D01*
X117003042Y-112102334D01*
X116762218Y-111336667D01*
X116620890Y-110903778D01*
X116478426Y-110480349D01*
X116332378Y-110059645D01*
X116180295Y-109634933D01*
X116019727Y-109199479D01*
X115848224Y-108746550D01*
X115663337Y-108269411D01*
X115462615Y-107761329D01*
X115449232Y-107727750D01*
X115363185Y-107510373D01*
X115276820Y-107289240D01*
X115192454Y-107070477D01*
X115112401Y-106860208D01*
X115038976Y-106664558D01*
X114974497Y-106489651D01*
X114921276Y-106341611D01*
X114881631Y-106226564D01*
X114881084Y-106224917D01*
X114657718Y-105500396D01*
X114462757Y-104757536D01*
X114296064Y-103994929D01*
X114157502Y-103211168D01*
X114046935Y-102404846D01*
X113964225Y-101574554D01*
X113909235Y-100718885D01*
X113881828Y-99836433D01*
X113881867Y-98925788D01*
X113909216Y-97985545D01*
X113963737Y-97014294D01*
X113972472Y-96890417D01*
X113996251Y-96574467D01*
X114022060Y-96259786D01*
X114050285Y-95943216D01*
X114081312Y-95621601D01*
X114115527Y-95291783D01*
X114153317Y-94950607D01*
X114195068Y-94594916D01*
X114241165Y-94221551D01*
X114291995Y-93827358D01*
X114347944Y-93409179D01*
X114409399Y-92963856D01*
X114476745Y-92488234D01*
X114550369Y-91979156D01*
X114630656Y-91433464D01*
X114683233Y-91080167D01*
X114740566Y-90696246D01*
X114791986Y-90351306D01*
X114837845Y-90042460D01*
X114878498Y-89766822D01*
X114914297Y-89521504D01*
X114945595Y-89303622D01*
X114972747Y-89110288D01*
X114996105Y-88938615D01*
X115016023Y-88785719D01*
X115032854Y-88648711D01*
X115046952Y-88524706D01*
X115058669Y-88410817D01*
X115068359Y-88304157D01*
X115076375Y-88201841D01*
X115083071Y-88100982D01*
X115088799Y-87998694D01*
X115093914Y-87892089D01*
X115098769Y-87778282D01*
X115103717Y-87654386D01*
X115104259Y-87640584D01*
X115111178Y-87478050D01*
X115120305Y-87283995D01*
X115131083Y-87069139D01*
X115142956Y-86844203D01*
X115155366Y-86619907D01*
X115167756Y-86406973D01*
X115171880Y-86338834D01*
X115187573Y-86052535D01*
X115200316Y-85757888D01*
X115210089Y-85460059D01*
X115216873Y-85164213D01*
X115220647Y-84875517D01*
X115221393Y-84599134D01*
X115219089Y-84340232D01*
X115213717Y-84103976D01*
X115205256Y-83895532D01*
X115193687Y-83720064D01*
X115182358Y-83608334D01*
X115113495Y-83155147D01*
X115023397Y-82736840D01*
X114911085Y-82351116D01*
X114775578Y-81995680D01*
X114615896Y-81668236D01*
X114431056Y-81366490D01*
X114220080Y-81088145D01*
X114005840Y-80854543D01*
X113852004Y-80714700D01*
X113662360Y-80565700D01*
X113441691Y-80410413D01*
X113194776Y-80251710D01*
X112926398Y-80092463D01*
X112641337Y-79935542D01*
X112344373Y-79783819D01*
X112040290Y-79640165D01*
X111829033Y-79547340D01*
X111245902Y-79319706D01*
X110632124Y-79119773D01*
X109989280Y-78947787D01*
X109318948Y-78803995D01*
X108622708Y-78688645D01*
X107902138Y-78601983D01*
X107158818Y-78544258D01*
X106394327Y-78515715D01*
X105610243Y-78516602D01*
X105297562Y-78525045D01*
X104780181Y-78545680D01*
X104302009Y-78570978D01*
X103860154Y-78601176D01*
X103451724Y-78636513D01*
X103073825Y-78677229D01*
X102723566Y-78723560D01*
X102531334Y-78753199D01*
X101870479Y-78867321D01*
X101248886Y-78988334D01*
X100663933Y-79116992D01*
X100112995Y-79254052D01*
X99593447Y-79400270D01*
X99102667Y-79556403D01*
X98638029Y-79723205D01*
X98196912Y-79901434D01*
X97776689Y-80091845D01*
X97620667Y-80168187D01*
X97208275Y-80384883D01*
X96831460Y-80606086D01*
X96483467Y-80836623D01*
X96157542Y-81081322D01*
X95846928Y-81345010D01*
X95544872Y-81632517D01*
X95480787Y-81697506D01*
X95237449Y-81958778D01*
X95020871Y-82218147D01*
X94823999Y-82485482D01*
X94639776Y-82770655D01*
X94461149Y-83083535D01*
X94379723Y-83237917D01*
X94158572Y-83704845D01*
X93968354Y-84188933D01*
X93808677Y-84692136D01*
X93679150Y-85216414D01*
X93579382Y-85763724D01*
X93508983Y-86336023D01*
X93467562Y-86935269D01*
X93454726Y-87563419D01*
X93458092Y-87852250D01*
X93463875Y-88085202D01*
X93471464Y-88310192D01*
X93481229Y-88530394D01*
X93493540Y-88748979D01*
X93508767Y-88969122D01*
X93527280Y-89193994D01*
X93549448Y-89426768D01*
X93575643Y-89670618D01*
X93606232Y-89928716D01*
X93641588Y-90204235D01*
X93682079Y-90500347D01*
X93728075Y-90820226D01*
X93779947Y-91167044D01*
X93838064Y-91543975D01*
X93902796Y-91954190D01*
X93974513Y-92400864D01*
X94023899Y-92705184D01*
X94055803Y-92900645D01*
X94085379Y-93080434D01*
X94113279Y-93247912D01*
X94140156Y-93406439D01*
X94166664Y-93559378D01*
X94193456Y-93710088D01*
X94221186Y-93861931D01*
X94250506Y-94018267D01*
X94282071Y-94182458D01*
X94316534Y-94357864D01*
X94354547Y-94547846D01*
X94396765Y-94755766D01*
X94443841Y-94984984D01*
X94496428Y-95238861D01*
X94555179Y-95520757D01*
X94620748Y-95834035D01*
X94693788Y-96182054D01*
X94773724Y-96562334D01*
X94873417Y-97037627D01*
X94964534Y-97474806D01*
X95047693Y-97877076D01*
X95123513Y-98247645D01*
X95192611Y-98589720D01*
X95255605Y-98906508D01*
X95313115Y-99201217D01*
X95365758Y-99477054D01*
X95414152Y-99737225D01*
X95458916Y-99984939D01*
X95500668Y-100223403D01*
X95540025Y-100455823D01*
X95577607Y-100685407D01*
X95614032Y-100915362D01*
X95619139Y-100948184D01*
X95694188Y-101450571D01*
X95757684Y-101918567D01*
X95810126Y-102358365D01*
X95852014Y-102776154D01*
X95883846Y-103178128D01*
X95906122Y-103570475D01*
X95919340Y-103959389D01*
X95924000Y-104351060D01*
X95921477Y-104699117D01*
X95914145Y-105021894D01*
X95902069Y-105311009D01*
X95884204Y-105574972D01*
X95859506Y-105822293D01*
X95826932Y-106061483D01*
X95785437Y-106301049D01*
X95733978Y-106549504D01*
X95671511Y-106815355D01*
X95652510Y-106891667D01*
X95579047Y-107170847D01*
X95498461Y-107451517D01*
X95409691Y-107736177D01*
X95311675Y-108027326D01*
X95203352Y-108327463D01*
X95083660Y-108639087D01*
X94951538Y-108964697D01*
X94805924Y-109306792D01*
X94645756Y-109667872D01*
X94469974Y-110050435D01*
X94277516Y-110456981D01*
X94067320Y-110890009D01*
X93838324Y-111352019D01*
X93589468Y-111845508D01*
X93346464Y-112320917D01*
X93186516Y-112632930D01*
X93023383Y-112952736D01*
X92858848Y-113276755D01*
X92694696Y-113601408D01*
X92532711Y-113923116D01*
X92374677Y-114238298D01*
X92222378Y-114543376D01*
X92077598Y-114834770D01*
X91942122Y-115108901D01*
X91817732Y-115362190D01*
X91706214Y-115591057D01*
X91609352Y-115791922D01*
X91528928Y-115961206D01*
X91484367Y-116056834D01*
X91109092Y-116892431D01*
X90765252Y-117703467D01*
X90452058Y-118492835D01*
X90168724Y-119263428D01*
X89914461Y-120018142D01*
X89688481Y-120759870D01*
X89489998Y-121491505D01*
X89318223Y-122215943D01*
X89172368Y-122936077D01*
X89051647Y-123654801D01*
X88955270Y-124375009D01*
X88882451Y-125099595D01*
X88834491Y-125792534D01*
X88828505Y-125936054D01*
X88824083Y-126112991D01*
X88821168Y-126316715D01*
X88819700Y-126540597D01*
X88819621Y-126778007D01*
X88258900Y-126778007D01*
X88259816Y-126312404D01*
X88297039Y-125386763D01*
X88369867Y-124465258D01*
X88401649Y-124163667D01*
X88481463Y-123542033D01*
X88582357Y-122916920D01*
X88705050Y-122286080D01*
X88850259Y-121647263D01*
X89018704Y-120998221D01*
X89211104Y-120336703D01*
X89428175Y-119660462D01*
X89670639Y-118967248D01*
X89939211Y-118254811D01*
X90234613Y-117520904D01*
X90557561Y-116763277D01*
X90908774Y-115979680D01*
X91248618Y-115252500D01*
X91318656Y-115105212D01*
X91402171Y-114929412D01*
X91494536Y-114734855D01*
X91591121Y-114531295D01*
X91687297Y-114328486D01*
X91778435Y-114136182D01*
X91806114Y-114077750D01*
X91886340Y-113909740D01*
X91981757Y-113712207D01*
X92088343Y-113493350D01*
X92202072Y-113261366D01*
X92318921Y-113024454D01*
X92434864Y-112790811D01*
X92545878Y-112568636D01*
X92590593Y-112479667D01*
X92740371Y-112181234D01*
X92891787Y-111877626D01*
X93042682Y-111573269D01*
X93190899Y-111272588D01*
X93334281Y-110980009D01*
X93470670Y-110699956D01*
X93597910Y-110436856D01*
X93713842Y-110195133D01*
X93816309Y-109979213D01*
X93903154Y-109793521D01*
X93952689Y-109685667D01*
X94250991Y-108998472D01*
X94512208Y-108330583D01*
X94736308Y-107682111D01*
X94923258Y-107053171D01*
X95073028Y-106443873D01*
X95185583Y-105854332D01*
X95260894Y-105284659D01*
X95283342Y-105024819D01*
X95289710Y-104930521D01*
X95291650Y-104870200D01*
X95287799Y-104835612D01*
X95276790Y-104818512D01*
X95257260Y-104810655D01*
X95247527Y-104808423D01*
X95211908Y-104803570D01*
X95138499Y-104795981D01*
X95031728Y-104786017D01*
X94896024Y-104774041D01*
X94735816Y-104760415D01*
X94555534Y-104745500D01*
X94359606Y-104729659D01*
X94152460Y-104713253D01*
X93938528Y-104696644D01*
X93722236Y-104680194D01*
X93508015Y-104664266D01*
X93300293Y-104649221D01*
X93292084Y-104648635D01*
X93056875Y-104632080D01*
X92819480Y-104615802D01*
X92576156Y-104599575D01*
X92323160Y-104583168D01*
X92056749Y-104566355D01*
X91773178Y-104548906D01*
X91468705Y-104530593D01*
X91139587Y-104511188D01*
X90782080Y-104490462D01*
X90392440Y-104468188D01*
X89966925Y-104444135D01*
X89640834Y-104425846D01*
X89257960Y-104404405D01*
X88912984Y-104384995D01*
X88601530Y-104367317D01*
X88319227Y-104351071D01*
X88061702Y-104335956D01*
X87824582Y-104321674D01*
X87603493Y-104307925D01*
X87394064Y-104294408D01*
X87191921Y-104280825D01*
X86992692Y-104266875D01*
X86792003Y-104252259D01*
X86585481Y-104236677D01*
X86368755Y-104219830D01*
X86137450Y-104201418D01*
X85887195Y-104181141D01*
X85613616Y-104158699D01*
X85312340Y-104133793D01*
X84994750Y-104107432D01*
X84129326Y-104033025D01*
X83303551Y-103956805D01*
X82514762Y-103878393D01*
X81760300Y-103797410D01*
X81037504Y-103713479D01*
X80343712Y-103626220D01*
X79676264Y-103535256D01*
X79032499Y-103440207D01*
X78409756Y-103340695D01*
X77805374Y-103236342D01*
X77216693Y-103126770D01*
X76641051Y-103011598D01*
X76075787Y-102890450D01*
X75518242Y-102762946D01*
X75480334Y-102753986D01*
X74472314Y-102498759D01*
X73491346Y-102217095D01*
X72538430Y-101909407D01*
X71614568Y-101576108D01*
X70720758Y-101217610D01*
X69858002Y-100834327D01*
X69027299Y-100426669D01*
X68229651Y-99995052D01*
X67466057Y-99539886D01*
X67066584Y-99283366D01*
X66429292Y-98838068D01*
X65814599Y-98357779D01*
X65223515Y-97843922D01*
X64657051Y-97297920D01*
X64116219Y-96721199D01*
X63602031Y-96115182D01*
X63115497Y-95481293D01*
X62657630Y-94820958D01*
X62229440Y-94135598D01*
X61831940Y-93426640D01*
X61466140Y-92695507D01*
X61133053Y-91943622D01*
X60833689Y-91172411D01*
X60569060Y-90383297D01*
X60442943Y-89957257D01*
X60226503Y-89115826D01*
X60051290Y-88268690D01*
X59916847Y-87413184D01*
X59822714Y-86546640D01*
X59795871Y-86190667D01*
X59761060Y-85612869D01*
X59733239Y-85043068D01*
X59712431Y-84485006D01*
X59698659Y-83942423D01*
X59693124Y-83510951D01*
X60158383Y-83510951D01*
X60159172Y-83755841D01*
X60161739Y-83984388D01*
X60166159Y-84190076D01*
X60172510Y-84366386D01*
X60175082Y-84417732D01*
X60222205Y-85118874D01*
X60286900Y-85823940D01*
X60368139Y-86525722D01*
X60464897Y-87217017D01*
X60576144Y-87890618D01*
X60700855Y-88539320D01*
X60838002Y-89155918D01*
X60868373Y-89281000D01*
X61094348Y-90121137D01*
X61350888Y-90932093D01*
X61638247Y-91714240D01*
X61956679Y-92467952D01*
X62306441Y-93193602D01*
X62687787Y-93891564D01*
X63100972Y-94562210D01*
X63546252Y-95205913D01*
X64023880Y-95823047D01*
X64534113Y-96413985D01*
X65077205Y-96979101D01*
X65653411Y-97518766D01*
X66262987Y-98033356D01*
X66906187Y-98523241D01*
X67436351Y-98891758D01*
X68077672Y-99300085D01*
X68750484Y-99689522D01*
X69455352Y-100060257D01*
X70192846Y-100412479D01*
X70963532Y-100746375D01*
X71767978Y-101062136D01*
X72606752Y-101359950D01*
X73480420Y-101640004D01*
X74389549Y-101902488D01*
X75334708Y-102147590D01*
X76316464Y-102375499D01*
X77335384Y-102586404D01*
X78392036Y-102780492D01*
X79486986Y-102957953D01*
X79819500Y-103007462D01*
X80373143Y-103086046D01*
X80935647Y-103161376D01*
X81508866Y-103233598D01*
X82094657Y-103302855D01*
X82694874Y-103369293D01*
X83311373Y-103433054D01*
X83946006Y-103494283D01*
X84600631Y-103553125D01*
X85277102Y-103609723D01*
X85977274Y-103664222D01*
X86703001Y-103716765D01*
X87456139Y-103767498D01*
X88238542Y-103816563D01*
X89052067Y-103864106D01*
X89898566Y-103910270D01*
X90779897Y-103955200D01*
X91697913Y-103999039D01*
X92654469Y-104041933D01*
X93651420Y-104084025D01*
X93694250Y-104085779D01*
X93929635Y-104095452D01*
X94156703Y-104104867D01*
X94371176Y-104113841D01*
X94568780Y-104122190D01*
X94745238Y-104129733D01*
X94896274Y-104136287D01*
X95017612Y-104141668D01*
X95104976Y-104145694D01*
X95152514Y-104148093D01*
X95319611Y-104157583D01*
X95305410Y-103836583D01*
X95275778Y-103315636D01*
X95231884Y-102773586D01*
X95173374Y-102207653D01*
X95099890Y-101615058D01*
X95011076Y-100993019D01*
X94906576Y-100338756D01*
X94786034Y-99649490D01*
X94729948Y-99345750D01*
X94697757Y-99174027D01*
X94672280Y-99039513D01*
X94652336Y-98937829D01*
X94636745Y-98864592D01*
X94624327Y-98815423D01*
X94613901Y-98785939D01*
X94604286Y-98771761D01*
X94594304Y-98768506D01*
X94582772Y-98771795D01*
X94576046Y-98774528D01*
X94434596Y-98821358D01*
X94281808Y-98852577D01*
X94107633Y-98869707D01*
X93916500Y-98874324D01*
X93824175Y-98873568D01*
X93739874Y-98871229D01*
X93657994Y-98866543D01*
X93572931Y-98858747D01*
X93479079Y-98847076D01*
X93370835Y-98830766D01*
X93242595Y-98809055D01*
X93088753Y-98781177D01*
X92903705Y-98746369D01*
X92720584Y-98711319D01*
X92558858Y-98682313D01*
X92397974Y-98657224D01*
X92249789Y-98637703D01*
X92126162Y-98625402D01*
X92085584Y-98622841D01*
X91979405Y-98614271D01*
X91836177Y-98597336D01*
X91660187Y-98572802D01*
X91455722Y-98541436D01*
X91227072Y-98504003D01*
X90978523Y-98461269D01*
X90714362Y-98413998D01*
X90438878Y-98362959D01*
X90156358Y-98308915D01*
X89871090Y-98252633D01*
X89587362Y-98194878D01*
X89309460Y-98136417D01*
X89069334Y-98084153D01*
X88207647Y-97880963D01*
X87384351Y-97661432D01*
X86598629Y-97425187D01*
X85849665Y-97171853D01*
X85136641Y-96901056D01*
X84458742Y-96612420D01*
X83815150Y-96305571D01*
X83205049Y-95980134D01*
X82627622Y-95635735D01*
X82082052Y-95271999D01*
X81567523Y-94888551D01*
X81083218Y-94485017D01*
X80935901Y-94352870D01*
X80846218Y-94268641D01*
X80735973Y-94161357D01*
X80609900Y-94035942D01*
X80472736Y-93897319D01*
X80329217Y-93750410D01*
X80184078Y-93600139D01*
X80042056Y-93451428D01*
X79907885Y-93309200D01*
X79786303Y-93178378D01*
X79682044Y-93063885D01*
X79599845Y-92970643D01*
X79557275Y-92919798D01*
X79264896Y-92523850D01*
X79005476Y-92101704D01*
X78779322Y-91654114D01*
X78586744Y-91181829D01*
X78428053Y-90685603D01*
X78303556Y-90166185D01*
X78220049Y-89672584D01*
X78206011Y-89543254D01*
X78194125Y-89380304D01*
X78184555Y-89192400D01*
X78177464Y-88988207D01*
X78173016Y-88776393D01*
X78171671Y-88603667D01*
X78815041Y-88603667D01*
X78816312Y-88846877D01*
X78820520Y-89056028D01*
X78828547Y-89239345D01*
X78841275Y-89405052D01*
X78859586Y-89561374D01*
X78884361Y-89716536D01*
X78916483Y-89878761D01*
X78956833Y-90056275D01*
X78981869Y-90159417D01*
X79127922Y-90663549D01*
X79313848Y-91154371D01*
X79539248Y-91631621D01*
X79803724Y-92095039D01*
X80106878Y-92544365D01*
X80448311Y-92979338D01*
X80827624Y-93399697D01*
X81244419Y-93805182D01*
X81698297Y-94195533D01*
X82188860Y-94570489D01*
X82715710Y-94929790D01*
X83278447Y-95273175D01*
X83876673Y-95600383D01*
X84509990Y-95911155D01*
X85177999Y-96205230D01*
X85880302Y-96482346D01*
X86616500Y-96742245D01*
X87386195Y-96984664D01*
X88188988Y-97209345D01*
X89024480Y-97416025D01*
X89892273Y-97604446D01*
X90572167Y-97735093D01*
X91390285Y-97873642D01*
X92239730Y-97997745D01*
X93111609Y-98106168D01*
X93704834Y-98169521D01*
X93840832Y-98183096D01*
X93966869Y-98195682D01*
X94075236Y-98206509D01*
X94158225Y-98214806D01*
X94208130Y-98219803D01*
X94212834Y-98220276D01*
X94284647Y-98225986D01*
X94361662Y-98229802D01*
X94432371Y-98231471D01*
X94485270Y-98230742D01*
X94508853Y-98227364D01*
X94509167Y-98226755D01*
X94505037Y-98205165D01*
X94493160Y-98145894D01*
X94474309Y-98052732D01*
X94449255Y-97929467D01*
X94418770Y-97779887D01*
X94383625Y-97607780D01*
X94344592Y-97416933D01*
X94302443Y-97211136D01*
X94276630Y-97085234D01*
X94228476Y-96849901D01*
X94179408Y-96609095D01*
X94130758Y-96369409D01*
X94083854Y-96137435D01*
X94040026Y-95919765D01*
X94000606Y-95722991D01*
X93966921Y-95553706D01*
X93940303Y-95418501D01*
X93937658Y-95404937D01*
X93908239Y-95254384D01*
X93872311Y-95071349D01*
X93831659Y-94864864D01*
X93788062Y-94643959D01*
X93743304Y-94417668D01*
X93699167Y-94195021D01*
X93662747Y-94011750D01*
X93569248Y-93537068D01*
X93485094Y-93099178D01*
X93409593Y-92693746D01*
X93342050Y-92316440D01*
X93281773Y-91962925D01*
X93228067Y-91628868D01*
X93180240Y-91309935D01*
X93137599Y-91001792D01*
X93099449Y-90700107D01*
X93065098Y-90400545D01*
X93033852Y-90098773D01*
X93029442Y-90053584D01*
X93002098Y-89755507D01*
X92979289Y-89469831D01*
X92960841Y-89190512D01*
X92946586Y-88911506D01*
X92936350Y-88626770D01*
X92929963Y-88330259D01*
X92927253Y-88015929D01*
X92928051Y-87677737D01*
X92932183Y-87309639D01*
X92939480Y-86905590D01*
X92939824Y-86889167D01*
X92945415Y-86635514D01*
X92950828Y-86419658D01*
X92956284Y-86237062D01*
X92962002Y-86083191D01*
X92968205Y-85953511D01*
X92975113Y-85843485D01*
X92982946Y-85748578D01*
X92991926Y-85664255D01*
X93002274Y-85585980D01*
X93003783Y-85575657D01*
X93109540Y-84993873D01*
X93251833Y-84430553D01*
X93430062Y-83886870D01*
X93643626Y-83363995D01*
X93891926Y-82863101D01*
X94174361Y-82385359D01*
X94490331Y-81931941D01*
X94839234Y-81504020D01*
X95220472Y-81102768D01*
X95365234Y-80965334D01*
X95687846Y-80687315D01*
X96042063Y-80420534D01*
X96429626Y-80163969D01*
X96852277Y-79916600D01*
X97311758Y-79677406D01*
X97809811Y-79445366D01*
X98336905Y-79223964D01*
X98946695Y-78995356D01*
X99576133Y-78789763D01*
X100227439Y-78606748D01*
X100902833Y-78445874D01*
X101604534Y-78306705D01*
X102334764Y-78188803D01*
X103095742Y-78091732D01*
X103889687Y-78015054D01*
X104718821Y-77958332D01*
X104785584Y-77954705D01*
X104939549Y-77948468D01*
X105128459Y-77944008D01*
X105344965Y-77941261D01*
X105581718Y-77940159D01*
X105831371Y-77940636D01*
X106086574Y-77942627D01*
X106339979Y-77946063D01*
X106584238Y-77950880D01*
X106812001Y-77957011D01*
X107015921Y-77964389D01*
X107188650Y-77972948D01*
X107251500Y-77976975D01*
X107907883Y-78030515D01*
X108527054Y-78097195D01*
X109112292Y-78177791D01*
X109666872Y-78273079D01*
X110194072Y-78383837D01*
X110697168Y-78510839D01*
X111179438Y-78654863D01*
X111644158Y-78816686D01*
X112094604Y-78997082D01*
X112534055Y-79196830D01*
X112659584Y-79258326D01*
X113064584Y-79471708D01*
X113441125Y-79694051D01*
X113786846Y-79923593D01*
X114099383Y-80158576D01*
X114376376Y-80397239D01*
X114615462Y-80637821D01*
X114789851Y-80846084D01*
X115015164Y-81170064D01*
X115213719Y-81517568D01*
X115385885Y-81889974D01*
X115532032Y-82288661D01*
X115652526Y-82715008D01*
X115747738Y-83170395D01*
X115818035Y-83656201D01*
X115863786Y-84173804D01*
X115885360Y-84724584D01*
X115887302Y-84952417D01*
X115884334Y-85282739D01*
X115875054Y-85626768D01*
X115859232Y-85986877D01*
X115836639Y-86365441D01*
X115807044Y-86764834D01*
X115770218Y-87187430D01*
X115725930Y-87635603D01*
X115673950Y-88111727D01*
X115614048Y-88618176D01*
X115545995Y-89157326D01*
X115469561Y-89731548D01*
X115384514Y-90343219D01*
X115324412Y-90762667D01*
X115255218Y-91240955D01*
X115191873Y-91679945D01*
X115134033Y-92082216D01*
X115081354Y-92450348D01*
X115033489Y-92786921D01*
X114990095Y-93094513D01*
X114950827Y-93375705D01*
X114915339Y-93633076D01*
X114883288Y-93869205D01*
X114854327Y-94086673D01*
X114828113Y-94288057D01*
X114804300Y-94475939D01*
X114782543Y-94652898D01*
X114762499Y-94821512D01*
X114743821Y-94984362D01*
X114726165Y-95144027D01*
X114709187Y-95303087D01*
X114692541Y-95464121D01*
X114682094Y-95567500D01*
X114663567Y-95757832D01*
X114644513Y-95963511D01*
X114625983Y-96172487D01*
X114609026Y-96372711D01*
X114594694Y-96552134D01*
X114586132Y-96668167D01*
X114576579Y-96811155D01*
X114566981Y-96966697D01*
X114557604Y-97129259D01*
X114548709Y-97293310D01*
X114540562Y-97453316D01*
X114533424Y-97603746D01*
X114527560Y-97739067D01*
X114523233Y-97853747D01*
X114520707Y-97942253D01*
X114520244Y-97999053D01*
X114521830Y-98018515D01*
X114544315Y-98017505D01*
X114603254Y-98009682D01*
X114693477Y-97995939D01*
X114809811Y-97977167D01*
X114947084Y-97954256D01*
X115100125Y-97928099D01*
X115263762Y-97899585D01*
X115432823Y-97869608D01*
X115602137Y-97839057D01*
X115766532Y-97808824D01*
X115920835Y-97779800D01*
X116035667Y-97757634D01*
X116708627Y-97619894D01*
X117388413Y-97469209D01*
X118062959Y-97308463D01*
X118720198Y-97140538D01*
X119348064Y-96968316D01*
X119392250Y-96955703D01*
X120316629Y-96678547D01*
X121206368Y-96386296D01*
X122061047Y-96079189D01*
X122880247Y-95757467D01*
X123663548Y-95421371D01*
X124410532Y-95071141D01*
X125120780Y-94707018D01*
X125793871Y-94329242D01*
X126429386Y-93938053D01*
X127026907Y-93533692D01*
X127586014Y-93116400D01*
X128106288Y-92686416D01*
X128587309Y-92243982D01*
X129028659Y-91789338D01*
X129429917Y-91322724D01*
X129605603Y-91097944D01*
X129945046Y-90617703D01*
X130243643Y-90127332D01*
X130501975Y-89625405D01*
X130720627Y-89110493D01*
X130900181Y-88581172D01*
X131041219Y-88036012D01*
X131144324Y-87473589D01*
X131173128Y-87259584D01*
X131183050Y-87149575D01*
X131190839Y-87005374D01*
X131196492Y-86835069D01*
X131200008Y-86646746D01*
X131201384Y-86448494D01*
X131200619Y-86248400D01*
X131197711Y-86054551D01*
X131192658Y-85875035D01*
X131185457Y-85717940D01*
X131176108Y-85591352D01*
X131173527Y-85566250D01*
X131086733Y-84952797D01*
X130961427Y-84337080D01*
X130797140Y-83717574D01*
X130593404Y-83092752D01*
X130349750Y-82461087D01*
X130065710Y-81821053D01*
X129952800Y-81586917D01*
X129824211Y-81331597D01*
X129704290Y-81106829D01*
X129587558Y-80903263D01*
X129468535Y-80711552D01*
X129341743Y-80522347D01*
X129265753Y-80414628D01*
X128913354Y-79957593D01*
X128521234Y-79514101D01*
X128089912Y-79084550D01*
X127619905Y-78669337D01*
X127111732Y-78268859D01*
X126565913Y-77883513D01*
X125982966Y-77513696D01*
X125363409Y-77159806D01*
X124707762Y-76822240D01*
X124354167Y-76653952D01*
X123611454Y-76327626D01*
X122831594Y-76019462D01*
X122015799Y-75729715D01*
X121165281Y-75458642D01*
X120281255Y-75206499D01*
X119364931Y-74973543D01*
X118417525Y-74760029D01*
X117440247Y-74566215D01*
X116434311Y-74392357D01*
X115400930Y-74238711D01*
X114341317Y-74105534D01*
X113256685Y-73993082D01*
X112148245Y-73901611D01*
X111017212Y-73831377D01*
X110998000Y-73830379D01*
X110170316Y-73794308D01*
X109311693Y-73769891D01*
X108431889Y-73757110D01*
X107540658Y-73755951D01*
X106647756Y-73766399D01*
X105762939Y-73788438D01*
X104895963Y-73822053D01*
X104521000Y-73840595D01*
X103402139Y-73909336D01*
X102293941Y-73996470D01*
X101197936Y-74101618D01*
X100115657Y-74224402D01*
X99048636Y-74364444D01*
X97998406Y-74521366D01*
X96966498Y-74694789D01*
X95954444Y-74884336D01*
X94963777Y-75089627D01*
X93996029Y-75310286D01*
X93052732Y-75545933D01*
X92135418Y-75796190D01*
X91245619Y-76060679D01*
X90384868Y-76339023D01*
X89554695Y-76630842D01*
X88756634Y-76935759D01*
X87992217Y-77253395D01*
X87262975Y-77583371D01*
X86570442Y-77925311D01*
X85916148Y-78278836D01*
X85460417Y-78545902D01*
X85035838Y-78811720D01*
X84644581Y-79074248D01*
X84278692Y-79339613D01*
X83930220Y-79613939D01*
X83591212Y-79903352D01*
X83253717Y-80213978D01*
X83092548Y-80369834D01*
X82539539Y-80931936D01*
X82022323Y-81497641D01*
X81541459Y-82066041D01*
X81097504Y-82636232D01*
X80691014Y-83207307D01*
X80322547Y-83778361D01*
X79992661Y-84348490D01*
X79701912Y-84916786D01*
X79450858Y-85482345D01*
X79240056Y-86044260D01*
X79070063Y-86601627D01*
X78952667Y-87097418D01*
X78915209Y-87285921D01*
X78885097Y-87451058D01*
X78861559Y-87601285D01*
X78843821Y-87745060D01*
X78831111Y-87890840D01*
X78822657Y-88047083D01*
X78817685Y-88222247D01*
X78815423Y-88424789D01*
X78815041Y-88603667D01*
X78171671Y-88603667D01*
X78171374Y-88565623D01*
X78172702Y-88364563D01*
X78177163Y-88181879D01*
X78184921Y-88026238D01*
X78188171Y-87983017D01*
X78244680Y-87467255D01*
X78327837Y-86968324D01*
X78439753Y-86477540D01*
X78582541Y-85986223D01*
X78758312Y-85485690D01*
X78855602Y-85238167D01*
X79151849Y-84564330D01*
X79488166Y-83903275D01*
X79864076Y-83255613D01*
X80279103Y-82621957D01*
X80732771Y-82002919D01*
X81224603Y-81399112D01*
X81754122Y-80811147D01*
X82320852Y-80239637D01*
X82924317Y-79685194D01*
X83564039Y-79148431D01*
X83645953Y-79083067D01*
X84021143Y-78793197D01*
X84405198Y-78511497D01*
X84792548Y-78241589D01*
X85177622Y-77987098D01*
X85554851Y-77751648D01*
X85918663Y-77538863D01*
X86263489Y-77352366D01*
X86449685Y-77259080D01*
X87441269Y-76798331D01*
X88457451Y-76365983D01*
X89498870Y-75961888D01*
X90566165Y-75585894D01*
X91659972Y-75237851D01*
X92780930Y-74917610D01*
X93929677Y-74625021D01*
X95106851Y-74359933D01*
X96313089Y-74122197D01*
X97549029Y-73911662D01*
X98815310Y-73728178D01*
X100112570Y-73571595D01*
X101441446Y-73441764D01*
X102802576Y-73338534D01*
X103229834Y-73311990D01*
X103601732Y-73290639D01*
X103954407Y-73271681D01*
X104292789Y-73254991D01*
X104621810Y-73240444D01*
X104946399Y-73227913D01*
X105271488Y-73217274D01*
X105602006Y-73208400D01*
X105942885Y-73201167D01*
X106299056Y-73195449D01*
X106675448Y-73191119D01*
X107076993Y-73188054D01*
X107508621Y-73186127D01*
X107975262Y-73185212D01*
X108214584Y-73185096D01*
X108615293Y-73185257D01*
X108978109Y-73185866D01*
X109307467Y-73187018D01*
X109607807Y-73188810D01*
X109883565Y-73191338D01*
X110139180Y-73194698D01*
X110379089Y-73198986D01*
X110607729Y-73204300D01*
X110829538Y-73210734D01*
X111048954Y-73218385D01*
X111270414Y-73227349D01*
X111498357Y-73237723D01*
X111737219Y-73249603D01*
X111991438Y-73263085D01*
X112109250Y-73269546D01*
X113280878Y-73347432D01*
X114418662Y-73449708D01*
X115523481Y-73576548D01*
X116596214Y-73728127D01*
X117637741Y-73904618D01*
X118648940Y-74106195D01*
X119630691Y-74333033D01*
X120583872Y-74585305D01*
X121509363Y-74863186D01*
X122408042Y-75166848D01*
X123200584Y-75464670D01*
X123661916Y-75652743D01*
X124124612Y-75853116D01*
X124584580Y-76063591D01*
X125037725Y-76281966D01*
X125479955Y-76506042D01*
X125907177Y-76733619D01*
X126315297Y-76962497D01*
X126700224Y-77190476D01*
X127057862Y-77415357D01*
X127384120Y-77634938D01*
X127674905Y-77847020D01*
X127768608Y-77919916D01*
X128259713Y-78335966D01*
X128724366Y-78783872D01*
X129161360Y-79261507D01*
X129569488Y-79766744D01*
X129947546Y-80297457D01*
X130294325Y-80851520D01*
X130608619Y-81426807D01*
X130889223Y-82021190D01*
X131134929Y-82632544D01*
X131344532Y-83258741D01*
X131516824Y-83897656D01*
X131650600Y-84547163D01*
X131698532Y-84846584D01*
X131726507Y-85046738D01*
X131748627Y-85226640D01*
X131765504Y-85395740D01*
X131777749Y-85563489D01*
X131785971Y-85739336D01*
X131790782Y-85932733D01*
X131792792Y-86153129D01*
X131792900Y-86307084D01*
X131787705Y-86681462D01*
X131772597Y-87024566D01*
X131746377Y-87346550D01*
X131707847Y-87657564D01*
X131655806Y-87967764D01*
X131589057Y-88287300D01*
X131529820Y-88534412D01*
X131369806Y-89094411D01*
X131176323Y-89631150D01*
X130948004Y-90147210D01*
X130683485Y-90645173D01*
X130381402Y-91127618D01*
X130040390Y-91597127D01*
X129679885Y-92032667D01*
X129217625Y-92532244D01*
X128725361Y-93011973D01*
X128202227Y-93472377D01*
X127647360Y-93913978D01*
X127059893Y-94337298D01*
X126438963Y-94742862D01*
X125783706Y-95131191D01*
X125093255Y-95502809D01*
X124366747Y-95858237D01*
X123603317Y-96198000D01*
X122802100Y-96522619D01*
X121962232Y-96832618D01*
X121450349Y-97008163D01*
X121204790Y-97088592D01*
X120937269Y-97173440D01*
X120651683Y-97261636D01*
X120351932Y-97352109D01*
X120041916Y-97443786D01*
X119725534Y-97535596D01*
X119406685Y-97626467D01*
X119089269Y-97715327D01*
X118777184Y-97801103D01*
X118474331Y-97882725D01*
X118184608Y-97959121D01*
X117911915Y-98029218D01*
X117660152Y-98091944D01*
X117433216Y-98146229D01*
X117235009Y-98190999D01*
X117069429Y-98225183D01*
X116941715Y-98247510D01*
X116861241Y-98261641D01*
X116748692Y-98284301D01*
X116613006Y-98313536D01*
X116463124Y-98347396D01*
X116307986Y-98383928D01*
X116229810Y-98402937D01*
X115960402Y-98467106D01*
X115726039Y-98517767D01*
X115521720Y-98555138D01*
X115342444Y-98579436D01*
X115183210Y-98590881D01*
X115039017Y-98589690D01*
X114904865Y-98576082D01*
X114775751Y-98550275D01*
X114646675Y-98512488D01*
X114546806Y-98476386D01*
X114539080Y-98474659D01*
X114532485Y-98477882D01*
X114526962Y-98489024D01*
X114522448Y-98511058D01*
X114518884Y-98546953D01*
X114516207Y-98599681D01*
X114514357Y-98672213D01*
X114513272Y-98767520D01*
X114512892Y-98888573D01*
X114513156Y-99038342D01*
X114514002Y-99219799D01*
X114515370Y-99435915D01*
X114517198Y-99689661D01*
X114518451Y-99856047D01*
X114521596Y-100207144D01*
X114525607Y-100521011D01*
X114530811Y-100802749D01*
X114537532Y-101057457D01*
X114546096Y-101290236D01*
X114556829Y-101506187D01*
X114570054Y-101710409D01*
X114586099Y-101908002D01*
X114605287Y-102104067D01*
X114627945Y-102303705D01*
X114654397Y-102512014D01*
X114684969Y-102734097D01*
X114715408Y-102944084D01*
X114739654Y-103098670D01*
X114769742Y-103274862D01*
X114804498Y-103466977D01*
X114842748Y-103669334D01*
X114883320Y-103876254D01*
X114925040Y-104082054D01*
X114966734Y-104281054D01*
X115007230Y-104467573D01*
X115045353Y-104635930D01*
X115079930Y-104780444D01*
X115109787Y-104895434D01*
X115133752Y-104975219D01*
X115136670Y-104983535D01*
X115148912Y-104995199D01*
X115179537Y-105002192D01*
X115234669Y-105004843D01*
X115320433Y-105003480D01*
X115427290Y-104999169D01*
X115534328Y-104994281D01*
X115672505Y-104988077D01*
X115830666Y-104981051D01*
X115997655Y-104973698D01*
X116162316Y-104966513D01*
X116205000Y-104964663D01*
X116384157Y-104956451D01*
X116589538Y-104946281D01*
X116805124Y-104934995D01*
X117014897Y-104923434D01*
X117202840Y-104912439D01*
X117221000Y-104911330D01*
X118579175Y-104813487D01*
X119917295Y-104687952D01*
X121234604Y-104534983D01*
X122530348Y-104354836D01*
X123803774Y-104147769D01*
X125054127Y-103914039D01*
X126280652Y-103653904D01*
X127482596Y-103367619D01*
X128659203Y-103055444D01*
X129809720Y-102717635D01*
X130933393Y-102354448D01*
X132029466Y-101966142D01*
X133097186Y-101552973D01*
X134135799Y-101115199D01*
X135144550Y-100653077D01*
X136122685Y-100166865D01*
X137069449Y-99656818D01*
X137984088Y-99123195D01*
X138865848Y-98566253D01*
X139713975Y-97986249D01*
X140527715Y-97383440D01*
X141306312Y-96758083D01*
X141425084Y-96658063D01*
X141721346Y-96401488D01*
X142029651Y-96124318D01*
X142342864Y-95833440D01*
X142653849Y-95535739D01*
X142955472Y-95238101D01*
X143240597Y-94947410D01*
X143502090Y-94670552D01*
X143629961Y-94530334D01*
X144241139Y-93820549D01*
X144813722Y-93093593D01*
X145347629Y-92349643D01*
X145842779Y-91588878D01*
X146299091Y-90811476D01*
X146716483Y-90017615D01*
X147094875Y-89207473D01*
X147434185Y-88381228D01*
X147734332Y-87539060D01*
X147995235Y-86681145D01*
X148216814Y-85807662D01*
X148398986Y-84918790D01*
X148541670Y-84014706D01*
X148588691Y-83640084D01*
X148617592Y-83384696D01*
X148641435Y-83156319D01*
X148660678Y-82946596D01*
X148675783Y-82747173D01*
X148687212Y-82549697D01*
X148695425Y-82345813D01*
X148700883Y-82127166D01*
X148704048Y-81885402D01*
X148705379Y-81612167D01*
X148705490Y-81523417D01*
X148705017Y-81247478D01*
X148702944Y-81006736D01*
X148698816Y-80794068D01*
X148692178Y-80602353D01*
X148682574Y-80424468D01*
X148669550Y-80253292D01*
X148652651Y-80081704D01*
X148631422Y-79902581D01*
X148605408Y-79708803D01*
X148577023Y-79512584D01*
X148454023Y-78820894D01*
X148292257Y-78145230D01*
X148091464Y-77484986D01*
X147851381Y-76839557D01*
X147571748Y-76208337D01*
X147252303Y-75590722D01*
X146892784Y-74986104D01*
X146492930Y-74393881D01*
X146190219Y-73988084D01*
X145884236Y-73610270D01*
X145544575Y-73221381D01*
X145176556Y-72826824D01*
X144785494Y-72432001D01*
X144376708Y-72042319D01*
X143955514Y-71663182D01*
X143626417Y-71382110D01*
X143405187Y-71199378D01*
X143183919Y-71020365D01*
X142960219Y-70843404D01*
X142731699Y-70666828D01*
X142495967Y-70488970D01*
X142250632Y-70308163D01*
X141993304Y-70122740D01*
X141721592Y-69931035D01*
X141433106Y-69731380D01*
X141125454Y-69522108D01*
X140796245Y-69301553D01*
X140443090Y-69068048D01*
X140063597Y-68819925D01*
X139655375Y-68555518D01*
X139216035Y-68273160D01*
X138743184Y-67971184D01*
X138641667Y-67906560D01*
X138230966Y-67644827D01*
X137853692Y-67403445D01*
X137507196Y-67180615D01*
X137188828Y-66974539D01*
X136895939Y-66783417D01*
X136625881Y-66605452D01*
X136376003Y-66438845D01*
X136143656Y-66281796D01*
X135926192Y-66132506D01*
X135720960Y-65989178D01*
X135525313Y-65850012D01*
X135336600Y-65713210D01*
X135152172Y-65576972D01*
X134969380Y-65439500D01*
X134785575Y-65298996D01*
X134672917Y-65211879D01*
X134368845Y-64971783D01*
X134092087Y-64744192D01*
X133833116Y-64520754D01*
X133582405Y-64293119D01*
X133330430Y-64052936D01*
X133168112Y-63892782D01*
X132996013Y-63719485D01*
X132841695Y-63560330D01*
X132700909Y-63410153D01*
X132569409Y-63263791D01*
X132442948Y-63116079D01*
X132317277Y-62961854D01*
X132188150Y-62795953D01*
X132051320Y-62613211D01*
X131902539Y-62408465D01*
X131737559Y-62176552D01*
X131626309Y-62018334D01*
X131478412Y-61806212D01*
X131326477Y-61586075D01*
X131169107Y-61355801D01*
X131004907Y-61113271D01*
X130832479Y-60856366D01*
X130650427Y-60582964D01*
X130457356Y-60290947D01*
X130251868Y-59978194D01*
X130032568Y-59642586D01*
X129798058Y-59282002D01*
X129546943Y-58894323D01*
X129277825Y-58477429D01*
X128989310Y-58029199D01*
X128680000Y-57547515D01*
X128628680Y-57467500D01*
X128265799Y-56903993D01*
X127922052Y-56375213D01*
X127595874Y-55878960D01*
X127285697Y-55413035D01*
X126989957Y-54975239D01*
X126707087Y-54563370D01*
X126435521Y-54175230D01*
X126173693Y-53808619D01*
X125920038Y-53461337D01*
X125672988Y-53131184D01*
X125430978Y-52815960D01*
X125192443Y-52513467D01*
X124955815Y-52221503D01*
X124719529Y-51937869D01*
X124552887Y-51742400D01*
X124041709Y-51167727D01*
X123516269Y-50614569D01*
X122982000Y-50088320D01*
X122444339Y-49594374D01*
X122029480Y-49237805D01*
X121390782Y-48729490D01*
X120729260Y-48250112D01*
X120044113Y-47799372D01*
X119334539Y-47376973D01*
X118599735Y-46982615D01*
X117838900Y-46616002D01*
X117051232Y-46276834D01*
X116235929Y-45964815D01*
X115392189Y-45679646D01*
X114519210Y-45421029D01*
X113616190Y-45188666D01*
X112682327Y-44982259D01*
X111716820Y-44801510D01*
X110718865Y-44646121D01*
X109687662Y-44515794D01*
X109177667Y-44461756D01*
X108399678Y-44391430D01*
X107611526Y-44334008D01*
X106819324Y-44289619D01*
X106029189Y-44258392D01*
X105247237Y-44240459D01*
X104479582Y-44235950D01*
X103732340Y-44244993D01*
X103011627Y-44267721D01*
X102323559Y-44304263D01*
X102192667Y-44313082D01*
X101188143Y-44400281D01*
X100210343Y-44519799D01*
X99258385Y-44671861D01*
X98331386Y-44856694D01*
X97428464Y-45074522D01*
X96548734Y-45325573D01*
X95691315Y-45610071D01*
X94855323Y-45928243D01*
X94039877Y-46280314D01*
X93503750Y-46535690D01*
X92734438Y-46939279D01*
X91975487Y-47383655D01*
X91227408Y-47868431D01*
X90490711Y-48393225D01*
X89765907Y-48957649D01*
X89053505Y-49561321D01*
X88354017Y-50203854D01*
X87667952Y-50884864D01*
X87485193Y-51075167D01*
X87256768Y-51317304D01*
X87033315Y-51558193D01*
X86813056Y-51800030D01*
X86594214Y-52045012D01*
X86375012Y-52295334D01*
X86153673Y-52553193D01*
X85928419Y-52820785D01*
X85697473Y-53100306D01*
X85459058Y-53393953D01*
X85211396Y-53703921D01*
X84952711Y-54032407D01*
X84681224Y-54381607D01*
X84395159Y-54753716D01*
X84092739Y-55150933D01*
X83772186Y-55575451D01*
X83431723Y-56029469D01*
X83069572Y-56515181D01*
X82920282Y-56716084D01*
X82597888Y-57149899D01*
X82298588Y-57551714D01*
X82020625Y-57923797D01*
X81762238Y-58268416D01*
X81521669Y-58587842D01*
X81297158Y-58884341D01*
X81086946Y-59160184D01*
X80889275Y-59417638D01*
X80702385Y-59658972D01*
X80524517Y-59886456D01*
X80353911Y-60102357D01*
X80188809Y-60308945D01*
X80027452Y-60508488D01*
X79868080Y-60703255D01*
X79708934Y-60895515D01*
X79548255Y-61087535D01*
X79384284Y-61281586D01*
X79337811Y-61336278D01*
X78792982Y-61960603D01*
X78229719Y-62574984D01*
X77653712Y-63173700D01*
X77070650Y-63751026D01*
X76486223Y-64301240D01*
X75906120Y-64818619D01*
X75702584Y-64993068D01*
X75367962Y-65273581D01*
X75031195Y-65549355D01*
X74689248Y-65822607D01*
X74339090Y-66095549D01*
X73977689Y-66370397D01*
X73602012Y-66649362D01*
X73209027Y-66934661D01*
X72795703Y-67228507D01*
X72359006Y-67533114D01*
X71895905Y-67850696D01*
X71403368Y-68183468D01*
X70878361Y-68533642D01*
X70616295Y-68707000D01*
X70195379Y-68984842D01*
X69807900Y-69240812D01*
X69451892Y-69476242D01*
X69125386Y-69692467D01*
X68826415Y-69890823D01*
X68553012Y-70072642D01*
X68303210Y-70239259D01*
X68075040Y-70392008D01*
X67866535Y-70532224D01*
X67675728Y-70661241D01*
X67500652Y-70780394D01*
X67339338Y-70891015D01*
X67189819Y-70994440D01*
X67050128Y-71092004D01*
X66918298Y-71185039D01*
X66792360Y-71274881D01*
X66670348Y-71362863D01*
X66550293Y-71450320D01*
X66430229Y-71538587D01*
X66315167Y-71623810D01*
X65856212Y-71971251D01*
X65430477Y-72307335D01*
X65032127Y-72637034D01*
X64655323Y-72965323D01*
X64294231Y-73297174D01*
X63943013Y-73637562D01*
X63890663Y-73689822D01*
X63467764Y-74128286D01*
X63081610Y-74560247D01*
X62728296Y-74991022D01*
X62403916Y-75425928D01*
X62104565Y-75870282D01*
X61826339Y-76329400D01*
X61565333Y-76808600D01*
X61487337Y-76962000D01*
X61228958Y-77514173D01*
X60999661Y-78080807D01*
X60798618Y-78664991D01*
X60625003Y-79269814D01*
X60477988Y-79898366D01*
X60356747Y-80553735D01*
X60260452Y-81239010D01*
X60206749Y-81745667D01*
X60196107Y-81886648D01*
X60186625Y-82063430D01*
X60178378Y-82269496D01*
X60171444Y-82498328D01*
X60165900Y-82743407D01*
X60161824Y-82998216D01*
X60159292Y-83256236D01*
X60158383Y-83510951D01*
X59693124Y-83510951D01*
X59691945Y-83419059D01*
X59692313Y-82918657D01*
X59699785Y-82444955D01*
X59714383Y-82001696D01*
X59736132Y-81592619D01*
X59765054Y-81221466D01*
X59765515Y-81216500D01*
X59845492Y-80512515D01*
X59951588Y-79840565D01*
X60084295Y-79198989D01*
X60244103Y-78586126D01*
X60431505Y-78000316D01*
X60646993Y-77439897D01*
X60891058Y-76903210D01*
X61164192Y-76388593D01*
X61227372Y-76279634D01*
X61320293Y-76126574D01*
X61432907Y-75948722D01*
X61559436Y-75754629D01*
X61694100Y-75552848D01*
X61831120Y-75351929D01*
X61964718Y-75160425D01*
X62089115Y-74986887D01*
X62198530Y-74839867D01*
X62213616Y-74820211D01*
X62624748Y-74310580D01*
X63067992Y-73806465D01*
X63544868Y-73306419D01*
X64056899Y-72808996D01*
X64605605Y-72312750D01*
X65192509Y-71816234D01*
X65819132Y-71318001D01*
X66209779Y-71021388D01*
X66359868Y-70909742D01*
X66507718Y-70800787D01*
X66655950Y-70692716D01*
X66807186Y-70583725D01*
X66964048Y-70472005D01*
X67129155Y-70355753D01*
X67305129Y-70233162D01*
X67494592Y-70102425D01*
X67700165Y-69961738D01*
X67924469Y-69809295D01*
X68170124Y-69643289D01*
X68439753Y-69461914D01*
X68735976Y-69263365D01*
X69061415Y-69045836D01*
X69418690Y-68807521D01*
X69553667Y-68717583D01*
X69934807Y-68463481D01*
X70283365Y-68230610D01*
X70602165Y-68016997D01*
X70894031Y-67820668D01*
X71161787Y-67639649D01*
X71408258Y-67471966D01*
X71636267Y-67315645D01*
X71848639Y-67168713D01*
X72048198Y-67029195D01*
X72237768Y-66895118D01*
X72420173Y-66764507D01*
X72598238Y-66635389D01*
X72774786Y-66505790D01*
X72952641Y-66373736D01*
X73134629Y-66237252D01*
X73323573Y-66094366D01*
X73511834Y-65951088D01*
X73584577Y-65895999D01*
X73683006Y-65822053D01*
X73798738Y-65735515D01*
X73923386Y-65642653D01*
X74048567Y-65549734D01*
X74072750Y-65531827D01*
X74468828Y-65232133D01*
X74853517Y-64927272D01*
X75232492Y-64612291D01*
X75611428Y-64282233D01*
X75996000Y-63932146D01*
X76391883Y-63557075D01*
X76804752Y-63152065D01*
X76847322Y-63109596D01*
X77083680Y-62872308D01*
X77296270Y-62656135D01*
X77492264Y-62453423D01*
X77678834Y-62256515D01*
X77863154Y-62057757D01*
X78052396Y-61849492D01*
X78253732Y-61624067D01*
X78474335Y-61373825D01*
X78484559Y-61362167D01*
X78668297Y-61151620D01*
X78848772Y-60942657D01*
X79027836Y-60732962D01*
X79207340Y-60520222D01*
X79389136Y-60302120D01*
X79575073Y-60076344D01*
X79767005Y-59840578D01*
X79966781Y-59592507D01*
X80176253Y-59329817D01*
X80397272Y-59050194D01*
X80631689Y-58751322D01*
X80881355Y-58430888D01*
X81148122Y-58086576D01*
X81433841Y-57716072D01*
X81740363Y-57317062D01*
X82069538Y-56887230D01*
X82200375Y-56716084D01*
X82570910Y-56231935D01*
X82918182Y-55779831D01*
X83243920Y-55357650D01*
X83549851Y-54963267D01*
X83837703Y-54594558D01*
X84109205Y-54249399D01*
X84366084Y-53925666D01*
X84610069Y-53621235D01*
X84842888Y-53333983D01*
X85066268Y-53061785D01*
X85281938Y-52802517D01*
X85491625Y-52554056D01*
X85697059Y-52314277D01*
X85899966Y-52081058D01*
X86102075Y-51852273D01*
X86305113Y-51625798D01*
X86510810Y-51399511D01*
X86643469Y-51255084D01*
X86757214Y-51133041D01*
X86891395Y-50991305D01*
X87042268Y-50833670D01*
X87206091Y-50663929D01*
X87379121Y-50485875D01*
X87557616Y-50303303D01*
X87737831Y-50120005D01*
X87916026Y-49939774D01*
X88088455Y-49766405D01*
X88251378Y-49603691D01*
X88401050Y-49455426D01*
X88533729Y-49325402D01*
X88645673Y-49217413D01*
X88733138Y-49135253D01*
X88751834Y-49118205D01*
X89426842Y-48536471D01*
X90130258Y-47985568D01*
X90860980Y-47465971D01*
X91617907Y-46978157D01*
X92399939Y-46522601D01*
X93205974Y-46099780D01*
X94034911Y-45710170D01*
X94885650Y-45354247D01*
X95757090Y-45032487D01*
X96648129Y-44745366D01*
X97557667Y-44493361D01*
X98484603Y-44276947D01*
X99427836Y-44096600D01*
X100386264Y-43952797D01*
X100816834Y-43900737D01*
X101080437Y-43872369D01*
X101334737Y-43847591D01*
X101584551Y-43826199D01*
X101834698Y-43807985D01*
X102089997Y-43792744D01*
X102355266Y-43780271D01*
X102635326Y-43770358D01*
X102934993Y-43762801D01*
X103259088Y-43757392D01*
X103612428Y-43753927D01*
X103999833Y-43752199D01*
X104298750Y-43751914D01*
X104853398Y-43753251D01*
D11*
G04 #@! TD*
M02*
