M48
;DRILL file {KiCad 5.0.2-bee76a0~70~ubuntu18.04.1} date Mon 07 Oct 2019 00:18:29 HKT
;FORMAT={-:-/ absolute / inch / decimal}
FMAT,2
INCH,TZ
T1C0.0157
%
G90
G05
T1
X2.75Y-3.3
X3.1Y-2.75
X3.15Y-3.8
X3.65Y-4.65
X3.75Y-2.8
X3.8Y-2.05
X3.8227Y-3.4523
X3.825Y-3.495
X3.825Y-3.545
X3.825Y-3.585
X3.8285Y-3.37
X3.88Y-3.915
X3.915Y-3.75
X3.955Y-3.385
X3.96Y-3.455
X3.96Y-5.28
X3.975Y-4.645
X3.98Y-3.59
X4.06Y-5.07
X4.06Y-3.935
X4.07Y-4.62
X4.085Y-3.675
X4.1Y-4.4
X4.145Y-3.49
X4.145Y-3.68
X4.155Y-4.66
X4.16Y-5.07
X4.19Y-3.52
X4.19Y-3.875
X4.195Y-3.93
X4.195Y-4.5
X4.2015Y-3.99
X4.24Y-3.45
X4.2452Y-3.2352
X4.275Y-3.38
X4.2785Y-3.665
X4.285Y-3.425
X4.285Y-3.23
X4.285Y-3.825
X4.285Y-4.49
X4.3Y-2.3
X4.305Y-4.975
X4.315Y-4.425
X4.32Y-4.735
X4.335Y-3.74
X4.345Y-3.32
X4.345Y-4.21
X4.35Y-3.875
X4.4Y-4.42
X4.41Y-3.645
X4.41Y-3.73
X4.4118Y-3.925
X4.42Y-3.4915
X4.4208Y-3.6071
X4.46Y-4.45
X4.505Y-3.925
X4.95Y-2.55
X5.35Y-2.95
X5.35Y-3.6
T0
M30
