G04 #@! TF.GenerationSoftware,KiCad,Pcbnew,5.0.2-bee76a0~70~ubuntu18.04.1*
G04 #@! TF.CreationDate,2019-10-25T22:44:05+08:00*
G04 #@! TF.ProjectId,TuneShroom,54756e65-5368-4726-9f6f-6d2e6b696361,rev?*
G04 #@! TF.SameCoordinates,Original*
G04 #@! TF.FileFunction,Copper,L1,Top*
G04 #@! TF.FilePolarity,Positive*
%FSLAX46Y46*%
G04 Gerber Fmt 4.6, Leading zero omitted, Abs format (unit mm)*
G04 Created by KiCad (PCBNEW 5.0.2-bee76a0~70~ubuntu18.04.1) date Fri 25 Oct 2019 22:44:05 HKT*
%MOMM*%
%LPD*%
G01*
G04 APERTURE LIST*
G04 #@! TA.AperFunction,EtchedComponent*
%ADD10C,0.010000*%
G04 #@! TD*
G04 #@! TA.AperFunction,BGAPad,CuDef*
%ADD11C,1.524000*%
G04 #@! TD*
G04 #@! TA.AperFunction,ViaPad*
%ADD12C,0.800000*%
G04 #@! TD*
G04 #@! TA.AperFunction,Conductor*
%ADD13C,0.250000*%
G04 #@! TD*
G04 APERTURE END LIST*
D10*
G04 #@! TO.C,*
G36*
X104384953Y-44133699D02*
X104465790Y-44135351D01*
X104511845Y-44138746D01*
X104521000Y-44142033D01*
X104514239Y-44164694D01*
X104495996Y-44218256D01*
X104469333Y-44293865D01*
X104447477Y-44354677D01*
X104297121Y-44715869D01*
X104106207Y-45082368D01*
X103876019Y-45453050D01*
X103607841Y-45826786D01*
X103302957Y-46202452D01*
X102962650Y-46578920D01*
X102588204Y-46955065D01*
X102180903Y-47329760D01*
X101742031Y-47701879D01*
X101272871Y-48070295D01*
X100774708Y-48433882D01*
X100248825Y-48791514D01*
X99696506Y-49142065D01*
X99119034Y-49484408D01*
X98517694Y-49817416D01*
X97893769Y-50139965D01*
X97800584Y-50186253D01*
X97087701Y-50525104D01*
X96368079Y-50840844D01*
X95644385Y-51132807D01*
X94919289Y-51400328D01*
X94195458Y-51642744D01*
X93475561Y-51859389D01*
X92762266Y-52049600D01*
X92058242Y-52212711D01*
X91366158Y-52348058D01*
X90688680Y-52454977D01*
X90028479Y-52532803D01*
X89388222Y-52580872D01*
X88770578Y-52598519D01*
X88178216Y-52585079D01*
X88169750Y-52584648D01*
X88005171Y-52573372D01*
X87814472Y-52555713D01*
X87612006Y-52533348D01*
X87412127Y-52507953D01*
X87229191Y-52481204D01*
X87109351Y-52460822D01*
X86993257Y-52437844D01*
X86865794Y-52410058D01*
X86735040Y-52379505D01*
X86609075Y-52348224D01*
X86495975Y-52318254D01*
X86403819Y-52291635D01*
X86340684Y-52270407D01*
X86321496Y-52261899D01*
X86318353Y-52244149D01*
X86339701Y-52205232D01*
X86387429Y-52142386D01*
X86463427Y-52052849D01*
X86468396Y-52047173D01*
X87117074Y-51328656D01*
X87767494Y-50651357D01*
X88421051Y-50014163D01*
X89079142Y-49415959D01*
X89743159Y-48855633D01*
X90414500Y-48332070D01*
X91094558Y-47844157D01*
X91784728Y-47390781D01*
X92486405Y-46970827D01*
X93200985Y-46583182D01*
X93503750Y-46430498D01*
X94289500Y-46063909D01*
X95094463Y-45730074D01*
X95919792Y-45428708D01*
X96766639Y-45159523D01*
X97636156Y-44922234D01*
X98529496Y-44716554D01*
X99447811Y-44542196D01*
X100392254Y-44398873D01*
X101363976Y-44286300D01*
X102364131Y-44204189D01*
X102489000Y-44196190D01*
X102655012Y-44186600D01*
X102835812Y-44177431D01*
X103026894Y-44168804D01*
X103223753Y-44160838D01*
X103421881Y-44153655D01*
X103616772Y-44147373D01*
X103803920Y-44142114D01*
X103978819Y-44137996D01*
X104136961Y-44135141D01*
X104273842Y-44133669D01*
X104384953Y-44133699D01*
X104384953Y-44133699D01*
G37*
X104384953Y-44133699D02*
X104465790Y-44135351D01*
X104511845Y-44138746D01*
X104521000Y-44142033D01*
X104514239Y-44164694D01*
X104495996Y-44218256D01*
X104469333Y-44293865D01*
X104447477Y-44354677D01*
X104297121Y-44715869D01*
X104106207Y-45082368D01*
X103876019Y-45453050D01*
X103607841Y-45826786D01*
X103302957Y-46202452D01*
X102962650Y-46578920D01*
X102588204Y-46955065D01*
X102180903Y-47329760D01*
X101742031Y-47701879D01*
X101272871Y-48070295D01*
X100774708Y-48433882D01*
X100248825Y-48791514D01*
X99696506Y-49142065D01*
X99119034Y-49484408D01*
X98517694Y-49817416D01*
X97893769Y-50139965D01*
X97800584Y-50186253D01*
X97087701Y-50525104D01*
X96368079Y-50840844D01*
X95644385Y-51132807D01*
X94919289Y-51400328D01*
X94195458Y-51642744D01*
X93475561Y-51859389D01*
X92762266Y-52049600D01*
X92058242Y-52212711D01*
X91366158Y-52348058D01*
X90688680Y-52454977D01*
X90028479Y-52532803D01*
X89388222Y-52580872D01*
X88770578Y-52598519D01*
X88178216Y-52585079D01*
X88169750Y-52584648D01*
X88005171Y-52573372D01*
X87814472Y-52555713D01*
X87612006Y-52533348D01*
X87412127Y-52507953D01*
X87229191Y-52481204D01*
X87109351Y-52460822D01*
X86993257Y-52437844D01*
X86865794Y-52410058D01*
X86735040Y-52379505D01*
X86609075Y-52348224D01*
X86495975Y-52318254D01*
X86403819Y-52291635D01*
X86340684Y-52270407D01*
X86321496Y-52261899D01*
X86318353Y-52244149D01*
X86339701Y-52205232D01*
X86387429Y-52142386D01*
X86463427Y-52052849D01*
X86468396Y-52047173D01*
X87117074Y-51328656D01*
X87767494Y-50651357D01*
X88421051Y-50014163D01*
X89079142Y-49415959D01*
X89743159Y-48855633D01*
X90414500Y-48332070D01*
X91094558Y-47844157D01*
X91784728Y-47390781D01*
X92486405Y-46970827D01*
X93200985Y-46583182D01*
X93503750Y-46430498D01*
X94289500Y-46063909D01*
X95094463Y-45730074D01*
X95919792Y-45428708D01*
X96766639Y-45159523D01*
X97636156Y-44922234D01*
X98529496Y-44716554D01*
X99447811Y-44542196D01*
X100392254Y-44398873D01*
X101363976Y-44286300D01*
X102364131Y-44204189D01*
X102489000Y-44196190D01*
X102655012Y-44186600D01*
X102835812Y-44177431D01*
X103026894Y-44168804D01*
X103223753Y-44160838D01*
X103421881Y-44153655D01*
X103616772Y-44147373D01*
X103803920Y-44142114D01*
X103978819Y-44137996D01*
X104136961Y-44135141D01*
X104273842Y-44133669D01*
X104384953Y-44133699D01*
G36*
X113004606Y-48931867D02*
X113562918Y-48980734D01*
X114122583Y-49069617D01*
X114681410Y-49198417D01*
X115131146Y-49331679D01*
X115631387Y-49513841D01*
X116113532Y-49727392D01*
X116574654Y-49970389D01*
X117011827Y-50240888D01*
X117422125Y-50536944D01*
X117802622Y-50856612D01*
X118150392Y-51197949D01*
X118439028Y-51529581D01*
X118662317Y-51830499D01*
X118865622Y-52150636D01*
X119043650Y-52480470D01*
X119191111Y-52810478D01*
X119269013Y-53023428D01*
X119377905Y-53414765D01*
X119445553Y-53805508D01*
X119472207Y-54193694D01*
X119458116Y-54577361D01*
X119403531Y-54954544D01*
X119308700Y-55323282D01*
X119173873Y-55681611D01*
X118999301Y-56027567D01*
X118858236Y-56254422D01*
X118609713Y-56586350D01*
X118327600Y-56893418D01*
X118013029Y-57174988D01*
X117667128Y-57430422D01*
X117291027Y-57659082D01*
X116885857Y-57860330D01*
X116452746Y-58033528D01*
X115992826Y-58178039D01*
X115507225Y-58293224D01*
X115130260Y-58359470D01*
X115033204Y-58372982D01*
X114936427Y-58383730D01*
X114832984Y-58392078D01*
X114715932Y-58398389D01*
X114578325Y-58403026D01*
X114413219Y-58406353D01*
X114213668Y-58408733D01*
X114183584Y-58409003D01*
X114015526Y-58410153D01*
X113856386Y-58410657D01*
X113712406Y-58410542D01*
X113589829Y-58409833D01*
X113494897Y-58408553D01*
X113433854Y-58406728D01*
X113421584Y-58405960D01*
X113364963Y-58399997D01*
X113276060Y-58389099D01*
X113164471Y-58374510D01*
X113039793Y-58357475D01*
X112951902Y-58345052D01*
X112412805Y-58249397D01*
X111885720Y-58119421D01*
X111373231Y-57956522D01*
X110877916Y-57762096D01*
X110402358Y-57537541D01*
X109949138Y-57284255D01*
X109520836Y-57003633D01*
X109120034Y-56697074D01*
X108749313Y-56365975D01*
X108411253Y-56011731D01*
X108222079Y-55784750D01*
X107960285Y-55424197D01*
X107737139Y-55054999D01*
X107553073Y-54678760D01*
X107408517Y-54297085D01*
X107303903Y-53911576D01*
X107239661Y-53523838D01*
X107216224Y-53135474D01*
X107234022Y-52748090D01*
X107293487Y-52363288D01*
X107297341Y-52345167D01*
X107398222Y-51975831D01*
X107537884Y-51620900D01*
X107714836Y-51281727D01*
X107927586Y-50959667D01*
X108174643Y-50656072D01*
X108454518Y-50372297D01*
X108765719Y-50109697D01*
X109106754Y-49869623D01*
X109476134Y-49653431D01*
X109872367Y-49462474D01*
X110293962Y-49298107D01*
X110739428Y-49161682D01*
X110828667Y-49138521D01*
X111359676Y-49026343D01*
X111900795Y-48954573D01*
X112449835Y-48923114D01*
X113004606Y-48931867D01*
X113004606Y-48931867D01*
G37*
X113004606Y-48931867D02*
X113562918Y-48980734D01*
X114122583Y-49069617D01*
X114681410Y-49198417D01*
X115131146Y-49331679D01*
X115631387Y-49513841D01*
X116113532Y-49727392D01*
X116574654Y-49970389D01*
X117011827Y-50240888D01*
X117422125Y-50536944D01*
X117802622Y-50856612D01*
X118150392Y-51197949D01*
X118439028Y-51529581D01*
X118662317Y-51830499D01*
X118865622Y-52150636D01*
X119043650Y-52480470D01*
X119191111Y-52810478D01*
X119269013Y-53023428D01*
X119377905Y-53414765D01*
X119445553Y-53805508D01*
X119472207Y-54193694D01*
X119458116Y-54577361D01*
X119403531Y-54954544D01*
X119308700Y-55323282D01*
X119173873Y-55681611D01*
X118999301Y-56027567D01*
X118858236Y-56254422D01*
X118609713Y-56586350D01*
X118327600Y-56893418D01*
X118013029Y-57174988D01*
X117667128Y-57430422D01*
X117291027Y-57659082D01*
X116885857Y-57860330D01*
X116452746Y-58033528D01*
X115992826Y-58178039D01*
X115507225Y-58293224D01*
X115130260Y-58359470D01*
X115033204Y-58372982D01*
X114936427Y-58383730D01*
X114832984Y-58392078D01*
X114715932Y-58398389D01*
X114578325Y-58403026D01*
X114413219Y-58406353D01*
X114213668Y-58408733D01*
X114183584Y-58409003D01*
X114015526Y-58410153D01*
X113856386Y-58410657D01*
X113712406Y-58410542D01*
X113589829Y-58409833D01*
X113494897Y-58408553D01*
X113433854Y-58406728D01*
X113421584Y-58405960D01*
X113364963Y-58399997D01*
X113276060Y-58389099D01*
X113164471Y-58374510D01*
X113039793Y-58357475D01*
X112951902Y-58345052D01*
X112412805Y-58249397D01*
X111885720Y-58119421D01*
X111373231Y-57956522D01*
X110877916Y-57762096D01*
X110402358Y-57537541D01*
X109949138Y-57284255D01*
X109520836Y-57003633D01*
X109120034Y-56697074D01*
X108749313Y-56365975D01*
X108411253Y-56011731D01*
X108222079Y-55784750D01*
X107960285Y-55424197D01*
X107737139Y-55054999D01*
X107553073Y-54678760D01*
X107408517Y-54297085D01*
X107303903Y-53911576D01*
X107239661Y-53523838D01*
X107216224Y-53135474D01*
X107234022Y-52748090D01*
X107293487Y-52363288D01*
X107297341Y-52345167D01*
X107398222Y-51975831D01*
X107537884Y-51620900D01*
X107714836Y-51281727D01*
X107927586Y-50959667D01*
X108174643Y-50656072D01*
X108454518Y-50372297D01*
X108765719Y-50109697D01*
X109106754Y-49869623D01*
X109476134Y-49653431D01*
X109872367Y-49462474D01*
X110293962Y-49298107D01*
X110739428Y-49161682D01*
X110828667Y-49138521D01*
X111359676Y-49026343D01*
X111900795Y-48954573D01*
X112449835Y-48923114D01*
X113004606Y-48931867D01*
G36*
X127542063Y-55621910D02*
X127575783Y-55667123D01*
X127621158Y-55733235D01*
X127658494Y-55790303D01*
X127695579Y-55847899D01*
X127752584Y-55936218D01*
X127826407Y-56050462D01*
X127913943Y-56185831D01*
X128012088Y-56337525D01*
X128117737Y-56500744D01*
X128227788Y-56670688D01*
X128284617Y-56758417D01*
X128404204Y-56943222D01*
X128541415Y-57155633D01*
X128691062Y-57387594D01*
X128847955Y-57631051D01*
X129006905Y-57877948D01*
X129162723Y-58120231D01*
X129310220Y-58349846D01*
X129402763Y-58494084D01*
X129704051Y-58962244D01*
X129997517Y-59414869D01*
X130282019Y-59850279D01*
X130556419Y-60266799D01*
X130819577Y-60662752D01*
X131070352Y-61036460D01*
X131307606Y-61386246D01*
X131530199Y-61710433D01*
X131736990Y-62007344D01*
X131926840Y-62275303D01*
X132098609Y-62512631D01*
X132251157Y-62717653D01*
X132383345Y-62888690D01*
X132423675Y-62939084D01*
X132675151Y-63238021D01*
X132945729Y-63536170D01*
X133237199Y-63834997D01*
X133551350Y-64135968D01*
X133889971Y-64440550D01*
X134254850Y-64750208D01*
X134647777Y-65066411D01*
X135070541Y-65390623D01*
X135524929Y-65724311D01*
X136012733Y-66068942D01*
X136535739Y-66425982D01*
X137095738Y-66796897D01*
X137262241Y-66905275D01*
X137361102Y-66969978D01*
X137445658Y-67026445D01*
X137510303Y-67070840D01*
X137549428Y-67099324D01*
X137558574Y-67108089D01*
X137531135Y-67121058D01*
X137470333Y-67143819D01*
X137383363Y-67174033D01*
X137277422Y-67209361D01*
X137159704Y-67247462D01*
X137037403Y-67285997D01*
X136917717Y-67322626D01*
X136807838Y-67355010D01*
X136743898Y-67373000D01*
X136191530Y-67506965D01*
X135639671Y-67604859D01*
X135075084Y-67669176D01*
X134987847Y-67674563D01*
X134869568Y-67679071D01*
X134728339Y-67682648D01*
X134572252Y-67685245D01*
X134409399Y-67686813D01*
X134247872Y-67687301D01*
X134095763Y-67686662D01*
X133961165Y-67684844D01*
X133852169Y-67681799D01*
X133776867Y-67677476D01*
X133773334Y-67677150D01*
X133721510Y-67672218D01*
X133640031Y-67664482D01*
X133541384Y-67655128D01*
X133466417Y-67648025D01*
X132911340Y-67575696D01*
X132359141Y-67464986D01*
X131813146Y-67317518D01*
X131276675Y-67134913D01*
X130753053Y-66918794D01*
X130245602Y-66670781D01*
X129757645Y-66392497D01*
X129292505Y-66085564D01*
X128853506Y-65751602D01*
X128443970Y-65392236D01*
X128073470Y-65015940D01*
X127809569Y-64716382D01*
X127576229Y-64427611D01*
X127366889Y-64140060D01*
X127174991Y-63844165D01*
X126993975Y-63530361D01*
X126817281Y-63189082D01*
X126808831Y-63171917D01*
X126578240Y-62657005D01*
X126389618Y-62136541D01*
X126242964Y-61610531D01*
X126138279Y-61078984D01*
X126075564Y-60541905D01*
X126054821Y-59999301D01*
X126076050Y-59451180D01*
X126139252Y-58897548D01*
X126206745Y-58515250D01*
X126299347Y-58125749D01*
X126421516Y-57722490D01*
X126568888Y-57317028D01*
X126737099Y-56920919D01*
X126921785Y-56545720D01*
X127013324Y-56379385D01*
X127058774Y-56302496D01*
X127116075Y-56209570D01*
X127181268Y-56106593D01*
X127250395Y-55999550D01*
X127319498Y-55894426D01*
X127384619Y-55797207D01*
X127441798Y-55713878D01*
X127487079Y-55650425D01*
X127516502Y-55612833D01*
X127525388Y-55605095D01*
X127542063Y-55621910D01*
X127542063Y-55621910D01*
G37*
X127542063Y-55621910D02*
X127575783Y-55667123D01*
X127621158Y-55733235D01*
X127658494Y-55790303D01*
X127695579Y-55847899D01*
X127752584Y-55936218D01*
X127826407Y-56050462D01*
X127913943Y-56185831D01*
X128012088Y-56337525D01*
X128117737Y-56500744D01*
X128227788Y-56670688D01*
X128284617Y-56758417D01*
X128404204Y-56943222D01*
X128541415Y-57155633D01*
X128691062Y-57387594D01*
X128847955Y-57631051D01*
X129006905Y-57877948D01*
X129162723Y-58120231D01*
X129310220Y-58349846D01*
X129402763Y-58494084D01*
X129704051Y-58962244D01*
X129997517Y-59414869D01*
X130282019Y-59850279D01*
X130556419Y-60266799D01*
X130819577Y-60662752D01*
X131070352Y-61036460D01*
X131307606Y-61386246D01*
X131530199Y-61710433D01*
X131736990Y-62007344D01*
X131926840Y-62275303D01*
X132098609Y-62512631D01*
X132251157Y-62717653D01*
X132383345Y-62888690D01*
X132423675Y-62939084D01*
X132675151Y-63238021D01*
X132945729Y-63536170D01*
X133237199Y-63834997D01*
X133551350Y-64135968D01*
X133889971Y-64440550D01*
X134254850Y-64750208D01*
X134647777Y-65066411D01*
X135070541Y-65390623D01*
X135524929Y-65724311D01*
X136012733Y-66068942D01*
X136535739Y-66425982D01*
X137095738Y-66796897D01*
X137262241Y-66905275D01*
X137361102Y-66969978D01*
X137445658Y-67026445D01*
X137510303Y-67070840D01*
X137549428Y-67099324D01*
X137558574Y-67108089D01*
X137531135Y-67121058D01*
X137470333Y-67143819D01*
X137383363Y-67174033D01*
X137277422Y-67209361D01*
X137159704Y-67247462D01*
X137037403Y-67285997D01*
X136917717Y-67322626D01*
X136807838Y-67355010D01*
X136743898Y-67373000D01*
X136191530Y-67506965D01*
X135639671Y-67604859D01*
X135075084Y-67669176D01*
X134987847Y-67674563D01*
X134869568Y-67679071D01*
X134728339Y-67682648D01*
X134572252Y-67685245D01*
X134409399Y-67686813D01*
X134247872Y-67687301D01*
X134095763Y-67686662D01*
X133961165Y-67684844D01*
X133852169Y-67681799D01*
X133776867Y-67677476D01*
X133773334Y-67677150D01*
X133721510Y-67672218D01*
X133640031Y-67664482D01*
X133541384Y-67655128D01*
X133466417Y-67648025D01*
X132911340Y-67575696D01*
X132359141Y-67464986D01*
X131813146Y-67317518D01*
X131276675Y-67134913D01*
X130753053Y-66918794D01*
X130245602Y-66670781D01*
X129757645Y-66392497D01*
X129292505Y-66085564D01*
X128853506Y-65751602D01*
X128443970Y-65392236D01*
X128073470Y-65015940D01*
X127809569Y-64716382D01*
X127576229Y-64427611D01*
X127366889Y-64140060D01*
X127174991Y-63844165D01*
X126993975Y-63530361D01*
X126817281Y-63189082D01*
X126808831Y-63171917D01*
X126578240Y-62657005D01*
X126389618Y-62136541D01*
X126242964Y-61610531D01*
X126138279Y-61078984D01*
X126075564Y-60541905D01*
X126054821Y-59999301D01*
X126076050Y-59451180D01*
X126139252Y-58897548D01*
X126206745Y-58515250D01*
X126299347Y-58125749D01*
X126421516Y-57722490D01*
X126568888Y-57317028D01*
X126737099Y-56920919D01*
X126921785Y-56545720D01*
X127013324Y-56379385D01*
X127058774Y-56302496D01*
X127116075Y-56209570D01*
X127181268Y-56106593D01*
X127250395Y-55999550D01*
X127319498Y-55894426D01*
X127384619Y-55797207D01*
X127441798Y-55713878D01*
X127487079Y-55650425D01*
X127516502Y-55612833D01*
X127525388Y-55605095D01*
X127542063Y-55621910D01*
G36*
X81422798Y-58614828D02*
X81457496Y-58653241D01*
X81508883Y-58722803D01*
X81573277Y-58817552D01*
X81646994Y-58931529D01*
X81726350Y-59058772D01*
X81807664Y-59193322D01*
X81887252Y-59329218D01*
X81961430Y-59460500D01*
X82026515Y-59581206D01*
X82058149Y-59643022D01*
X82256014Y-60072011D01*
X82417235Y-60495279D01*
X82544656Y-60922362D01*
X82641121Y-61362797D01*
X82709472Y-61826119D01*
X82709670Y-61827834D01*
X82725057Y-62005139D01*
X82734527Y-62211111D01*
X82738267Y-62435498D01*
X82736464Y-62668050D01*
X82729304Y-62898517D01*
X82716974Y-63116647D01*
X82699661Y-63312191D01*
X82679933Y-63460637D01*
X82598564Y-63889829D01*
X82498102Y-64290529D01*
X82375221Y-64673533D01*
X82226597Y-65049635D01*
X82115066Y-65294565D01*
X81870288Y-65758278D01*
X81591305Y-66198253D01*
X81279860Y-66613104D01*
X80937698Y-67001447D01*
X80566564Y-67361896D01*
X80168201Y-67693068D01*
X79744356Y-67993577D01*
X79296771Y-68262038D01*
X78827191Y-68497067D01*
X78337362Y-68697278D01*
X77829026Y-68861287D01*
X77522917Y-68940094D01*
X77314752Y-68983821D01*
X77085606Y-69023446D01*
X76849905Y-69056972D01*
X76622078Y-69082402D01*
X76416550Y-69097739D01*
X76369334Y-69099798D01*
X76254126Y-69104153D01*
X76149229Y-69108500D01*
X76064272Y-69112413D01*
X76008887Y-69115465D01*
X75998917Y-69116196D01*
X75955904Y-69117140D01*
X75879772Y-69116174D01*
X75779677Y-69113514D01*
X75664781Y-69109375D01*
X75607334Y-69106940D01*
X75078035Y-69062291D01*
X74553493Y-68976098D01*
X74036140Y-68849088D01*
X73528404Y-68681986D01*
X73032715Y-68475518D01*
X72551505Y-68230411D01*
X72418925Y-68154505D01*
X72322402Y-68096358D01*
X72220986Y-68032715D01*
X72121060Y-67967886D01*
X72029006Y-67906181D01*
X71951206Y-67851909D01*
X71894044Y-67809382D01*
X71863901Y-67782909D01*
X71860834Y-67777634D01*
X71877379Y-67761193D01*
X71922934Y-67725667D01*
X71991378Y-67675593D01*
X72076591Y-67615505D01*
X72120125Y-67585484D01*
X72682069Y-67194467D01*
X73239088Y-66794769D01*
X73786657Y-66389911D01*
X74320252Y-65983418D01*
X74835348Y-65578811D01*
X75327421Y-65179613D01*
X75791945Y-64789348D01*
X76224397Y-64411537D01*
X76399825Y-64253365D01*
X76840953Y-63843326D01*
X77276589Y-63421527D01*
X77709217Y-62985180D01*
X78141323Y-62531495D01*
X78575391Y-62057685D01*
X79013904Y-61560959D01*
X79459348Y-61038529D01*
X79914207Y-60487606D01*
X80380965Y-59905401D01*
X80862106Y-59289125D01*
X81110020Y-58965801D01*
X81207328Y-58839314D01*
X81282779Y-58744131D01*
X81339156Y-58677129D01*
X81379239Y-58635188D01*
X81405812Y-58615185D01*
X81421656Y-58613999D01*
X81422798Y-58614828D01*
X81422798Y-58614828D01*
G37*
X81422798Y-58614828D02*
X81457496Y-58653241D01*
X81508883Y-58722803D01*
X81573277Y-58817552D01*
X81646994Y-58931529D01*
X81726350Y-59058772D01*
X81807664Y-59193322D01*
X81887252Y-59329218D01*
X81961430Y-59460500D01*
X82026515Y-59581206D01*
X82058149Y-59643022D01*
X82256014Y-60072011D01*
X82417235Y-60495279D01*
X82544656Y-60922362D01*
X82641121Y-61362797D01*
X82709472Y-61826119D01*
X82709670Y-61827834D01*
X82725057Y-62005139D01*
X82734527Y-62211111D01*
X82738267Y-62435498D01*
X82736464Y-62668050D01*
X82729304Y-62898517D01*
X82716974Y-63116647D01*
X82699661Y-63312191D01*
X82679933Y-63460637D01*
X82598564Y-63889829D01*
X82498102Y-64290529D01*
X82375221Y-64673533D01*
X82226597Y-65049635D01*
X82115066Y-65294565D01*
X81870288Y-65758278D01*
X81591305Y-66198253D01*
X81279860Y-66613104D01*
X80937698Y-67001447D01*
X80566564Y-67361896D01*
X80168201Y-67693068D01*
X79744356Y-67993577D01*
X79296771Y-68262038D01*
X78827191Y-68497067D01*
X78337362Y-68697278D01*
X77829026Y-68861287D01*
X77522917Y-68940094D01*
X77314752Y-68983821D01*
X77085606Y-69023446D01*
X76849905Y-69056972D01*
X76622078Y-69082402D01*
X76416550Y-69097739D01*
X76369334Y-69099798D01*
X76254126Y-69104153D01*
X76149229Y-69108500D01*
X76064272Y-69112413D01*
X76008887Y-69115465D01*
X75998917Y-69116196D01*
X75955904Y-69117140D01*
X75879772Y-69116174D01*
X75779677Y-69113514D01*
X75664781Y-69109375D01*
X75607334Y-69106940D01*
X75078035Y-69062291D01*
X74553493Y-68976098D01*
X74036140Y-68849088D01*
X73528404Y-68681986D01*
X73032715Y-68475518D01*
X72551505Y-68230411D01*
X72418925Y-68154505D01*
X72322402Y-68096358D01*
X72220986Y-68032715D01*
X72121060Y-67967886D01*
X72029006Y-67906181D01*
X71951206Y-67851909D01*
X71894044Y-67809382D01*
X71863901Y-67782909D01*
X71860834Y-67777634D01*
X71877379Y-67761193D01*
X71922934Y-67725667D01*
X71991378Y-67675593D01*
X72076591Y-67615505D01*
X72120125Y-67585484D01*
X72682069Y-67194467D01*
X73239088Y-66794769D01*
X73786657Y-66389911D01*
X74320252Y-65983418D01*
X74835348Y-65578811D01*
X75327421Y-65179613D01*
X75791945Y-64789348D01*
X76224397Y-64411537D01*
X76399825Y-64253365D01*
X76840953Y-63843326D01*
X77276589Y-63421527D01*
X77709217Y-62985180D01*
X78141323Y-62531495D01*
X78575391Y-62057685D01*
X79013904Y-61560959D01*
X79459348Y-61038529D01*
X79914207Y-60487606D01*
X80380965Y-59905401D01*
X80862106Y-59289125D01*
X81110020Y-58965801D01*
X81207328Y-58839314D01*
X81282779Y-58744131D01*
X81339156Y-58677129D01*
X81379239Y-58635188D01*
X81405812Y-58615185D01*
X81421656Y-58613999D01*
X81422798Y-58614828D01*
G36*
X98181329Y-59505292D02*
X98362413Y-59509431D01*
X98515576Y-59516247D01*
X98553849Y-59518766D01*
X99126074Y-59576539D01*
X99682996Y-59665869D01*
X100221910Y-59785899D01*
X100740115Y-59935778D01*
X101234909Y-60114650D01*
X101703588Y-60321663D01*
X102143450Y-60555961D01*
X102457250Y-60752046D01*
X102665767Y-60895668D01*
X102847142Y-61030379D01*
X103012544Y-61165280D01*
X103173144Y-61309468D01*
X103335667Y-61467577D01*
X103634347Y-61794768D01*
X103893708Y-62136193D01*
X104113714Y-62490310D01*
X104294329Y-62855573D01*
X104435516Y-63230437D01*
X104537239Y-63613359D01*
X104599461Y-64002794D01*
X104622147Y-64397197D01*
X104605259Y-64795023D01*
X104548762Y-65194729D01*
X104452619Y-65594770D01*
X104316794Y-65993600D01*
X104141250Y-66389677D01*
X103925952Y-66781454D01*
X103670862Y-67167388D01*
X103475832Y-67424226D01*
X103363745Y-67557110D01*
X103227056Y-67707833D01*
X103074254Y-67867831D01*
X102913827Y-68028539D01*
X102754262Y-68181393D01*
X102604049Y-68317829D01*
X102513031Y-68395653D01*
X102065862Y-68739495D01*
X101588303Y-69056458D01*
X101083520Y-69345471D01*
X100554679Y-69605461D01*
X100004947Y-69835359D01*
X99437490Y-70034093D01*
X98855474Y-70200592D01*
X98262065Y-70333784D01*
X97660431Y-70432599D01*
X97053736Y-70495965D01*
X96445147Y-70522812D01*
X96223667Y-70523308D01*
X96094935Y-70521812D01*
X95973938Y-70519812D01*
X95869975Y-70517507D01*
X95792350Y-70515093D01*
X95758000Y-70513401D01*
X95207632Y-70464260D01*
X94689882Y-70394025D01*
X94199990Y-70301476D01*
X93733198Y-70185394D01*
X93284746Y-70044561D01*
X92849874Y-69877757D01*
X92423824Y-69683763D01*
X92324306Y-69634015D01*
X91900881Y-69399052D01*
X91508243Y-69140792D01*
X91147492Y-68860562D01*
X90819728Y-68559691D01*
X90526053Y-68239505D01*
X90267567Y-67901331D01*
X90045370Y-67546497D01*
X89860565Y-67176330D01*
X89714250Y-66792158D01*
X89607528Y-66395307D01*
X89597205Y-66345758D01*
X89571253Y-66181310D01*
X89552332Y-65987049D01*
X89540735Y-65774955D01*
X89536751Y-65557008D01*
X89540671Y-65345188D01*
X89552786Y-65151476D01*
X89565491Y-65038798D01*
X89619879Y-64726387D01*
X89695633Y-64426265D01*
X89796204Y-64127494D01*
X89925042Y-63819136D01*
X90000744Y-63658750D01*
X90229667Y-63237790D01*
X90497237Y-62832812D01*
X90802567Y-62444659D01*
X91144773Y-62074173D01*
X91522967Y-61722196D01*
X91936263Y-61389571D01*
X92383775Y-61077139D01*
X92864617Y-60785743D01*
X93229517Y-60590173D01*
X93797948Y-60324434D01*
X94388480Y-60094409D01*
X95001348Y-59900029D01*
X95636786Y-59741227D01*
X96295028Y-59617935D01*
X96869250Y-59541379D01*
X97000016Y-59530077D01*
X97164301Y-59520628D01*
X97353330Y-59513150D01*
X97558325Y-59507759D01*
X97770508Y-59504574D01*
X97981102Y-59503712D01*
X98181329Y-59505292D01*
X98181329Y-59505292D01*
G37*
X98181329Y-59505292D02*
X98362413Y-59509431D01*
X98515576Y-59516247D01*
X98553849Y-59518766D01*
X99126074Y-59576539D01*
X99682996Y-59665869D01*
X100221910Y-59785899D01*
X100740115Y-59935778D01*
X101234909Y-60114650D01*
X101703588Y-60321663D01*
X102143450Y-60555961D01*
X102457250Y-60752046D01*
X102665767Y-60895668D01*
X102847142Y-61030379D01*
X103012544Y-61165280D01*
X103173144Y-61309468D01*
X103335667Y-61467577D01*
X103634347Y-61794768D01*
X103893708Y-62136193D01*
X104113714Y-62490310D01*
X104294329Y-62855573D01*
X104435516Y-63230437D01*
X104537239Y-63613359D01*
X104599461Y-64002794D01*
X104622147Y-64397197D01*
X104605259Y-64795023D01*
X104548762Y-65194729D01*
X104452619Y-65594770D01*
X104316794Y-65993600D01*
X104141250Y-66389677D01*
X103925952Y-66781454D01*
X103670862Y-67167388D01*
X103475832Y-67424226D01*
X103363745Y-67557110D01*
X103227056Y-67707833D01*
X103074254Y-67867831D01*
X102913827Y-68028539D01*
X102754262Y-68181393D01*
X102604049Y-68317829D01*
X102513031Y-68395653D01*
X102065862Y-68739495D01*
X101588303Y-69056458D01*
X101083520Y-69345471D01*
X100554679Y-69605461D01*
X100004947Y-69835359D01*
X99437490Y-70034093D01*
X98855474Y-70200592D01*
X98262065Y-70333784D01*
X97660431Y-70432599D01*
X97053736Y-70495965D01*
X96445147Y-70522812D01*
X96223667Y-70523308D01*
X96094935Y-70521812D01*
X95973938Y-70519812D01*
X95869975Y-70517507D01*
X95792350Y-70515093D01*
X95758000Y-70513401D01*
X95207632Y-70464260D01*
X94689882Y-70394025D01*
X94199990Y-70301476D01*
X93733198Y-70185394D01*
X93284746Y-70044561D01*
X92849874Y-69877757D01*
X92423824Y-69683763D01*
X92324306Y-69634015D01*
X91900881Y-69399052D01*
X91508243Y-69140792D01*
X91147492Y-68860562D01*
X90819728Y-68559691D01*
X90526053Y-68239505D01*
X90267567Y-67901331D01*
X90045370Y-67546497D01*
X89860565Y-67176330D01*
X89714250Y-66792158D01*
X89607528Y-66395307D01*
X89597205Y-66345758D01*
X89571253Y-66181310D01*
X89552332Y-65987049D01*
X89540735Y-65774955D01*
X89536751Y-65557008D01*
X89540671Y-65345188D01*
X89552786Y-65151476D01*
X89565491Y-65038798D01*
X89619879Y-64726387D01*
X89695633Y-64426265D01*
X89796204Y-64127494D01*
X89925042Y-63819136D01*
X90000744Y-63658750D01*
X90229667Y-63237790D01*
X90497237Y-62832812D01*
X90802567Y-62444659D01*
X91144773Y-62074173D01*
X91522967Y-61722196D01*
X91936263Y-61389571D01*
X92383775Y-61077139D01*
X92864617Y-60785743D01*
X93229517Y-60590173D01*
X93797948Y-60324434D01*
X94388480Y-60094409D01*
X95001348Y-59900029D01*
X95636786Y-59741227D01*
X96295028Y-59617935D01*
X96869250Y-59541379D01*
X97000016Y-59530077D01*
X97164301Y-59520628D01*
X97353330Y-59513150D01*
X97558325Y-59507759D01*
X97770508Y-59504574D01*
X97981102Y-59503712D01*
X98181329Y-59505292D01*
G36*
X106552355Y-73690390D02*
X106553000Y-73701754D01*
X106549307Y-73732716D01*
X106538616Y-73801382D01*
X106521513Y-73904528D01*
X106498582Y-74038932D01*
X106470409Y-74201370D01*
X106437578Y-74388617D01*
X106400674Y-74597450D01*
X106360283Y-74824647D01*
X106316988Y-75066982D01*
X106271375Y-75321232D01*
X106224029Y-75584175D01*
X106175535Y-75852585D01*
X106126477Y-76123240D01*
X106077440Y-76392916D01*
X106029010Y-76658389D01*
X105981771Y-76916435D01*
X105936308Y-77163832D01*
X105893205Y-77397355D01*
X105853049Y-77613781D01*
X105816423Y-77809886D01*
X105783913Y-77982447D01*
X105756104Y-78128239D01*
X105733579Y-78244040D01*
X105716925Y-78326625D01*
X105706727Y-78372772D01*
X105703888Y-78381678D01*
X105677855Y-78385642D01*
X105615256Y-78390154D01*
X105521852Y-78394949D01*
X105403402Y-78399768D01*
X105265667Y-78404347D01*
X105117756Y-78408344D01*
X104673923Y-78423880D01*
X104227970Y-78448732D01*
X103796520Y-78481865D01*
X103534415Y-78507069D01*
X103353187Y-78526358D01*
X103196192Y-78543709D01*
X103067562Y-78558638D01*
X102971425Y-78570660D01*
X102911913Y-78579291D01*
X102900872Y-78581343D01*
X102894011Y-78581696D01*
X102887413Y-78578242D01*
X102880740Y-78568694D01*
X102873653Y-78550763D01*
X102865811Y-78522163D01*
X102856876Y-78480605D01*
X102846509Y-78423801D01*
X102834369Y-78349465D01*
X102820118Y-78255307D01*
X102803416Y-78139040D01*
X102783924Y-77998376D01*
X102761303Y-77831028D01*
X102735213Y-77634708D01*
X102705315Y-77407128D01*
X102671269Y-77146000D01*
X102632737Y-76849037D01*
X102589379Y-76513950D01*
X102556516Y-76259665D01*
X102516671Y-75950421D01*
X102478563Y-75653000D01*
X102442526Y-75370085D01*
X102408892Y-75104359D01*
X102377993Y-74858507D01*
X102350161Y-74635211D01*
X102325730Y-74437155D01*
X102305032Y-74267023D01*
X102288398Y-74127497D01*
X102276162Y-74021262D01*
X102268656Y-73951001D01*
X102266213Y-73919397D01*
X102266412Y-73917866D01*
X102293789Y-73910094D01*
X102359856Y-73900590D01*
X102461019Y-73889579D01*
X102593679Y-73877285D01*
X102754240Y-73863930D01*
X102939105Y-73849739D01*
X103144678Y-73834937D01*
X103367362Y-73819746D01*
X103603560Y-73804390D01*
X103849674Y-73789094D01*
X104102109Y-73774081D01*
X104357268Y-73759575D01*
X104611553Y-73745801D01*
X104861369Y-73732980D01*
X105103118Y-73721339D01*
X105333203Y-73711100D01*
X105548028Y-73702487D01*
X105743996Y-73695725D01*
X105907417Y-73691264D01*
X106056045Y-73687564D01*
X106193276Y-73683577D01*
X106312585Y-73679538D01*
X106407444Y-73675683D01*
X106471325Y-73672245D01*
X106494792Y-73670113D01*
X106537609Y-73669439D01*
X106552355Y-73690390D01*
X106552355Y-73690390D01*
G37*
X106552355Y-73690390D02*
X106553000Y-73701754D01*
X106549307Y-73732716D01*
X106538616Y-73801382D01*
X106521513Y-73904528D01*
X106498582Y-74038932D01*
X106470409Y-74201370D01*
X106437578Y-74388617D01*
X106400674Y-74597450D01*
X106360283Y-74824647D01*
X106316988Y-75066982D01*
X106271375Y-75321232D01*
X106224029Y-75584175D01*
X106175535Y-75852585D01*
X106126477Y-76123240D01*
X106077440Y-76392916D01*
X106029010Y-76658389D01*
X105981771Y-76916435D01*
X105936308Y-77163832D01*
X105893205Y-77397355D01*
X105853049Y-77613781D01*
X105816423Y-77809886D01*
X105783913Y-77982447D01*
X105756104Y-78128239D01*
X105733579Y-78244040D01*
X105716925Y-78326625D01*
X105706727Y-78372772D01*
X105703888Y-78381678D01*
X105677855Y-78385642D01*
X105615256Y-78390154D01*
X105521852Y-78394949D01*
X105403402Y-78399768D01*
X105265667Y-78404347D01*
X105117756Y-78408344D01*
X104673923Y-78423880D01*
X104227970Y-78448732D01*
X103796520Y-78481865D01*
X103534415Y-78507069D01*
X103353187Y-78526358D01*
X103196192Y-78543709D01*
X103067562Y-78558638D01*
X102971425Y-78570660D01*
X102911913Y-78579291D01*
X102900872Y-78581343D01*
X102894011Y-78581696D01*
X102887413Y-78578242D01*
X102880740Y-78568694D01*
X102873653Y-78550763D01*
X102865811Y-78522163D01*
X102856876Y-78480605D01*
X102846509Y-78423801D01*
X102834369Y-78349465D01*
X102820118Y-78255307D01*
X102803416Y-78139040D01*
X102783924Y-77998376D01*
X102761303Y-77831028D01*
X102735213Y-77634708D01*
X102705315Y-77407128D01*
X102671269Y-77146000D01*
X102632737Y-76849037D01*
X102589379Y-76513950D01*
X102556516Y-76259665D01*
X102516671Y-75950421D01*
X102478563Y-75653000D01*
X102442526Y-75370085D01*
X102408892Y-75104359D01*
X102377993Y-74858507D01*
X102350161Y-74635211D01*
X102325730Y-74437155D01*
X102305032Y-74267023D01*
X102288398Y-74127497D01*
X102276162Y-74021262D01*
X102268656Y-73951001D01*
X102266213Y-73919397D01*
X102266412Y-73917866D01*
X102293789Y-73910094D01*
X102359856Y-73900590D01*
X102461019Y-73889579D01*
X102593679Y-73877285D01*
X102754240Y-73863930D01*
X102939105Y-73849739D01*
X103144678Y-73834937D01*
X103367362Y-73819746D01*
X103603560Y-73804390D01*
X103849674Y-73789094D01*
X104102109Y-73774081D01*
X104357268Y-73759575D01*
X104611553Y-73745801D01*
X104861369Y-73732980D01*
X105103118Y-73721339D01*
X105333203Y-73711100D01*
X105548028Y-73702487D01*
X105743996Y-73695725D01*
X105907417Y-73691264D01*
X106056045Y-73687564D01*
X106193276Y-73683577D01*
X106312585Y-73679538D01*
X106407444Y-73675683D01*
X106471325Y-73672245D01*
X106494792Y-73670113D01*
X106537609Y-73669439D01*
X106552355Y-73690390D01*
G36*
X111101654Y-73745351D02*
X111234638Y-73749750D01*
X111396353Y-73757415D01*
X111583450Y-73768100D01*
X111792584Y-73781555D01*
X112020408Y-73797536D01*
X112263573Y-73815793D01*
X112518733Y-73836079D01*
X112782540Y-73858148D01*
X113051649Y-73881753D01*
X113322711Y-73906645D01*
X113592379Y-73932577D01*
X113857307Y-73959302D01*
X114114147Y-73986574D01*
X114236500Y-74000114D01*
X114423171Y-74021592D01*
X114622532Y-74045465D01*
X114830326Y-74071149D01*
X115042299Y-74098058D01*
X115254191Y-74125607D01*
X115461747Y-74153210D01*
X115660710Y-74180283D01*
X115846824Y-74206241D01*
X116015830Y-74230497D01*
X116163474Y-74252468D01*
X116285497Y-74271568D01*
X116377643Y-74287212D01*
X116435656Y-74298814D01*
X116454966Y-74305077D01*
X116441548Y-74320930D01*
X116401274Y-74365916D01*
X116335979Y-74438040D01*
X116247498Y-74535306D01*
X116137664Y-74655719D01*
X116008313Y-74797283D01*
X115861277Y-74958002D01*
X115698392Y-75135881D01*
X115521493Y-75328925D01*
X115332412Y-75535137D01*
X115132985Y-75752523D01*
X114925046Y-75979086D01*
X114710429Y-76212831D01*
X114490969Y-76451762D01*
X114268499Y-76693884D01*
X114044855Y-76937201D01*
X113821870Y-77179718D01*
X113601379Y-77419438D01*
X113385216Y-77654367D01*
X113175215Y-77882509D01*
X112973212Y-78101868D01*
X112781039Y-78310449D01*
X112600531Y-78506255D01*
X112433524Y-78687292D01*
X112281850Y-78851564D01*
X112147345Y-78997075D01*
X112031842Y-79121829D01*
X111937176Y-79223832D01*
X111865181Y-79301086D01*
X111817692Y-79351598D01*
X111796543Y-79373371D01*
X111795602Y-79374105D01*
X111775691Y-79366194D01*
X111727381Y-79346380D01*
X111664750Y-79320454D01*
X111460371Y-79241891D01*
X111220259Y-79160472D01*
X110950776Y-79077808D01*
X110658287Y-78995509D01*
X110349155Y-78915185D01*
X110029743Y-78838449D01*
X109706415Y-78766909D01*
X109385534Y-78702176D01*
X109073464Y-78645862D01*
X108871586Y-78613508D01*
X108764964Y-78596942D01*
X108674332Y-78582029D01*
X108607418Y-78570105D01*
X108571947Y-78562504D01*
X108568386Y-78561108D01*
X108576688Y-78541782D01*
X108602240Y-78487195D01*
X108643696Y-78400114D01*
X108699707Y-78283308D01*
X108768926Y-78139543D01*
X108850006Y-77971589D01*
X108941599Y-77782212D01*
X109042357Y-77574182D01*
X109150934Y-77350264D01*
X109265981Y-77113228D01*
X109386152Y-76865841D01*
X109510098Y-76610872D01*
X109636472Y-76351087D01*
X109763927Y-76089255D01*
X109891115Y-75828143D01*
X110016688Y-75570520D01*
X110139300Y-75319153D01*
X110257603Y-75076810D01*
X110370249Y-74846260D01*
X110475890Y-74630269D01*
X110573180Y-74431605D01*
X110660770Y-74253037D01*
X110737314Y-74097333D01*
X110801464Y-73967260D01*
X110851872Y-73865586D01*
X110887190Y-73795078D01*
X110906072Y-73758506D01*
X110908556Y-73754224D01*
X110935266Y-73747340D01*
X111000748Y-73744465D01*
X111101654Y-73745351D01*
X111101654Y-73745351D01*
G37*
X111101654Y-73745351D02*
X111234638Y-73749750D01*
X111396353Y-73757415D01*
X111583450Y-73768100D01*
X111792584Y-73781555D01*
X112020408Y-73797536D01*
X112263573Y-73815793D01*
X112518733Y-73836079D01*
X112782540Y-73858148D01*
X113051649Y-73881753D01*
X113322711Y-73906645D01*
X113592379Y-73932577D01*
X113857307Y-73959302D01*
X114114147Y-73986574D01*
X114236500Y-74000114D01*
X114423171Y-74021592D01*
X114622532Y-74045465D01*
X114830326Y-74071149D01*
X115042299Y-74098058D01*
X115254191Y-74125607D01*
X115461747Y-74153210D01*
X115660710Y-74180283D01*
X115846824Y-74206241D01*
X116015830Y-74230497D01*
X116163474Y-74252468D01*
X116285497Y-74271568D01*
X116377643Y-74287212D01*
X116435656Y-74298814D01*
X116454966Y-74305077D01*
X116441548Y-74320930D01*
X116401274Y-74365916D01*
X116335979Y-74438040D01*
X116247498Y-74535306D01*
X116137664Y-74655719D01*
X116008313Y-74797283D01*
X115861277Y-74958002D01*
X115698392Y-75135881D01*
X115521493Y-75328925D01*
X115332412Y-75535137D01*
X115132985Y-75752523D01*
X114925046Y-75979086D01*
X114710429Y-76212831D01*
X114490969Y-76451762D01*
X114268499Y-76693884D01*
X114044855Y-76937201D01*
X113821870Y-77179718D01*
X113601379Y-77419438D01*
X113385216Y-77654367D01*
X113175215Y-77882509D01*
X112973212Y-78101868D01*
X112781039Y-78310449D01*
X112600531Y-78506255D01*
X112433524Y-78687292D01*
X112281850Y-78851564D01*
X112147345Y-78997075D01*
X112031842Y-79121829D01*
X111937176Y-79223832D01*
X111865181Y-79301086D01*
X111817692Y-79351598D01*
X111796543Y-79373371D01*
X111795602Y-79374105D01*
X111775691Y-79366194D01*
X111727381Y-79346380D01*
X111664750Y-79320454D01*
X111460371Y-79241891D01*
X111220259Y-79160472D01*
X110950776Y-79077808D01*
X110658287Y-78995509D01*
X110349155Y-78915185D01*
X110029743Y-78838449D01*
X109706415Y-78766909D01*
X109385534Y-78702176D01*
X109073464Y-78645862D01*
X108871586Y-78613508D01*
X108764964Y-78596942D01*
X108674332Y-78582029D01*
X108607418Y-78570105D01*
X108571947Y-78562504D01*
X108568386Y-78561108D01*
X108576688Y-78541782D01*
X108602240Y-78487195D01*
X108643696Y-78400114D01*
X108699707Y-78283308D01*
X108768926Y-78139543D01*
X108850006Y-77971589D01*
X108941599Y-77782212D01*
X109042357Y-77574182D01*
X109150934Y-77350264D01*
X109265981Y-77113228D01*
X109386152Y-76865841D01*
X109510098Y-76610872D01*
X109636472Y-76351087D01*
X109763927Y-76089255D01*
X109891115Y-75828143D01*
X110016688Y-75570520D01*
X110139300Y-75319153D01*
X110257603Y-75076810D01*
X110370249Y-74846260D01*
X110475890Y-74630269D01*
X110573180Y-74431605D01*
X110660770Y-74253037D01*
X110737314Y-74097333D01*
X110801464Y-73967260D01*
X110851872Y-73865586D01*
X110887190Y-73795078D01*
X110906072Y-73758506D01*
X110908556Y-73754224D01*
X110935266Y-73747340D01*
X111000748Y-73744465D01*
X111101654Y-73745351D01*
G36*
X99365217Y-74234703D02*
X99373320Y-74255992D01*
X99394058Y-74314296D01*
X99426386Y-74406569D01*
X99469259Y-74529763D01*
X99521631Y-74680832D01*
X99582457Y-74856729D01*
X99650692Y-75054407D01*
X99725291Y-75270820D01*
X99805209Y-75502920D01*
X99889399Y-75747661D01*
X99976818Y-76001996D01*
X100066420Y-76262879D01*
X100157159Y-76527261D01*
X100247991Y-76792098D01*
X100337869Y-77054341D01*
X100425750Y-77310945D01*
X100510587Y-77558861D01*
X100591336Y-77795044D01*
X100666951Y-78016447D01*
X100736387Y-78220023D01*
X100798599Y-78402725D01*
X100852541Y-78561506D01*
X100897169Y-78693320D01*
X100931437Y-78795119D01*
X100954300Y-78863858D01*
X100964712Y-78896488D01*
X100965254Y-78898750D01*
X100945795Y-78911921D01*
X100893498Y-78930969D01*
X100816955Y-78953070D01*
X100747968Y-78970145D01*
X100437062Y-79046489D01*
X100106305Y-79135590D01*
X99765161Y-79234479D01*
X99423095Y-79340184D01*
X99089570Y-79449734D01*
X98774052Y-79560157D01*
X98486003Y-79668483D01*
X98351289Y-79722555D01*
X98239873Y-79768087D01*
X98142153Y-79807379D01*
X98064794Y-79837803D01*
X98014460Y-79856732D01*
X97998075Y-79861834D01*
X97983694Y-79845321D01*
X97945102Y-79797051D01*
X97883764Y-79718923D01*
X97801143Y-79612838D01*
X97698705Y-79480697D01*
X97577913Y-79324400D01*
X97440232Y-79145847D01*
X97287127Y-78946940D01*
X97120061Y-78729578D01*
X96940499Y-78495661D01*
X96749905Y-78247092D01*
X96549744Y-77985769D01*
X96341481Y-77713593D01*
X96175479Y-77496459D01*
X95962123Y-77217226D01*
X95755967Y-76947311D01*
X95558459Y-76688617D01*
X95371048Y-76443044D01*
X95195184Y-76212496D01*
X95032315Y-75998876D01*
X94883892Y-75804084D01*
X94751362Y-75630024D01*
X94636175Y-75478599D01*
X94539780Y-75351709D01*
X94463627Y-75251258D01*
X94409164Y-75179149D01*
X94377840Y-75137282D01*
X94370403Y-75126846D01*
X94392585Y-75119337D01*
X94451758Y-75104533D01*
X94543387Y-75083383D01*
X94662939Y-75056834D01*
X94805881Y-75025834D01*
X94967680Y-74991330D01*
X95143802Y-74954269D01*
X95329713Y-74915600D01*
X95520881Y-74876270D01*
X95712772Y-74837226D01*
X95900853Y-74799417D01*
X96080590Y-74763789D01*
X96247450Y-74731291D01*
X96396899Y-74702869D01*
X96414167Y-74699644D01*
X96621498Y-74661594D01*
X96842839Y-74622044D01*
X97074529Y-74581571D01*
X97312910Y-74540751D01*
X97554321Y-74500162D01*
X97795103Y-74460378D01*
X98031597Y-74421978D01*
X98260142Y-74385538D01*
X98477081Y-74351633D01*
X98678753Y-74320841D01*
X98861499Y-74293739D01*
X99021658Y-74270902D01*
X99155573Y-74252908D01*
X99259583Y-74240332D01*
X99330028Y-74233752D01*
X99363250Y-74233745D01*
X99365217Y-74234703D01*
X99365217Y-74234703D01*
G37*
X99365217Y-74234703D02*
X99373320Y-74255992D01*
X99394058Y-74314296D01*
X99426386Y-74406569D01*
X99469259Y-74529763D01*
X99521631Y-74680832D01*
X99582457Y-74856729D01*
X99650692Y-75054407D01*
X99725291Y-75270820D01*
X99805209Y-75502920D01*
X99889399Y-75747661D01*
X99976818Y-76001996D01*
X100066420Y-76262879D01*
X100157159Y-76527261D01*
X100247991Y-76792098D01*
X100337869Y-77054341D01*
X100425750Y-77310945D01*
X100510587Y-77558861D01*
X100591336Y-77795044D01*
X100666951Y-78016447D01*
X100736387Y-78220023D01*
X100798599Y-78402725D01*
X100852541Y-78561506D01*
X100897169Y-78693320D01*
X100931437Y-78795119D01*
X100954300Y-78863858D01*
X100964712Y-78896488D01*
X100965254Y-78898750D01*
X100945795Y-78911921D01*
X100893498Y-78930969D01*
X100816955Y-78953070D01*
X100747968Y-78970145D01*
X100437062Y-79046489D01*
X100106305Y-79135590D01*
X99765161Y-79234479D01*
X99423095Y-79340184D01*
X99089570Y-79449734D01*
X98774052Y-79560157D01*
X98486003Y-79668483D01*
X98351289Y-79722555D01*
X98239873Y-79768087D01*
X98142153Y-79807379D01*
X98064794Y-79837803D01*
X98014460Y-79856732D01*
X97998075Y-79861834D01*
X97983694Y-79845321D01*
X97945102Y-79797051D01*
X97883764Y-79718923D01*
X97801143Y-79612838D01*
X97698705Y-79480697D01*
X97577913Y-79324400D01*
X97440232Y-79145847D01*
X97287127Y-78946940D01*
X97120061Y-78729578D01*
X96940499Y-78495661D01*
X96749905Y-78247092D01*
X96549744Y-77985769D01*
X96341481Y-77713593D01*
X96175479Y-77496459D01*
X95962123Y-77217226D01*
X95755967Y-76947311D01*
X95558459Y-76688617D01*
X95371048Y-76443044D01*
X95195184Y-76212496D01*
X95032315Y-75998876D01*
X94883892Y-75804084D01*
X94751362Y-75630024D01*
X94636175Y-75478599D01*
X94539780Y-75351709D01*
X94463627Y-75251258D01*
X94409164Y-75179149D01*
X94377840Y-75137282D01*
X94370403Y-75126846D01*
X94392585Y-75119337D01*
X94451758Y-75104533D01*
X94543387Y-75083383D01*
X94662939Y-75056834D01*
X94805881Y-75025834D01*
X94967680Y-74991330D01*
X95143802Y-74954269D01*
X95329713Y-74915600D01*
X95520881Y-74876270D01*
X95712772Y-74837226D01*
X95900853Y-74799417D01*
X96080590Y-74763789D01*
X96247450Y-74731291D01*
X96396899Y-74702869D01*
X96414167Y-74699644D01*
X96621498Y-74661594D01*
X96842839Y-74622044D01*
X97074529Y-74581571D01*
X97312910Y-74540751D01*
X97554321Y-74500162D01*
X97795103Y-74460378D01*
X98031597Y-74421978D01*
X98260142Y-74385538D01*
X98477081Y-74351633D01*
X98678753Y-74320841D01*
X98861499Y-74293739D01*
X99021658Y-74270902D01*
X99155573Y-74252908D01*
X99259583Y-74240332D01*
X99330028Y-74233752D01*
X99363250Y-74233745D01*
X99365217Y-74234703D01*
G36*
X91191603Y-76007392D02*
X91203739Y-76013943D01*
X91223243Y-76031047D01*
X91272247Y-76075290D01*
X91349094Y-76145154D01*
X91452124Y-76239119D01*
X91579681Y-76355667D01*
X91730107Y-76493279D01*
X91901744Y-76650436D01*
X92092933Y-76825619D01*
X92302018Y-77017309D01*
X92527340Y-77223987D01*
X92767242Y-77444134D01*
X93020066Y-77676231D01*
X93284154Y-77918759D01*
X93557848Y-78170199D01*
X93806162Y-78398399D01*
X96370683Y-80755547D01*
X96207217Y-80873658D01*
X95867360Y-81135228D01*
X95550522Y-81411312D01*
X95262978Y-81696066D01*
X95011005Y-81983645D01*
X94998021Y-81999780D01*
X94930807Y-82081953D01*
X94871633Y-82151029D01*
X94826076Y-82200736D01*
X94799710Y-82224800D01*
X94796937Y-82226049D01*
X94771827Y-82216860D01*
X94717574Y-82188799D01*
X94640846Y-82145577D01*
X94548308Y-82090902D01*
X94488000Y-82054160D01*
X94437587Y-82023373D01*
X94353085Y-81972102D01*
X94236692Y-81901674D01*
X94090606Y-81813410D01*
X93917021Y-81708635D01*
X93718137Y-81588673D01*
X93496148Y-81454848D01*
X93253252Y-81308483D01*
X92991647Y-81150903D01*
X92713528Y-80983432D01*
X92421093Y-80807394D01*
X92116538Y-80624111D01*
X91802060Y-80434909D01*
X91479856Y-80241112D01*
X91334167Y-80153500D01*
X91000981Y-79953147D01*
X90669491Y-79753807D01*
X90342315Y-79557058D01*
X90022073Y-79364474D01*
X89711384Y-79177630D01*
X89412867Y-78998102D01*
X89129141Y-78827465D01*
X88862826Y-78667294D01*
X88616540Y-78519164D01*
X88392903Y-78384651D01*
X88194534Y-78265329D01*
X88024051Y-78162775D01*
X87884075Y-78078563D01*
X87777225Y-78014268D01*
X87759700Y-78003721D01*
X87053316Y-77578579D01*
X87262283Y-77480067D01*
X87672075Y-77292766D01*
X88115411Y-77100972D01*
X88584194Y-76907828D01*
X89070329Y-76716474D01*
X89565721Y-76530054D01*
X90062273Y-76351708D01*
X90551890Y-76184580D01*
X90853127Y-76086467D01*
X90975248Y-76048161D01*
X91063767Y-76022422D01*
X91125074Y-76007929D01*
X91165556Y-76003359D01*
X91191603Y-76007392D01*
X91191603Y-76007392D01*
G37*
X91191603Y-76007392D02*
X91203739Y-76013943D01*
X91223243Y-76031047D01*
X91272247Y-76075290D01*
X91349094Y-76145154D01*
X91452124Y-76239119D01*
X91579681Y-76355667D01*
X91730107Y-76493279D01*
X91901744Y-76650436D01*
X92092933Y-76825619D01*
X92302018Y-77017309D01*
X92527340Y-77223987D01*
X92767242Y-77444134D01*
X93020066Y-77676231D01*
X93284154Y-77918759D01*
X93557848Y-78170199D01*
X93806162Y-78398399D01*
X96370683Y-80755547D01*
X96207217Y-80873658D01*
X95867360Y-81135228D01*
X95550522Y-81411312D01*
X95262978Y-81696066D01*
X95011005Y-81983645D01*
X94998021Y-81999780D01*
X94930807Y-82081953D01*
X94871633Y-82151029D01*
X94826076Y-82200736D01*
X94799710Y-82224800D01*
X94796937Y-82226049D01*
X94771827Y-82216860D01*
X94717574Y-82188799D01*
X94640846Y-82145577D01*
X94548308Y-82090902D01*
X94488000Y-82054160D01*
X94437587Y-82023373D01*
X94353085Y-81972102D01*
X94236692Y-81901674D01*
X94090606Y-81813410D01*
X93917021Y-81708635D01*
X93718137Y-81588673D01*
X93496148Y-81454848D01*
X93253252Y-81308483D01*
X92991647Y-81150903D01*
X92713528Y-80983432D01*
X92421093Y-80807394D01*
X92116538Y-80624111D01*
X91802060Y-80434909D01*
X91479856Y-80241112D01*
X91334167Y-80153500D01*
X91000981Y-79953147D01*
X90669491Y-79753807D01*
X90342315Y-79557058D01*
X90022073Y-79364474D01*
X89711384Y-79177630D01*
X89412867Y-78998102D01*
X89129141Y-78827465D01*
X88862826Y-78667294D01*
X88616540Y-78519164D01*
X88392903Y-78384651D01*
X88194534Y-78265329D01*
X88024051Y-78162775D01*
X87884075Y-78078563D01*
X87777225Y-78014268D01*
X87759700Y-78003721D01*
X87053316Y-77578579D01*
X87262283Y-77480067D01*
X87672075Y-77292766D01*
X88115411Y-77100972D01*
X88584194Y-76907828D01*
X89070329Y-76716474D01*
X89565721Y-76530054D01*
X90062273Y-76351708D01*
X90551890Y-76184580D01*
X90853127Y-76086467D01*
X90975248Y-76048161D01*
X91063767Y-76022422D01*
X91125074Y-76007929D01*
X91165556Y-76003359D01*
X91191603Y-76007392D01*
G36*
X121058786Y-75331823D02*
X121102525Y-75341924D01*
X121165238Y-75359309D01*
X121251170Y-75385077D01*
X121364565Y-75420328D01*
X121509668Y-75466160D01*
X121690723Y-75523674D01*
X121697750Y-75525908D01*
X122348624Y-75743505D01*
X122990611Y-75979223D01*
X123618702Y-76230821D01*
X124227888Y-76496060D01*
X124813159Y-76772699D01*
X125369508Y-77058498D01*
X125891924Y-77351216D01*
X126212193Y-77544923D01*
X126311749Y-77607750D01*
X126397341Y-77663039D01*
X126463077Y-77706881D01*
X126503066Y-77735366D01*
X126512619Y-77744296D01*
X126494182Y-77756638D01*
X126444175Y-77782189D01*
X126369902Y-77817399D01*
X126278669Y-77858713D01*
X126263911Y-77865244D01*
X126208353Y-77889870D01*
X126117310Y-77930366D01*
X125993940Y-77985324D01*
X125841403Y-78053333D01*
X125662858Y-78132982D01*
X125461465Y-78222863D01*
X125240384Y-78321564D01*
X125002773Y-78427676D01*
X124751792Y-78539788D01*
X124490601Y-78656491D01*
X124222359Y-78776375D01*
X124184834Y-78793148D01*
X123880910Y-78929000D01*
X123558555Y-79073091D01*
X123223893Y-79222683D01*
X122883045Y-79375040D01*
X122542135Y-79527425D01*
X122207286Y-79677101D01*
X121884619Y-79821331D01*
X121580259Y-79957378D01*
X121300328Y-80082506D01*
X121050948Y-80193978D01*
X120978084Y-80226547D01*
X120702690Y-80349652D01*
X120397216Y-80486211D01*
X120070223Y-80632398D01*
X119730275Y-80784384D01*
X119385934Y-80938340D01*
X119045763Y-81090438D01*
X118718325Y-81236849D01*
X118412183Y-81373745D01*
X118184084Y-81475749D01*
X117777651Y-81657502D01*
X117408348Y-81822636D01*
X117074666Y-81971828D01*
X116775094Y-82105750D01*
X116508122Y-82225077D01*
X116272241Y-82330483D01*
X116065939Y-82422643D01*
X115887708Y-82502232D01*
X115736036Y-82569922D01*
X115609415Y-82626390D01*
X115506333Y-82672308D01*
X115425281Y-82708353D01*
X115364749Y-82735197D01*
X115323226Y-82753515D01*
X115303444Y-82762154D01*
X115216805Y-82799650D01*
X115167834Y-82627200D01*
X115043355Y-82246601D01*
X114893318Y-81895897D01*
X114714041Y-81568742D01*
X114501841Y-81258788D01*
X114253037Y-80959687D01*
X114116563Y-80815085D01*
X114036633Y-80733068D01*
X113968680Y-80662428D01*
X113917564Y-80608293D01*
X113888146Y-80575790D01*
X113882971Y-80568683D01*
X113900184Y-80555975D01*
X113949922Y-80519365D01*
X114030595Y-80460023D01*
X114140613Y-80379116D01*
X114278390Y-80277811D01*
X114442335Y-80157278D01*
X114630860Y-80018682D01*
X114842376Y-79863193D01*
X115075295Y-79691979D01*
X115328027Y-79506207D01*
X115598984Y-79307045D01*
X115886577Y-79095660D01*
X116189217Y-78873222D01*
X116505316Y-78640898D01*
X116833285Y-78399855D01*
X117171535Y-78151262D01*
X117422084Y-77967127D01*
X117767230Y-77713455D01*
X118103481Y-77466286D01*
X118429232Y-77226801D01*
X118742876Y-76996182D01*
X119042810Y-76775611D01*
X119327427Y-76566269D01*
X119595121Y-76369338D01*
X119844288Y-76185999D01*
X120073321Y-76017434D01*
X120280615Y-75864824D01*
X120464566Y-75729352D01*
X120623566Y-75612198D01*
X120756011Y-75514545D01*
X120860296Y-75437573D01*
X120934814Y-75382464D01*
X120977960Y-75350401D01*
X120988667Y-75342275D01*
X120998960Y-75334233D01*
X121011248Y-75329077D01*
X121029775Y-75327907D01*
X121058786Y-75331823D01*
X121058786Y-75331823D01*
G37*
X121058786Y-75331823D02*
X121102525Y-75341924D01*
X121165238Y-75359309D01*
X121251170Y-75385077D01*
X121364565Y-75420328D01*
X121509668Y-75466160D01*
X121690723Y-75523674D01*
X121697750Y-75525908D01*
X122348624Y-75743505D01*
X122990611Y-75979223D01*
X123618702Y-76230821D01*
X124227888Y-76496060D01*
X124813159Y-76772699D01*
X125369508Y-77058498D01*
X125891924Y-77351216D01*
X126212193Y-77544923D01*
X126311749Y-77607750D01*
X126397341Y-77663039D01*
X126463077Y-77706881D01*
X126503066Y-77735366D01*
X126512619Y-77744296D01*
X126494182Y-77756638D01*
X126444175Y-77782189D01*
X126369902Y-77817399D01*
X126278669Y-77858713D01*
X126263911Y-77865244D01*
X126208353Y-77889870D01*
X126117310Y-77930366D01*
X125993940Y-77985324D01*
X125841403Y-78053333D01*
X125662858Y-78132982D01*
X125461465Y-78222863D01*
X125240384Y-78321564D01*
X125002773Y-78427676D01*
X124751792Y-78539788D01*
X124490601Y-78656491D01*
X124222359Y-78776375D01*
X124184834Y-78793148D01*
X123880910Y-78929000D01*
X123558555Y-79073091D01*
X123223893Y-79222683D01*
X122883045Y-79375040D01*
X122542135Y-79527425D01*
X122207286Y-79677101D01*
X121884619Y-79821331D01*
X121580259Y-79957378D01*
X121300328Y-80082506D01*
X121050948Y-80193978D01*
X120978084Y-80226547D01*
X120702690Y-80349652D01*
X120397216Y-80486211D01*
X120070223Y-80632398D01*
X119730275Y-80784384D01*
X119385934Y-80938340D01*
X119045763Y-81090438D01*
X118718325Y-81236849D01*
X118412183Y-81373745D01*
X118184084Y-81475749D01*
X117777651Y-81657502D01*
X117408348Y-81822636D01*
X117074666Y-81971828D01*
X116775094Y-82105750D01*
X116508122Y-82225077D01*
X116272241Y-82330483D01*
X116065939Y-82422643D01*
X115887708Y-82502232D01*
X115736036Y-82569922D01*
X115609415Y-82626390D01*
X115506333Y-82672308D01*
X115425281Y-82708353D01*
X115364749Y-82735197D01*
X115323226Y-82753515D01*
X115303444Y-82762154D01*
X115216805Y-82799650D01*
X115167834Y-82627200D01*
X115043355Y-82246601D01*
X114893318Y-81895897D01*
X114714041Y-81568742D01*
X114501841Y-81258788D01*
X114253037Y-80959687D01*
X114116563Y-80815085D01*
X114036633Y-80733068D01*
X113968680Y-80662428D01*
X113917564Y-80608293D01*
X113888146Y-80575790D01*
X113882971Y-80568683D01*
X113900184Y-80555975D01*
X113949922Y-80519365D01*
X114030595Y-80460023D01*
X114140613Y-80379116D01*
X114278390Y-80277811D01*
X114442335Y-80157278D01*
X114630860Y-80018682D01*
X114842376Y-79863193D01*
X115075295Y-79691979D01*
X115328027Y-79506207D01*
X115598984Y-79307045D01*
X115886577Y-79095660D01*
X116189217Y-78873222D01*
X116505316Y-78640898D01*
X116833285Y-78399855D01*
X117171535Y-78151262D01*
X117422084Y-77967127D01*
X117767230Y-77713455D01*
X118103481Y-77466286D01*
X118429232Y-77226801D01*
X118742876Y-76996182D01*
X119042810Y-76775611D01*
X119327427Y-76566269D01*
X119595121Y-76369338D01*
X119844288Y-76185999D01*
X120073321Y-76017434D01*
X120280615Y-75864824D01*
X120464566Y-75729352D01*
X120623566Y-75612198D01*
X120756011Y-75514545D01*
X120860296Y-75437573D01*
X120934814Y-75382464D01*
X120977960Y-75350401D01*
X120988667Y-75342275D01*
X120998960Y-75334233D01*
X121011248Y-75329077D01*
X121029775Y-75327907D01*
X121058786Y-75331823D01*
G36*
X140090628Y-74630032D02*
X140407827Y-74665657D01*
X140817266Y-74748477D01*
X141216509Y-74871176D01*
X141603354Y-75032061D01*
X141975597Y-75229438D01*
X142331033Y-75461613D01*
X142667458Y-75726893D01*
X142982669Y-76023585D01*
X143274462Y-76349996D01*
X143540633Y-76704431D01*
X143778979Y-77085197D01*
X143931316Y-77373065D01*
X144124652Y-77805482D01*
X144279059Y-78238048D01*
X144395796Y-78676253D01*
X144476119Y-79125585D01*
X144521286Y-79591532D01*
X144532977Y-79999417D01*
X144529412Y-80267379D01*
X144517787Y-80507090D01*
X144496703Y-80732108D01*
X144464759Y-80955988D01*
X144420557Y-81192285D01*
X144399727Y-81290584D01*
X144281843Y-81744264D01*
X144130654Y-82179728D01*
X143947894Y-82595200D01*
X143735298Y-82988909D01*
X143494603Y-83359082D01*
X143227542Y-83703945D01*
X142935852Y-84021726D01*
X142621266Y-84310651D01*
X142285521Y-84568948D01*
X141930351Y-84794844D01*
X141557492Y-84986565D01*
X141168678Y-85142339D01*
X140765645Y-85260393D01*
X140452947Y-85323461D01*
X140342279Y-85338457D01*
X140208157Y-85351893D01*
X140060504Y-85363250D01*
X139909246Y-85372008D01*
X139764308Y-85377647D01*
X139635614Y-85379647D01*
X139533090Y-85377488D01*
X139488334Y-85373988D01*
X139433978Y-85367655D01*
X139351871Y-85358087D01*
X139256312Y-85346950D01*
X139215350Y-85342175D01*
X138873514Y-85284531D01*
X138521642Y-85191146D01*
X138167880Y-85064510D01*
X137866424Y-84929968D01*
X137483630Y-84719297D01*
X137122407Y-84473420D01*
X136784232Y-84194393D01*
X136470584Y-83884271D01*
X136182940Y-83545109D01*
X135922778Y-83178963D01*
X135691577Y-82787887D01*
X135490814Y-82373937D01*
X135321967Y-81939169D01*
X135186514Y-81485638D01*
X135097263Y-81078917D01*
X135028584Y-80591103D01*
X135000492Y-80099823D01*
X135012492Y-79608503D01*
X135064094Y-79120565D01*
X135154803Y-78639435D01*
X135284128Y-78168536D01*
X135451576Y-77711292D01*
X135640383Y-77302685D01*
X135864174Y-76906847D01*
X136115463Y-76538436D01*
X136392138Y-76198619D01*
X136692088Y-75888563D01*
X137013201Y-75609437D01*
X137353367Y-75362408D01*
X137710473Y-75148644D01*
X138082408Y-74969314D01*
X138467061Y-74825584D01*
X138862321Y-74718623D01*
X139266077Y-74649599D01*
X139676216Y-74619679D01*
X140090628Y-74630032D01*
X140090628Y-74630032D01*
G37*
X140090628Y-74630032D02*
X140407827Y-74665657D01*
X140817266Y-74748477D01*
X141216509Y-74871176D01*
X141603354Y-75032061D01*
X141975597Y-75229438D01*
X142331033Y-75461613D01*
X142667458Y-75726893D01*
X142982669Y-76023585D01*
X143274462Y-76349996D01*
X143540633Y-76704431D01*
X143778979Y-77085197D01*
X143931316Y-77373065D01*
X144124652Y-77805482D01*
X144279059Y-78238048D01*
X144395796Y-78676253D01*
X144476119Y-79125585D01*
X144521286Y-79591532D01*
X144532977Y-79999417D01*
X144529412Y-80267379D01*
X144517787Y-80507090D01*
X144496703Y-80732108D01*
X144464759Y-80955988D01*
X144420557Y-81192285D01*
X144399727Y-81290584D01*
X144281843Y-81744264D01*
X144130654Y-82179728D01*
X143947894Y-82595200D01*
X143735298Y-82988909D01*
X143494603Y-83359082D01*
X143227542Y-83703945D01*
X142935852Y-84021726D01*
X142621266Y-84310651D01*
X142285521Y-84568948D01*
X141930351Y-84794844D01*
X141557492Y-84986565D01*
X141168678Y-85142339D01*
X140765645Y-85260393D01*
X140452947Y-85323461D01*
X140342279Y-85338457D01*
X140208157Y-85351893D01*
X140060504Y-85363250D01*
X139909246Y-85372008D01*
X139764308Y-85377647D01*
X139635614Y-85379647D01*
X139533090Y-85377488D01*
X139488334Y-85373988D01*
X139433978Y-85367655D01*
X139351871Y-85358087D01*
X139256312Y-85346950D01*
X139215350Y-85342175D01*
X138873514Y-85284531D01*
X138521642Y-85191146D01*
X138167880Y-85064510D01*
X137866424Y-84929968D01*
X137483630Y-84719297D01*
X137122407Y-84473420D01*
X136784232Y-84194393D01*
X136470584Y-83884271D01*
X136182940Y-83545109D01*
X135922778Y-83178963D01*
X135691577Y-82787887D01*
X135490814Y-82373937D01*
X135321967Y-81939169D01*
X135186514Y-81485638D01*
X135097263Y-81078917D01*
X135028584Y-80591103D01*
X135000492Y-80099823D01*
X135012492Y-79608503D01*
X135064094Y-79120565D01*
X135154803Y-78639435D01*
X135284128Y-78168536D01*
X135451576Y-77711292D01*
X135640383Y-77302685D01*
X135864174Y-76906847D01*
X136115463Y-76538436D01*
X136392138Y-76198619D01*
X136692088Y-75888563D01*
X137013201Y-75609437D01*
X137353367Y-75362408D01*
X137710473Y-75148644D01*
X138082408Y-74969314D01*
X138467061Y-74825584D01*
X138862321Y-74718623D01*
X139266077Y-74649599D01*
X139676216Y-74619679D01*
X140090628Y-74630032D01*
G36*
X83965672Y-79498973D02*
X84023248Y-79523022D01*
X84115898Y-79561566D01*
X84241595Y-79613767D01*
X84398316Y-79678786D01*
X84584033Y-79755787D01*
X84796723Y-79843932D01*
X85034361Y-79942381D01*
X85294920Y-80050298D01*
X85576377Y-80166844D01*
X85876706Y-80291182D01*
X86193881Y-80422474D01*
X86525878Y-80559881D01*
X86870672Y-80702567D01*
X87226237Y-80849692D01*
X87590548Y-81000420D01*
X87961581Y-81153911D01*
X88337310Y-81309329D01*
X88715709Y-81465836D01*
X89094755Y-81622593D01*
X89472421Y-81778763D01*
X89846682Y-81933507D01*
X90215515Y-82085989D01*
X90576892Y-82235369D01*
X90928790Y-82380810D01*
X91269182Y-82521475D01*
X91596045Y-82656524D01*
X91907353Y-82785121D01*
X92201080Y-82906428D01*
X92475202Y-83019606D01*
X92530084Y-83042261D01*
X92764174Y-83139004D01*
X92986944Y-83231293D01*
X93195285Y-83317826D01*
X93386085Y-83397300D01*
X93556235Y-83468413D01*
X93702626Y-83529864D01*
X93822147Y-83580349D01*
X93911689Y-83618567D01*
X93968142Y-83643215D01*
X93988287Y-83652872D01*
X93988976Y-83678426D01*
X93975876Y-83735399D01*
X93951098Y-83815977D01*
X93922077Y-83898137D01*
X93799084Y-84260196D01*
X93687806Y-84651003D01*
X93591644Y-85057799D01*
X93532516Y-85359932D01*
X93512746Y-85462489D01*
X93493409Y-85547899D01*
X93476437Y-85608601D01*
X93463764Y-85637031D01*
X93461417Y-85638205D01*
X93433218Y-85633176D01*
X93372922Y-85621138D01*
X93289819Y-85603977D01*
X93207417Y-85586609D01*
X93171600Y-85579100D01*
X93110673Y-85566469D01*
X93023976Y-85548580D01*
X92910848Y-85525298D01*
X92770628Y-85496488D01*
X92602656Y-85462015D01*
X92406272Y-85421743D01*
X92180814Y-85375539D01*
X91925623Y-85323265D01*
X91640037Y-85264788D01*
X91323397Y-85199972D01*
X90975041Y-85128682D01*
X90594309Y-85050783D01*
X90180542Y-84966140D01*
X89733077Y-84874617D01*
X89251254Y-84776080D01*
X88734414Y-84670393D01*
X88181895Y-84557422D01*
X87593038Y-84437030D01*
X86967180Y-84309083D01*
X86303663Y-84173446D01*
X85601825Y-84029984D01*
X84861005Y-83878561D01*
X84080544Y-83719043D01*
X83259781Y-83551294D01*
X82592334Y-83414884D01*
X82317297Y-83358611D01*
X82054247Y-83304669D01*
X81806122Y-83253666D01*
X81575861Y-83206213D01*
X81366403Y-83162919D01*
X81180686Y-83124394D01*
X81021649Y-83091248D01*
X80892231Y-83064090D01*
X80795370Y-83043529D01*
X80734005Y-83030176D01*
X80711075Y-83024640D01*
X80711002Y-83024593D01*
X80718501Y-83003963D01*
X80749291Y-82954405D01*
X80800249Y-82880077D01*
X80868251Y-82785132D01*
X80950174Y-82673727D01*
X81042895Y-82550015D01*
X81143291Y-82418153D01*
X81248238Y-82282295D01*
X81354614Y-82146596D01*
X81459294Y-82015213D01*
X81559157Y-81892300D01*
X81591875Y-81852673D01*
X81823267Y-81579753D01*
X82068922Y-81301075D01*
X82323927Y-81021681D01*
X82583372Y-80746613D01*
X82842347Y-80480916D01*
X83095939Y-80229630D01*
X83339239Y-79997800D01*
X83567336Y-79790468D01*
X83765277Y-79620947D01*
X83836051Y-79564143D01*
X83894585Y-79520205D01*
X83933500Y-79494495D01*
X83945193Y-79490256D01*
X83965672Y-79498973D01*
X83965672Y-79498973D01*
G37*
X83965672Y-79498973D02*
X84023248Y-79523022D01*
X84115898Y-79561566D01*
X84241595Y-79613767D01*
X84398316Y-79678786D01*
X84584033Y-79755787D01*
X84796723Y-79843932D01*
X85034361Y-79942381D01*
X85294920Y-80050298D01*
X85576377Y-80166844D01*
X85876706Y-80291182D01*
X86193881Y-80422474D01*
X86525878Y-80559881D01*
X86870672Y-80702567D01*
X87226237Y-80849692D01*
X87590548Y-81000420D01*
X87961581Y-81153911D01*
X88337310Y-81309329D01*
X88715709Y-81465836D01*
X89094755Y-81622593D01*
X89472421Y-81778763D01*
X89846682Y-81933507D01*
X90215515Y-82085989D01*
X90576892Y-82235369D01*
X90928790Y-82380810D01*
X91269182Y-82521475D01*
X91596045Y-82656524D01*
X91907353Y-82785121D01*
X92201080Y-82906428D01*
X92475202Y-83019606D01*
X92530084Y-83042261D01*
X92764174Y-83139004D01*
X92986944Y-83231293D01*
X93195285Y-83317826D01*
X93386085Y-83397300D01*
X93556235Y-83468413D01*
X93702626Y-83529864D01*
X93822147Y-83580349D01*
X93911689Y-83618567D01*
X93968142Y-83643215D01*
X93988287Y-83652872D01*
X93988976Y-83678426D01*
X93975876Y-83735399D01*
X93951098Y-83815977D01*
X93922077Y-83898137D01*
X93799084Y-84260196D01*
X93687806Y-84651003D01*
X93591644Y-85057799D01*
X93532516Y-85359932D01*
X93512746Y-85462489D01*
X93493409Y-85547899D01*
X93476437Y-85608601D01*
X93463764Y-85637031D01*
X93461417Y-85638205D01*
X93433218Y-85633176D01*
X93372922Y-85621138D01*
X93289819Y-85603977D01*
X93207417Y-85586609D01*
X93171600Y-85579100D01*
X93110673Y-85566469D01*
X93023976Y-85548580D01*
X92910848Y-85525298D01*
X92770628Y-85496488D01*
X92602656Y-85462015D01*
X92406272Y-85421743D01*
X92180814Y-85375539D01*
X91925623Y-85323265D01*
X91640037Y-85264788D01*
X91323397Y-85199972D01*
X90975041Y-85128682D01*
X90594309Y-85050783D01*
X90180542Y-84966140D01*
X89733077Y-84874617D01*
X89251254Y-84776080D01*
X88734414Y-84670393D01*
X88181895Y-84557422D01*
X87593038Y-84437030D01*
X86967180Y-84309083D01*
X86303663Y-84173446D01*
X85601825Y-84029984D01*
X84861005Y-83878561D01*
X84080544Y-83719043D01*
X83259781Y-83551294D01*
X82592334Y-83414884D01*
X82317297Y-83358611D01*
X82054247Y-83304669D01*
X81806122Y-83253666D01*
X81575861Y-83206213D01*
X81366403Y-83162919D01*
X81180686Y-83124394D01*
X81021649Y-83091248D01*
X80892231Y-83064090D01*
X80795370Y-83043529D01*
X80734005Y-83030176D01*
X80711075Y-83024640D01*
X80711002Y-83024593D01*
X80718501Y-83003963D01*
X80749291Y-82954405D01*
X80800249Y-82880077D01*
X80868251Y-82785132D01*
X80950174Y-82673727D01*
X81042895Y-82550015D01*
X81143291Y-82418153D01*
X81248238Y-82282295D01*
X81354614Y-82146596D01*
X81459294Y-82015213D01*
X81559157Y-81892300D01*
X81591875Y-81852673D01*
X81823267Y-81579753D01*
X82068922Y-81301075D01*
X82323927Y-81021681D01*
X82583372Y-80746613D01*
X82842347Y-80480916D01*
X83095939Y-80229630D01*
X83339239Y-79997800D01*
X83567336Y-79790468D01*
X83765277Y-79620947D01*
X83836051Y-79564143D01*
X83894585Y-79520205D01*
X83933500Y-79494495D01*
X83945193Y-79490256D01*
X83965672Y-79498973D01*
G36*
X129706756Y-80923238D02*
X129716596Y-80929544D01*
X129720698Y-80934268D01*
X129738891Y-80964354D01*
X129772803Y-81025915D01*
X129819074Y-81112635D01*
X129874343Y-81218200D01*
X129935248Y-81336294D01*
X129949752Y-81364667D01*
X130268699Y-82028902D01*
X130545796Y-82689670D01*
X130780986Y-83346800D01*
X130974211Y-84000120D01*
X131125415Y-84649460D01*
X131202742Y-85079417D01*
X131213884Y-85156334D01*
X131226582Y-85254623D01*
X131240030Y-85366695D01*
X131253422Y-85484960D01*
X131265953Y-85601831D01*
X131276817Y-85709717D01*
X131285208Y-85801029D01*
X131290322Y-85868178D01*
X131291352Y-85903574D01*
X131290592Y-85907064D01*
X131269308Y-85909095D01*
X131209074Y-85913790D01*
X131113174Y-85920915D01*
X130984891Y-85930237D01*
X130827508Y-85941520D01*
X130644309Y-85954531D01*
X130438578Y-85969036D01*
X130213599Y-85984800D01*
X129972654Y-86001589D01*
X129719029Y-86019169D01*
X129709334Y-86019839D01*
X129444442Y-86038154D01*
X129143782Y-86058951D01*
X128813818Y-86081781D01*
X128461015Y-86106198D01*
X128091837Y-86131754D01*
X127712747Y-86158001D01*
X127330209Y-86184493D01*
X126950689Y-86210780D01*
X126580649Y-86236416D01*
X126226554Y-86260953D01*
X126015750Y-86275565D01*
X125379014Y-86319701D01*
X124782495Y-86361049D01*
X124224178Y-86399746D01*
X123702048Y-86435933D01*
X123214088Y-86469748D01*
X122758286Y-86501333D01*
X122332624Y-86530824D01*
X121935089Y-86558364D01*
X121563665Y-86584089D01*
X121216337Y-86608141D01*
X120891090Y-86630659D01*
X120585908Y-86651781D01*
X120298778Y-86671648D01*
X120027683Y-86690398D01*
X119770608Y-86708172D01*
X119525539Y-86725109D01*
X119290461Y-86741347D01*
X119063357Y-86757028D01*
X118842214Y-86772289D01*
X118625015Y-86787271D01*
X118409747Y-86802112D01*
X118194393Y-86816953D01*
X117976940Y-86831933D01*
X117755370Y-86847191D01*
X117623167Y-86856293D01*
X117332644Y-86876330D01*
X117051721Y-86895775D01*
X116783593Y-86914405D01*
X116531455Y-86931993D01*
X116298501Y-86948315D01*
X116087925Y-86963145D01*
X115902921Y-86976259D01*
X115746684Y-86987431D01*
X115622409Y-86996436D01*
X115533289Y-87003050D01*
X115482519Y-87007046D01*
X115476899Y-87007544D01*
X115330881Y-87021095D01*
X115345995Y-86854589D01*
X115382969Y-86407037D01*
X115410185Y-85982153D01*
X115428710Y-85561680D01*
X115435776Y-85317542D01*
X115439579Y-85164816D01*
X115443328Y-85026873D01*
X115446850Y-84909090D01*
X115449974Y-84816845D01*
X115452529Y-84755515D01*
X115454344Y-84730477D01*
X115454505Y-84730167D01*
X115464868Y-84727564D01*
X115495240Y-84719552D01*
X115546753Y-84705826D01*
X115620540Y-84686081D01*
X115717731Y-84660013D01*
X115839460Y-84627316D01*
X115986857Y-84587686D01*
X116161055Y-84540819D01*
X116363185Y-84486408D01*
X116594380Y-84424150D01*
X116855770Y-84353739D01*
X117148489Y-84274871D01*
X117473667Y-84187241D01*
X117832437Y-84090544D01*
X118225931Y-83984476D01*
X118655279Y-83868731D01*
X119121615Y-83743004D01*
X119626070Y-83606992D01*
X120169776Y-83460388D01*
X120417167Y-83393680D01*
X120709087Y-83314970D01*
X120993878Y-83238193D01*
X121268308Y-83164219D01*
X121529148Y-83093920D01*
X121773169Y-83028164D01*
X121997140Y-82967822D01*
X122197833Y-82913764D01*
X122372017Y-82866861D01*
X122516463Y-82827981D01*
X122627941Y-82797996D01*
X122703221Y-82777775D01*
X122724334Y-82772118D01*
X122785146Y-82755808D01*
X122883287Y-82729432D01*
X123015214Y-82693943D01*
X123177381Y-82650298D01*
X123366245Y-82599450D01*
X123578261Y-82542353D01*
X123809886Y-82479963D01*
X124057574Y-82413233D01*
X124317781Y-82343118D01*
X124586964Y-82270573D01*
X124766917Y-82222068D01*
X125043495Y-82147518D01*
X125315900Y-82074099D01*
X125580299Y-82002844D01*
X125832860Y-81934786D01*
X126069751Y-81870956D01*
X126287138Y-81812387D01*
X126481190Y-81760113D01*
X126648073Y-81715165D01*
X126783956Y-81678576D01*
X126885005Y-81651379D01*
X126925917Y-81640376D01*
X127018970Y-81615348D01*
X127147619Y-81580726D01*
X127306584Y-81537932D01*
X127490586Y-81488388D01*
X127694346Y-81433516D01*
X127912584Y-81374736D01*
X128140021Y-81313472D01*
X128371377Y-81251144D01*
X128499203Y-81216703D01*
X128750126Y-81149157D01*
X128963352Y-81091974D01*
X129142035Y-81044423D01*
X129289333Y-81005776D01*
X129408402Y-80975303D01*
X129502399Y-80952273D01*
X129574478Y-80935957D01*
X129627798Y-80925626D01*
X129665513Y-80920548D01*
X129690780Y-80919996D01*
X129706756Y-80923238D01*
X129706756Y-80923238D01*
G37*
X129706756Y-80923238D02*
X129716596Y-80929544D01*
X129720698Y-80934268D01*
X129738891Y-80964354D01*
X129772803Y-81025915D01*
X129819074Y-81112635D01*
X129874343Y-81218200D01*
X129935248Y-81336294D01*
X129949752Y-81364667D01*
X130268699Y-82028902D01*
X130545796Y-82689670D01*
X130780986Y-83346800D01*
X130974211Y-84000120D01*
X131125415Y-84649460D01*
X131202742Y-85079417D01*
X131213884Y-85156334D01*
X131226582Y-85254623D01*
X131240030Y-85366695D01*
X131253422Y-85484960D01*
X131265953Y-85601831D01*
X131276817Y-85709717D01*
X131285208Y-85801029D01*
X131290322Y-85868178D01*
X131291352Y-85903574D01*
X131290592Y-85907064D01*
X131269308Y-85909095D01*
X131209074Y-85913790D01*
X131113174Y-85920915D01*
X130984891Y-85930237D01*
X130827508Y-85941520D01*
X130644309Y-85954531D01*
X130438578Y-85969036D01*
X130213599Y-85984800D01*
X129972654Y-86001589D01*
X129719029Y-86019169D01*
X129709334Y-86019839D01*
X129444442Y-86038154D01*
X129143782Y-86058951D01*
X128813818Y-86081781D01*
X128461015Y-86106198D01*
X128091837Y-86131754D01*
X127712747Y-86158001D01*
X127330209Y-86184493D01*
X126950689Y-86210780D01*
X126580649Y-86236416D01*
X126226554Y-86260953D01*
X126015750Y-86275565D01*
X125379014Y-86319701D01*
X124782495Y-86361049D01*
X124224178Y-86399746D01*
X123702048Y-86435933D01*
X123214088Y-86469748D01*
X122758286Y-86501333D01*
X122332624Y-86530824D01*
X121935089Y-86558364D01*
X121563665Y-86584089D01*
X121216337Y-86608141D01*
X120891090Y-86630659D01*
X120585908Y-86651781D01*
X120298778Y-86671648D01*
X120027683Y-86690398D01*
X119770608Y-86708172D01*
X119525539Y-86725109D01*
X119290461Y-86741347D01*
X119063357Y-86757028D01*
X118842214Y-86772289D01*
X118625015Y-86787271D01*
X118409747Y-86802112D01*
X118194393Y-86816953D01*
X117976940Y-86831933D01*
X117755370Y-86847191D01*
X117623167Y-86856293D01*
X117332644Y-86876330D01*
X117051721Y-86895775D01*
X116783593Y-86914405D01*
X116531455Y-86931993D01*
X116298501Y-86948315D01*
X116087925Y-86963145D01*
X115902921Y-86976259D01*
X115746684Y-86987431D01*
X115622409Y-86996436D01*
X115533289Y-87003050D01*
X115482519Y-87007046D01*
X115476899Y-87007544D01*
X115330881Y-87021095D01*
X115345995Y-86854589D01*
X115382969Y-86407037D01*
X115410185Y-85982153D01*
X115428710Y-85561680D01*
X115435776Y-85317542D01*
X115439579Y-85164816D01*
X115443328Y-85026873D01*
X115446850Y-84909090D01*
X115449974Y-84816845D01*
X115452529Y-84755515D01*
X115454344Y-84730477D01*
X115454505Y-84730167D01*
X115464868Y-84727564D01*
X115495240Y-84719552D01*
X115546753Y-84705826D01*
X115620540Y-84686081D01*
X115717731Y-84660013D01*
X115839460Y-84627316D01*
X115986857Y-84587686D01*
X116161055Y-84540819D01*
X116363185Y-84486408D01*
X116594380Y-84424150D01*
X116855770Y-84353739D01*
X117148489Y-84274871D01*
X117473667Y-84187241D01*
X117832437Y-84090544D01*
X118225931Y-83984476D01*
X118655279Y-83868731D01*
X119121615Y-83743004D01*
X119626070Y-83606992D01*
X120169776Y-83460388D01*
X120417167Y-83393680D01*
X120709087Y-83314970D01*
X120993878Y-83238193D01*
X121268308Y-83164219D01*
X121529148Y-83093920D01*
X121773169Y-83028164D01*
X121997140Y-82967822D01*
X122197833Y-82913764D01*
X122372017Y-82866861D01*
X122516463Y-82827981D01*
X122627941Y-82797996D01*
X122703221Y-82777775D01*
X122724334Y-82772118D01*
X122785146Y-82755808D01*
X122883287Y-82729432D01*
X123015214Y-82693943D01*
X123177381Y-82650298D01*
X123366245Y-82599450D01*
X123578261Y-82542353D01*
X123809886Y-82479963D01*
X124057574Y-82413233D01*
X124317781Y-82343118D01*
X124586964Y-82270573D01*
X124766917Y-82222068D01*
X125043495Y-82147518D01*
X125315900Y-82074099D01*
X125580299Y-82002844D01*
X125832860Y-81934786D01*
X126069751Y-81870956D01*
X126287138Y-81812387D01*
X126481190Y-81760113D01*
X126648073Y-81715165D01*
X126783956Y-81678576D01*
X126885005Y-81651379D01*
X126925917Y-81640376D01*
X127018970Y-81615348D01*
X127147619Y-81580726D01*
X127306584Y-81537932D01*
X127490586Y-81488388D01*
X127694346Y-81433516D01*
X127912584Y-81374736D01*
X128140021Y-81313472D01*
X128371377Y-81251144D01*
X128499203Y-81216703D01*
X128750126Y-81149157D01*
X128963352Y-81091974D01*
X129142035Y-81044423D01*
X129289333Y-81005776D01*
X129408402Y-80975303D01*
X129502399Y-80952273D01*
X129574478Y-80935957D01*
X129627798Y-80925626D01*
X129665513Y-80920548D01*
X129690780Y-80919996D01*
X129706756Y-80923238D01*
G36*
X62846609Y-74869445D02*
X63262434Y-74945482D01*
X63671597Y-75062151D01*
X64072502Y-75218054D01*
X64463554Y-75411796D01*
X64843157Y-75641980D01*
X65209715Y-75907207D01*
X65561633Y-76206082D01*
X65897315Y-76537208D01*
X66215166Y-76899187D01*
X66513590Y-77290622D01*
X66790991Y-77710118D01*
X67045775Y-78156275D01*
X67276345Y-78627699D01*
X67360906Y-78821770D01*
X67578377Y-79391852D01*
X67759362Y-79980873D01*
X67903441Y-80585607D01*
X68010194Y-81202828D01*
X68079203Y-81829311D01*
X68110048Y-82461830D01*
X68102309Y-83097160D01*
X68055568Y-83732075D01*
X68028987Y-83960909D01*
X67939397Y-84531584D01*
X67818792Y-85087303D01*
X67668320Y-85626229D01*
X67489130Y-86146524D01*
X67282369Y-86646351D01*
X67049185Y-87123875D01*
X66790726Y-87577257D01*
X66508141Y-88004660D01*
X66202577Y-88404248D01*
X65875182Y-88774184D01*
X65527105Y-89112630D01*
X65159493Y-89417750D01*
X64773494Y-89687707D01*
X64370257Y-89920663D01*
X64274088Y-89969362D01*
X63870799Y-90146247D01*
X63457365Y-90284828D01*
X63037402Y-90384372D01*
X62614532Y-90444146D01*
X62192371Y-90463417D01*
X61891334Y-90451836D01*
X61764106Y-90439567D01*
X61629148Y-90421770D01*
X61493427Y-90399887D01*
X61363909Y-90375358D01*
X61247562Y-90349624D01*
X61151353Y-90324125D01*
X61082248Y-90300302D01*
X61047214Y-90279595D01*
X61045355Y-90276897D01*
X61031858Y-90241187D01*
X61009767Y-90170705D01*
X60980798Y-90071739D01*
X60946670Y-89950577D01*
X60909100Y-89813505D01*
X60869805Y-89666811D01*
X60830504Y-89516781D01*
X60792913Y-89369702D01*
X60758749Y-89231863D01*
X60750165Y-89196334D01*
X60603347Y-88538047D01*
X60471970Y-87853455D01*
X60356894Y-87150319D01*
X60258982Y-86436399D01*
X60179098Y-85719454D01*
X60118103Y-85007246D01*
X60076861Y-84307534D01*
X60056232Y-83628079D01*
X60057081Y-82976642D01*
X60057347Y-82962750D01*
X60076173Y-82372462D01*
X60109464Y-81815322D01*
X60158072Y-81284394D01*
X60222848Y-80772742D01*
X60304647Y-80273428D01*
X60404319Y-79779516D01*
X60497008Y-79385584D01*
X60688468Y-78699080D01*
X60914387Y-78036443D01*
X61175703Y-77395685D01*
X61473352Y-76774819D01*
X61808275Y-76171856D01*
X62181407Y-75584807D01*
X62505329Y-75128951D01*
X62711802Y-74851652D01*
X62846609Y-74869445D01*
X62846609Y-74869445D01*
G37*
X62846609Y-74869445D02*
X63262434Y-74945482D01*
X63671597Y-75062151D01*
X64072502Y-75218054D01*
X64463554Y-75411796D01*
X64843157Y-75641980D01*
X65209715Y-75907207D01*
X65561633Y-76206082D01*
X65897315Y-76537208D01*
X66215166Y-76899187D01*
X66513590Y-77290622D01*
X66790991Y-77710118D01*
X67045775Y-78156275D01*
X67276345Y-78627699D01*
X67360906Y-78821770D01*
X67578377Y-79391852D01*
X67759362Y-79980873D01*
X67903441Y-80585607D01*
X68010194Y-81202828D01*
X68079203Y-81829311D01*
X68110048Y-82461830D01*
X68102309Y-83097160D01*
X68055568Y-83732075D01*
X68028987Y-83960909D01*
X67939397Y-84531584D01*
X67818792Y-85087303D01*
X67668320Y-85626229D01*
X67489130Y-86146524D01*
X67282369Y-86646351D01*
X67049185Y-87123875D01*
X66790726Y-87577257D01*
X66508141Y-88004660D01*
X66202577Y-88404248D01*
X65875182Y-88774184D01*
X65527105Y-89112630D01*
X65159493Y-89417750D01*
X64773494Y-89687707D01*
X64370257Y-89920663D01*
X64274088Y-89969362D01*
X63870799Y-90146247D01*
X63457365Y-90284828D01*
X63037402Y-90384372D01*
X62614532Y-90444146D01*
X62192371Y-90463417D01*
X61891334Y-90451836D01*
X61764106Y-90439567D01*
X61629148Y-90421770D01*
X61493427Y-90399887D01*
X61363909Y-90375358D01*
X61247562Y-90349624D01*
X61151353Y-90324125D01*
X61082248Y-90300302D01*
X61047214Y-90279595D01*
X61045355Y-90276897D01*
X61031858Y-90241187D01*
X61009767Y-90170705D01*
X60980798Y-90071739D01*
X60946670Y-89950577D01*
X60909100Y-89813505D01*
X60869805Y-89666811D01*
X60830504Y-89516781D01*
X60792913Y-89369702D01*
X60758749Y-89231863D01*
X60750165Y-89196334D01*
X60603347Y-88538047D01*
X60471970Y-87853455D01*
X60356894Y-87150319D01*
X60258982Y-86436399D01*
X60179098Y-85719454D01*
X60118103Y-85007246D01*
X60076861Y-84307534D01*
X60056232Y-83628079D01*
X60057081Y-82976642D01*
X60057347Y-82962750D01*
X60076173Y-82372462D01*
X60109464Y-81815322D01*
X60158072Y-81284394D01*
X60222848Y-80772742D01*
X60304647Y-80273428D01*
X60404319Y-79779516D01*
X60497008Y-79385584D01*
X60688468Y-78699080D01*
X60914387Y-78036443D01*
X61175703Y-77395685D01*
X61473352Y-76774819D01*
X61808275Y-76171856D01*
X62181407Y-75584807D01*
X62505329Y-75128951D01*
X62711802Y-74851652D01*
X62846609Y-74869445D01*
G36*
X79288146Y-86008040D02*
X79319994Y-86010544D01*
X79392460Y-86015976D01*
X79503938Y-86024218D01*
X79652821Y-86035154D01*
X79837506Y-86048668D01*
X80056384Y-86064643D01*
X80307850Y-86082962D01*
X80590299Y-86103509D01*
X80902125Y-86126168D01*
X81241721Y-86150822D01*
X81607481Y-86177354D01*
X81997801Y-86205648D01*
X82411073Y-86235588D01*
X82845692Y-86267057D01*
X83300052Y-86299939D01*
X83772547Y-86334117D01*
X84261571Y-86369474D01*
X84765519Y-86405894D01*
X85282784Y-86443261D01*
X85811760Y-86481458D01*
X86328250Y-86518738D01*
X86866057Y-86557566D01*
X87393269Y-86595664D01*
X87908302Y-86632915D01*
X88409574Y-86669203D01*
X88895503Y-86704414D01*
X89364505Y-86738432D01*
X89814998Y-86771142D01*
X90245399Y-86802427D01*
X90654126Y-86832173D01*
X91039596Y-86860263D01*
X91400226Y-86886583D01*
X91734434Y-86911017D01*
X92040637Y-86933449D01*
X92317252Y-86953764D01*
X92562697Y-86971846D01*
X92775389Y-86987580D01*
X92953744Y-87000850D01*
X93096182Y-87011542D01*
X93201118Y-87019538D01*
X93266971Y-87024724D01*
X93292084Y-87026973D01*
X93355584Y-87037240D01*
X93355584Y-87603495D01*
X93356308Y-87783175D01*
X93358338Y-87975283D01*
X93361459Y-88167690D01*
X93365458Y-88348268D01*
X93370119Y-88504886D01*
X93372706Y-88572200D01*
X93389829Y-88974650D01*
X91510039Y-89182403D01*
X91173514Y-89219596D01*
X90806062Y-89260209D01*
X90416030Y-89303319D01*
X90011766Y-89348003D01*
X89601620Y-89393338D01*
X89193938Y-89438402D01*
X88797069Y-89482271D01*
X88419361Y-89524024D01*
X88069162Y-89562736D01*
X87831084Y-89589056D01*
X87598887Y-89614716D01*
X87328624Y-89644566D01*
X87024308Y-89678163D01*
X86689952Y-89715066D01*
X86329569Y-89754831D01*
X85947172Y-89797015D01*
X85546773Y-89841177D01*
X85132387Y-89886873D01*
X84708026Y-89933662D01*
X84277703Y-89981100D01*
X83845431Y-90028744D01*
X83415224Y-90076153D01*
X82991093Y-90122884D01*
X82577052Y-90168494D01*
X82571167Y-90169142D01*
X82191973Y-90210914D01*
X81823705Y-90251492D01*
X81468608Y-90290628D01*
X81128928Y-90328074D01*
X80806910Y-90363583D01*
X80504800Y-90396906D01*
X80224843Y-90427797D01*
X79969285Y-90456006D01*
X79740371Y-90481287D01*
X79540346Y-90503391D01*
X79371456Y-90522070D01*
X79235946Y-90537077D01*
X79136062Y-90548164D01*
X79074050Y-90555082D01*
X79052627Y-90557521D01*
X79017796Y-90558043D01*
X78995464Y-90542347D01*
X78977226Y-90500926D01*
X78964047Y-90457315D01*
X78837391Y-89939153D01*
X78752401Y-89413670D01*
X78709074Y-88881020D01*
X78707406Y-88341355D01*
X78747396Y-87794827D01*
X78829040Y-87241590D01*
X78952335Y-86681797D01*
X79040454Y-86362526D01*
X79072118Y-86255429D01*
X79100142Y-86160489D01*
X79121994Y-86086291D01*
X79135143Y-86041420D01*
X79137065Y-86034779D01*
X79147704Y-86013903D01*
X79170932Y-86003782D01*
X79216790Y-86002639D01*
X79288146Y-86008040D01*
X79288146Y-86008040D01*
G37*
X79288146Y-86008040D02*
X79319994Y-86010544D01*
X79392460Y-86015976D01*
X79503938Y-86024218D01*
X79652821Y-86035154D01*
X79837506Y-86048668D01*
X80056384Y-86064643D01*
X80307850Y-86082962D01*
X80590299Y-86103509D01*
X80902125Y-86126168D01*
X81241721Y-86150822D01*
X81607481Y-86177354D01*
X81997801Y-86205648D01*
X82411073Y-86235588D01*
X82845692Y-86267057D01*
X83300052Y-86299939D01*
X83772547Y-86334117D01*
X84261571Y-86369474D01*
X84765519Y-86405894D01*
X85282784Y-86443261D01*
X85811760Y-86481458D01*
X86328250Y-86518738D01*
X86866057Y-86557566D01*
X87393269Y-86595664D01*
X87908302Y-86632915D01*
X88409574Y-86669203D01*
X88895503Y-86704414D01*
X89364505Y-86738432D01*
X89814998Y-86771142D01*
X90245399Y-86802427D01*
X90654126Y-86832173D01*
X91039596Y-86860263D01*
X91400226Y-86886583D01*
X91734434Y-86911017D01*
X92040637Y-86933449D01*
X92317252Y-86953764D01*
X92562697Y-86971846D01*
X92775389Y-86987580D01*
X92953744Y-87000850D01*
X93096182Y-87011542D01*
X93201118Y-87019538D01*
X93266971Y-87024724D01*
X93292084Y-87026973D01*
X93355584Y-87037240D01*
X93355584Y-87603495D01*
X93356308Y-87783175D01*
X93358338Y-87975283D01*
X93361459Y-88167690D01*
X93365458Y-88348268D01*
X93370119Y-88504886D01*
X93372706Y-88572200D01*
X93389829Y-88974650D01*
X91510039Y-89182403D01*
X91173514Y-89219596D01*
X90806062Y-89260209D01*
X90416030Y-89303319D01*
X90011766Y-89348003D01*
X89601620Y-89393338D01*
X89193938Y-89438402D01*
X88797069Y-89482271D01*
X88419361Y-89524024D01*
X88069162Y-89562736D01*
X87831084Y-89589056D01*
X87598887Y-89614716D01*
X87328624Y-89644566D01*
X87024308Y-89678163D01*
X86689952Y-89715066D01*
X86329569Y-89754831D01*
X85947172Y-89797015D01*
X85546773Y-89841177D01*
X85132387Y-89886873D01*
X84708026Y-89933662D01*
X84277703Y-89981100D01*
X83845431Y-90028744D01*
X83415224Y-90076153D01*
X82991093Y-90122884D01*
X82577052Y-90168494D01*
X82571167Y-90169142D01*
X82191973Y-90210914D01*
X81823705Y-90251492D01*
X81468608Y-90290628D01*
X81128928Y-90328074D01*
X80806910Y-90363583D01*
X80504800Y-90396906D01*
X80224843Y-90427797D01*
X79969285Y-90456006D01*
X79740371Y-90481287D01*
X79540346Y-90503391D01*
X79371456Y-90522070D01*
X79235946Y-90537077D01*
X79136062Y-90548164D01*
X79074050Y-90555082D01*
X79052627Y-90557521D01*
X79017796Y-90558043D01*
X78995464Y-90542347D01*
X78977226Y-90500926D01*
X78964047Y-90457315D01*
X78837391Y-89939153D01*
X78752401Y-89413670D01*
X78709074Y-88881020D01*
X78707406Y-88341355D01*
X78747396Y-87794827D01*
X78829040Y-87241590D01*
X78952335Y-86681797D01*
X79040454Y-86362526D01*
X79072118Y-86255429D01*
X79100142Y-86160489D01*
X79121994Y-86086291D01*
X79135143Y-86041420D01*
X79137065Y-86034779D01*
X79147704Y-86013903D01*
X79170932Y-86003782D01*
X79216790Y-86002639D01*
X79288146Y-86008040D01*
G36*
X115256432Y-88414347D02*
X115324723Y-88417633D01*
X115429138Y-88422906D01*
X115566605Y-88430004D01*
X115734051Y-88438766D01*
X115928403Y-88449028D01*
X116146589Y-88460628D01*
X116385535Y-88473405D01*
X116642169Y-88487195D01*
X116913418Y-88501837D01*
X117196209Y-88517168D01*
X117221000Y-88518515D01*
X117560181Y-88536941D01*
X117928329Y-88556929D01*
X118317461Y-88578045D01*
X118719593Y-88599857D01*
X119126742Y-88621931D01*
X119530924Y-88643835D01*
X119924157Y-88665136D01*
X120298456Y-88685402D01*
X120645839Y-88704199D01*
X120935750Y-88719876D01*
X121304391Y-88739809D01*
X121689581Y-88760651D01*
X122086646Y-88782149D01*
X122490911Y-88804049D01*
X122897701Y-88826097D01*
X123302341Y-88848040D01*
X123700156Y-88869623D01*
X124086471Y-88890594D01*
X124456612Y-88910698D01*
X124805903Y-88929682D01*
X125129670Y-88947292D01*
X125423237Y-88963275D01*
X125681931Y-88977377D01*
X125814667Y-88984622D01*
X126088532Y-88999558D01*
X126377658Y-89015286D01*
X126678501Y-89031617D01*
X126987521Y-89048360D01*
X127301176Y-89065324D01*
X127615923Y-89082320D01*
X127928222Y-89099157D01*
X128234530Y-89115645D01*
X128531305Y-89131593D01*
X128815006Y-89146811D01*
X129082091Y-89161110D01*
X129329018Y-89174298D01*
X129552245Y-89186185D01*
X129748231Y-89196582D01*
X129913434Y-89205297D01*
X130044311Y-89212141D01*
X130137322Y-89216923D01*
X130153834Y-89217754D01*
X130291315Y-89224957D01*
X130419937Y-89232313D01*
X130531629Y-89239312D01*
X130618323Y-89245446D01*
X130671949Y-89250204D01*
X130676432Y-89250741D01*
X130765115Y-89262045D01*
X130693734Y-89428815D01*
X130455673Y-89932654D01*
X130176979Y-90426634D01*
X129857529Y-90910914D01*
X129497201Y-91385650D01*
X129095876Y-91851000D01*
X128653430Y-92307122D01*
X128169743Y-92754173D01*
X128045982Y-92861440D01*
X127921006Y-92966802D01*
X127795006Y-93070064D01*
X127672616Y-93167703D01*
X127558470Y-93256196D01*
X127457202Y-93332019D01*
X127373445Y-93391648D01*
X127311834Y-93431561D01*
X127277004Y-93448233D01*
X127273893Y-93448490D01*
X127248341Y-93443135D01*
X127185367Y-93428525D01*
X127088651Y-93405549D01*
X126961869Y-93375097D01*
X126808700Y-93338058D01*
X126632823Y-93295322D01*
X126437916Y-93247778D01*
X126227658Y-93196315D01*
X126015750Y-93144289D01*
X125747707Y-93078448D01*
X125454281Y-93006487D01*
X125144925Y-92930720D01*
X124829096Y-92853456D01*
X124516247Y-92777008D01*
X124215834Y-92703687D01*
X123937311Y-92635806D01*
X123690134Y-92575675D01*
X123682862Y-92573909D01*
X123459844Y-92519717D01*
X123203221Y-92457348D01*
X122920520Y-92388630D01*
X122619269Y-92315393D01*
X122306995Y-92239469D01*
X121991226Y-92162687D01*
X121679489Y-92086877D01*
X121379313Y-92013870D01*
X121111112Y-91948631D01*
X120860963Y-91887781D01*
X120616697Y-91828366D01*
X120382409Y-91771382D01*
X120162191Y-91717825D01*
X119960135Y-91668689D01*
X119780334Y-91624970D01*
X119626880Y-91587663D01*
X119503868Y-91557763D01*
X119415388Y-91536266D01*
X119380000Y-91527674D01*
X119322926Y-91513813D01*
X119228387Y-91490839D01*
X119100054Y-91459645D01*
X118941598Y-91421123D01*
X118756688Y-91376165D01*
X118548993Y-91325664D01*
X118322185Y-91270513D01*
X118079933Y-91211605D01*
X117825907Y-91149831D01*
X117563778Y-91086084D01*
X117297214Y-91021257D01*
X117029887Y-90956242D01*
X116765465Y-90891932D01*
X116507620Y-90829219D01*
X116260021Y-90768997D01*
X116026339Y-90712156D01*
X115810242Y-90659590D01*
X115615402Y-90612192D01*
X115445488Y-90570854D01*
X115304170Y-90536468D01*
X115257792Y-90525181D01*
X115106048Y-90486739D01*
X114995339Y-90455225D01*
X114924972Y-90430416D01*
X114894256Y-90412091D01*
X114892667Y-90408009D01*
X114895553Y-90381622D01*
X114903802Y-90317806D01*
X114916799Y-90221040D01*
X114933928Y-90095806D01*
X114954575Y-89946584D01*
X114978125Y-89777853D01*
X115003962Y-89594093D01*
X115019187Y-89486391D01*
X115046526Y-89293295D01*
X115072418Y-89110303D01*
X115096172Y-88942308D01*
X115117096Y-88794204D01*
X115134499Y-88670885D01*
X115147690Y-88577244D01*
X115155977Y-88518174D01*
X115158067Y-88503125D01*
X115168879Y-88446286D01*
X115186338Y-88420189D01*
X115219329Y-88413301D01*
X115227339Y-88413211D01*
X115256432Y-88414347D01*
X115256432Y-88414347D01*
G37*
X115256432Y-88414347D02*
X115324723Y-88417633D01*
X115429138Y-88422906D01*
X115566605Y-88430004D01*
X115734051Y-88438766D01*
X115928403Y-88449028D01*
X116146589Y-88460628D01*
X116385535Y-88473405D01*
X116642169Y-88487195D01*
X116913418Y-88501837D01*
X117196209Y-88517168D01*
X117221000Y-88518515D01*
X117560181Y-88536941D01*
X117928329Y-88556929D01*
X118317461Y-88578045D01*
X118719593Y-88599857D01*
X119126742Y-88621931D01*
X119530924Y-88643835D01*
X119924157Y-88665136D01*
X120298456Y-88685402D01*
X120645839Y-88704199D01*
X120935750Y-88719876D01*
X121304391Y-88739809D01*
X121689581Y-88760651D01*
X122086646Y-88782149D01*
X122490911Y-88804049D01*
X122897701Y-88826097D01*
X123302341Y-88848040D01*
X123700156Y-88869623D01*
X124086471Y-88890594D01*
X124456612Y-88910698D01*
X124805903Y-88929682D01*
X125129670Y-88947292D01*
X125423237Y-88963275D01*
X125681931Y-88977377D01*
X125814667Y-88984622D01*
X126088532Y-88999558D01*
X126377658Y-89015286D01*
X126678501Y-89031617D01*
X126987521Y-89048360D01*
X127301176Y-89065324D01*
X127615923Y-89082320D01*
X127928222Y-89099157D01*
X128234530Y-89115645D01*
X128531305Y-89131593D01*
X128815006Y-89146811D01*
X129082091Y-89161110D01*
X129329018Y-89174298D01*
X129552245Y-89186185D01*
X129748231Y-89196582D01*
X129913434Y-89205297D01*
X130044311Y-89212141D01*
X130137322Y-89216923D01*
X130153834Y-89217754D01*
X130291315Y-89224957D01*
X130419937Y-89232313D01*
X130531629Y-89239312D01*
X130618323Y-89245446D01*
X130671949Y-89250204D01*
X130676432Y-89250741D01*
X130765115Y-89262045D01*
X130693734Y-89428815D01*
X130455673Y-89932654D01*
X130176979Y-90426634D01*
X129857529Y-90910914D01*
X129497201Y-91385650D01*
X129095876Y-91851000D01*
X128653430Y-92307122D01*
X128169743Y-92754173D01*
X128045982Y-92861440D01*
X127921006Y-92966802D01*
X127795006Y-93070064D01*
X127672616Y-93167703D01*
X127558470Y-93256196D01*
X127457202Y-93332019D01*
X127373445Y-93391648D01*
X127311834Y-93431561D01*
X127277004Y-93448233D01*
X127273893Y-93448490D01*
X127248341Y-93443135D01*
X127185367Y-93428525D01*
X127088651Y-93405549D01*
X126961869Y-93375097D01*
X126808700Y-93338058D01*
X126632823Y-93295322D01*
X126437916Y-93247778D01*
X126227658Y-93196315D01*
X126015750Y-93144289D01*
X125747707Y-93078448D01*
X125454281Y-93006487D01*
X125144925Y-92930720D01*
X124829096Y-92853456D01*
X124516247Y-92777008D01*
X124215834Y-92703687D01*
X123937311Y-92635806D01*
X123690134Y-92575675D01*
X123682862Y-92573909D01*
X123459844Y-92519717D01*
X123203221Y-92457348D01*
X122920520Y-92388630D01*
X122619269Y-92315393D01*
X122306995Y-92239469D01*
X121991226Y-92162687D01*
X121679489Y-92086877D01*
X121379313Y-92013870D01*
X121111112Y-91948631D01*
X120860963Y-91887781D01*
X120616697Y-91828366D01*
X120382409Y-91771382D01*
X120162191Y-91717825D01*
X119960135Y-91668689D01*
X119780334Y-91624970D01*
X119626880Y-91587663D01*
X119503868Y-91557763D01*
X119415388Y-91536266D01*
X119380000Y-91527674D01*
X119322926Y-91513813D01*
X119228387Y-91490839D01*
X119100054Y-91459645D01*
X118941598Y-91421123D01*
X118756688Y-91376165D01*
X118548993Y-91325664D01*
X118322185Y-91270513D01*
X118079933Y-91211605D01*
X117825907Y-91149831D01*
X117563778Y-91086084D01*
X117297214Y-91021257D01*
X117029887Y-90956242D01*
X116765465Y-90891932D01*
X116507620Y-90829219D01*
X116260021Y-90768997D01*
X116026339Y-90712156D01*
X115810242Y-90659590D01*
X115615402Y-90612192D01*
X115445488Y-90570854D01*
X115304170Y-90536468D01*
X115257792Y-90525181D01*
X115106048Y-90486739D01*
X114995339Y-90455225D01*
X114924972Y-90430416D01*
X114894256Y-90412091D01*
X114892667Y-90408009D01*
X114895553Y-90381622D01*
X114903802Y-90317806D01*
X114916799Y-90221040D01*
X114933928Y-90095806D01*
X114954575Y-89946584D01*
X114978125Y-89777853D01*
X115003962Y-89594093D01*
X115019187Y-89486391D01*
X115046526Y-89293295D01*
X115072418Y-89110303D01*
X115096172Y-88942308D01*
X115117096Y-88794204D01*
X115134499Y-88670885D01*
X115147690Y-88577244D01*
X115155977Y-88518174D01*
X115158067Y-88503125D01*
X115168879Y-88446286D01*
X115186338Y-88420189D01*
X115219329Y-88413301D01*
X115227339Y-88413211D01*
X115256432Y-88414347D01*
G36*
X93510303Y-90239883D02*
X93518917Y-90296730D01*
X93531254Y-90382696D01*
X93546393Y-90491360D01*
X93563416Y-90616297D01*
X93566024Y-90635667D01*
X93588535Y-90799567D01*
X93615165Y-90987898D01*
X93643412Y-91183280D01*
X93670772Y-91368331D01*
X93687316Y-91477598D01*
X93706716Y-91606964D01*
X93723047Y-91721354D01*
X93735476Y-91814461D01*
X93743170Y-91879977D01*
X93745296Y-91911595D01*
X93744847Y-91913476D01*
X93725039Y-91921601D01*
X93667975Y-91944622D01*
X93575708Y-91981719D01*
X93450290Y-92032070D01*
X93293772Y-92094855D01*
X93108207Y-92169253D01*
X92895646Y-92254441D01*
X92658141Y-92349600D01*
X92397744Y-92453909D01*
X92116508Y-92566545D01*
X91816484Y-92686688D01*
X91499724Y-92813517D01*
X91168280Y-92946211D01*
X90824205Y-93083948D01*
X90469549Y-93225909D01*
X90106365Y-93371270D01*
X89736704Y-93519213D01*
X89362620Y-93668914D01*
X88986163Y-93819554D01*
X88609386Y-93970311D01*
X88234341Y-94120365D01*
X87863079Y-94268893D01*
X87497652Y-94415075D01*
X87140113Y-94558090D01*
X86792514Y-94697117D01*
X86456905Y-94831335D01*
X86135340Y-94959922D01*
X85829871Y-95082058D01*
X85542548Y-95196921D01*
X85275424Y-95303691D01*
X85030552Y-95401546D01*
X84809982Y-95489665D01*
X84615767Y-95567227D01*
X84449960Y-95633411D01*
X84314610Y-95687396D01*
X84211772Y-95728361D01*
X84143497Y-95755485D01*
X84136510Y-95758251D01*
X84040270Y-95796325D01*
X83797843Y-95668404D01*
X83207349Y-95340540D01*
X82651603Y-94998625D01*
X82131875Y-94643581D01*
X81649431Y-94276330D01*
X81205539Y-93897794D01*
X80801467Y-93508894D01*
X80736750Y-93441737D01*
X80493648Y-93186608D01*
X80564032Y-93171573D01*
X80590069Y-93165704D01*
X80655786Y-93150760D01*
X80759597Y-93127104D01*
X80899913Y-93095098D01*
X81075148Y-93055105D01*
X81283715Y-93007488D01*
X81524025Y-92952609D01*
X81794492Y-92890832D01*
X82093528Y-92822518D01*
X82419546Y-92748031D01*
X82770959Y-92667733D01*
X83146179Y-92581987D01*
X83543618Y-92491156D01*
X83961691Y-92395602D01*
X84398809Y-92295688D01*
X84853384Y-92191777D01*
X85323831Y-92084231D01*
X85808560Y-91973414D01*
X86305986Y-91859687D01*
X86814520Y-91743413D01*
X87068275Y-91685391D01*
X87580892Y-91568195D01*
X88082798Y-91453480D01*
X88572429Y-91341603D01*
X89048217Y-91232922D01*
X89508598Y-91127792D01*
X89952005Y-91026571D01*
X90376873Y-90929616D01*
X90781637Y-90837282D01*
X91164730Y-90749927D01*
X91524587Y-90667908D01*
X91859642Y-90591581D01*
X92168329Y-90521303D01*
X92449083Y-90457431D01*
X92700337Y-90400321D01*
X92920527Y-90350330D01*
X93108087Y-90307815D01*
X93261450Y-90273133D01*
X93379051Y-90246640D01*
X93459324Y-90228693D01*
X93500704Y-90219648D01*
X93506330Y-90218580D01*
X93510303Y-90239883D01*
X93510303Y-90239883D01*
G37*
X93510303Y-90239883D02*
X93518917Y-90296730D01*
X93531254Y-90382696D01*
X93546393Y-90491360D01*
X93563416Y-90616297D01*
X93566024Y-90635667D01*
X93588535Y-90799567D01*
X93615165Y-90987898D01*
X93643412Y-91183280D01*
X93670772Y-91368331D01*
X93687316Y-91477598D01*
X93706716Y-91606964D01*
X93723047Y-91721354D01*
X93735476Y-91814461D01*
X93743170Y-91879977D01*
X93745296Y-91911595D01*
X93744847Y-91913476D01*
X93725039Y-91921601D01*
X93667975Y-91944622D01*
X93575708Y-91981719D01*
X93450290Y-92032070D01*
X93293772Y-92094855D01*
X93108207Y-92169253D01*
X92895646Y-92254441D01*
X92658141Y-92349600D01*
X92397744Y-92453909D01*
X92116508Y-92566545D01*
X91816484Y-92686688D01*
X91499724Y-92813517D01*
X91168280Y-92946211D01*
X90824205Y-93083948D01*
X90469549Y-93225909D01*
X90106365Y-93371270D01*
X89736704Y-93519213D01*
X89362620Y-93668914D01*
X88986163Y-93819554D01*
X88609386Y-93970311D01*
X88234341Y-94120365D01*
X87863079Y-94268893D01*
X87497652Y-94415075D01*
X87140113Y-94558090D01*
X86792514Y-94697117D01*
X86456905Y-94831335D01*
X86135340Y-94959922D01*
X85829871Y-95082058D01*
X85542548Y-95196921D01*
X85275424Y-95303691D01*
X85030552Y-95401546D01*
X84809982Y-95489665D01*
X84615767Y-95567227D01*
X84449960Y-95633411D01*
X84314610Y-95687396D01*
X84211772Y-95728361D01*
X84143497Y-95755485D01*
X84136510Y-95758251D01*
X84040270Y-95796325D01*
X83797843Y-95668404D01*
X83207349Y-95340540D01*
X82651603Y-94998625D01*
X82131875Y-94643581D01*
X81649431Y-94276330D01*
X81205539Y-93897794D01*
X80801467Y-93508894D01*
X80736750Y-93441737D01*
X80493648Y-93186608D01*
X80564032Y-93171573D01*
X80590069Y-93165704D01*
X80655786Y-93150760D01*
X80759597Y-93127104D01*
X80899913Y-93095098D01*
X81075148Y-93055105D01*
X81283715Y-93007488D01*
X81524025Y-92952609D01*
X81794492Y-92890832D01*
X82093528Y-92822518D01*
X82419546Y-92748031D01*
X82770959Y-92667733D01*
X83146179Y-92581987D01*
X83543618Y-92491156D01*
X83961691Y-92395602D01*
X84398809Y-92295688D01*
X84853384Y-92191777D01*
X85323831Y-92084231D01*
X85808560Y-91973414D01*
X86305986Y-91859687D01*
X86814520Y-91743413D01*
X87068275Y-91685391D01*
X87580892Y-91568195D01*
X88082798Y-91453480D01*
X88572429Y-91341603D01*
X89048217Y-91232922D01*
X89508598Y-91127792D01*
X89952005Y-91026571D01*
X90376873Y-90929616D01*
X90781637Y-90837282D01*
X91164730Y-90749927D01*
X91524587Y-90667908D01*
X91859642Y-90591581D01*
X92168329Y-90521303D01*
X92449083Y-90457431D01*
X92700337Y-90400321D01*
X92920527Y-90350330D01*
X93108087Y-90307815D01*
X93261450Y-90273133D01*
X93379051Y-90246640D01*
X93459324Y-90228693D01*
X93500704Y-90219648D01*
X93506330Y-90218580D01*
X93510303Y-90239883D01*
G36*
X114699053Y-91885336D02*
X114746293Y-91899820D01*
X114824452Y-91926318D01*
X114934117Y-91965051D01*
X115075876Y-92016238D01*
X115250316Y-92080098D01*
X115458025Y-92156851D01*
X115699590Y-92246716D01*
X115975599Y-92349913D01*
X116286639Y-92466661D01*
X116633297Y-92597180D01*
X117016162Y-92741689D01*
X117435820Y-92900407D01*
X117892859Y-93073554D01*
X118387866Y-93261350D01*
X118921430Y-93464014D01*
X119266539Y-93595205D01*
X119689734Y-93756125D01*
X120102886Y-93913224D01*
X120504218Y-94065827D01*
X120891955Y-94213258D01*
X121264322Y-94354843D01*
X121619542Y-94489906D01*
X121955842Y-94617773D01*
X122271444Y-94737768D01*
X122564575Y-94849217D01*
X122833458Y-94951444D01*
X123076318Y-95043775D01*
X123291379Y-95125534D01*
X123476867Y-95196047D01*
X123631005Y-95254638D01*
X123752018Y-95300632D01*
X123838132Y-95333355D01*
X123887570Y-95352131D01*
X123899084Y-95356495D01*
X123962584Y-95380392D01*
X123899383Y-95413738D01*
X123824056Y-95450782D01*
X123714594Y-95500841D01*
X123576358Y-95561693D01*
X123414709Y-95631115D01*
X123235008Y-95706886D01*
X123042615Y-95786782D01*
X122842892Y-95868583D01*
X122641199Y-95950064D01*
X122442898Y-96029005D01*
X122253349Y-96103183D01*
X122077914Y-96170375D01*
X122036417Y-96185998D01*
X121341928Y-96435991D01*
X120612771Y-96678720D01*
X119856265Y-96912347D01*
X119079726Y-97135031D01*
X118290471Y-97344930D01*
X117495818Y-97540205D01*
X116703085Y-97719016D01*
X115919588Y-97879522D01*
X115152645Y-98019882D01*
X114409573Y-98138257D01*
X114101787Y-98181594D01*
X113998823Y-98195487D01*
X114012542Y-97955702D01*
X114027167Y-97702395D01*
X114040113Y-97483872D01*
X114051880Y-97292640D01*
X114062965Y-97121207D01*
X114073868Y-96962080D01*
X114085088Y-96807765D01*
X114097123Y-96650769D01*
X114110474Y-96483601D01*
X114110955Y-96477667D01*
X114145952Y-96074805D01*
X114187984Y-95640066D01*
X114236054Y-95183135D01*
X114289168Y-94713700D01*
X114311808Y-94522884D01*
X114335570Y-94328750D01*
X114361875Y-94119968D01*
X114390164Y-93900522D01*
X114419877Y-93674396D01*
X114450457Y-93445571D01*
X114481344Y-93218033D01*
X114511980Y-92995764D01*
X114541806Y-92782748D01*
X114570263Y-92582969D01*
X114596792Y-92400409D01*
X114620836Y-92239052D01*
X114641834Y-92102882D01*
X114659229Y-91995883D01*
X114672461Y-91922036D01*
X114680973Y-91885327D01*
X114682145Y-91882648D01*
X114699053Y-91885336D01*
X114699053Y-91885336D01*
G37*
X114699053Y-91885336D02*
X114746293Y-91899820D01*
X114824452Y-91926318D01*
X114934117Y-91965051D01*
X115075876Y-92016238D01*
X115250316Y-92080098D01*
X115458025Y-92156851D01*
X115699590Y-92246716D01*
X115975599Y-92349913D01*
X116286639Y-92466661D01*
X116633297Y-92597180D01*
X117016162Y-92741689D01*
X117435820Y-92900407D01*
X117892859Y-93073554D01*
X118387866Y-93261350D01*
X118921430Y-93464014D01*
X119266539Y-93595205D01*
X119689734Y-93756125D01*
X120102886Y-93913224D01*
X120504218Y-94065827D01*
X120891955Y-94213258D01*
X121264322Y-94354843D01*
X121619542Y-94489906D01*
X121955842Y-94617773D01*
X122271444Y-94737768D01*
X122564575Y-94849217D01*
X122833458Y-94951444D01*
X123076318Y-95043775D01*
X123291379Y-95125534D01*
X123476867Y-95196047D01*
X123631005Y-95254638D01*
X123752018Y-95300632D01*
X123838132Y-95333355D01*
X123887570Y-95352131D01*
X123899084Y-95356495D01*
X123962584Y-95380392D01*
X123899383Y-95413738D01*
X123824056Y-95450782D01*
X123714594Y-95500841D01*
X123576358Y-95561693D01*
X123414709Y-95631115D01*
X123235008Y-95706886D01*
X123042615Y-95786782D01*
X122842892Y-95868583D01*
X122641199Y-95950064D01*
X122442898Y-96029005D01*
X122253349Y-96103183D01*
X122077914Y-96170375D01*
X122036417Y-96185998D01*
X121341928Y-96435991D01*
X120612771Y-96678720D01*
X119856265Y-96912347D01*
X119079726Y-97135031D01*
X118290471Y-97344930D01*
X117495818Y-97540205D01*
X116703085Y-97719016D01*
X115919588Y-97879522D01*
X115152645Y-98019882D01*
X114409573Y-98138257D01*
X114101787Y-98181594D01*
X113998823Y-98195487D01*
X114012542Y-97955702D01*
X114027167Y-97702395D01*
X114040113Y-97483872D01*
X114051880Y-97292640D01*
X114062965Y-97121207D01*
X114073868Y-96962080D01*
X114085088Y-96807765D01*
X114097123Y-96650769D01*
X114110474Y-96483601D01*
X114110955Y-96477667D01*
X114145952Y-96074805D01*
X114187984Y-95640066D01*
X114236054Y-95183135D01*
X114289168Y-94713700D01*
X114311808Y-94522884D01*
X114335570Y-94328750D01*
X114361875Y-94119968D01*
X114390164Y-93900522D01*
X114419877Y-93674396D01*
X114450457Y-93445571D01*
X114481344Y-93218033D01*
X114511980Y-92995764D01*
X114541806Y-92782748D01*
X114570263Y-92582969D01*
X114596792Y-92400409D01*
X114620836Y-92239052D01*
X114641834Y-92102882D01*
X114659229Y-91995883D01*
X114672461Y-91922036D01*
X114680973Y-91885327D01*
X114682145Y-91882648D01*
X114699053Y-91885336D01*
G36*
X94024553Y-93491951D02*
X94039426Y-93548372D01*
X94059971Y-93636172D01*
X94085046Y-93750249D01*
X94113511Y-93885504D01*
X94144223Y-94036835D01*
X94154993Y-94091134D01*
X94184419Y-94238856D01*
X94221151Y-94420806D01*
X94263713Y-94629799D01*
X94310626Y-94858652D01*
X94360415Y-95100179D01*
X94411603Y-95347197D01*
X94462712Y-95592521D01*
X94510696Y-95821500D01*
X94588192Y-96190391D01*
X94660760Y-96536389D01*
X94728050Y-96857805D01*
X94789711Y-97152950D01*
X94845393Y-97420134D01*
X94894746Y-97657669D01*
X94937420Y-97863864D01*
X94973063Y-98037031D01*
X95001326Y-98175479D01*
X95021858Y-98277520D01*
X95034309Y-98341465D01*
X95038334Y-98365465D01*
X95027847Y-98374483D01*
X94992892Y-98378416D01*
X94928222Y-98377314D01*
X94828592Y-98371228D01*
X94784334Y-98367918D01*
X93907281Y-98291159D01*
X93034011Y-98196880D01*
X92170829Y-98086011D01*
X91324038Y-97959483D01*
X90499940Y-97818227D01*
X89704840Y-97663173D01*
X89066928Y-97523628D01*
X88951564Y-97496505D01*
X88816388Y-97463831D01*
X88666696Y-97426969D01*
X88507784Y-97387284D01*
X88344948Y-97346139D01*
X88183485Y-97304899D01*
X88028691Y-97264926D01*
X87885862Y-97227585D01*
X87760294Y-97194239D01*
X87657283Y-97166253D01*
X87582125Y-97144989D01*
X87540117Y-97131813D01*
X87533192Y-97128677D01*
X87549848Y-97117489D01*
X87599640Y-97087746D01*
X87678795Y-97041618D01*
X87783535Y-96981277D01*
X87910086Y-96908892D01*
X88054672Y-96826634D01*
X88213516Y-96736673D01*
X88303877Y-96685664D01*
X88759558Y-96428708D01*
X89202434Y-96178950D01*
X89638787Y-95932846D01*
X90074897Y-95686853D01*
X90517046Y-95437427D01*
X90971516Y-95181024D01*
X91444589Y-94914102D01*
X91942545Y-94633117D01*
X92420731Y-94363269D01*
X92658888Y-94228976D01*
X92886519Y-94100823D01*
X93100926Y-93980320D01*
X93299406Y-93868974D01*
X93479259Y-93768294D01*
X93637782Y-93679789D01*
X93772276Y-93604968D01*
X93880039Y-93545339D01*
X93958370Y-93502410D01*
X94004568Y-93477691D01*
X94016492Y-93472009D01*
X94024553Y-93491951D01*
X94024553Y-93491951D01*
G37*
X94024553Y-93491951D02*
X94039426Y-93548372D01*
X94059971Y-93636172D01*
X94085046Y-93750249D01*
X94113511Y-93885504D01*
X94144223Y-94036835D01*
X94154993Y-94091134D01*
X94184419Y-94238856D01*
X94221151Y-94420806D01*
X94263713Y-94629799D01*
X94310626Y-94858652D01*
X94360415Y-95100179D01*
X94411603Y-95347197D01*
X94462712Y-95592521D01*
X94510696Y-95821500D01*
X94588192Y-96190391D01*
X94660760Y-96536389D01*
X94728050Y-96857805D01*
X94789711Y-97152950D01*
X94845393Y-97420134D01*
X94894746Y-97657669D01*
X94937420Y-97863864D01*
X94973063Y-98037031D01*
X95001326Y-98175479D01*
X95021858Y-98277520D01*
X95034309Y-98341465D01*
X95038334Y-98365465D01*
X95027847Y-98374483D01*
X94992892Y-98378416D01*
X94928222Y-98377314D01*
X94828592Y-98371228D01*
X94784334Y-98367918D01*
X93907281Y-98291159D01*
X93034011Y-98196880D01*
X92170829Y-98086011D01*
X91324038Y-97959483D01*
X90499940Y-97818227D01*
X89704840Y-97663173D01*
X89066928Y-97523628D01*
X88951564Y-97496505D01*
X88816388Y-97463831D01*
X88666696Y-97426969D01*
X88507784Y-97387284D01*
X88344948Y-97346139D01*
X88183485Y-97304899D01*
X88028691Y-97264926D01*
X87885862Y-97227585D01*
X87760294Y-97194239D01*
X87657283Y-97166253D01*
X87582125Y-97144989D01*
X87540117Y-97131813D01*
X87533192Y-97128677D01*
X87549848Y-97117489D01*
X87599640Y-97087746D01*
X87678795Y-97041618D01*
X87783535Y-96981277D01*
X87910086Y-96908892D01*
X88054672Y-96826634D01*
X88213516Y-96736673D01*
X88303877Y-96685664D01*
X88759558Y-96428708D01*
X89202434Y-96178950D01*
X89638787Y-95932846D01*
X90074897Y-95686853D01*
X90517046Y-95437427D01*
X90971516Y-95181024D01*
X91444589Y-94914102D01*
X91942545Y-94633117D01*
X92420731Y-94363269D01*
X92658888Y-94228976D01*
X92886519Y-94100823D01*
X93100926Y-93980320D01*
X93299406Y-93868974D01*
X93479259Y-93768294D01*
X93637782Y-93679789D01*
X93772276Y-93604968D01*
X93880039Y-93545339D01*
X93958370Y-93502410D01*
X94004568Y-93477691D01*
X94016492Y-93472009D01*
X94024553Y-93491951D01*
G36*
X74231329Y-91495579D02*
X74442653Y-91502174D01*
X74636451Y-91515032D01*
X74789297Y-91532423D01*
X75220732Y-91614513D01*
X75635786Y-91731611D01*
X76032176Y-91882263D01*
X76407617Y-92065016D01*
X76759824Y-92278413D01*
X77086514Y-92521002D01*
X77385401Y-92791327D01*
X77654202Y-93087934D01*
X77890632Y-93409369D01*
X77991482Y-93571253D01*
X78169000Y-93913349D01*
X78306483Y-94266582D01*
X78403901Y-94628241D01*
X78461224Y-94995617D01*
X78478422Y-95365997D01*
X78455464Y-95736674D01*
X78392320Y-96104935D01*
X78288960Y-96468071D01*
X78145354Y-96823371D01*
X78030228Y-97049167D01*
X77823841Y-97378697D01*
X77582258Y-97687386D01*
X77308216Y-97973186D01*
X77004453Y-98234049D01*
X76673705Y-98467927D01*
X76318711Y-98672772D01*
X75942207Y-98846535D01*
X75546930Y-98987168D01*
X75374500Y-99036252D01*
X74938630Y-99131259D01*
X74501915Y-99186939D01*
X74069001Y-99202873D01*
X73717812Y-99185782D01*
X73284834Y-99128635D01*
X72864143Y-99035980D01*
X72458692Y-98909269D01*
X72071430Y-98749958D01*
X71705311Y-98559499D01*
X71363284Y-98339347D01*
X71048300Y-98090954D01*
X70763312Y-97815776D01*
X70629449Y-97664372D01*
X70384015Y-97341174D01*
X70178909Y-97006204D01*
X70013349Y-96657801D01*
X69886556Y-96294307D01*
X69797748Y-95914062D01*
X69792627Y-95885000D01*
X69776291Y-95757119D01*
X69765049Y-95600445D01*
X69758998Y-95427235D01*
X69758232Y-95249745D01*
X69762845Y-95080231D01*
X69772933Y-94930950D01*
X69784531Y-94837250D01*
X69867766Y-94452821D01*
X69990516Y-94082933D01*
X70152052Y-93728990D01*
X70351646Y-93392398D01*
X70588570Y-93074559D01*
X70844140Y-92794667D01*
X71159473Y-92509970D01*
X71500592Y-92258592D01*
X71866657Y-92040940D01*
X72256826Y-91857422D01*
X72670258Y-91708446D01*
X73106113Y-91594419D01*
X73448334Y-91531911D01*
X73610981Y-91513412D01*
X73803615Y-91501193D01*
X74014357Y-91495250D01*
X74231329Y-91495579D01*
X74231329Y-91495579D01*
G37*
X74231329Y-91495579D02*
X74442653Y-91502174D01*
X74636451Y-91515032D01*
X74789297Y-91532423D01*
X75220732Y-91614513D01*
X75635786Y-91731611D01*
X76032176Y-91882263D01*
X76407617Y-92065016D01*
X76759824Y-92278413D01*
X77086514Y-92521002D01*
X77385401Y-92791327D01*
X77654202Y-93087934D01*
X77890632Y-93409369D01*
X77991482Y-93571253D01*
X78169000Y-93913349D01*
X78306483Y-94266582D01*
X78403901Y-94628241D01*
X78461224Y-94995617D01*
X78478422Y-95365997D01*
X78455464Y-95736674D01*
X78392320Y-96104935D01*
X78288960Y-96468071D01*
X78145354Y-96823371D01*
X78030228Y-97049167D01*
X77823841Y-97378697D01*
X77582258Y-97687386D01*
X77308216Y-97973186D01*
X77004453Y-98234049D01*
X76673705Y-98467927D01*
X76318711Y-98672772D01*
X75942207Y-98846535D01*
X75546930Y-98987168D01*
X75374500Y-99036252D01*
X74938630Y-99131259D01*
X74501915Y-99186939D01*
X74069001Y-99202873D01*
X73717812Y-99185782D01*
X73284834Y-99128635D01*
X72864143Y-99035980D01*
X72458692Y-98909269D01*
X72071430Y-98749958D01*
X71705311Y-98559499D01*
X71363284Y-98339347D01*
X71048300Y-98090954D01*
X70763312Y-97815776D01*
X70629449Y-97664372D01*
X70384015Y-97341174D01*
X70178909Y-97006204D01*
X70013349Y-96657801D01*
X69886556Y-96294307D01*
X69797748Y-95914062D01*
X69792627Y-95885000D01*
X69776291Y-95757119D01*
X69765049Y-95600445D01*
X69758998Y-95427235D01*
X69758232Y-95249745D01*
X69762845Y-95080231D01*
X69772933Y-94930950D01*
X69784531Y-94837250D01*
X69867766Y-94452821D01*
X69990516Y-94082933D01*
X70152052Y-93728990D01*
X70351646Y-93392398D01*
X70588570Y-93074559D01*
X70844140Y-92794667D01*
X71159473Y-92509970D01*
X71500592Y-92258592D01*
X71866657Y-92040940D01*
X72256826Y-91857422D01*
X72670258Y-91708446D01*
X73106113Y-91594419D01*
X73448334Y-91531911D01*
X73610981Y-91513412D01*
X73803615Y-91501193D01*
X74014357Y-91495250D01*
X74231329Y-91495579D01*
G36*
X137968834Y-93734048D02*
X138204650Y-93741608D01*
X138426712Y-93752892D01*
X138624069Y-93767678D01*
X138725875Y-93778116D01*
X139334727Y-93868210D01*
X139922508Y-93994524D01*
X140490784Y-94157508D01*
X141041121Y-94357612D01*
X141573250Y-94594389D01*
X141762447Y-94690843D01*
X141960709Y-94799567D01*
X142160249Y-94915748D01*
X142353276Y-95034575D01*
X142532004Y-95151235D01*
X142688642Y-95260917D01*
X142815403Y-95358809D01*
X142829185Y-95370337D01*
X142899786Y-95430047D01*
X142628102Y-95696932D01*
X142068406Y-96225172D01*
X141469694Y-96749165D01*
X140835241Y-97266541D01*
X140168323Y-97774926D01*
X139472215Y-98271950D01*
X138750192Y-98755241D01*
X138005531Y-99222427D01*
X137241506Y-99671135D01*
X136800167Y-99916869D01*
X136065608Y-100304737D01*
X135297444Y-100685283D01*
X134504263Y-101054663D01*
X133694648Y-101409034D01*
X132877187Y-101744551D01*
X132060464Y-102057370D01*
X131836584Y-102139105D01*
X131691452Y-102191533D01*
X131553453Y-102241418D01*
X131429502Y-102286256D01*
X131326518Y-102323546D01*
X131251416Y-102350783D01*
X131218307Y-102362830D01*
X131108031Y-102403104D01*
X130987930Y-102190988D01*
X130781492Y-101785210D01*
X130612853Y-101365407D01*
X130482492Y-100934773D01*
X130390883Y-100496506D01*
X130338504Y-100053801D01*
X130325831Y-99609852D01*
X130353340Y-99167857D01*
X130421509Y-98731011D01*
X130451633Y-98594334D01*
X130575102Y-98162252D01*
X130738895Y-97737312D01*
X130941207Y-97322488D01*
X131180233Y-96920753D01*
X131454170Y-96535081D01*
X131761213Y-96168445D01*
X132099557Y-95823818D01*
X132175250Y-95753764D01*
X132591688Y-95403253D01*
X133035942Y-95083766D01*
X133506286Y-94796006D01*
X134000992Y-94540676D01*
X134518333Y-94318480D01*
X135056583Y-94130119D01*
X135614015Y-93976298D01*
X136188903Y-93857720D01*
X136779518Y-93775087D01*
X137107084Y-93745461D01*
X137288390Y-93735918D01*
X137499752Y-93730982D01*
X137730217Y-93730432D01*
X137968834Y-93734048D01*
X137968834Y-93734048D01*
G37*
X137968834Y-93734048D02*
X138204650Y-93741608D01*
X138426712Y-93752892D01*
X138624069Y-93767678D01*
X138725875Y-93778116D01*
X139334727Y-93868210D01*
X139922508Y-93994524D01*
X140490784Y-94157508D01*
X141041121Y-94357612D01*
X141573250Y-94594389D01*
X141762447Y-94690843D01*
X141960709Y-94799567D01*
X142160249Y-94915748D01*
X142353276Y-95034575D01*
X142532004Y-95151235D01*
X142688642Y-95260917D01*
X142815403Y-95358809D01*
X142829185Y-95370337D01*
X142899786Y-95430047D01*
X142628102Y-95696932D01*
X142068406Y-96225172D01*
X141469694Y-96749165D01*
X140835241Y-97266541D01*
X140168323Y-97774926D01*
X139472215Y-98271950D01*
X138750192Y-98755241D01*
X138005531Y-99222427D01*
X137241506Y-99671135D01*
X136800167Y-99916869D01*
X136065608Y-100304737D01*
X135297444Y-100685283D01*
X134504263Y-101054663D01*
X133694648Y-101409034D01*
X132877187Y-101744551D01*
X132060464Y-102057370D01*
X131836584Y-102139105D01*
X131691452Y-102191533D01*
X131553453Y-102241418D01*
X131429502Y-102286256D01*
X131326518Y-102323546D01*
X131251416Y-102350783D01*
X131218307Y-102362830D01*
X131108031Y-102403104D01*
X130987930Y-102190988D01*
X130781492Y-101785210D01*
X130612853Y-101365407D01*
X130482492Y-100934773D01*
X130390883Y-100496506D01*
X130338504Y-100053801D01*
X130325831Y-99609852D01*
X130353340Y-99167857D01*
X130421509Y-98731011D01*
X130451633Y-98594334D01*
X130575102Y-98162252D01*
X130738895Y-97737312D01*
X130941207Y-97322488D01*
X131180233Y-96920753D01*
X131454170Y-96535081D01*
X131761213Y-96168445D01*
X132099557Y-95823818D01*
X132175250Y-95753764D01*
X132591688Y-95403253D01*
X133035942Y-95083766D01*
X133506286Y-94796006D01*
X134000992Y-94540676D01*
X134518333Y-94318480D01*
X135056583Y-94130119D01*
X135614015Y-93976298D01*
X136188903Y-93857720D01*
X136779518Y-93775087D01*
X137107084Y-93745461D01*
X137288390Y-93735918D01*
X137499752Y-93730982D01*
X137730217Y-93730432D01*
X137968834Y-93734048D01*
G36*
X102595291Y-100960582D02*
X103048120Y-101018299D01*
X103495963Y-101116018D01*
X103935857Y-101253841D01*
X104076500Y-101307239D01*
X104320211Y-101410893D01*
X104549441Y-101524141D01*
X104778533Y-101654577D01*
X105007834Y-101800488D01*
X105367750Y-102063612D01*
X105697471Y-102353915D01*
X105995978Y-102668998D01*
X106262254Y-103006461D01*
X106495281Y-103363904D01*
X106694040Y-103738928D01*
X106857513Y-104129133D01*
X106984682Y-104532120D01*
X107074529Y-104945489D01*
X107126036Y-105366839D01*
X107138186Y-105793773D01*
X107109958Y-106223889D01*
X107049164Y-106611864D01*
X106942896Y-107037171D01*
X106799476Y-107444841D01*
X106620878Y-107833411D01*
X106409071Y-108201420D01*
X106166026Y-108547403D01*
X105893716Y-108869899D01*
X105594111Y-109167444D01*
X105269183Y-109438575D01*
X104920902Y-109681831D01*
X104551240Y-109895747D01*
X104162168Y-110078862D01*
X103755658Y-110229712D01*
X103333680Y-110346834D01*
X102898205Y-110428766D01*
X102451205Y-110474045D01*
X101994651Y-110481208D01*
X101843417Y-110475024D01*
X101683443Y-110461584D01*
X101498038Y-110438425D01*
X101302356Y-110407863D01*
X101111552Y-110372216D01*
X100975584Y-110342306D01*
X100686070Y-110265552D01*
X100416918Y-110176779D01*
X100150432Y-110069618D01*
X99917250Y-109961493D01*
X99548140Y-109764649D01*
X99211187Y-109548741D01*
X98898380Y-109308071D01*
X98601709Y-109036939D01*
X98562584Y-108997819D01*
X98259648Y-108662740D01*
X97992783Y-108306438D01*
X97762748Y-107930461D01*
X97570304Y-107536358D01*
X97416209Y-107125675D01*
X97301224Y-106699962D01*
X97228347Y-106278653D01*
X97209921Y-106079666D01*
X97200769Y-105855524D01*
X97200609Y-105618988D01*
X97209161Y-105382818D01*
X97226142Y-105159774D01*
X97251272Y-104962616D01*
X97258241Y-104921908D01*
X97358675Y-104483565D01*
X97497772Y-104062219D01*
X97675025Y-103658811D01*
X97889927Y-103274283D01*
X98141970Y-102909577D01*
X98430648Y-102565634D01*
X98646460Y-102345203D01*
X98902756Y-102112622D01*
X99158983Y-101909767D01*
X99426608Y-101728689D01*
X99717096Y-101561437D01*
X99939501Y-101448661D01*
X100360034Y-101268490D01*
X100793357Y-101127713D01*
X101236507Y-101026433D01*
X101686521Y-100964750D01*
X102140437Y-100942766D01*
X102595291Y-100960582D01*
X102595291Y-100960582D01*
G37*
X102595291Y-100960582D02*
X103048120Y-101018299D01*
X103495963Y-101116018D01*
X103935857Y-101253841D01*
X104076500Y-101307239D01*
X104320211Y-101410893D01*
X104549441Y-101524141D01*
X104778533Y-101654577D01*
X105007834Y-101800488D01*
X105367750Y-102063612D01*
X105697471Y-102353915D01*
X105995978Y-102668998D01*
X106262254Y-103006461D01*
X106495281Y-103363904D01*
X106694040Y-103738928D01*
X106857513Y-104129133D01*
X106984682Y-104532120D01*
X107074529Y-104945489D01*
X107126036Y-105366839D01*
X107138186Y-105793773D01*
X107109958Y-106223889D01*
X107049164Y-106611864D01*
X106942896Y-107037171D01*
X106799476Y-107444841D01*
X106620878Y-107833411D01*
X106409071Y-108201420D01*
X106166026Y-108547403D01*
X105893716Y-108869899D01*
X105594111Y-109167444D01*
X105269183Y-109438575D01*
X104920902Y-109681831D01*
X104551240Y-109895747D01*
X104162168Y-110078862D01*
X103755658Y-110229712D01*
X103333680Y-110346834D01*
X102898205Y-110428766D01*
X102451205Y-110474045D01*
X101994651Y-110481208D01*
X101843417Y-110475024D01*
X101683443Y-110461584D01*
X101498038Y-110438425D01*
X101302356Y-110407863D01*
X101111552Y-110372216D01*
X100975584Y-110342306D01*
X100686070Y-110265552D01*
X100416918Y-110176779D01*
X100150432Y-110069618D01*
X99917250Y-109961493D01*
X99548140Y-109764649D01*
X99211187Y-109548741D01*
X98898380Y-109308071D01*
X98601709Y-109036939D01*
X98562584Y-108997819D01*
X98259648Y-108662740D01*
X97992783Y-108306438D01*
X97762748Y-107930461D01*
X97570304Y-107536358D01*
X97416209Y-107125675D01*
X97301224Y-106699962D01*
X97228347Y-106278653D01*
X97209921Y-106079666D01*
X97200769Y-105855524D01*
X97200609Y-105618988D01*
X97209161Y-105382818D01*
X97226142Y-105159774D01*
X97251272Y-104962616D01*
X97258241Y-104921908D01*
X97358675Y-104483565D01*
X97497772Y-104062219D01*
X97675025Y-103658811D01*
X97889927Y-103274283D01*
X98141970Y-102909577D01*
X98430648Y-102565634D01*
X98646460Y-102345203D01*
X98902756Y-102112622D01*
X99158983Y-101909767D01*
X99426608Y-101728689D01*
X99717096Y-101561437D01*
X99939501Y-101448661D01*
X100360034Y-101268490D01*
X100793357Y-101127713D01*
X101236507Y-101026433D01*
X101686521Y-100964750D01*
X102140437Y-100942766D01*
X102595291Y-100960582D01*
G36*
X117097270Y-112093975D02*
X117098059Y-112094569D01*
X117107855Y-112118132D01*
X117127710Y-112176684D01*
X117155840Y-112264573D01*
X117190461Y-112376146D01*
X117229787Y-112505749D01*
X117263034Y-112617250D01*
X117648276Y-113981453D01*
X117994683Y-115339016D01*
X118302052Y-116688884D01*
X118570178Y-118030001D01*
X118798856Y-119361311D01*
X118987882Y-120681760D01*
X119137050Y-121990293D01*
X119188488Y-122544417D01*
X119200302Y-122686954D01*
X119212616Y-122846019D01*
X119225116Y-123016531D01*
X119237489Y-123193411D01*
X119249421Y-123371581D01*
X119260598Y-123545961D01*
X119270706Y-123711472D01*
X119279433Y-123863034D01*
X119286463Y-123995569D01*
X119291485Y-124103998D01*
X119294183Y-124183241D01*
X119294244Y-124228218D01*
X119292992Y-124236564D01*
X119266037Y-124246614D01*
X119205000Y-124261223D01*
X119117710Y-124278993D01*
X119011996Y-124298524D01*
X118895688Y-124318418D01*
X118776615Y-124337276D01*
X118662606Y-124353699D01*
X118576488Y-124364588D01*
X118369647Y-124385330D01*
X118172748Y-124397720D01*
X117971645Y-124402167D01*
X117752194Y-124399082D01*
X117591417Y-124393162D01*
X117125551Y-124352372D01*
X116657401Y-124271625D01*
X116192920Y-124152492D01*
X115738059Y-123996539D01*
X115298772Y-123805337D01*
X115227714Y-123770266D01*
X114787284Y-123525983D01*
X114373032Y-123249714D01*
X113986010Y-122943544D01*
X113627272Y-122609558D01*
X113297871Y-122249840D01*
X112998858Y-121866476D01*
X112731286Y-121461549D01*
X112496209Y-121037146D01*
X112294678Y-120595351D01*
X112127747Y-120138248D01*
X111996468Y-119667923D01*
X111901893Y-119186459D01*
X111845076Y-118695943D01*
X111827069Y-118198459D01*
X111848924Y-117696092D01*
X111910230Y-117199834D01*
X112013261Y-116699012D01*
X112155494Y-116211796D01*
X112335682Y-115740291D01*
X112552578Y-115286602D01*
X112804934Y-114852834D01*
X113091505Y-114441092D01*
X113411042Y-114053481D01*
X113762300Y-113692107D01*
X114144030Y-113359075D01*
X114221261Y-113298121D01*
X114608107Y-113022464D01*
X115020751Y-112774816D01*
X115452086Y-112558736D01*
X115895004Y-112377786D01*
X116342398Y-112235525D01*
X116342584Y-112235474D01*
X116449901Y-112208004D01*
X116568241Y-112180581D01*
X116690237Y-112154580D01*
X116808525Y-112131373D01*
X116915738Y-112112336D01*
X117004510Y-112098841D01*
X117067476Y-112092263D01*
X117097270Y-112093975D01*
X117097270Y-112093975D01*
G37*
X117097270Y-112093975D02*
X117098059Y-112094569D01*
X117107855Y-112118132D01*
X117127710Y-112176684D01*
X117155840Y-112264573D01*
X117190461Y-112376146D01*
X117229787Y-112505749D01*
X117263034Y-112617250D01*
X117648276Y-113981453D01*
X117994683Y-115339016D01*
X118302052Y-116688884D01*
X118570178Y-118030001D01*
X118798856Y-119361311D01*
X118987882Y-120681760D01*
X119137050Y-121990293D01*
X119188488Y-122544417D01*
X119200302Y-122686954D01*
X119212616Y-122846019D01*
X119225116Y-123016531D01*
X119237489Y-123193411D01*
X119249421Y-123371581D01*
X119260598Y-123545961D01*
X119270706Y-123711472D01*
X119279433Y-123863034D01*
X119286463Y-123995569D01*
X119291485Y-124103998D01*
X119294183Y-124183241D01*
X119294244Y-124228218D01*
X119292992Y-124236564D01*
X119266037Y-124246614D01*
X119205000Y-124261223D01*
X119117710Y-124278993D01*
X119011996Y-124298524D01*
X118895688Y-124318418D01*
X118776615Y-124337276D01*
X118662606Y-124353699D01*
X118576488Y-124364588D01*
X118369647Y-124385330D01*
X118172748Y-124397720D01*
X117971645Y-124402167D01*
X117752194Y-124399082D01*
X117591417Y-124393162D01*
X117125551Y-124352372D01*
X116657401Y-124271625D01*
X116192920Y-124152492D01*
X115738059Y-123996539D01*
X115298772Y-123805337D01*
X115227714Y-123770266D01*
X114787284Y-123525983D01*
X114373032Y-123249714D01*
X113986010Y-122943544D01*
X113627272Y-122609558D01*
X113297871Y-122249840D01*
X112998858Y-121866476D01*
X112731286Y-121461549D01*
X112496209Y-121037146D01*
X112294678Y-120595351D01*
X112127747Y-120138248D01*
X111996468Y-119667923D01*
X111901893Y-119186459D01*
X111845076Y-118695943D01*
X111827069Y-118198459D01*
X111848924Y-117696092D01*
X111910230Y-117199834D01*
X112013261Y-116699012D01*
X112155494Y-116211796D01*
X112335682Y-115740291D01*
X112552578Y-115286602D01*
X112804934Y-114852834D01*
X113091505Y-114441092D01*
X113411042Y-114053481D01*
X113762300Y-113692107D01*
X114144030Y-113359075D01*
X114221261Y-113298121D01*
X114608107Y-113022464D01*
X115020751Y-112774816D01*
X115452086Y-112558736D01*
X115895004Y-112377786D01*
X116342398Y-112235525D01*
X116342584Y-112235474D01*
X116449901Y-112208004D01*
X116568241Y-112180581D01*
X116690237Y-112154580D01*
X116808525Y-112131373D01*
X116915738Y-112112336D01*
X117004510Y-112098841D01*
X117067476Y-112092263D01*
X117097270Y-112093975D01*
G36*
X92678250Y-119345071D02*
X93101811Y-119371139D01*
X93502965Y-119424461D01*
X93890240Y-119507179D01*
X94272167Y-119621435D01*
X94657275Y-119769369D01*
X95006584Y-119929605D01*
X95442609Y-120167046D01*
X95858735Y-120440758D01*
X96253552Y-120748929D01*
X96625651Y-121089750D01*
X96973621Y-121461408D01*
X97296052Y-121862092D01*
X97591536Y-122289992D01*
X97858662Y-122743296D01*
X98096020Y-123220193D01*
X98302201Y-123718872D01*
X98475795Y-124237522D01*
X98541224Y-124470584D01*
X98613253Y-124772074D01*
X98678452Y-125104169D01*
X98734666Y-125455401D01*
X98756065Y-125613584D01*
X98771583Y-125769124D01*
X98783371Y-125957468D01*
X98791426Y-126169575D01*
X98795749Y-126396404D01*
X98796337Y-126628917D01*
X98793189Y-126858072D01*
X98786302Y-127074831D01*
X98775676Y-127270153D01*
X98761309Y-127434999D01*
X98756387Y-127476250D01*
X98680093Y-127977447D01*
X98583349Y-128448110D01*
X98463843Y-128895957D01*
X98319264Y-129328706D01*
X98147298Y-129754075D01*
X97947707Y-130175691D01*
X97686085Y-130649096D01*
X97395320Y-131094669D01*
X97076727Y-131511064D01*
X96731625Y-131896938D01*
X96361330Y-132250945D01*
X95967159Y-132571741D01*
X95550428Y-132857982D01*
X95112456Y-133108323D01*
X95038334Y-133146039D01*
X94598735Y-133345923D01*
X94159803Y-133504939D01*
X93717470Y-133624285D01*
X93267672Y-133705162D01*
X93060866Y-133729412D01*
X92895687Y-133741141D01*
X92702099Y-133747578D01*
X92493678Y-133748836D01*
X92284001Y-133745026D01*
X92086647Y-133736261D01*
X91915191Y-133722654D01*
X91888293Y-133719718D01*
X91432069Y-133647029D01*
X90974595Y-133534172D01*
X90521506Y-133382745D01*
X90141747Y-133223851D01*
X90058159Y-133183754D01*
X89961740Y-133134795D01*
X89860926Y-133081582D01*
X89764154Y-133028726D01*
X89679862Y-132980835D01*
X89616486Y-132942519D01*
X89582464Y-132918388D01*
X89582248Y-132918184D01*
X89570028Y-132891450D01*
X89549441Y-132829311D01*
X89522136Y-132737491D01*
X89489764Y-132621716D01*
X89453975Y-132487711D01*
X89419647Y-132354034D01*
X89198394Y-131398932D01*
X89018387Y-130451968D01*
X88879609Y-129511832D01*
X88782042Y-128577215D01*
X88725666Y-127646806D01*
X88710462Y-126719296D01*
X88736414Y-125793375D01*
X88803501Y-124867732D01*
X88911707Y-123941058D01*
X89061011Y-123012043D01*
X89251396Y-122079377D01*
X89273235Y-121983500D01*
X89312789Y-121816096D01*
X89358475Y-121630483D01*
X89408707Y-121432495D01*
X89461897Y-121227966D01*
X89516459Y-121022730D01*
X89570804Y-120822620D01*
X89623346Y-120633471D01*
X89672497Y-120461116D01*
X89716670Y-120311390D01*
X89754277Y-120190125D01*
X89783732Y-120103157D01*
X89787855Y-120092095D01*
X89819170Y-120054684D01*
X89885691Y-120007008D01*
X89982212Y-119951404D01*
X90103524Y-119890209D01*
X90244420Y-119825760D01*
X90399694Y-119760396D01*
X90564137Y-119696452D01*
X90732542Y-119636267D01*
X90899701Y-119582178D01*
X90970891Y-119561092D01*
X91358450Y-119462312D01*
X91731812Y-119394001D01*
X92104309Y-119354472D01*
X92489279Y-119342038D01*
X92678250Y-119345071D01*
X92678250Y-119345071D01*
G37*
X92678250Y-119345071D02*
X93101811Y-119371139D01*
X93502965Y-119424461D01*
X93890240Y-119507179D01*
X94272167Y-119621435D01*
X94657275Y-119769369D01*
X95006584Y-119929605D01*
X95442609Y-120167046D01*
X95858735Y-120440758D01*
X96253552Y-120748929D01*
X96625651Y-121089750D01*
X96973621Y-121461408D01*
X97296052Y-121862092D01*
X97591536Y-122289992D01*
X97858662Y-122743296D01*
X98096020Y-123220193D01*
X98302201Y-123718872D01*
X98475795Y-124237522D01*
X98541224Y-124470584D01*
X98613253Y-124772074D01*
X98678452Y-125104169D01*
X98734666Y-125455401D01*
X98756065Y-125613584D01*
X98771583Y-125769124D01*
X98783371Y-125957468D01*
X98791426Y-126169575D01*
X98795749Y-126396404D01*
X98796337Y-126628917D01*
X98793189Y-126858072D01*
X98786302Y-127074831D01*
X98775676Y-127270153D01*
X98761309Y-127434999D01*
X98756387Y-127476250D01*
X98680093Y-127977447D01*
X98583349Y-128448110D01*
X98463843Y-128895957D01*
X98319264Y-129328706D01*
X98147298Y-129754075D01*
X97947707Y-130175691D01*
X97686085Y-130649096D01*
X97395320Y-131094669D01*
X97076727Y-131511064D01*
X96731625Y-131896938D01*
X96361330Y-132250945D01*
X95967159Y-132571741D01*
X95550428Y-132857982D01*
X95112456Y-133108323D01*
X95038334Y-133146039D01*
X94598735Y-133345923D01*
X94159803Y-133504939D01*
X93717470Y-133624285D01*
X93267672Y-133705162D01*
X93060866Y-133729412D01*
X92895687Y-133741141D01*
X92702099Y-133747578D01*
X92493678Y-133748836D01*
X92284001Y-133745026D01*
X92086647Y-133736261D01*
X91915191Y-133722654D01*
X91888293Y-133719718D01*
X91432069Y-133647029D01*
X90974595Y-133534172D01*
X90521506Y-133382745D01*
X90141747Y-133223851D01*
X90058159Y-133183754D01*
X89961740Y-133134795D01*
X89860926Y-133081582D01*
X89764154Y-133028726D01*
X89679862Y-132980835D01*
X89616486Y-132942519D01*
X89582464Y-132918388D01*
X89582248Y-132918184D01*
X89570028Y-132891450D01*
X89549441Y-132829311D01*
X89522136Y-132737491D01*
X89489764Y-132621716D01*
X89453975Y-132487711D01*
X89419647Y-132354034D01*
X89198394Y-131398932D01*
X89018387Y-130451968D01*
X88879609Y-129511832D01*
X88782042Y-128577215D01*
X88725666Y-127646806D01*
X88710462Y-126719296D01*
X88736414Y-125793375D01*
X88803501Y-124867732D01*
X88911707Y-123941058D01*
X89061011Y-123012043D01*
X89251396Y-122079377D01*
X89273235Y-121983500D01*
X89312789Y-121816096D01*
X89358475Y-121630483D01*
X89408707Y-121432495D01*
X89461897Y-121227966D01*
X89516459Y-121022730D01*
X89570804Y-120822620D01*
X89623346Y-120633471D01*
X89672497Y-120461116D01*
X89716670Y-120311390D01*
X89754277Y-120190125D01*
X89783732Y-120103157D01*
X89787855Y-120092095D01*
X89819170Y-120054684D01*
X89885691Y-120007008D01*
X89982212Y-119951404D01*
X90103524Y-119890209D01*
X90244420Y-119825760D01*
X90399694Y-119760396D01*
X90564137Y-119696452D01*
X90732542Y-119636267D01*
X90899701Y-119582178D01*
X90970891Y-119561092D01*
X91358450Y-119462312D01*
X91731812Y-119394001D01*
X92104309Y-119354472D01*
X92489279Y-119342038D01*
X92678250Y-119345071D01*
G04 #@! TD*
D11*
G04 #@! TO.P,J1,1*
G04 #@! TO.N,A0*
X95250000Y-48260000D03*
G04 #@! TD*
G04 #@! TO.P,J2,1*
G04 #@! TO.N,D5*
X97790000Y-68580000D03*
G04 #@! TD*
G04 #@! TO.P,J3,1*
G04 #@! TO.N,A1*
X111760000Y-55880000D03*
G04 #@! TD*
G04 #@! TO.P,J4,1*
G04 #@! TO.N,D6*
X91948000Y-88138000D03*
G04 #@! TD*
G04 #@! TO.P,J5,1*
G04 #@! TO.N,A2*
X130810000Y-64770000D03*
G04 #@! TD*
G04 #@! TO.P,J6,1*
G04 #@! TO.N,D7*
X115951000Y-81153000D03*
G04 #@! TD*
G04 #@! TO.P,J7,1*
G04 #@! TO.N,A3*
X138430000Y-78740000D03*
G04 #@! TD*
G04 #@! TO.P,J8,1*
G04 #@! TO.N,D8*
X92329000Y-84201000D03*
G04 #@! TD*
G04 #@! TO.P,J9,1*
G04 #@! TO.N,A4*
X135890000Y-95250000D03*
G04 #@! TD*
G04 #@! TO.P,J10,1*
G04 #@! TO.N,D9*
X94361000Y-80518000D03*
G04 #@! TD*
G04 #@! TO.P,J11,1*
G04 #@! TO.N,A5*
X114300000Y-116840000D03*
G04 #@! TD*
G04 #@! TO.P,J12,1*
G04 #@! TO.N,D10*
X98171000Y-77470000D03*
G04 #@! TD*
G04 #@! TO.P,J13,1*
G04 #@! TO.N,D0*
X76200000Y-95250000D03*
G04 #@! TD*
G04 #@! TO.P,J14,1*
G04 #@! TO.N,D11*
X111125000Y-77851000D03*
G04 #@! TD*
G04 #@! TO.P,J15,1*
G04 #@! TO.N,D1*
X64770000Y-82550000D03*
G04 #@! TD*
G04 #@! TO.P,J16,1*
G04 #@! TO.N,D12*
X91059000Y-91948000D03*
G04 #@! TD*
G04 #@! TO.P,J17,1*
G04 #@! TO.N,D2*
X92710000Y-121920000D03*
G04 #@! TD*
G04 #@! TO.P,J18,1*
G04 #@! TO.N,D13*
X104267000Y-77089000D03*
G04 #@! TD*
G04 #@! TO.P,J19,1*
G04 #@! TO.N,D3*
X102870000Y-102870000D03*
G04 #@! TD*
G04 #@! TO.P,J20,1*
G04 #@! TO.N,D17*
X116840000Y-85852000D03*
G04 #@! TD*
G04 #@! TO.P,J21,1*
G04 #@! TO.N,D4*
X78740000Y-67310000D03*
G04 #@! TD*
G04 #@! TO.P,J22,1*
G04 #@! TO.N,MISO*
X116840000Y-89408000D03*
G04 #@! TD*
G04 #@! TO.P,J24,1*
G04 #@! TO.N,MOSI*
X115316000Y-93980000D03*
G04 #@! TD*
G04 #@! TO.P,J25,1*
G04 #@! TO.N,RX_LED*
X92964000Y-96520000D03*
G04 #@! TD*
D12*
G04 #@! TO.N,GND*
X100584000Y-134112000D03*
X109347000Y-126365000D03*
X105283000Y-93472000D03*
X105283000Y-88646000D03*
X107827653Y-82173653D03*
G04 #@! TO.N,Net-(C2-Pad1)*
X100965000Y-117983000D03*
X104140000Y-111760000D03*
G04 #@! TO.N,Net-(C3-Pad1)*
X112060010Y-99695000D03*
X114427000Y-99695000D03*
G04 #@! TO.N,Net-(C4-Pad1)*
X111760000Y-112268000D03*
X106426000Y-89408000D03*
X106426000Y-98425004D03*
X110490000Y-98425002D03*
G04 #@! TO.N,+5V*
X98552000Y-99441000D03*
X101092000Y-91186000D03*
X106717000Y-101346000D03*
X103124006Y-99949000D03*
X108839000Y-82042000D03*
X108585000Y-85852000D03*
G04 #@! TO.N,A0*
X96520000Y-52070000D03*
G04 #@! TO.N,D5*
X95250000Y-71120000D03*
G04 #@! TO.N,A1*
X109220000Y-58420000D03*
G04 #@! TO.N,D6*
X97155000Y-90043000D03*
G04 #@! TO.N,A2*
X125730000Y-64770000D03*
G04 #@! TO.N,D7*
X110363000Y-84328000D03*
G04 #@! TO.N,A3*
X135890000Y-74930000D03*
G04 #@! TO.N,D8*
X97155000Y-88773000D03*
G04 #@! TO.N,A4*
X135890000Y-91440000D03*
G04 #@! TO.N,D9*
X97096153Y-87688847D03*
G04 #@! TO.N,A5*
X113284000Y-113030000D03*
G04 #@! TO.N,D10*
X100584000Y-87757000D03*
G04 #@! TO.N,D0*
X80010000Y-96520000D03*
G04 #@! TO.N,D11*
X108675010Y-93091000D03*
G04 #@! TO.N,D1*
X69850000Y-83820000D03*
G04 #@! TO.N,D12*
X97155000Y-91059000D03*
G04 #@! TO.N,D2*
X92710000Y-118110000D03*
G04 #@! TO.N,D13*
X97245000Y-85598000D03*
G04 #@! TO.N,D3*
X103759000Y-93345000D03*
G04 #@! TO.N,D17*
X112268000Y-88683000D03*
G04 #@! TO.N,D4*
X78740000Y-69850000D03*
G04 #@! TO.N,MISO*
X110109000Y-94996000D03*
X109601000Y-112395000D03*
X103378000Y-117348000D03*
X106553000Y-114300002D03*
G04 #@! TO.N,RESET*
X109728000Y-120269000D03*
X110363000Y-106934000D03*
G04 #@! TO.N,D+*
X103124000Y-128778000D03*
X107696000Y-87630000D03*
G04 #@! TO.N,D-*
X105664000Y-128778000D03*
X108838996Y-86995000D03*
G04 #@! TO.N,Net-(R5-Pad1)*
X100457000Y-85979000D03*
X106553000Y-99822000D03*
G04 #@! TO.N,RX_LED*
X99441000Y-95250000D03*
X105537000Y-118364000D03*
G04 #@! TO.N,SCK*
X108839000Y-114046000D03*
X112014000Y-94742000D03*
X112288721Y-91621474D03*
X108839000Y-97155000D03*
G04 #@! TO.N,MOSI*
X112014000Y-92583000D03*
G04 #@! TD*
D13*
G04 #@! TO.N,GND*
X100584000Y-134112000D02*
X101600000Y-134112000D01*
X101600000Y-134112000D02*
X109347000Y-126365000D01*
X105283000Y-93472000D02*
X105283000Y-88646000D01*
X105283000Y-88646000D02*
X105283000Y-84718306D01*
X105283000Y-84718306D02*
X107827653Y-82173653D01*
G04 #@! TO.N,Net-(C2-Pad1)*
X100965000Y-117983000D02*
X104140000Y-114808000D01*
X104140000Y-114808000D02*
X104140000Y-111760000D01*
G04 #@! TO.N,Net-(C3-Pad1)*
X112060010Y-99695000D02*
X114427000Y-99695000D01*
G04 #@! TO.N,Net-(C4-Pad1)*
X106426000Y-89973685D02*
X106426000Y-98425004D01*
X106426000Y-89408000D02*
X106426000Y-89973685D01*
X110889999Y-98825001D02*
X110490000Y-98425002D01*
X111252000Y-99187002D02*
X110889999Y-98825001D01*
X111760000Y-112268000D02*
X111252000Y-111760000D01*
X111252000Y-111760000D02*
X111252000Y-99187002D01*
G04 #@! TO.N,+5V*
X98552000Y-99441000D02*
X101092000Y-96901000D01*
X101092000Y-96901000D02*
X101092000Y-91186000D01*
X103759000Y-99949000D02*
X103124006Y-99949000D01*
X106717000Y-101346000D02*
X105156000Y-101346000D01*
X105156000Y-101346000D02*
X103759000Y-99949000D01*
X108839000Y-82042000D02*
X108839000Y-85598000D01*
X108839000Y-85598000D02*
X108585000Y-85852000D01*
G04 #@! TO.N,A0*
X95250000Y-50800000D02*
X95250000Y-48260000D01*
X96520000Y-52070000D02*
X95250000Y-50800000D01*
G04 #@! TO.N,D5*
X95250000Y-71120000D02*
X97790000Y-68580000D01*
G04 #@! TO.N,A1*
X109220000Y-58420000D02*
X111760000Y-55880000D01*
G04 #@! TO.N,D6*
X95250000Y-88138000D02*
X91948000Y-88138000D01*
X97155000Y-90043000D02*
X95250000Y-88138000D01*
G04 #@! TO.N,A2*
X125730000Y-64770000D02*
X130810000Y-64770000D01*
G04 #@! TO.N,D7*
X113538000Y-81153000D02*
X115951000Y-81153000D01*
X110363000Y-84328000D02*
X113538000Y-81153000D01*
G04 #@! TO.N,A3*
X138430000Y-77470000D02*
X138430000Y-78740000D01*
X135890000Y-74930000D02*
X138430000Y-77470000D01*
G04 #@! TO.N,D8*
X93344999Y-84962999D02*
X94615000Y-86233000D01*
X92329000Y-84201000D02*
X93090999Y-84962999D01*
X97155000Y-88773000D02*
X94615000Y-86233000D01*
X93090999Y-84962999D02*
X93344999Y-84962999D01*
X94615000Y-86233000D02*
X94488000Y-86106000D01*
G04 #@! TO.N,A4*
X135890000Y-91440000D02*
X135890000Y-95250000D01*
G04 #@! TO.N,D9*
X97096153Y-87688847D02*
X95758000Y-86350694D01*
X94361000Y-80518000D02*
X95758000Y-81915000D01*
X95758000Y-81915000D02*
X95758000Y-82550000D01*
X95758000Y-86350694D02*
X95758000Y-82550000D01*
X95758000Y-82550000D02*
X95758000Y-82296000D01*
G04 #@! TO.N,A5*
X113538001Y-116078001D02*
X114300000Y-116840000D01*
X113284000Y-115824000D02*
X113538001Y-116078001D01*
X113284000Y-113030000D02*
X113284000Y-115824000D01*
G04 #@! TO.N,D10*
X97348308Y-86868000D02*
X96911716Y-86868000D01*
X100584000Y-87757000D02*
X98237308Y-87757000D01*
X98237308Y-87757000D02*
X97348308Y-86868000D01*
X96911716Y-86868000D02*
X96520000Y-86476284D01*
X96520000Y-86476284D02*
X96520000Y-82677000D01*
X98171000Y-81026000D02*
X98171000Y-77470000D01*
X96520000Y-82677000D02*
X98171000Y-81026000D01*
G04 #@! TO.N,D0*
X77470000Y-96520000D02*
X76200000Y-95250000D01*
X80010000Y-96520000D02*
X77470000Y-96520000D01*
G04 #@! TO.N,D11*
X109595990Y-86325468D02*
X109905514Y-86634992D01*
X108675010Y-88569287D02*
X108675010Y-92525315D01*
X109905514Y-87338783D02*
X108675010Y-88569287D01*
X111125000Y-77851000D02*
X109595990Y-79380010D01*
X109905514Y-86634992D02*
X109905514Y-87338783D01*
X109595990Y-79380010D02*
X109595990Y-86325468D01*
X108675010Y-92525315D02*
X108675010Y-93091000D01*
G04 #@! TO.N,D1*
X68580000Y-82550000D02*
X64770000Y-82550000D01*
X69850000Y-83820000D02*
X68580000Y-82550000D01*
G04 #@! TO.N,D12*
X91948000Y-91059000D02*
X91059000Y-91948000D01*
X97155000Y-91059000D02*
X91948000Y-91059000D01*
G04 #@! TO.N,D2*
X92710000Y-118110000D02*
X92710000Y-121920000D01*
G04 #@! TO.N,D13*
X97245000Y-83095000D02*
X97245000Y-83349000D01*
X97245000Y-83349000D02*
X97245000Y-85598000D01*
X99822000Y-80518000D02*
X97245000Y-83095000D01*
X104267000Y-78166630D02*
X101915630Y-80518000D01*
X101915630Y-80518000D02*
X99822000Y-80518000D01*
X104267000Y-77089000D02*
X104267000Y-78166630D01*
G04 #@! TO.N,D3*
X101854000Y-101854000D02*
X102870000Y-102870000D01*
X103759000Y-93345000D02*
X101854000Y-95250000D01*
X101854000Y-95250000D02*
X101854000Y-101854000D01*
G04 #@! TO.N,D17*
X114681000Y-86233000D02*
X115062000Y-85852000D01*
X115062000Y-85852000D02*
X115762370Y-85852000D01*
X114681000Y-88011000D02*
X114681000Y-86233000D01*
X114009000Y-88683000D02*
X114681000Y-88011000D01*
X115762370Y-85852000D02*
X116840000Y-85852000D01*
X112268000Y-88683000D02*
X114009000Y-88683000D01*
G04 #@! TO.N,D4*
X78740000Y-69850000D02*
X78740000Y-67310000D01*
G04 #@! TO.N,MISO*
X115443000Y-89408000D02*
X116840000Y-89408000D01*
X110109000Y-94996000D02*
X110109000Y-90170000D01*
X110871000Y-89408000D02*
X116840000Y-89408000D01*
X110109000Y-90170000D02*
X110871000Y-89408000D01*
X109601000Y-95504000D02*
X110109000Y-94996000D01*
X109601000Y-112395000D02*
X109601000Y-95504000D01*
X106425998Y-114300002D02*
X106553000Y-114300002D01*
X103378000Y-117348000D02*
X106425998Y-114300002D01*
G04 #@! TO.N,RESET*
X110363000Y-112706002D02*
X110363000Y-106934000D01*
X109728000Y-120269000D02*
X110363000Y-119634000D01*
X110363000Y-119634000D02*
X110363000Y-112706002D01*
G04 #@! TO.N,D+*
X103124000Y-128778000D02*
X107442000Y-124460000D01*
X107442000Y-124460000D02*
X107442000Y-87884000D01*
X107442000Y-87884000D02*
X107696000Y-87630000D01*
G04 #@! TO.N,D-*
X107949998Y-126492002D02*
X107949998Y-88451098D01*
X105664000Y-128778000D02*
X107949998Y-126492002D01*
X108838996Y-87560685D02*
X108838996Y-86995000D01*
X107949998Y-88451098D02*
X108838996Y-87562100D01*
X108838996Y-87562100D02*
X108838996Y-87560685D01*
G04 #@! TO.N,Net-(R5-Pad1)*
X100856999Y-86378999D02*
X100457000Y-85979000D01*
X104484001Y-90006001D02*
X100856999Y-86378999D01*
X104484001Y-97753001D02*
X104484001Y-90006001D01*
X106553000Y-99822000D02*
X104484001Y-97753001D01*
G04 #@! TO.N,RX_LED*
X98171000Y-96520000D02*
X99441000Y-95250000D01*
X105137001Y-118763999D02*
X100672997Y-118763999D01*
X105537000Y-118364000D02*
X105137001Y-118763999D01*
X96266000Y-114357002D02*
X96266000Y-96520000D01*
X100672997Y-118763999D02*
X96266000Y-114357002D01*
X92964000Y-96520000D02*
X96266000Y-96520000D01*
X96266000Y-96520000D02*
X98171000Y-96520000D01*
G04 #@! TO.N,SCK*
X111902524Y-91621474D02*
X112288721Y-91621474D01*
X111288999Y-92234999D02*
X111902524Y-91621474D01*
X112014000Y-94742000D02*
X111288999Y-94016999D01*
X111288999Y-94016999D02*
X111288999Y-92234999D01*
X108839000Y-114046000D02*
X108839000Y-97155000D01*
G04 #@! TO.N,MOSI*
X113919000Y-92583000D02*
X115316000Y-93980000D01*
X112014000Y-92583000D02*
X113919000Y-92583000D01*
G04 #@! TD*
M02*
